<svg width="20" height="20" viewBox="0 0 20 20" fill="none" xmlns="http://www.w3.org/2000/svg">
<path d="M8.54172 9.375H0.625C0.279999 9.375 0 9.095 0 8.75C0 8.405 0.279999 8.125 0.625 8.125H8.54172C8.88672 8.125 9.16672 8.405 9.16672 8.75C9.16672 9.095 8.88672 9.375 8.54172 9.375Z" fill="white"/>
<path d="M5.41672 12.5001C5.25665 12.5001 5.09674 12.4392 4.97498 12.3169C4.73083 12.0726 4.73083 11.6768 4.97498 11.4326L7.65839 8.74936L4.97498 6.06686C4.73083 5.82257 4.73083 5.42676 4.97498 5.18262C5.21912 4.93848 5.61493 4.93848 5.85922 5.18262L8.98422 8.30762C9.22836 8.55176 9.22836 8.94757 8.98422 9.19186L5.85922 12.3169C5.73669 12.4392 5.57663 12.5001 5.41672 12.5001Z" fill="white"/>
<path d="M13.3333 19.9999C12.4141 19.9999 11.6667 19.2524 11.6667 18.3332V3.33322C11.6667 2.62079 12.1201 1.98495 12.795 1.75073L17.8017 0.0815712C18.9217 -0.261752 20 0.56909 20 1.66665V16.6667C20 17.3783 19.5467 18.0132 18.8726 18.2482L13.8642 19.9183C13.6817 19.9749 13.5126 19.9999 13.3333 19.9999ZM18.3333 1.24994C18.2791 1.24994 18.2334 1.25665 18.1842 1.2716L13.1984 2.93405C13.035 2.99081 12.9167 3.15576 12.9167 3.33322V18.3332C12.9167 18.6175 13.225 18.8091 13.4825 18.7283L18.4684 17.0658C18.6309 17.0091 18.75 16.8441 18.75 16.6667V1.66665C18.75 1.43747 18.5634 1.24994 18.3333 1.24994Z" fill="white"/>
<path d="M7.29175 4.16672C6.94675 4.16672 6.66675 3.88672 6.66675 3.54172V2.29172C6.66675 1.02753 7.69412 0 8.95831 0H18.3333C18.6783 0 18.9583 0.279999 18.9583 0.625C18.9583 0.970001 18.6783 1.25 18.3333 1.25H8.95831C8.38412 1.25 7.91675 1.71753 7.91675 2.29172V3.54172C7.91675 3.88672 7.63675 4.16672 7.29175 4.16672Z" fill="white"/>
<path d="M12.2917 17.5H8.95831C7.69412 17.5 6.66675 16.4724 6.66675 15.2083V13.9583C6.66675 13.6133 6.94675 13.3333 7.29175 13.3333C7.63675 13.3333 7.91675 13.6133 7.91675 13.9583V15.2083C7.91675 15.7824 8.38412 16.25 8.95831 16.25H12.2917C12.6367 16.25 12.9167 16.53 12.9167 16.875C12.9167 17.22 12.6367 17.5 12.2917 17.5Z" fill="white"/>
</svg>
