<svg width="24" height="24" viewBox="0 0 24 24" fill="none" xmlns="http://www.w3.org/2000/svg">
<g clip-path="url(#clip0)">
<path d="M12.0041 5.83813C8.60107 5.83813 5.84607 8.59614 5.84607 11.9961C5.84607 15.3991 8.60407 18.1541 12.0041 18.1541C15.4071 18.1541 18.1621 15.3961 18.1621 11.9961C18.1621 8.59314 15.4041 5.83813 12.0041 5.83813ZM12.0041 15.9931C9.79507 15.9931 8.00707 14.2041 8.00707 11.9961C8.00707 9.78814 9.79607 7.99914 12.0041 7.99914C14.2121 7.99914 16.0011 9.78814 16.0011 11.9961C16.0021 14.2041 14.2131 15.9931 12.0041 15.9931Z" fill="white"/>
<path d="M16.9481 0.0756308C14.7401 -0.0273692 9.27107 -0.0223692 7.06107 0.0756308C5.11907 0.166631 3.40607 0.635631 2.02507 2.01663C-0.282925 4.32463 0.0120747 7.43463 0.0120747 11.9956C0.0120747 16.6636 -0.247925 19.7016 2.02507 21.9746C4.34207 24.2906 7.49707 23.9876 12.0041 23.9876C16.6281 23.9876 18.2241 23.9906 19.8591 23.3576C22.0821 22.4946 23.7601 20.5076 23.9241 16.9386C24.0281 14.7296 24.0221 9.26163 23.9241 7.05163C23.7261 2.83863 21.4651 0.283631 16.9481 0.0756308ZM20.4431 20.4476C18.9301 21.9606 16.8311 21.8256 11.9751 21.8256C6.97507 21.8256 4.97007 21.8996 3.50707 20.4326C1.82207 18.7556 2.12707 16.0626 2.12707 11.9796C2.12707 6.45463 1.56007 2.47563 7.10507 2.19163C8.37908 2.14663 8.75408 2.13163 11.9611 2.13163L12.0061 2.16163C17.3351 2.16163 21.5161 1.60363 21.7671 7.14763C21.8241 8.41263 21.8371 8.79263 21.8371 11.9946C21.8361 16.9366 21.9301 18.9536 20.4431 20.4476Z" fill="white"/>
<path d="M18.406 7.03424C19.2007 7.03424 19.845 6.38998 19.845 5.59524C19.845 4.80051 19.2007 4.15625 18.406 4.15625C17.6112 4.15625 16.967 4.80051 16.967 5.59524C16.967 6.38998 17.6112 7.03424 18.406 7.03424Z" fill="white"/>
</g>
<defs>
<clipPath id="clip0">
<rect width="24" height="24" fill="white"/>
</clipPath>
</defs>
</svg>
