<svg width="32" height="32" viewBox="0 0 32 32" fill="none" xmlns="http://www.w3.org/2000/svg">
<path d="M19.647 27.9638V28.8988C19.647 29.6428 19.1005 30.2617 18.3894 30.3671L18.1589 31.2165C18.0338 31.6774 17.619 32 17.1384 32H14.8536C14.3729 32 13.9581 31.6774 13.833 31.2165L13.6091 30.3671C12.8914 30.2551 12.3449 29.6428 12.3449 28.8922V27.9572C12.3449 27.4568 12.7466 27.0551 13.247 27.0551H18.7449C19.2454 27.0617 19.647 27.4634 19.647 27.9638ZM23.8807 15.3613C23.8807 17.4881 23.0379 19.4173 21.6684 20.8329C20.6281 21.9128 19.9565 23.2889 19.7326 24.7572C19.6338 25.3893 19.0873 25.8568 18.4421 25.8568H13.5499C12.9112 25.8568 12.3581 25.3959 12.2659 24.7638C12.0355 23.2955 11.3573 21.8996 10.317 20.8263C8.97375 19.4305 8.13754 17.5342 8.11778 15.4469C8.07169 11.0617 11.5614 7.51276 15.9466 7.47984C20.3252 7.44691 23.8807 10.9893 23.8807 15.3613ZM16.8882 10.5877C16.8882 10.1004 16.4931 9.69877 15.9993 9.69877C12.8651 9.69877 10.3104 12.2469 10.3104 15.3877C10.3104 15.8749 10.7054 16.2765 11.1993 16.2765C11.6865 16.2765 12.0882 15.8815 12.0882 15.3877C12.0882 13.228 13.8462 11.4765 15.9993 11.4765C16.4931 11.4765 16.8882 11.0815 16.8882 10.5877ZM15.9993 4.89218C16.4865 4.89218 16.8882 4.49712 16.8882 4.00329V0.888889C16.8882 0.401646 16.4931 0 15.9993 0C15.5054 0 15.1104 0.395062 15.1104 0.888889V4.00329C15.1104 4.49712 15.512 4.89218 15.9993 4.89218ZM5.53671 15.3547C5.53671 14.8675 5.14165 14.4658 4.64782 14.4658H1.53342C1.04618 14.4658 0.644531 14.8609 0.644531 15.3547C0.644531 15.842 1.03959 16.2436 1.53342 16.2436H4.64782C5.14165 16.2436 5.53671 15.8486 5.53671 15.3547ZM30.4651 14.4658H27.3507C26.8635 14.4658 26.4618 14.8609 26.4618 15.3547C26.4618 15.842 26.8569 16.2436 27.3507 16.2436H30.4651C30.9524 16.2436 31.354 15.8486 31.354 15.3547C31.354 14.8675 30.9589 14.4658 30.4651 14.4658ZM7.34741 22.7556L5.14165 24.9613C4.79268 25.3103 4.79268 25.87 5.14165 26.2189C5.31284 26.3901 5.5433 26.4757 5.76716 26.4757C5.99103 26.4757 6.22149 26.3901 6.39268 26.2189L8.59844 24.0132C8.94741 23.6642 8.94741 23.1045 8.59844 22.7556C8.25605 22.4066 7.6898 22.4066 7.34741 22.7556ZM24.0256 8.21728C24.2495 8.21728 24.4799 8.13169 24.6511 7.96049L26.8569 5.75473C27.2058 5.40576 27.2058 4.84609 26.8569 4.49712C26.5079 4.14815 25.9482 4.14815 25.5993 4.49712L23.3935 6.70288C23.0445 7.05185 23.0445 7.61152 23.3935 7.96049C23.5713 8.13169 23.7951 8.21728 24.0256 8.21728ZM7.34741 7.95391C7.5186 8.1251 7.74906 8.2107 7.97293 8.2107C8.19679 8.2107 8.42725 8.1251 8.59844 7.95391C8.94741 7.60494 8.94741 7.04527 8.59844 6.6963L6.39268 4.49053C6.04371 4.14156 5.48404 4.14156 5.13507 4.49053C4.78609 4.83951 4.78609 5.39918 5.13507 5.74815L7.34741 7.95391ZM24.6511 22.7556C24.3021 22.4066 23.7425 22.4066 23.3935 22.7556C23.0445 23.1045 23.0445 23.6642 23.3935 24.0132L25.5993 26.2189C25.7705 26.3901 26.0009 26.4757 26.2248 26.4757C26.4486 26.4757 26.6791 26.3901 26.8503 26.2189C27.1993 25.87 27.1993 25.3103 26.8503 24.9613L24.6511 22.7556Z" fill="white"/>
</svg>
