<svg width="24" height="24" viewBox="0 0 24 24" fill="none" xmlns="http://www.w3.org/2000/svg">
<path d="M4.89044 15.9536C7.25762 18.7833 10.1072 21.0112 13.3596 22.5877C14.5979 23.1745 16.2539 23.8707 18.0989 23.9901C18.2133 23.995 18.3227 24 18.4371 24C19.6754 24 20.67 23.5723 21.4806 22.6921C21.4855 22.6871 21.4955 22.6772 21.5005 22.6672C21.7889 22.3191 22.1171 22.0058 22.4603 21.6726C22.694 21.4488 22.9327 21.2151 23.1615 20.9764C24.2207 19.8724 24.2207 18.47 23.1515 17.4007L20.1627 14.4119C19.6555 13.8848 19.0488 13.6063 18.4122 13.6063C17.7756 13.6063 17.164 13.8848 16.6418 14.407L14.8614 16.1873C14.6973 16.0928 14.5282 16.0083 14.3691 15.9287C14.1702 15.8293 13.9862 15.7348 13.8221 15.6303C12.2008 14.6009 10.7288 13.2582 9.32144 11.5325C8.61029 10.6324 8.13288 9.8765 7.79969 9.10568C8.26715 8.68297 8.70478 8.24037 9.12749 7.80771C9.27668 7.65354 9.43085 7.49938 9.58501 7.34521C10.1221 6.80812 10.4105 6.18649 10.4105 5.55491C10.4105 4.92333 10.1271 4.3017 9.58501 3.76461L8.10304 2.28264C7.92898 2.10858 7.76487 1.93949 7.59579 1.76544C7.26757 1.42727 6.92443 1.07915 6.58626 0.765852C6.07403 0.263572 5.47229 0 4.83574 0C4.20416 0 3.59745 0.263572 3.06533 0.770825L1.2054 2.63075C0.529068 3.30709 0.146142 4.12764 0.066573 5.0775C-0.0279151 6.26606 0.1909 7.52922 0.757829 9.05595C1.62811 11.4182 2.941 13.6113 4.89044 15.9536ZM1.28 5.18193C1.33968 4.52051 1.5933 3.9685 2.07072 3.49109L3.9207 1.64111C4.20913 1.36262 4.52741 1.2184 4.83574 1.2184C5.1391 1.2184 5.44743 1.36262 5.73089 1.65106C6.06409 1.95939 6.37739 2.28264 6.71556 2.62578C6.88464 2.79983 7.0587 2.97389 7.23276 3.15292L8.71473 4.63489C9.02306 4.94322 9.1822 5.25653 9.1822 5.56486C9.1822 5.87319 9.02306 6.18649 8.71473 6.49482C8.56056 6.64898 8.4064 6.80812 8.25223 6.96229C7.78974 7.42976 7.35708 7.87236 6.87967 8.29507C6.86972 8.30501 6.86475 8.30999 6.8548 8.31993C6.44204 8.7327 6.50669 9.12557 6.60615 9.42395C6.61112 9.43887 6.6161 9.44882 6.62107 9.46374C7.004 10.3838 7.53611 11.259 8.36661 12.3034C9.85853 14.1434 11.43 15.5707 13.1606 16.6697C13.3745 16.809 13.6032 16.9184 13.8171 17.0278C14.016 17.1272 14.2 17.2217 14.3641 17.3261C14.384 17.3361 14.3989 17.346 14.4188 17.356C14.5829 17.4405 14.7421 17.4803 14.9012 17.4803C15.2991 17.4803 15.5577 17.2267 15.6422 17.1421L17.5021 15.2822C17.7906 14.9938 18.1039 14.8396 18.4122 14.8396C18.7902 14.8396 19.0985 15.0734 19.2924 15.2822L22.2912 18.276C22.888 18.8728 22.883 19.5193 22.2763 20.1509C22.0674 20.3746 21.8486 20.5885 21.6149 20.8123C21.2667 21.1504 20.9037 21.4986 20.5755 21.8914C20.0036 22.5081 19.3223 22.7965 18.442 22.7965C18.3575 22.7965 18.268 22.7915 18.1834 22.7866C16.5523 22.6821 15.0355 22.0456 13.8967 21.5035C10.8034 20.0066 8.08812 17.8831 5.83533 15.1877C3.98037 12.9548 2.73213 10.8761 1.90661 8.64816C1.39438 7.28056 1.20043 6.18152 1.28 5.18193Z" fill="#F28505"/>
</svg>
