<svg width="24" height="24" viewBox="0 0 24 24" fill="none" xmlns="http://www.w3.org/2000/svg">
<g clip-path="url(#clip0)">
<path d="M23.155 13.893C23.871 7.86602 22.811 4.06102 20.899 2.34002L20.9 2.33902C17.814 -0.599975 7.39203 -1.03498 3.70003 2.47102C2.04203 4.18602 1.45803 6.70302 1.39403 9.81903C1.33003 12.936 1.25403 18.775 6.69503 20.359H6.70003L6.69503 22.778C6.69503 22.778 6.65803 23.758 7.28403 23.955C8.00003 24.187 8.32403 23.732 10.551 21.072C14.275 21.395 17.135 20.655 17.46 20.547C18.212 20.295 22.467 19.732 23.155 13.893ZM10.918 19.37C10.918 19.37 8.56103 22.309 7.82803 23.072C7.58803 23.32 7.32503 23.297 7.32903 22.805C7.32903 22.482 7.34703 18.789 7.34703 18.789C2.73403 17.467 3.00603 12.495 3.05603 9.89402C3.10603 7.29202 3.58203 5.16102 4.98603 3.72602C8.22503 0.689025 17.362 1.36802 19.69 3.55602C22.536 6.07902 21.523 13.207 21.529 13.45C20.944 18.324 17.496 18.633 16.862 18.844C16.591 18.934 14.076 19.581 10.918 19.37Z" fill="white"/>
<path d="M12.222 4.29688C11.837 4.29688 11.837 4.89688 12.222 4.90188C15.209 4.92488 17.669 7.00688 17.696 10.8259C17.696 11.2289 18.286 11.2239 18.281 10.8209H18.28C18.248 6.70588 15.562 4.31988 12.222 4.29688Z" fill="white"/>
<path d="M16.1511 10.1933C16.1421 10.5913 16.7311 10.6103 16.7361 10.2073C16.7851 7.93828 15.3861 6.06928 12.7571 5.87228C12.3721 5.84428 12.3321 6.44928 12.7161 6.47728C14.9961 6.65028 16.1971 8.20628 16.1511 10.1933Z" fill="white"/>
<path d="M15.521 12.7741C15.027 12.4881 14.524 12.6661 14.316 12.9471L13.881 13.5101C13.66 13.7961 13.247 13.7581 13.247 13.7581C10.233 12.9611 9.42701 9.8071 9.42701 9.8071C9.42701 9.8071 9.39001 9.3801 9.66601 9.1511L10.21 8.7011C10.482 8.4851 10.654 7.9651 10.377 7.4541C9.63701 6.1171 9.14001 5.6561 8.88701 5.3021C8.62101 4.9691 8.22101 4.8941 7.80501 5.1191H7.79601C6.93101 5.6251 5.98402 6.5721 6.28702 7.5471C6.80401 8.5751 7.75401 11.8521 10.782 14.3281C12.205 15.4991 14.457 16.6991 15.413 16.9761L15.422 16.9901C16.364 17.3041 17.28 16.3201 17.769 15.4291V15.4221C17.986 14.9911 17.914 14.5831 17.597 14.3161C17.035 13.7681 16.187 13.1631 15.521 12.7741Z" fill="white"/>
<path d="M13.1691 8.10418C14.1301 8.16018 14.5961 8.66218 14.6461 9.69318C14.6641 10.0962 15.2491 10.0682 15.2311 9.66518C15.1671 8.31918 14.4651 7.56917 13.2011 7.49917C12.8161 7.47617 12.7801 8.08118 13.1691 8.10418Z" fill="white"/>
</g>
<defs>
<clipPath id="clip0">
<rect width="24" height="24" fill="white"/>
</clipPath>
</defs>
</svg>
