<svg width="24" height="24" viewBox="0 0 24 24" fill="none" xmlns="http://www.w3.org/2000/svg">
<g clip-path="url(#clip0)">
<path d="M17.507 14.3072L17.498 14.3822C15.299 13.2862 15.069 13.1402 14.785 13.5662C14.588 13.8612 14.014 14.5302 13.841 14.7282C13.666 14.9232 13.492 14.9382 13.195 14.8032C12.895 14.6532 11.932 14.3382 10.792 13.3182C9.90404 12.5232 9.30804 11.5482 9.13204 11.2482C8.83904 10.7422 9.45204 10.6702 10.01 9.61417C10.11 9.40417 10.059 9.23917 9.98504 9.09017C9.91004 8.94017 9.31304 7.47017 9.06304 6.88417C8.82304 6.30017 8.57604 6.37417 8.39104 6.37417C7.81504 6.32417 7.39404 6.33217 7.02304 6.71817C5.40904 8.49217 5.81604 10.3222 7.19704 12.2682C9.91104 15.8202 11.357 16.4742 14.001 17.3822C14.715 17.6092 15.366 17.5772 15.881 17.5032C16.455 17.4122 17.648 16.7822 17.897 16.0772C18.152 15.3722 18.152 14.7872 18.077 14.6522C18.003 14.5172 17.807 14.4422 17.507 14.3072Z" fill="white"/>
<path d="M20.52 3.44919C12.831 -3.98381 0.105992 1.40719 0.100992 11.8932C0.100992 13.9892 0.649992 16.0332 1.69599 17.8382L-7.62939e-06 24.0002L6.33499 22.3482C14.24 26.6182 23.996 20.9482 24 11.8992C24 8.72319 22.76 5.73419 20.505 3.48819L20.52 3.44919ZM22.002 11.8662C21.996 19.4992 13.617 24.2662 6.98999 20.3702L6.62999 20.1562L2.87999 21.1312L3.88499 17.4862L3.64599 17.1112C-0.478008 10.5462 4.25999 1.96619 12.072 1.96619C14.726 1.96619 17.217 3.00119 19.093 4.87619C20.968 6.73519 22.002 9.22619 22.002 11.8662Z" fill="white"/>
</g>
<defs>
<clipPath id="clip0">
<rect width="24" height="24" fill="white"/>
</clipPath>
</defs>
</svg>
