<svg width="90" height="90" viewBox="0 0 90 90" fill="none" xmlns="http://www.w3.org/2000/svg">
<g clip-path="url(#clip0)">
<path d="M89.8494 54.8794L89.8629 54.8749L75.0865 22.6341L78.67 20.8506L77.329 18.1657L73.8355 19.9057L73.363 18.8752C73.0176 18.1222 72.1274 17.7916 71.3744 18.1368C71.0478 18.2866 70.7859 18.5485 70.636 18.8752L70.2145 19.7962C67.6721 18.6153 64.9029 18.0025 62.0996 18.0007H49.4997V15.0007H52.4997V12.0007H49.9212L50.9997 7.68526C51.8277 4.3716 49.8128 1.01406 46.4992 0.185883C43.1855 -0.64211 39.828 1.37275 38.9998 4.68641C38.7538 5.67077 38.7538 6.7007 38.9998 7.68507L40.0783 12.0005H37.4998V15.0005H40.4998V18.0005H27.9074C25.1013 18.0027 22.3293 18.617 19.785 19.8005L19.3635 18.8795C19.0183 18.1265 18.1279 17.7959 17.3749 18.1411C17.0482 18.2909 16.7863 18.5529 16.6365 18.8795L16.164 19.91L12.6705 18.1625L11.3295 20.8505L14.913 22.6414L0.136641 54.8749C0.0455166 55.0708 -0.000982984 55.2844 0.000142006 55.5004C0.00670445 61.2965 4.70392 65.9937 10.5001 66.0003H25.4999C31.2961 65.9937 35.9933 61.2965 35.9998 55.5004C35.9961 55.2849 35.9449 55.0729 35.8498 54.8794L21.033 22.5171C23.1868 21.5174 25.5329 20.9999 27.9074 21.0006H40.4998V75.8792L35.3788 81.0001H29.9999C25.8599 81.005 22.5048 84.3601 22.5 88.5001C22.5 89.3285 23.1716 90.0001 23.9999 90.0001H65.9996C66.828 90.0001 67.4996 89.3285 67.4996 88.5001C67.4947 84.3601 64.1396 81.005 59.9996 81.0001H54.6207L49.4997 75.8792V21.0006H62.0996C64.4741 20.9999 66.8203 21.5174 68.9741 22.5171L54.1362 54.8749C54.0451 55.0708 53.9986 55.2844 53.9997 55.5004C54.0063 61.2965 58.7035 65.9937 64.4996 66.0003H79.4995C85.2956 65.9937 89.9928 61.2965 89.9994 55.5004C89.9958 55.2849 89.9446 55.0729 89.8494 54.8794ZM25.4999 63.0003H10.5001C6.93721 62.9964 3.8673 60.4903 3.15012 57.0003H32.8499C32.1329 60.4903 29.0628 62.9964 25.4999 63.0003ZM32.1629 54.0004H3.83711L17.616 23.9391C17.8676 24.0066 18.1324 24.0066 18.384 23.9391L32.1629 54.0004ZM42.4903 4.22479C43.6584 2.8388 45.7289 2.66236 47.1149 3.83048C47.2572 3.95048 47.3892 4.08248 47.5092 4.22479C48.116 4.99653 48.3303 6.00602 48.0897 6.95776L46.8282 12.0007H43.1713L41.9098 6.95776C41.6692 6.00602 41.8837 4.99653 42.4903 4.22479ZM43.4998 18.0007V15.0007H46.4998V18.0007H43.4998ZM46.4998 21.0006V75.0002H43.4998V21.0006H46.4998ZM59.9996 84.0001C61.9061 84.0024 63.605 85.2035 64.2431 87.0001H25.7564C26.3945 85.2035 28.0934 84.0024 29.9999 84.0001H59.9996ZM50.3787 81.0001H39.6208L42.6208 78.0002H47.3787L50.3787 81.0001ZM71.6125 23.9436C71.8602 24.0308 72.1319 24.0196 72.3715 23.9121L86.1624 54.0004H57.8367L71.6125 23.9436ZM79.4995 63.0003H64.4996C60.9368 62.9964 57.8668 60.4903 57.1497 57.0003H86.8494C86.1324 60.4903 83.0623 62.9964 79.4995 63.0003Z" fill="white"/>
</g>
<defs>
<clipPath id="clip0">
<rect width="90" height="90" fill="white"/>
</clipPath>
</defs>
</svg>
