<svg width="90" height="90" viewBox="0 0 90 90" fill="none" xmlns="http://www.w3.org/2000/svg">
<path d="M80.1562 11.25H73.125V8.4375C73.125 6.94566 72.5324 5.51492 71.4775 4.46002C70.4226 3.40513 68.9918 2.8125 67.5 2.8125C66.0082 2.8125 64.5774 3.40513 63.5225 4.46002C62.4676 5.51492 61.875 6.94566 61.875 8.4375V11.25H50.625V8.4375C50.625 6.94566 50.0324 5.51492 48.9775 4.46002C47.9226 3.40513 46.4918 2.8125 45 2.8125C43.5082 2.8125 42.0774 3.40513 41.0225 4.46002C39.9676 5.51492 39.375 6.94566 39.375 8.4375V11.25H28.125V8.4375C28.125 6.94566 27.5324 5.51492 26.4775 4.46002C25.4226 3.40513 23.9918 2.8125 22.5 2.8125C21.0082 2.8125 19.5774 3.40513 18.5225 4.46002C17.4676 5.51492 16.875 6.94566 16.875 8.4375V11.25H9.84375C7.97895 11.25 6.19052 11.9908 4.87191 13.3094C3.55329 14.628 2.8125 16.4164 2.8125 18.2812V74.5312C2.8125 76.3961 3.55329 78.1845 4.87191 79.5031C6.19052 80.8217 7.97895 81.5625 9.84375 81.5625H49.2188C49.5917 81.5625 49.9494 81.4143 50.2131 81.1506C50.4768 80.8869 50.625 80.5292 50.625 80.1562C50.625 79.7833 50.4768 79.4256 50.2131 79.1619C49.9494 78.8982 49.5917 78.75 49.2188 78.75H9.84375C8.72589 78.7467 7.65478 78.3011 6.86433 77.5107C6.07388 76.7202 5.62834 75.6491 5.625 74.5312V30.9375H84.375V54.8438C84.375 55.2167 84.5232 55.5744 84.7869 55.8381C85.0506 56.1018 85.4083 56.25 85.7812 56.25C86.1542 56.25 86.5119 56.1018 86.7756 55.8381C87.0393 55.5744 87.1875 55.2167 87.1875 54.8438V18.2812C87.1875 16.4164 86.4467 14.628 85.1281 13.3094C83.8095 11.9908 82.0211 11.25 80.1562 11.25ZM64.6875 8.4375C64.6875 7.69158 64.9838 6.97621 65.5113 6.44876C66.0387 5.92132 66.7541 5.625 67.5 5.625C68.2459 5.625 68.9613 5.92132 69.4887 6.44876C70.0162 6.97621 70.3125 7.69158 70.3125 8.4375V16.875C70.3125 17.6209 70.0162 18.3363 69.4887 18.8637C68.9613 19.3912 68.2459 19.6875 67.5 19.6875C66.7541 19.6875 66.0387 19.3912 65.5113 18.8637C64.9838 18.3363 64.6875 17.6209 64.6875 16.875V8.4375ZM42.1875 8.4375C42.1875 7.69158 42.4838 6.97621 43.0113 6.44876C43.5387 5.92132 44.2541 5.625 45 5.625C45.7459 5.625 46.4613 5.92132 46.9887 6.44876C47.5162 6.97621 47.8125 7.69158 47.8125 8.4375V16.875C47.8125 17.6209 47.5162 18.3363 46.9887 18.8637C46.4613 19.3912 45.7459 19.6875 45 19.6875C44.2541 19.6875 43.5387 19.3912 43.0113 18.8637C42.4838 18.3363 42.1875 17.6209 42.1875 16.875V8.4375ZM19.6875 8.4375C19.6875 7.69158 19.9838 6.97621 20.5113 6.44876C21.0387 5.92132 21.7541 5.625 22.5 5.625C23.2459 5.625 23.9613 5.92132 24.4887 6.44876C25.0162 6.97621 25.3125 7.69158 25.3125 8.4375V16.875C25.3125 17.6209 25.0162 18.3363 24.4887 18.8637C23.9613 19.3912 23.2459 19.6875 22.5 19.6875C21.7541 19.6875 21.0387 19.3912 20.5113 18.8637C19.9838 18.3363 19.6875 17.6209 19.6875 16.875V8.4375ZM84.375 28.125H5.625V18.2812C5.62834 17.1634 6.07388 16.0923 6.86433 15.3018C7.65478 14.5114 8.72589 14.0658 9.84375 14.0625H16.875V16.875C16.875 18.3668 17.4676 19.7976 18.5225 20.8525C19.5774 21.9074 21.0082 22.5 22.5 22.5C23.9918 22.5 25.4226 21.9074 26.4775 20.8525C27.5324 19.7976 28.125 18.3668 28.125 16.875V14.0625H39.375V16.875C39.375 18.3668 39.9676 19.7976 41.0225 20.8525C42.0774 21.9074 43.5082 22.5 45 22.5C46.4918 22.5 47.9226 21.9074 48.9775 20.8525C50.0324 19.7976 50.625 18.3668 50.625 16.875V14.0625H61.875V16.875C61.875 18.3668 62.4676 19.7976 63.5225 20.8525C64.5774 21.9074 66.0082 22.5 67.5 22.5C68.9918 22.5 70.4226 21.9074 71.4775 20.8525C72.5324 19.7976 73.125 18.3668 73.125 16.875V14.0625H80.1562C81.2741 14.0658 82.3452 14.5114 83.1357 15.3018C83.9261 16.0923 84.3717 17.1634 84.375 18.2812V28.125Z" fill="white"/>
<path d="M42.1875 40.7812C42.1875 40.0353 41.8912 39.32 41.3637 38.7925C40.8363 38.2651 40.1209 37.9688 39.375 37.9688H33.75C33.0041 37.9688 32.2887 38.2651 31.7613 38.7925C31.2338 39.32 30.9375 40.0353 30.9375 40.7812V45C30.9375 45.7459 31.2338 46.4613 31.7613 46.9887C32.2887 47.5162 33.0041 47.8125 33.75 47.8125H39.375C40.1209 47.8125 40.8363 47.5162 41.3637 46.9887C41.8912 46.4613 42.1875 45.7459 42.1875 45V40.7812ZM33.75 45V40.7812H39.375V45H33.75Z" fill="white"/>
<path d="M25.3125 40.7812C25.3125 40.0353 25.0162 39.32 24.4887 38.7925C23.9613 38.2651 23.2459 37.9688 22.5 37.9688H16.875C16.1291 37.9688 15.4137 38.2651 14.8863 38.7925C14.3588 39.32 14.0625 40.0353 14.0625 40.7812V45C14.0625 45.7459 14.3588 46.4613 14.8863 46.9887C15.4137 47.5162 16.1291 47.8125 16.875 47.8125H22.5C23.2459 47.8125 23.9613 47.5162 24.4887 46.9887C25.0162 46.4613 25.3125 45.7459 25.3125 45V40.7812ZM16.875 45V40.7812H22.5V45H16.875Z" fill="white"/>
<path d="M73.125 47.8125C73.8709 47.8125 74.5863 47.5162 75.1137 46.9887C75.6412 46.4613 75.9375 45.7459 75.9375 45V40.7812C75.9375 40.0353 75.6412 39.32 75.1137 38.7925C74.5863 38.2651 73.8709 37.9688 73.125 37.9688H67.5C66.7541 37.9688 66.0387 38.2651 65.5113 38.7925C64.9838 39.32 64.6875 40.0353 64.6875 40.7812V45C64.6875 45.7459 64.9838 46.4613 65.5113 46.9887C66.0387 47.5162 66.7541 47.8125 67.5 47.8125H73.125ZM67.5 40.7812H73.125V45H67.5V40.7812Z" fill="white"/>
<path d="M42.1875 53.4375C42.1875 52.6916 41.8912 51.9762 41.3637 51.4488C40.8363 50.9213 40.1209 50.625 39.375 50.625H33.75C33.0041 50.625 32.2887 50.9213 31.7613 51.4488C31.2338 51.9762 30.9375 52.6916 30.9375 53.4375V57.6562C30.9375 58.4022 31.2338 59.1175 31.7613 59.645C32.2887 60.1724 33.0041 60.4688 33.75 60.4688H39.375C40.1209 60.4688 40.8363 60.1724 41.3637 59.645C41.8912 59.1175 42.1875 58.4022 42.1875 57.6562V53.4375ZM33.75 57.6562V53.4375H39.375V57.6562H33.75Z" fill="white"/>
<path d="M25.3125 53.4375C25.3125 52.6916 25.0162 51.9762 24.4887 51.4488C23.9613 50.9213 23.2459 50.625 22.5 50.625H16.875C16.1291 50.625 15.4137 50.9213 14.8863 51.4488C14.3588 51.9762 14.0625 52.6916 14.0625 53.4375V57.6562C14.0625 58.4022 14.3588 59.1175 14.8863 59.645C15.4137 60.1724 16.1291 60.4688 16.875 60.4688H22.5C23.2459 60.4688 23.9613 60.1724 24.4887 59.645C25.0162 59.1175 25.3125 58.4022 25.3125 57.6562V53.4375ZM16.875 57.6562V53.4375H22.5V57.6562H16.875Z" fill="white"/>
<path d="M39.375 63.2812H33.75C33.0041 63.2812 32.2887 63.5776 31.7613 64.105C31.2338 64.6325 30.9375 65.3478 30.9375 66.0938V70.3125C30.9375 71.0584 31.2338 71.7738 31.7613 72.3012C32.2887 72.8287 33.0041 73.125 33.75 73.125H39.375C40.1209 73.125 40.8363 72.8287 41.3637 72.3012C41.8912 71.7738 42.1875 71.0584 42.1875 70.3125V66.0938C42.1875 65.3478 41.8912 64.6325 41.3637 64.105C40.8363 63.5776 40.1209 63.2812 39.375 63.2812ZM33.75 70.3125V66.0938H39.375V70.3125H33.75Z" fill="white"/>
<path d="M50.625 47.8125H56.25C56.9959 47.8125 57.7113 47.5162 58.2387 46.9887C58.7662 46.4613 59.0625 45.7459 59.0625 45V40.7812C59.0625 40.0353 58.7662 39.32 58.2387 38.7925C57.7113 38.2651 56.9959 37.9688 56.25 37.9688H50.625C49.8791 37.9688 49.1637 38.2651 48.6363 38.7925C48.1088 39.32 47.8125 40.0353 47.8125 40.7812V45C47.8125 45.7459 48.1088 46.4613 48.6363 46.9887C49.1637 47.5162 49.8791 47.8125 50.625 47.8125ZM50.625 40.7812H56.25V45H50.625V40.7812Z" fill="white"/>
<path d="M47.8125 57.6562C47.8125 58.4022 48.1088 59.1175 48.6363 59.645C49.1637 60.1724 49.8791 60.4688 50.625 60.4688C50.998 60.4688 51.3556 60.3206 51.6194 60.0569C51.8831 59.7931 52.0312 59.4355 52.0312 59.0625C52.0312 58.6895 51.8831 58.3319 51.6194 58.0681C51.3556 57.8044 50.998 57.6562 50.625 57.6562V53.4375H56.25C56.623 53.4375 56.9806 53.2893 57.2444 53.0256C57.5081 52.7619 57.6562 52.4042 57.6562 52.0312C57.6562 51.6583 57.5081 51.3006 57.2444 51.0369C56.9806 50.7732 56.623 50.625 56.25 50.625H50.625C49.8791 50.625 49.1637 50.9213 48.6363 51.4488C48.1088 51.9762 47.8125 52.6916 47.8125 53.4375V57.6562Z" fill="white"/>
<path d="M22.5 63.2812H16.875C16.1291 63.2812 15.4137 63.5776 14.8863 64.105C14.3588 64.6325 14.0625 65.3478 14.0625 66.0938V70.3125C14.0625 71.0584 14.3588 71.7738 14.8863 72.3012C15.4137 72.8287 16.1291 73.125 16.875 73.125H22.5C23.2459 73.125 23.9613 72.8287 24.4887 72.3012C25.0162 71.7738 25.3125 71.0584 25.3125 70.3125V66.0938C25.3125 65.3478 25.0162 64.6325 24.4887 64.105C23.9613 63.5776 23.2459 63.2812 22.5 63.2812ZM16.875 70.3125V66.0938H22.5V70.3125H16.875Z" fill="white"/>
<path d="M68.9062 50.625C65.2905 50.625 61.756 51.6972 58.7497 53.7059C55.7433 55.7147 53.4002 58.5699 52.0165 61.9103C50.6329 65.2508 50.2708 68.9265 50.9762 72.4727C51.6816 76.0189 53.4227 79.2764 55.9794 81.833C58.5361 84.3897 61.7935 86.1308 65.3397 86.8362C68.8859 87.5416 72.5617 87.1796 75.9021 85.7959C79.2426 84.4122 82.0977 82.0691 84.1065 79.0628C86.1153 76.0564 87.1874 72.5219 87.1874 68.9062C87.1819 64.0595 85.254 59.4128 81.8268 55.9856C78.3996 52.5584 73.753 50.6306 68.9062 50.625ZM68.9062 84.375C65.8468 84.375 62.856 83.4678 60.3122 81.768C57.7684 80.0683 55.7857 77.6524 54.6149 74.8259C53.4441 71.9993 53.1378 68.8891 53.7347 65.8884C54.3315 62.8878 55.8048 60.1315 57.9681 57.9682C60.1315 55.8048 62.8877 54.3316 65.8884 53.7347C68.889 53.1379 71.9993 53.4442 74.8258 54.615C77.6524 55.7858 80.0682 57.7684 81.768 60.3123C83.4677 62.8561 84.3749 65.8468 84.3749 68.9062C84.3701 73.0073 82.7388 76.9391 79.8389 79.839C76.939 82.7389 73.0073 84.3701 68.9062 84.375Z" fill="white"/>
<path d="M77.0314 63.0113L66.0936 73.9491L61.1225 68.9766C60.8573 68.7205 60.5021 68.5787 60.1334 68.5819C59.7646 68.5851 59.4119 68.733 59.1512 68.9938C58.8905 69.2545 58.7426 69.6072 58.7394 69.9759C58.7362 70.3446 58.8779 70.6999 59.1341 70.9651L65.0994 76.9318C65.3631 77.1954 65.7207 77.3435 66.0936 77.3435C66.4665 77.3435 66.8241 77.1954 67.0878 76.9318L79.0198 64.9998C79.276 64.7345 79.4177 64.3793 79.4145 64.0106C79.4113 63.6419 79.2634 63.2892 79.0027 63.0285C78.742 62.7677 78.3893 62.6198 78.0206 62.6166C77.6518 62.6134 77.2966 62.7552 77.0314 63.0113Z" fill="white"/>
</svg>
