<svg width="90" height="90" viewBox="0 0 90 90" fill="none" xmlns="http://www.w3.org/2000/svg">
<path d="M68.9062 67.5C71.2322 67.5 73.125 65.6072 73.125 63.2812C73.125 60.9553 71.2322 59.0625 68.9062 59.0625C66.5803 59.0625 64.6875 60.9553 64.6875 63.2812C64.6875 65.6072 66.5803 67.5 68.9062 67.5ZM68.9062 61.875C69.6811 61.875 70.3125 62.505 70.3125 63.2812C70.3125 64.0575 69.6811 64.6875 68.9062 64.6875C68.1314 64.6875 67.5 64.0575 67.5 63.2812C67.5 62.505 68.1314 61.875 68.9062 61.875Z" fill="white"/>
<path d="M83.1937 57.3441C82.7677 56.3231 82.9941 55.163 83.7689 54.3867L85.815 52.3392L79.8469 46.3711L77.798 48.4186C77.0231 49.1948 75.8616 49.4198 74.7872 48.9698C73.7775 48.5536 73.125 47.5777 73.125 46.4836V43.5938H70.2408C70.1128 41.3255 69.6923 39.1331 68.9948 37.0561L85.268 20.783C87.4125 18.6384 88.5938 15.788 88.5938 12.7561C88.5938 6.49828 83.5017 1.40625 77.2439 1.40625C74.212 1.40625 71.3616 2.5875 69.2184 4.73063L52.9622 20.9883C50.8598 20.2823 48.6309 19.8717 46.3289 19.7494C44.3883 16.3589 40.7419 14.0625 36.5625 14.0625C35.4923 14.0625 34.4602 14.2228 33.4772 14.5027C31.05 9.93937 26.3348 7.03125 21.0938 7.03125C13.3397 7.03125 7.03125 13.3397 7.03125 21.0938C7.03125 22.1709 7.16344 23.2312 7.40391 24.2691C3.9375 25.3181 1.40625 28.5398 1.40625 32.3438C1.40625 36.997 5.19047 40.7812 9.84375 40.7812H20.0447C19.8112 42.172 19.6875 43.5839 19.6875 45C19.6875 48.0952 20.2598 50.6138 21.1838 52.7653L8.63859 65.3119L1.65797 83.4609C1.49063 83.8941 1.40625 84.3497 1.40625 84.8152C1.40625 86.8992 3.10219 88.5938 5.18484 88.5938C5.65031 88.5938 6.10594 88.508 6.54047 88.342L24.6895 81.3614L33.8625 72.187C33.7936 72.4894 33.75 72.8016 33.75 73.125C33.75 74.2092 34.1733 75.1894 34.8469 75.9375C34.1719 76.6856 33.75 77.6658 33.75 78.75C33.75 80.7047 35.093 82.3388 36.9 82.8141C38.0981 86.2453 41.3072 88.5938 45 88.5938C48.6928 88.5938 51.9019 86.2453 53.1 82.8141C54.907 82.3388 56.25 80.7047 56.25 78.75C56.25 78.6445 56.2261 78.5461 56.2191 78.4434L57.9656 80.19L60.0145 78.1425C60.7894 77.3662 61.9467 77.1398 63.0239 77.5884C64.0336 78.0089 64.6875 78.9848 64.6875 80.0789V82.9688H73.125V80.0789C73.125 78.9848 73.7789 78.0075 74.8434 77.5673C75.8644 77.1427 77.0245 77.3662 77.7994 78.1425L79.8469 80.19L85.815 74.2219L83.7689 72.1744C82.9941 71.3981 82.7677 70.238 83.2162 69.1636C83.6339 68.1539 84.6098 67.5 85.7039 67.5H88.5938V59.0625H85.7039C84.6098 59.0625 83.6339 58.4086 83.1937 57.3441ZM62.1225 61.4897C63.6567 59.992 65.1938 58.462 66.5198 56.693C67.2848 56.4145 68.0808 56.25 68.9062 56.25C72.7833 56.25 75.9375 59.4042 75.9375 63.2812C75.9375 67.1583 72.7833 70.3125 68.9062 70.3125C65.0292 70.3125 61.875 67.1583 61.875 63.2812C61.875 62.6723 61.9692 62.0733 62.1225 61.4897ZM63.8114 28.1784L70.3125 21.6759L75.3553 26.7188L67.8445 34.2295C66.7913 32.0189 65.43 29.9855 63.8114 28.1784ZM65.2697 12.6562L67.5 10.4259L79.5741 22.5L77.3438 24.7303L65.2697 12.6562ZM77.2439 4.21875C81.9506 4.21875 85.7812 8.04938 85.7812 12.7561C85.7812 15.0356 84.8939 17.1802 83.2809 18.7931L81.5625 20.5116L69.4884 8.4375L71.2069 6.71906C72.8198 5.1075 74.963 4.21875 77.2439 4.21875ZM63.2812 14.6447L68.3241 19.6875L61.8258 26.1858C60.0202 24.5658 57.9881 23.2031 55.7775 22.1484L63.2812 14.6447ZM67.5 45C67.5 52.3167 63.8156 55.9111 59.9147 59.715C57.2287 62.3348 54.4697 65.0433 52.8638 68.9906C52.5952 68.9358 52.3167 68.9062 52.0312 68.9062H46.4062V61.875C46.4062 59.5491 44.5134 57.6562 42.1875 57.6562H39.375C38.6002 57.6562 37.9688 57.0262 37.9688 56.25C37.9688 55.4738 38.6002 54.8438 39.375 54.8438H53.4375C55.7634 54.8438 57.6562 52.9509 57.6562 50.625C57.6562 48.2991 55.7634 46.4062 53.4375 46.4062H42.1875C41.4127 46.4062 40.7812 45.7762 40.7812 45V40.7812H47.8125C51.6895 40.7812 54.8438 37.627 54.8438 33.75C54.8438 29.873 51.6895 26.7188 47.8125 26.7188C47.7731 26.7188 47.7366 26.73 47.6972 26.73C47.7577 26.2603 47.8125 25.7906 47.8125 25.3125C47.8125 24.3928 47.6888 23.5027 47.4806 22.6462C58.6912 23.895 67.5 33.5166 67.5 45ZM36.5625 73.125C36.5625 72.3487 37.1939 71.7188 37.9688 71.7188H52.0312C52.8061 71.7188 53.4375 72.3487 53.4375 73.125C53.4375 73.9013 52.8061 74.5312 52.0312 74.5312H37.9688C37.1939 74.5312 36.5625 73.9013 36.5625 73.125ZM18.8634 73.125L29.2008 62.7877C30.9305 64.5033 32.5364 66.2386 33.7205 68.3522L23.9062 78.1678L18.8634 73.125ZM4.21875 32.3438C4.21875 29.2416 6.74156 26.7188 9.84375 26.7188C12.9459 26.7188 15.4688 29.2416 15.4688 32.3438H18.2812C18.2812 27.8128 14.6883 24.1144 10.2037 23.9245C9.96469 23.0048 9.84375 22.0556 9.84375 21.0938C9.84375 14.8908 14.8908 9.84375 21.0938 9.84375C25.207 9.84375 28.9195 12.0797 30.8939 15.6108C27.8958 17.37 25.778 20.468 25.3828 24.0834C22.9275 24.6881 21.0938 26.8917 21.0938 29.5312H23.9062C23.9062 27.9802 25.1677 26.7188 26.7188 26.7188C28.2698 26.7188 29.5312 27.9802 29.5312 29.5312H32.3438C32.3438 26.9508 30.5888 24.795 28.2164 24.1341C28.793 20.0391 32.31 16.875 36.5625 16.875C41.2158 16.875 45 20.6592 45 25.3125C45 26.0522 44.8791 26.7764 44.6906 27.4823C42.3844 28.6369 40.7812 30.9994 40.7812 33.75H43.5938C43.5938 31.4241 45.4866 29.5312 47.8125 29.5312C50.1384 29.5312 52.0312 31.4241 52.0312 33.75C52.0312 36.0759 50.1384 37.9688 47.8125 37.9688H9.84375C6.74156 37.9688 4.21875 35.4459 4.21875 32.3438ZM37.9688 40.7812V45C37.9688 47.3259 39.8616 49.2188 42.1875 49.2188H53.4375C54.2123 49.2188 54.8438 49.8488 54.8438 50.625C54.8438 51.4012 54.2123 52.0312 53.4375 52.0312H39.375C37.0491 52.0312 35.1562 53.9241 35.1562 56.25C35.1562 58.5759 37.0491 60.4688 39.375 60.4688H42.1875C42.9623 60.4688 43.5938 61.0988 43.5938 61.875V68.9062H37.9688C37.6833 68.9062 37.4048 68.9358 37.1362 68.9906C35.5303 65.0433 32.7712 62.3348 30.0853 59.715C26.1844 55.9111 22.5 52.3167 22.5 45C22.5 43.5783 22.6702 42.1692 22.9331 40.7812H37.9688ZM27.1927 60.8189L16.875 71.1366L11.8322 66.0938L22.5619 55.3641C23.8823 57.4369 25.5192 59.1666 27.1927 60.8189ZM10.3795 68.618L21.382 79.6205L12.067 83.2036L6.79641 77.933L10.3795 68.618ZM5.53219 85.7166C4.92328 85.9528 4.21875 85.4677 4.21875 84.8152C4.21875 84.6956 4.24125 84.5789 4.28203 84.4692L5.69109 80.8045L9.19406 84.3075L5.53219 85.7166ZM45 85.7812C42.923 85.7812 41.0709 84.6759 40.0444 82.9688H49.9556C48.9291 84.6759 47.077 85.7812 45 85.7812ZM52.0312 80.1562H37.9688C37.1939 80.1562 36.5625 79.5263 36.5625 78.75C36.5625 77.9737 37.1939 77.3438 37.9688 77.3438H52.0312C52.8061 77.3438 53.4375 77.9737 53.4375 78.75C53.4375 79.5263 52.8061 80.1562 52.0312 80.1562ZM85.7812 64.6875H85.7039C83.4666 64.6875 81.4697 66.0234 80.5978 68.1356C79.7316 70.2127 80.1956 72.578 81.7791 74.1628L81.8381 74.2219L79.8469 76.2131L79.7878 76.1541C78.2016 74.5678 75.8334 74.1023 73.7142 74.9911C71.6484 75.8461 70.3125 77.8416 70.3125 80.0789V80.1562H67.5V80.0789C67.5 77.8416 66.1641 75.8447 64.0519 74.9714C61.972 74.1038 59.6067 74.5692 58.0233 76.1541L57.9642 76.2131L56.0587 74.3077C56.1712 73.9294 56.25 73.5384 56.25 73.125C56.25 72.1266 55.8872 71.2209 55.305 70.4967C56.1797 68.1356 57.5508 66.247 59.1469 64.5033C59.7516 69.3548 63.893 73.125 68.9062 73.125C74.3344 73.125 78.75 68.708 78.75 63.2812C78.75 57.8545 74.3344 53.4375 68.9062 53.4375C68.7684 53.4375 68.6348 53.4516 68.4984 53.4572C69.4505 51.4814 70.1044 49.1906 70.2689 46.4062H70.3125V46.4836C70.3125 48.7209 71.6484 50.7192 73.7592 51.5897C75.8348 52.4588 78.203 51.9947 79.7878 50.4084L79.8469 50.3494L81.8381 52.3406L81.7791 52.3997C80.1956 53.9845 79.7316 56.3513 80.6161 58.4719C81.4697 60.5391 83.4666 61.875 85.7039 61.875H85.7812V64.6875Z" fill="white"/>
</svg>
