<svg width="90" height="90" viewBox="0 0 90 90" fill="none" xmlns="http://www.w3.org/2000/svg">
<path d="M50.7759 23.551C52.0378 23.551 52.8745 22.2597 52.4001 21.1219C52.0855 20.3535 51.2568 19.9048 50.4333 20.0707C49.5881 20.2421 49.0181 20.9767 49.0181 21.7934C49.0181 22.7336 49.7785 23.551 50.7759 23.551Z" fill="white"/>
<path d="M45 50.6724C53.785 50.6724 60.9319 43.5255 60.9319 34.7405C60.9319 31.1493 59.7021 27.6271 57.4694 24.8229C56.8649 24.0634 55.7587 23.9375 54.9993 24.5425C54.2397 25.1472 54.1142 26.2531 54.7189 27.0126C56.4836 29.2289 57.4163 31.9011 57.4163 34.7405C57.4163 41.5868 51.8463 47.1568 45 47.1568C38.1537 47.1568 32.5839 41.5868 32.5839 34.7405C32.5839 28.1413 37.7402 22.6954 44.3227 22.3423C44.6862 22.3228 45.0181 22.1941 45.2881 21.9898C46.6634 20.9494 45.8631 18.741 44.1344 18.8318C35.686 19.2849 29.0682 26.2728 29.0682 34.7405C29.0681 43.5253 36.2151 50.6724 45 50.6724Z" fill="white"/>
<path d="M82.0416 12.2432H71.4796C70.9408 11.4516 70.6049 11.2556 68.3857 8.99578C66.0126 6.62309 62.1513 6.62309 59.7782 8.99578L57.0914 11.6828C55.701 10.9521 54.2499 10.3502 52.7536 9.88383V6.08643C52.7538 2.73041 50.0236 0 46.6674 0H43.3323C39.9763 0 37.2459 2.73041 37.2459 6.08643V9.884C35.75 10.3504 34.2985 10.9524 32.9083 11.6831L30.2213 8.99596C27.8483 6.62291 23.987 6.62291 21.6138 8.99596C19.4317 11.2182 19.0597 11.4504 18.5202 12.2433H7.95825C3.67657 12.2433 0.193115 15.7266 0.193115 20.0085V61.2165C0.193115 65.4859 3.66427 68.9817 7.95808 68.9817H38.416L36.1112 77.2562H30.8284C27.6531 77.2562 25.0699 79.8395 25.0699 83.015V86.4844H18.6173C17.6464 86.4844 16.8595 87.2715 16.8595 88.2422C16.8595 89.2129 17.6464 90 18.6173 90H71.3826C72.3533 90 73.1404 89.2129 73.1404 88.2422C73.1404 87.2715 72.3533 86.4844 71.3826 86.4844H64.93V83.0148C64.93 79.8395 62.3467 77.256 59.1714 77.256H53.8885L51.5836 68.9815H82.0418C86.3235 68.9815 89.8069 65.4982 89.8069 61.2163C89.8069 59.0303 89.8069 21.4583 89.8069 20.0083C89.8067 15.7266 86.3235 12.2432 82.0416 12.2432ZM82.0416 15.7588C84.3848 15.7588 86.2911 17.6651 86.2911 20.0083V53.5096H72.5074C72.4292 52.0302 71.8203 50.5951 70.7443 49.519L68.0573 46.8322C68.7882 45.4417 69.3901 43.9907 69.8565 42.4944C73.6974 42.4847 73.7395 42.5176 74.2754 42.4629C77.3407 42.1508 79.7405 39.5545 79.7405 36.408V33.0729C79.7405 29.7167 77.0102 26.9865 73.654 26.9865H69.8565C69.3901 25.4902 68.7881 24.0391 68.0573 22.6487L70.7443 19.9619C71.9099 18.7963 72.5053 17.27 72.5287 15.7588H82.0416ZM21.7414 13.8403L24.0997 11.4819C25.1022 10.4796 26.7331 10.4796 27.7354 11.4819L31.3626 15.1093C31.9313 15.6774 32.8132 15.7878 33.5045 15.3768C35.3587 14.2736 37.3545 13.4459 39.4368 12.9164C40.216 12.7185 40.7617 12.0169 40.7617 11.2129V6.08643C40.7617 4.66893 41.915 3.51562 43.3325 3.51562H46.6676C48.0851 3.51562 49.2384 4.66893 49.2384 6.08643V11.2129C49.2384 12.0169 49.784 12.7185 50.5632 12.9164C52.6455 13.4457 54.6414 14.2736 56.4955 15.3768C57.1863 15.788 58.0684 15.6778 58.6374 15.1093L62.2645 11.4819C63.2668 10.4799 64.8978 10.4796 65.9003 11.4819C68.2714 13.9317 68.7568 14.0534 68.9682 15.1924C69.1234 16.045 68.8455 16.8885 68.2586 17.4758L64.6314 21.1031C64.0627 21.6717 63.9525 22.5538 64.3638 23.2451C65.3292 24.8674 66.0837 26.5982 66.6117 28.4006C66.6871 28.6581 66.758 28.9171 66.8242 29.1774C67.0222 29.9566 67.7237 30.5021 68.5277 30.5021H73.6542C75.0717 30.5021 76.225 31.6554 76.225 33.0729V36.408C76.225 37.8255 75.0717 38.9788 73.6542 38.9788H68.5277C67.7237 38.9788 67.0222 39.5244 66.8242 40.3037C66.295 42.386 65.467 44.3818 64.3638 46.2359C64.3382 46.2792 64.3144 46.3231 64.2928 46.3676C63.9681 47.0361 64.0982 47.8445 64.6315 48.3778C67.8557 51.8108 68.8209 52.0599 68.993 53.5096H21.0072C21.0735 52.9511 21.3243 52.4218 21.7413 52.0049L25.3685 48.3776C25.9372 47.809 26.0474 46.9269 25.6362 46.2357C24.5327 44.3812 23.7049 42.3854 23.176 40.3035C22.9781 39.5241 22.2763 38.9786 21.4723 38.9786H16.3458C14.9283 38.9786 13.775 37.8253 13.775 36.4078V33.0727C13.775 31.6552 14.9283 30.5019 16.3458 30.5019H21.4725C22.2765 30.5019 22.9781 29.9563 23.1762 29.1771C23.7054 27.0946 24.533 25.0989 25.6364 23.245C26.046 22.5566 25.94 21.6742 25.3687 21.1029C21.8126 17.5041 21.6949 17.5066 21.402 17.0552C20.7484 16.0501 20.8787 14.7027 21.7414 13.8403ZM7.95825 15.7588H17.4712C17.4951 17.2888 18.1047 18.8111 19.2555 19.9619L21.9425 22.6487C21.2118 24.0391 20.6098 25.4906 20.1434 26.9865H16.3458C12.9898 26.9865 10.2594 29.7167 10.2594 33.0729V36.408C10.2594 39.7675 12.9932 42.4944 16.3458 42.4944H20.1434C20.6098 43.9903 21.2116 45.4417 21.9425 46.8322L19.2555 49.519C18.1794 50.5951 17.5707 52.0302 17.4925 53.5096H3.70874V20.0083C3.70874 17.6651 5.61509 15.7588 7.95825 15.7588ZM61.4144 83.0148V86.4844H28.5855V83.0148C28.5855 81.778 29.5917 80.7717 30.8284 80.7717H59.1714C60.4082 80.7717 61.4144 81.778 61.4144 83.0148ZM50.2391 77.256H39.7606L42.0654 68.9815H47.9341L50.2391 77.256ZM86.2911 61.2163C86.2911 63.5595 84.3848 65.4659 82.0416 65.4659C79.4179 65.4659 10.406 65.4659 7.95808 65.4659C5.60806 65.4659 3.70856 63.553 3.70856 61.2163V57.0252H86.2909V61.2163H86.2911Z" fill="white"/>
</svg>
