<svg width="90" height="90" viewBox="0 0 90 90" fill="none" xmlns="http://www.w3.org/2000/svg">
<path d="M42.1878 79.574L40.3695 77.7558L38.3811 79.7442L42.1878 83.5509L51.6195 74.1192L49.6311 72.1308L42.1878 79.574Z" fill="white"/>
<path d="M51.6195 9.4317L49.6311 7.44327L42.1878 14.8865L40.3695 13.0683L38.3811 15.0567L42.1878 18.8634L51.6195 9.4317Z" fill="white"/>
<path d="M75.9375 40.7812C79.8145 40.7812 82.9688 37.627 82.9688 33.75C82.9688 29.873 79.8145 26.7188 75.9375 26.7188C72.0605 26.7188 68.9062 29.873 68.9062 33.75C68.9062 37.627 72.0605 40.7812 75.9375 40.7812ZM75.9375 29.5312C78.2634 29.5312 80.1562 31.4241 80.1562 33.75C80.1562 36.0759 78.2634 37.9688 75.9375 37.9688C73.6116 37.9688 71.7188 36.0759 71.7188 33.75C71.7188 31.4241 73.6116 29.5312 75.9375 29.5312Z" fill="white"/>
<path d="M82.5005 47.3878L86.8936 39.8573C88.0059 37.9491 88.5938 35.7764 88.5938 33.57C88.5938 26.6906 82.9969 21.0938 76.1175 21.0938H75.7575C68.8781 21.0938 63.2812 26.6906 63.2812 33.57C63.2812 35.7764 63.8691 37.9491 64.98 39.8559L67.1611 43.5938H53.4375C51.1116 43.5938 49.2188 45.4866 49.2188 47.8125V66.922C48.3314 66.562 47.3878 66.3145 46.4062 66.1908V23.8092C51.9469 23.1131 56.25 18.3825 56.25 12.6562C56.25 6.45328 51.203 1.40625 45 1.40625C38.797 1.40625 33.75 6.45328 33.75 12.6562C33.75 16.2 35.4009 19.3612 37.9688 21.4242V57.6562C37.9688 58.4325 37.3373 59.0625 36.5625 59.0625H35.1562V56.6325C35.1562 53.2997 32.7839 50.4 29.5172 49.7405L24.5405 48.742C23.8345 48.5395 23.2552 48.067 22.8938 47.4511C23.6644 46.7747 24.2986 45.9506 24.7162 45H25.3125C27.6384 45 29.5312 43.1072 29.5312 40.7812C29.5312 39.6169 29.0559 38.5608 28.2909 37.7958C29.8913 36.5063 30.9375 34.5544 30.9375 32.3438C30.9375 28.4667 27.7833 25.3125 23.9062 25.3125C22.282 25.3125 20.8027 25.8891 19.6102 26.8186C19.222 26.7595 18.8311 26.7188 18.4373 26.7188H13.4438C9.13219 26.7188 5.625 30.2259 5.625 34.5375C5.625 36.2841 6.22969 37.987 7.29703 39.3539C7.13391 39.8011 7.03125 40.2778 7.03125 40.7812C7.03125 43.1072 8.92406 45 11.25 45H11.8462C12.2639 45.952 12.8995 46.7761 13.6702 47.4525C13.3158 48.0656 12.7575 48.5325 12.1317 48.7139L7.04531 49.7405C3.77859 50.4014 1.40625 53.2997 1.40625 56.6325V64.6875H35.1562V61.875H36.5625C38.8884 61.875 40.7812 59.9822 40.7812 57.6562V23.078C41.6686 23.438 42.6122 23.6855 43.5938 23.8092V66.1922C38.0531 66.8883 33.75 71.6189 33.75 77.3452C33.75 83.5481 38.797 88.5952 45 88.5952C51.203 88.5952 56.25 83.5481 56.25 77.3452C56.25 73.8014 54.5991 70.6402 52.0312 68.5772V47.8125C52.0312 47.0363 52.6627 46.4062 53.4375 46.4062H68.8022L69.3745 47.3878C65.5734 48.6169 63.2812 50.8444 63.2812 53.4375C63.2812 57.4467 68.722 60.4688 75.9375 60.4688C83.153 60.4688 88.5938 57.4467 88.5938 53.4375C88.5938 50.8444 86.3016 48.6169 82.5005 47.3878ZM14.0625 42.1875V39.375C14.0625 38.6916 14.5533 38.1192 15.2002 37.9941C17.1408 38.8983 19.2853 39.375 21.4256 39.375H22.5V42.1875C22.5 44.5134 20.6072 46.4062 18.2812 46.4062C15.9553 46.4062 14.0625 44.5134 14.0625 42.1875ZM25.3125 42.1875V39.375C26.0873 39.375 26.7188 40.0064 26.7188 40.7812C26.7188 41.5561 26.0873 42.1875 25.3125 42.1875ZM9.84375 40.7812C9.84375 40.0064 10.4752 39.375 11.25 39.375V42.1875C10.4752 42.1875 9.84375 41.5561 9.84375 40.7812ZM12.3469 36.5625H11.25C10.4963 36.5625 9.79734 36.7777 9.18281 37.1264C8.71313 36.3473 8.4375 35.4558 8.4375 34.5375C8.4375 31.777 10.6833 29.5312 13.4438 29.5312H17.4713C17.0916 30.3947 16.875 31.3425 16.875 32.3438H19.6875C19.6875 30.0178 21.5803 28.125 23.9062 28.125C26.2322 28.125 28.125 30.0178 28.125 32.3438C28.125 34.6697 26.2322 36.5625 23.9062 36.5625H21.4256C19.5863 36.5625 17.7441 36.128 16.0973 35.3039L15.8006 35.1562H15.4688C14.227 35.1562 13.1203 35.7061 12.3469 36.5625ZM18.2812 49.2188C19.042 49.2188 19.7606 49.0669 20.4483 48.8419C20.6213 49.1386 20.8237 49.4156 21.0473 49.6758C20.828 51.0089 19.6763 52.0312 18.2812 52.0312C16.8891 52.0312 15.7388 51.0131 15.5166 49.6842C15.7402 49.4227 15.9441 49.1428 16.117 48.8419C16.8019 49.0669 17.5205 49.2188 18.2812 49.2188ZM32.3438 61.875H4.21875V56.6325C4.21875 54.6328 5.64188 52.8933 7.60219 52.4981L12.7969 51.4448C12.8939 51.4167 12.9853 51.3759 13.0795 51.3422C13.9191 53.3939 15.9314 54.8438 18.2812 54.8438C20.6283 54.8438 22.6392 53.3967 23.4816 51.3323C23.6123 51.3802 23.7389 51.4336 23.8753 51.473L28.9603 52.4981C30.9206 52.8933 32.3438 54.6342 32.3438 56.6325V61.875ZM36.5625 12.6562C36.5625 8.00297 40.3467 4.21875 45 4.21875C49.6533 4.21875 53.4375 8.00297 53.4375 12.6562C53.4375 17.3095 49.6533 21.0938 45 21.0938C40.3467 21.0938 36.5625 17.3095 36.5625 12.6562ZM53.4375 77.3438C53.4375 81.997 49.6533 85.7812 45 85.7812C40.3467 85.7812 36.5625 81.997 36.5625 77.3438C36.5625 72.6905 40.3467 68.9062 45 68.9062C49.6533 68.9062 53.4375 72.6905 53.4375 77.3438ZM75.7575 23.9062H76.1175C81.4458 23.9062 85.7812 28.2417 85.7812 33.57C85.7812 35.2786 85.3256 36.9619 84.465 38.4384L76.8375 51.5123C76.4648 52.1522 75.4088 52.1522 75.0375 51.5123L67.41 38.4384C66.5494 36.9619 66.0938 35.2786 66.0938 33.57C66.0938 28.2417 70.4292 23.9062 75.7575 23.9062ZM75.9375 57.6562C70.3041 57.6562 66.0938 55.4287 66.0938 53.4375C66.0938 52.0973 68.04 50.6784 70.8342 49.8895L72.6089 52.9312C73.2966 54.1111 74.572 54.8438 75.9375 54.8438C77.303 54.8438 78.5784 54.1111 79.2675 52.9312L81.0422 49.8895C83.835 50.6784 85.7812 52.0973 85.7812 53.4375C85.7812 55.4287 81.5709 57.6562 75.9375 57.6562Z" fill="white"/>
<path d="M7.03125 67.5H26.7188V70.3125H7.03125V67.5Z" fill="white"/>
<path d="M7.03125 73.125H26.7188V75.9375H7.03125V73.125Z" fill="white"/>
<path d="M12.6562 78.75H15.4688V81.5625H12.6562V78.75Z" fill="white"/>
<path d="M7.03125 78.75H9.84375V81.5625H7.03125V78.75Z" fill="white"/>
<path d="M18.2812 78.75H21.0938V81.5625H18.2812V78.75Z" fill="white"/>
<path d="M23.9062 78.75H26.7188V81.5625H23.9062V78.75Z" fill="white"/>
</svg>
