<svg width="32" height="32" viewBox="0 0 32 32" fill="none" xmlns="http://www.w3.org/2000/svg">
<path d="M7.35994 10.8966C7.11619 10.6528 6.71994 10.6528 6.47625 10.8966C6.23187 11.1409 6.23187 11.5366 6.47625 11.7803C6.72 12.0247 7.11625 12.0247 7.35994 11.7803C7.60425 11.5366 7.60425 11.1409 7.35994 10.8966Z" fill="white"/>
<path d="M15.825 27.9823C16.1005 27.6091 16.2495 27.1594 16.2495 26.6866C16.2495 25.4805 15.2682 24.4991 14.062 24.4991H3.43738C2.85282 24.4991 2.3035 24.7266 1.89057 25.1397C1.47744 25.5527 1.24994 26.102 1.24994 26.6866C1.24994 27.1709 1.40844 27.6188 1.67588 27.9816C0.680689 28.5048 0 29.5486 0 30.7489V31.3739C0 31.7191 0.279876 31.9989 0.625001 31.9989H16.8744C17.2195 31.9989 17.4994 31.7191 17.4994 31.3739V30.7489C17.4994 29.5492 16.8194 28.5058 15.825 27.9823ZM2.77438 26.0235C2.95132 25.8465 3.18682 25.749 3.43738 25.749H14.062C14.579 25.749 14.9995 26.1696 14.9995 26.6865C14.9995 26.9371 14.902 27.1725 14.725 27.3495C14.548 27.5265 14.3125 27.624 14.062 27.624H3.43738C2.92044 27.624 2.49994 27.2034 2.49994 26.6865C2.49994 26.436 2.59738 26.2005 2.77438 26.0235ZM1.24994 30.7489C1.24994 29.7151 2.09107 28.874 3.12488 28.874H3.43738H14.062H14.3745C15.4083 28.874 16.2495 29.7151 16.2495 30.7489H1.24994Z" fill="white"/>
<path d="M31.418 26.2579C31.2058 25.9289 30.9525 25.638 30.6652 25.3933L27.7449 22.8462C27.7221 22.812 27.6958 22.7795 27.6656 22.7493C27.6148 22.6986 27.5573 22.659 27.4962 22.6294L25.7301 21.0891L17.5557 13.9584C17.8904 13.6086 18.0746 13.1511 18.0746 12.6647C18.0746 12.1636 17.8796 11.6926 17.525 11.3381C17.3704 11.1837 17.1946 11.0623 17.0068 10.9733L17.7631 10.2171C17.9744 10.2733 18.1916 10.302 18.409 10.302C19.0491 10.302 19.6892 10.0583 20.1764 9.57108C20.6488 9.09877 20.9089 8.47095 20.9089 7.80326C20.9089 7.13557 20.6488 6.50776 20.1765 6.03545L14.8735 0.732561C14.4012 0.260248 13.7733 0.00012207 13.1054 0.00012207C12.4379 0.00012207 11.8102 0.260248 11.3379 0.732561C10.6852 1.38531 10.4703 2.31213 10.6919 3.146L3.14661 10.6913C2.9381 10.6358 2.72117 10.6066 2.49954 10.6066C1.83154 10.6066 1.20398 10.8665 0.73204 11.3384C-0.242711 12.3131 -0.242711 13.8992 0.73204 14.874L6.03498 20.177C6.52242 20.6644 7.16261 20.9081 7.8028 20.9081C8.44305 20.9081 9.08324 20.6644 9.57067 20.177C10.2234 19.5242 10.4383 18.5975 10.2167 17.7636L10.9714 17.0088C11.0621 17.1982 11.1851 17.373 11.338 17.5258C11.6921 17.8799 12.1629 18.075 12.6639 18.075C13.1499 18.075 13.6071 17.891 13.9574 17.5568L22.6641 27.5602C22.6881 27.5977 22.7161 27.6334 22.7488 27.6661C22.76 27.6773 22.7719 27.6875 22.7837 27.6976L25.3781 30.6785C25.4426 30.7546 25.5116 30.8295 25.5831 30.9011C26.2957 31.6134 27.2369 31.9999 28.225 31.9999C28.3992 31.9999 28.575 31.9879 28.7511 31.9636C29.9279 31.8007 30.9449 31.0967 31.5413 30.0318C32.1946 28.8647 32.146 27.3831 31.418 26.2579ZM12.2219 1.61644C12.4581 1.38025 12.7719 1.25012 13.1055 1.25012C13.4395 1.25012 13.7536 1.38025 13.9897 1.61644L19.2927 6.91939C19.5289 7.15557 19.6589 7.46951 19.6589 7.80333C19.6589 8.13714 19.5289 8.45108 19.2926 8.68726C18.8054 9.17458 18.0126 9.17458 17.5254 8.68726L12.2222 3.38407C12.2221 3.38394 12.222 3.38388 12.2219 3.38375C11.7346 2.8965 11.7346 2.10369 12.2219 1.61644ZM8.6868 19.2932C8.19942 19.7805 7.40623 19.7806 6.91886 19.2932L1.61592 13.9902C1.12848 13.5028 1.12848 12.7098 1.61592 12.2223C1.85167 11.9865 2.16554 11.8566 2.49954 11.8566C2.83348 11.8566 3.14717 11.9864 3.38286 12.222L8.68674 17.5259C9.17411 18.0131 9.17411 18.806 8.6868 19.2932ZM11.3182 14.8944L9.57061 16.642L4.26711 11.3385L11.3379 4.26757L16.6414 9.57108L14.8906 11.3219C14.8849 11.3273 14.8794 11.3325 14.8734 11.3385L11.3397 14.8722C11.3324 14.8793 11.3254 14.8868 11.3182 14.8944ZM13.5498 16.1982C13.5486 16.1995 13.5474 16.2007 13.5461 16.2019L13.106 16.642C12.9879 16.76 12.831 16.825 12.6639 16.825C12.4968 16.825 12.3398 16.76 12.2218 16.642C12.1036 16.5238 12.0386 16.3667 12.0386 16.1995C12.0386 16.0359 12.101 15.882 12.2143 15.7658L15.7644 12.2158C16.0077 11.9791 16.4011 11.9821 16.6415 12.2223C16.7596 12.3404 16.8247 12.4975 16.8247 12.6647C16.8247 12.8318 16.7598 12.9885 16.6414 13.1065L16.2039 13.5441C16.2009 13.547 16.1979 13.55 16.1949 13.553L13.5498 16.1982ZM14.8441 16.6717L16.6707 14.845L24.4046 21.591L21.5824 24.4132L14.8441 16.6717ZM22.405 25.3583L25.3487 22.4145L26.2929 23.2381L23.2276 26.3035L22.405 25.3583ZM30.4508 29.4212C30.0474 30.1414 29.3654 30.6167 28.5798 30.7254C27.7959 30.8339 27.0257 30.5757 26.4668 30.0171C26.4188 29.9691 26.3728 29.9191 26.3299 29.8683C26.3279 29.8659 26.3259 29.8636 26.3238 29.8612L24.0501 27.2486L27.237 24.0616L29.8464 26.3377C29.8483 26.3394 29.8503 26.3411 29.8524 26.3429C30.0477 26.5089 30.221 26.7084 30.3681 26.9362C30.8407 27.6666 30.8738 28.6653 30.4508 29.4212Z" fill="white"/>
<path d="M11.7812 6.47724C11.5371 6.23317 11.1414 6.23317 10.8973 6.47724L8.24555 9.12899C8.00148 9.37305 8.00148 9.7688 8.24555 10.0128C8.36761 10.1349 8.52755 10.1959 8.68749 10.1959C8.84742 10.1959 9.00736 10.1348 9.12942 10.0128L11.7812 7.36105C12.0252 7.11705 12.0252 6.72136 11.7812 6.47724Z" fill="white"/>
</svg>
