<svg width="32" height="32" viewBox="0 0 32 32" fill="none" xmlns="http://www.w3.org/2000/svg">
<path d="M29.9355 10.3226C28.7969 10.3226 27.871 11.2486 27.871 12.3871V18.1471C27.871 18.5998 27.6738 19.0282 27.3301 19.3229L25.0183 21.3048C24.7375 21.5453 24.3799 21.6775 24.0108 21.6775H22.1961L24.193 19.4308C24.5677 19.0091 24.7742 18.4661 24.7742 17.902V17.7859C24.7742 16.5162 23.7419 15.4839 22.4728 15.4839C21.8214 15.4839 21.1979 15.7616 20.7623 16.2457L17.9742 19.3441C17.0338 20.3882 16.5161 21.7368 16.5161 23.1417V28.9033H15.4839V23.1417C15.4839 21.7368 14.9662 20.3882 14.0263 19.3441L11.2382 16.2457C10.8026 15.7616 10.1791 15.4839 9.52723 15.4839C8.25806 15.4839 7.22581 16.5162 7.22581 17.7853V17.9015C7.22581 18.4656 7.43226 19.0091 7.80697 19.4308L9.80387 21.6775H7.98916C7.62013 21.6775 7.26194 21.5453 6.98168 21.3048L4.66994 19.3229C4.32619 19.0282 4.12903 18.5998 4.12903 18.1471V12.3871C4.12903 11.2486 3.2031 10.3226 2.06452 10.3226C0.925935 10.3226 0 11.2486 0 12.3871V18.8909C0 20.4785 0.670968 22.0037 1.84103 23.0762L5.3569 26.2989C5.88852 26.7861 6.19355 27.4798 6.19355 28.2013V28.9033H5.16129V32H15.4839H16.5161H26.8387V28.9033H25.8064V28.2013C25.8064 27.4798 26.1115 26.7866 26.6436 26.2989L30.1595 23.0762C31.329 22.0037 32 20.4785 32 18.8909V12.3871C32 11.2486 31.0741 10.3226 29.9355 10.3226ZM15.4839 30.9678H6.19355V29.9355H12.3871V28.9033H7.22581V28.2013C7.22581 27.1913 6.79897 26.2204 6.05419 25.5376L2.53832 22.3149C1.5809 21.438 1.03226 20.1895 1.03226 18.8909V12.3871C1.03226 11.8179 1.49523 11.3549 2.06452 11.3549C2.63381 11.3549 3.09677 11.8179 3.09677 12.3871V18.1471C3.09677 18.9017 3.42555 19.6161 3.99794 20.1064L6.31019 22.0883C6.77781 22.4893 7.37445 22.7097 7.98916 22.7097H10.721L11.4849 23.5691L12.2565 22.8831L8.57858 18.7453C8.37213 18.5126 8.25806 18.2132 8.25806 17.902V17.7859C8.25806 17.086 8.82787 16.5162 9.52723 16.5162C9.88645 16.5162 10.2302 16.6695 10.4707 16.9363L13.2588 20.0346C14.0284 20.8888 14.4516 21.9923 14.4516 23.1417V28.9033H13.4194V29.9355H15.4839V30.9678ZM30.9677 18.8909C30.9677 20.1895 30.4191 21.438 29.4617 22.3149L25.9458 25.5376C25.201 26.2204 24.7742 27.1913 24.7742 28.2013V28.9033H19.6129V29.9355H25.8064V30.9678H16.5161V29.9355H18.5806V28.9033H17.5484V23.1417C17.5484 21.9923 17.9716 20.8888 18.7406 20.0341L21.5288 16.9358C21.7693 16.6695 22.113 16.5162 22.4728 16.5162C23.1721 16.5162 23.7419 17.086 23.7419 17.7853V17.9015C23.7419 18.2127 23.6279 18.5121 23.4209 18.7448L19.743 22.8826L20.5146 23.5686L21.2785 22.7097H24.0103C24.6255 22.7097 25.2222 22.4893 25.6898 22.0883L28.0015 20.1064C28.5744 19.6161 28.9032 18.9017 28.9032 18.1471V12.3871C28.9032 11.8179 29.3662 11.3549 29.9355 11.3549C30.5048 11.3549 30.9677 11.8179 30.9677 12.3871V18.8909Z" fill="white"/>
<path d="M15.9981 6.19349C15.4288 6.19349 14.9659 5.73052 14.9659 5.16123C14.9659 4.59194 15.4288 4.12897 15.9981 4.12897C16.5674 4.12897 17.0304 4.59194 17.0304 5.16123H18.0626C18.0626 4.20226 17.402 3.40071 16.5142 3.17V2.06445H15.482V3.17C14.5942 3.40071 13.9336 4.20226 13.9336 5.16123C13.9336 6.29981 14.8595 7.22574 15.9981 7.22574C16.5674 7.22574 17.0304 7.68871 17.0304 8.258C17.0304 8.82729 16.5674 9.29026 15.9981 9.29026C15.4288 9.29026 14.9659 8.82729 14.9659 8.258H13.9336C13.9336 9.21697 14.5942 10.0185 15.482 10.2492V11.3548H16.5142V10.2492C17.402 10.0185 18.0626 9.21697 18.0626 8.258C18.0626 7.11942 17.1367 6.19349 15.9981 6.19349Z" fill="white"/>
<path d="M15.9987 0C12.2991 0 9.28906 3.01006 9.28906 6.70968C9.28906 10.4093 12.2991 13.4194 15.9987 13.4194C19.6984 13.4194 22.7084 10.4093 22.7084 6.70968C22.7084 3.01006 19.6984 0 15.9987 0ZM15.9987 12.3871C12.8684 12.3871 10.3213 9.84 10.3213 6.70968C10.3213 3.57935 12.8684 1.03226 15.9987 1.03226C19.1291 1.03226 21.6762 3.57935 21.6762 6.70968C21.6762 9.84 19.1291 12.3871 15.9987 12.3871Z" fill="white"/>
<path d="M28.3873 2.06458C26.3951 2.06458 24.7744 3.68522 24.7744 5.67748C24.7744 7.66974 26.3951 9.29038 28.3873 9.29038C30.3796 9.29038 32.0002 7.66974 32.0002 5.67748C32.0002 3.68522 30.3796 2.06458 28.3873 2.06458ZM28.3873 8.25812C26.9643 8.25812 25.8067 7.10045 25.8067 5.67748C25.8067 4.25451 26.9643 3.09683 28.3873 3.09683C29.8103 3.09683 30.968 4.25451 30.968 5.67748C30.968 7.10045 29.8103 8.25812 28.3873 8.25812Z" fill="white"/>
<path d="M28.9044 5.16141V4.12915H27.8721V5.16141H26.8398V6.19367H27.8721V7.22592H28.9044V6.19367H29.9366V5.16141H28.9044Z" fill="white"/>
<path d="M3.6129 2.06458C1.62065 2.06458 0 3.68522 0 5.67748C0 7.66974 1.62065 9.29038 3.6129 9.29038C5.60516 9.29038 7.22581 7.66974 7.22581 5.67748C7.22581 3.68522 5.60516 2.06458 3.6129 2.06458ZM3.6129 8.25812C2.18994 8.25812 1.03226 7.10045 1.03226 5.67748C1.03226 4.25451 2.18994 3.09683 3.6129 3.09683C5.03587 3.09683 6.19355 4.25451 6.19355 5.67748C6.19355 7.10045 5.03587 8.25812 3.6129 8.25812Z" fill="white"/>
<path d="M4.13092 5.16141V4.12915H3.09866V5.16141H2.06641V6.19367H3.09866V7.22592H4.13092V6.19367H5.16318V5.16141H4.13092Z" fill="white"/>
<path d="M20.6455 6.1936H19.6133V7.22586H20.6455V6.1936Z" fill="white"/>
<path d="M12.3868 6.1936H11.3545V7.22586H12.3868V6.1936Z" fill="white"/>
<path d="M8.77445 0H7.74219V1.03226H8.77445V0Z" fill="white"/>
<path d="M8.77445 2.06458H7.74219V3.09683H8.77445V2.06458Z" fill="white"/>
<path d="M9.80667 1.03223H8.77441V2.06448H9.80667V1.03223Z" fill="white"/>
<path d="M7.7432 1.03223H6.71094V2.06448H7.7432V1.03223Z" fill="white"/>
<path d="M24.7744 10.3226H23.7422V11.3549H24.7744V10.3226Z" fill="white"/>
<path d="M24.7744 12.3871H23.7422V13.4193H24.7744V12.3871Z" fill="white"/>
<path d="M25.8067 11.3549H24.7744V12.3871H25.8067V11.3549Z" fill="white"/>
<path d="M23.7432 11.3547H22.7109V12.387H23.7432V11.3547Z" fill="white"/>
</svg>
