<svg width="32" height="32" viewBox="0 0 32 32" fill="none" xmlns="http://www.w3.org/2000/svg">
<path d="M20.9357 8.61279H5.61137C5.35137 8.61279 5.14062 8.82354 5.14062 9.08354C5.14062 9.34354 5.35137 9.55429 5.61137 9.55429H20.9357C21.1957 9.55429 21.4065 9.34354 21.4065 9.08354C21.4065 8.82354 21.1957 8.61279 20.9357 8.61279Z" fill="white"/>
<path d="M5.61137 6.28891H13.2735C13.5335 6.28891 13.7443 6.07816 13.7443 5.81816C13.7443 5.55816 13.5335 5.34741 13.2735 5.34741H5.61137C5.35137 5.34741 5.14062 5.55816 5.14062 5.81816C5.14062 6.07822 5.35137 6.28891 5.61137 6.28891Z" fill="white"/>
<path d="M20.9357 11.5061H5.61137C5.35137 11.5061 5.14062 11.7169 5.14062 11.9769C5.14062 12.2369 5.35137 12.4476 5.61137 12.4476H20.9357C21.1957 12.4476 21.4065 12.2369 21.4065 11.9769C21.4064 11.7169 21.1957 11.5061 20.9357 11.5061Z" fill="white"/>
<path d="M9.10238 28.7292H4.19819C3.39325 28.7292 2.73831 28.0744 2.73831 27.2694V2.40131C2.73831 1.59638 3.39325 0.941437 4.19819 0.941437H18.3267C18.3723 0.941437 18.4172 0.945625 18.4617 0.951625V3.8875C18.4617 5.21163 19.5389 6.28881 20.863 6.28881H23.7988C23.8049 6.33331 23.809 6.37825 23.809 6.42387V14.4402C23.809 14.7002 24.0197 14.9109 24.2797 14.9109C24.5397 14.9109 24.7505 14.7002 24.7505 14.4402V6.42394C24.7505 5.90756 24.5494 5.42206 24.1842 5.05688L19.6936 0.56625C19.3285 0.201125 18.8431 0 18.3267 0H4.19819C2.87406 0 1.79688 1.07725 1.79688 2.40131V27.2694C1.79688 28.5935 2.87413 29.6707 4.19819 29.6707H9.10238C9.36238 29.6707 9.57312 29.4599 9.57312 29.1999C9.57312 28.9399 9.36238 28.7292 9.10238 28.7292ZM23.1433 5.34737H20.8631C20.0581 5.34737 19.4032 4.69244 19.4032 3.8875V1.60725L23.1433 5.34737Z" fill="white"/>
<path d="M30.0619 23.0456L26.0733 16.3131C25.7826 15.8222 25.15 15.66 24.6588 15.9509L23.6886 16.5257C22.9356 16.9718 22.6173 17.8746 22.8758 18.6747C22.549 18.7931 22.1906 18.7913 21.8606 18.6637C21.0946 18.4227 20.5122 17.9379 19.5504 18.1811C17.9173 18.597 17.9669 18.5761 17.8191 18.6268C16.8629 18.0823 16.2881 17.9203 15.273 18.313L14.3681 18.6628C13.9491 18.8247 13.4875 18.7863 13.1004 18.557L12.8535 18.4114C12.974 17.6894 12.6538 16.9275 11.9758 16.5258C11.9758 16.5258 11.9758 16.5258 11.9757 16.5258L11.0056 15.951C10.5158 15.661 9.88133 15.8233 9.59121 16.3131L5.60246 23.0456C5.31177 23.5364 5.47352 24.1692 5.96452 24.46L6.93465 25.0348C7.22821 25.2087 7.55083 25.2914 7.86958 25.2914C8.22502 25.2914 8.57546 25.1884 8.87508 24.9944L9.07727 25.1137L8.6504 25.7083C8.14171 26.4169 8.30333 27.4023 9.01208 27.911C9.33983 28.1463 9.75158 28.2537 10.1774 28.1868C10.245 28.5818 10.4613 28.9514 10.8117 29.203C11.1408 29.4393 11.5506 29.5468 11.9772 29.4796C12.045 29.8743 12.2612 30.2436 12.6114 30.495C13.082 30.8328 13.6671 30.8719 14.1547 30.6636C14.2614 30.9408 14.4468 31.191 14.7055 31.3768C15.381 31.8616 16.3115 31.7351 16.8364 31.107L17.9708 31.779C18.721 32.2236 19.6889 31.9765 20.1337 31.2255C20.2475 31.0335 20.318 30.8242 20.3438 30.6091L20.3464 30.6107C21.0955 31.0543 22.0656 30.806 22.5093 30.0571C22.6378 29.8401 22.7083 29.6048 22.7254 29.369C23.3856 29.535 24.1052 29.2577 24.4696 28.6427C24.5891 28.441 24.6585 28.223 24.6813 28.0037C25.3889 28.2814 26.216 28.013 26.6156 27.3385C26.8305 26.9757 26.8913 26.551 26.7868 26.1424C26.727 25.9086 26.617 25.6965 26.466 25.5173L27.0912 25.152C27.6201 25.3691 28.2238 25.3343 28.7296 25.0347L29.6996 24.46C30.1906 24.1693 30.3528 23.5366 30.0619 23.0456ZM7.41452 24.2248L6.4444 23.65C6.40127 23.6245 6.38696 23.5686 6.41246 23.5255L10.4012 16.7928C10.4269 16.7495 10.483 16.7354 10.5258 16.7609L11.4959 17.3356C11.927 17.591 12.0618 18.1439 11.8111 18.5671L8.64602 23.9096C8.3934 24.3361 7.84102 24.4774 7.41452 24.2248ZM9.56108 27.1462C9.27521 26.941 9.20983 26.5433 9.41521 26.2573L10.0426 25.3833C10.2425 25.1049 10.6408 25.0287 10.9315 25.2374C11.2168 25.4422 11.2823 25.8409 11.0775 26.1262L10.45 27.0002C10.2452 27.2856 9.84627 27.3509 9.56108 27.1462ZM11.3608 28.4383C11.0755 28.2334 11.01 27.8346 11.2148 27.5493L11.8423 26.6754C11.8423 26.6754 11.8423 26.6754 11.8423 26.6753C11.8423 26.6753 11.8423 26.6753 11.8423 26.6753L12.5348 25.7108C12.634 25.5726 12.7811 25.4812 12.949 25.4537C12.9838 25.448 13.0188 25.4451 13.0535 25.4451C13.1856 25.4451 13.3141 25.4863 13.4236 25.5648C13.5618 25.6641 13.6531 25.8111 13.6806 25.979C13.7082 26.1469 13.6688 26.3155 13.5695 26.4536L12.2496 28.2923C12.0445 28.5782 11.6468 28.6436 11.3608 28.4383ZM13.1605 29.7302C12.8753 29.5255 12.8098 29.127 13.0142 28.8417C13.0143 28.8416 13.0144 28.8415 13.0145 28.8413L14.3344 27.0028C14.5391 26.7175 14.9381 26.652 15.2233 26.8568C15.5086 27.0616 15.574 27.4603 15.3692 27.7456L14.7828 28.5626C14.7828 28.5626 14.7828 28.5626 14.7827 28.5626L14.0493 29.5843C13.8445 29.8696 13.4458 29.9351 13.1605 29.7302ZM15.2546 30.612C14.9695 30.4072 14.9039 30.0089 15.1082 29.7236L15.5475 29.1117C15.7523 28.8263 16.1512 28.7611 16.4364 28.9658C16.7216 29.1705 16.7871 29.5693 16.5823 29.8546L16.1434 30.466C15.9386 30.7513 15.5398 30.8168 15.2546 30.612ZM25.8058 26.8587C25.6266 27.161 25.2351 27.2613 24.9328 27.0822C24.4208 26.7789 21.118 24.8222 20.7659 24.6136C20.5421 24.4811 20.2535 24.5549 20.121 24.7786C19.9885 25.0023 20.0623 25.291 20.286 25.4235L23.4361 27.2898L23.4362 27.2899C23.7386 27.469 23.8395 27.8593 23.6597 28.163C23.4805 28.4654 23.0888 28.5655 22.7866 28.3865C21.6215 27.6963 20.6754 27.1358 19.6347 26.5192C19.4109 26.3867 19.1223 26.4605 18.9898 26.6842C18.8573 26.9079 18.9311 27.1966 19.1548 27.3291L21.4759 28.7043L21.4764 28.7046C21.779 28.8843 21.8789 29.2744 21.6995 29.5774C21.5203 29.8798 21.1287 29.98 20.8263 29.8009L19.5806 29.063C19.5805 29.0629 19.5803 29.0628 19.5801 29.0627C19.58 29.0626 19.5799 29.0626 19.5798 29.0625L18.6707 28.5239C18.447 28.3913 18.1583 28.4651 18.0258 28.6889C17.8933 28.9126 17.9671 29.2013 18.1908 29.3338L19.1 29.8725C19.1001 29.8726 19.1003 29.8727 19.1004 29.8728C19.4028 30.0519 19.5037 30.4421 19.3239 30.7458C19.1447 31.0482 18.7531 31.1484 18.4507 30.9693L17.39 30.341C17.8447 29.6393 17.6718 28.6938 16.9855 28.2012C16.7839 28.0566 16.5595 27.9665 16.3299 27.9278C16.5734 27.2768 16.3635 26.5166 15.7723 26.0923C15.4223 25.8409 15.0032 25.7541 14.6077 25.8161C14.5373 25.4045 14.3123 25.044 13.9727 24.8003C13.3341 24.342 12.4662 24.4301 11.9301 24.9724C11.8212 24.7811 11.6708 24.6095 11.4806 24.4729C10.9499 24.092 10.2609 24.0885 9.73552 24.4093L9.51983 24.282L12.4805 19.2845L12.6214 19.3676C13.2439 19.7364 14.0035 19.8133 14.7075 19.541L15.6124 19.1912C16.1302 18.9911 16.4158 18.978 16.928 19.2197C16.5928 19.5962 16.3939 20.0905 16.3939 20.6233V22.7105C16.3939 23.2648 16.8446 23.7161 17.3985 23.7165H17.3999C17.9555 23.7165 18.478 23.5002 18.8711 23.1074C19.1002 22.8784 19.2693 22.6054 19.3707 22.3074C19.9785 22.6673 25.0002 25.641 25.5824 25.986C25.7288 26.0727 25.8327 26.2113 25.8749 26.3761C25.9171 26.5408 25.8925 26.7123 25.8058 26.8587ZM29.22 23.65L28.2498 24.2248C27.8233 24.4773 27.271 24.3359 27.0185 23.9096L25.535 21.4056C25.4024 21.1819 25.1135 21.1081 24.89 21.2405C24.6663 21.373 24.5925 21.6617 24.7249 21.8854L26.2084 24.3895C26.2363 24.4366 26.2666 24.4815 26.298 24.5251L25.8856 24.7661C25.8022 24.8155 25.722 24.8698 25.6453 24.9289L19.2501 21.1417C18.9368 20.9563 18.5396 21.1823 18.5396 21.5467C18.5346 21.5748 18.5882 22.0587 18.2055 22.4413C17.9903 22.6563 17.7041 22.7748 17.3998 22.7748C17.3996 22.7748 17.3993 22.7748 17.3991 22.7748C17.3639 22.7748 17.3353 22.7458 17.3353 22.7102V20.623C17.3353 20.0778 17.7104 19.6178 18.2177 19.4893L19.7812 19.0936C20.3485 18.9503 20.6692 19.2532 21.5186 19.5407C22.1083 19.7688 22.7495 19.7548 23.3186 19.5117L23.6028 19.9913C23.7353 20.2151 24.0241 20.2889 24.2477 20.1565C24.4714 20.024 24.5453 19.7352 24.4128 19.5115L23.8532 18.567C23.6 18.1396 23.7411 17.5888 24.1684 17.3355L25.1385 16.7608C25.1809 16.7356 25.237 16.7485 25.2632 16.7928L29.2518 23.5253C29.2776 23.5688 29.2634 23.6243 29.22 23.65Z" fill="white"/>
</svg>
