<svg width="32" height="32" viewBox="0 0 32 32" fill="none" xmlns="http://www.w3.org/2000/svg">
<path d="M11.5 26H12.5V27H11.5V26Z" fill="white"/>
<path d="M11.5 24H12.5V25H11.5V24Z" fill="white"/>
<path d="M26.9777 18.9971L26.0777 19.0036L25.7772 18.1096L25.4962 18.0516C25.1642 17.9831 24.8362 17.9831 24.5042 18.0516L24.2212 18.1101L23.9267 19.0026L22.9697 18.9986L22.8272 19.2606C22.6657 19.5566 22.5422 19.9566 22.5037 20.3041L22.4727 20.5871L23.2562 21.1771L22.9557 22.1361L23.1437 22.3476C23.3717 22.6041 23.6407 22.8071 23.9427 22.9516L24.2167 23.0826L25.0002 22.4911L25.7842 23.0821L26.0582 22.9511C26.3602 22.8071 26.6292 22.6041 26.8572 22.3471L27.0452 22.1356L26.7447 21.1766L27.5282 20.5866L27.4972 20.3036C27.4652 20.0101 27.3382 19.6591 27.1207 19.2601L26.9777 18.9971ZM25.5797 20.8021L25.9137 21.8691C25.9017 21.8791 25.8887 21.8891 25.8757 21.8986L25.0002 21.2391L24.1247 21.8986C24.1117 21.8891 24.0987 21.8791 24.0867 21.8691L24.4207 20.8021L23.5492 20.1461C23.5622 20.0971 23.5772 20.0486 23.5932 20.0011L24.6492 20.0056L24.9802 19.0001C24.9942 19.0001 25.0082 18.9996 25.0222 19.0001L25.3612 20.0091L26.3732 20.0016C26.3972 20.0561 26.4187 20.1081 26.4362 20.1576L25.5797 20.8021Z" fill="white"/>
<path d="M25 16C22.5185 16 20.5 18.019 20.5 20.5C20.5 22.981 22.5185 25 25 25C27.4815 25 29.5 22.981 29.5 20.5C29.5 18.019 27.4815 16 25 16ZM25 24C23.0705 24 21.5 22.43 21.5 20.5C21.5 18.57 23.0705 17 25 17C26.9295 17 28.5 18.57 28.5 20.5C28.5 22.43 26.9295 24 25 24Z" fill="white"/>
<path d="M25 14C22.3205 14 20.0155 15.63 19.022 17.9505C18.7825 17.792 18.534 17.6495 18.273 17.531C18.3055 17.494 18.3325 17.459 18.3685 17.419C18.6355 17.1295 19 16.7325 19 15.9955C19 15.2585 18.6345 14.8625 18.367 14.5735C18.138 14.326 18 14.1765 18 13.8305C18 13.4845 18.138 13.335 18.367 13.0875C18.6345 12.7985 19 12.4025 19 11.6655C19 10.9285 18.6345 10.5325 18.367 10.2435C18.138 9.9955 18 9.8455 18 9.5V7.0785C18 3.451 15.049 0.5 11.4215 0.5C9.412 0.5 7.54 1.4 6.2845 2.969L6.21 3.062C4.9005 3.4675 4 4.677 4 6.0615V9.5C4 9.8455 3.862 9.9955 3.633 10.2435C3.3655 10.5325 3 10.9285 3 11.6655C3 12.4025 3.3655 12.7985 3.633 13.0875C3.862 13.335 4 13.485 4 13.8305C4 14.176 3.862 14.326 3.633 14.5735C3.3655 14.863 3 15.259 3 15.9955C3 16.732 3.3645 17.1295 3.631 17.419C3.6675 17.459 3.6945 17.494 3.727 17.531C1.779 18.416 0.5 20.3705 0.5 22.5375V29H20.5V31.1405L25 30.0155L29.5 31.1405V25.1795C30.73 23.996 31.5 22.3375 31.5 20.5C31.5 16.916 28.584 14 25 14ZM4.367 15.2525C4.6345 14.9635 5 14.5675 5 13.8305C5 13.0935 4.6345 12.6975 4.367 12.4085C4.138 12.161 4 12.011 4 11.6655C4 11.32 4.138 11.17 4.367 10.922C4.6345 10.633 5 10.237 5 9.5V6.0615C5 5.0775 5.6665 4.224 6.621 3.985L6.785 3.944L7.0655 3.5935C8.13 2.263 9.718 1.5 11.4215 1.5C14.4975 1.5 17 4.0025 17 7.0785V9.5C17 10.237 17.3655 10.633 17.633 10.922C17.862 11.17 18 11.32 18 11.6655C18 12.011 17.862 12.161 17.633 12.4085C17.3655 12.698 17 13.094 17 13.8305C17 14.567 17.3655 14.9635 17.633 15.2525C17.862 15.5 18 15.65 18 15.9955C18 16.3425 17.862 16.4935 17.633 16.7425C17.525 16.8605 17.4035 16.997 17.2955 17.162L13.6675 15.8815C13.298 15.751 13.0505 15.4145 13.0145 15.0295C14.8535 13.727 16 11.597 16 9.2565V7H14.621C13.3865 7 12.2265 6.5195 11.3535 5.6465L11 5.293L10.6465 5.6465C9.7735 6.5195 8.6135 7 7.379 7H6V9.2565C6 11.597 7.1465 13.727 8.9855 15.03C8.949 15.4145 8.702 15.7515 8.3325 15.882L4.7045 17.1625C4.5965 16.9975 4.4755 16.861 4.367 16.743C4.138 16.4935 4 16.343 4 15.9955C4 15.65 4.138 15.5 4.367 15.2525ZM11 21.927C10.7015 21.646 10.42 21.349 10.1615 21.0335L11 19.86L11.8385 21.0335C11.58 21.349 11.2985 21.646 11 21.927ZM11 14.9705C8.6005 14.0975 7 11.8225 7 9.2565V8H7.379C8.7195 8 9.988 7.534 11 6.6785C12.012 7.534 13.281 8 14.621 8H15V9.2565C15 11.8225 13.3995 14.0975 11 14.9705ZM10.842 15.9745L11 16.027L11.158 15.9745C11.4875 15.8645 11.803 15.7295 12.1065 15.577C12.166 15.7525 12.249 15.918 12.353 16.0695L11 18.0985L9.647 16.0685C9.751 15.917 9.834 15.752 9.893 15.5765C10.1965 15.7295 10.512 15.8645 10.842 15.9745ZM8.6655 16.8245C8.7415 16.7975 8.813 16.7625 8.8845 16.7275L10.393 18.99L9.5405 20.1835C8.9085 19.2105 8.46 18.1245 8.2165 16.983L8.6655 16.8245ZM12.46 20.184L11.6075 18.9905L13.116 16.728C13.187 16.763 13.2585 16.798 13.3345 16.825L13.784 16.9835C13.5405 18.125 13.092 19.211 12.46 20.184ZM1.5 22.5375C1.5 20.633 2.7065 18.9275 4.5025 18.294L7.266 17.3185C7.721 19.33 8.7655 21.1745 10.2595 22.6005L9.5 23.2755V28H5.5V21H4.5V28H1.5V22.5375ZM17.5 28V21.5H16.5V28H10.5V23.7245L11.4755 22.857C13.1145 21.4005 14.252 19.45 14.734 17.3185L17.4975 18.294C17.929 18.4465 18.33 18.666 18.6965 18.9425C18.573 19.4425 18.5 19.962 18.5 20.5C18.5 22.3375 19.27 23.996 20.5 25.1795V28H17.5ZM28.5 29.8595L25 28.9845L21.5 29.8595V25.9685C22.5115 26.618 23.711 27 25 27C26.289 27 27.4885 26.618 28.5 25.9685V29.8595ZM25 26C21.9675 26 19.5 23.5325 19.5 20.5C19.5 17.4675 21.9675 15 25 15C28.0325 15 30.5 17.4675 30.5 20.5C30.5 23.5325 28.0325 26 25 26Z" fill="white"/>
<path d="M30 0.5H20.5C19.673 0.5 19 1.173 19 2V8.5C19 9.327 19.673 10 20.5 10H23.5V11.523C23.5 12.3375 24.1625 13 24.977 13C25.472 13 25.9315 12.754 26.206 12.3425L27.7675 10H30C30.827 10 31.5 9.327 31.5 8.5V2C31.5 1.173 30.827 0.5 30 0.5ZM30.5 8.5C30.5 8.7755 30.276 9 30 9H27.2325L25.374 11.7875C25.285 11.9205 25.1365 12 24.977 12C24.714 12 24.5 11.786 24.5 11.523V9H20.5C20.224 9 20 8.7755 20 8.5V2C20 1.7245 20.224 1.5 20.5 1.5H30C30.276 1.5 30.5 1.7245 30.5 2V8.5Z" fill="white"/>
<path d="M24.5019 6.29298L23.3554 5.14648L22.6484 5.85348L24.5019 7.70698L28.8554 3.35348L28.1484 2.64648L24.5019 6.29298Z" fill="white"/>
</svg>
