<svg width="32" height="32" viewBox="0 0 32 32" fill="none" xmlns="http://www.w3.org/2000/svg">
<g clip-path="url(#clip0)">
<path d="M3.6836 11.7216C3.77491 11.8129 3.89478 11.8588 4.01466 11.8588C4.13453 11.8588 4.2544 11.8132 4.34596 11.7216C4.52882 11.5388 4.52882 11.2421 4.34596 11.0593L3.20874 9.92207L4.34596 8.7851C4.52882 8.60199 4.52882 8.3056 4.34596 8.12274C4.16309 7.93988 3.86646 7.93988 3.6836 8.12274L2.21533 9.59101C2.12744 9.6789 2.07812 9.79804 2.07812 9.92207C2.07812 10.0463 2.12744 10.1655 2.21533 10.2534L3.6836 11.7216Z" fill="white"/>
<path d="M8.33292 9.92206L7.19571 11.0593C7.01285 11.2421 7.01285 11.5388 7.19595 11.7216C7.28726 11.8129 7.40714 11.8588 7.52701 11.8588C7.64688 11.8588 7.76676 11.8129 7.85807 11.7216L9.32658 10.2531C9.50944 10.0703 9.50944 9.77363 9.32658 9.59101L7.85807 8.1225C7.6752 7.93964 7.37882 7.93964 7.19595 8.1225C7.01285 8.3056 7.01285 8.60199 7.19595 8.78485L8.33292 9.92206Z" fill="white"/>
<path d="M5.07451 11.8265C5.13066 11.8485 5.18877 11.859 5.24565 11.859C5.43267 11.859 5.60918 11.7462 5.68169 11.5618L6.83526 8.62505C6.92999 8.38433 6.81134 8.1126 6.57061 8.01787C6.33013 7.92339 6.05816 8.04179 5.96368 8.28252L4.80986 11.2193C4.71538 11.46 4.83379 11.732 5.07451 11.8265Z" fill="white"/>
<path d="M2.81201 14.6065H5.96705C6.2256 14.6065 6.43532 14.3967 6.43532 14.1379C6.43532 13.8794 6.2256 13.6697 5.96705 13.6697H2.81201C2.55322 13.6697 2.34375 13.8794 2.34375 14.1379C2.34375 14.3967 2.55322 14.6065 2.81201 14.6065Z" fill="white"/>
<path d="M13.2339 13.6697H7.68701C7.42847 13.6697 7.21875 13.8794 7.21875 14.1379C7.21875 14.3967 7.42847 14.6065 7.68701 14.6065H13.2339C13.4927 14.6065 13.7024 14.3967 13.7024 14.1379C13.7024 13.8794 13.4927 13.6697 13.2339 13.6697Z" fill="white"/>
<path d="M2.81201 16.5818H4.15601C4.41456 16.5818 4.62427 16.3721 4.62427 16.1133C4.62427 15.8547 4.41456 15.645 4.15601 15.645H2.81201C2.55322 15.645 2.34375 15.8547 2.34375 16.1133C2.34375 16.3721 2.55322 16.5818 2.81201 16.5818Z" fill="white"/>
<path d="M11.5229 15.645C11.2642 15.645 11.0547 15.8547 11.0547 16.1133C11.0547 16.3721 11.2642 16.5818 11.5229 16.5818H12.3413C12.6001 16.5818 12.8098 16.3721 12.8098 16.1133C12.8098 15.8547 12.6001 15.645 12.3413 15.645H11.5229Z" fill="white"/>
<path d="M10.2886 16.1133C10.2886 15.8547 10.0789 15.645 9.82033 15.645H5.80029C5.5415 15.645 5.33203 15.8547 5.33203 16.1133C5.33203 16.3721 5.5415 16.5818 5.80029 16.5818H9.82033C10.0789 16.5818 10.2886 16.3721 10.2886 16.1133Z" fill="white"/>
<path d="M13.3555 16.1133C13.3555 16.3721 13.5652 16.5818 13.8237 16.5818H15.3567C15.6155 16.5818 15.8252 16.3721 15.8252 16.1133C15.8252 15.8547 15.6155 15.645 15.3567 15.645H13.8237C13.5652 15.645 13.3555 15.8547 13.3555 16.1133Z" fill="white"/>
<path d="M10.8044 10.2979H12.4214C12.6802 10.2979 12.8899 10.0881 12.8899 9.82935C12.8899 9.5708 12.6802 9.36108 12.4214 9.36108H10.8044C10.5457 9.36108 10.3359 9.5708 10.3359 9.82935C10.3359 10.0881 10.5457 10.2979 10.8044 10.2979Z" fill="white"/>
<path d="M14.2341 10.2979H24.1001C24.3589 10.2979 24.5684 10.0881 24.5684 9.82935C24.5684 9.5708 24.3589 9.36108 24.1001 9.36108H14.2341C13.9753 9.36108 13.7656 9.5708 13.7656 9.82935C13.7656 10.0881 13.9753 10.2979 14.2341 10.2979Z" fill="white"/>
<path d="M22.6016 11.4216H18.605C18.3464 11.4216 18.1367 11.6313 18.1367 11.8901C18.1367 12.1487 18.3464 12.3584 18.605 12.3584H22.6016C22.8601 12.3584 23.0698 12.1487 23.0698 11.8901C23.0698 11.6313 22.8601 11.4216 22.6016 11.4216Z" fill="white"/>
<path d="M17.1077 11.4216H15.7339C15.4751 11.4216 15.2656 11.6313 15.2656 11.8901C15.2656 12.1487 15.4751 12.3584 15.7339 12.3584H17.1077C17.3665 12.3584 17.5759 12.1487 17.5759 11.8901C17.5759 11.6313 17.3665 11.4216 17.1077 11.4216Z" fill="white"/>
<path d="M10.8044 12.3584H14.1699C14.4285 12.3584 14.6382 12.1487 14.6382 11.8901C14.6382 11.6313 14.4285 11.4216 14.1699 11.4216H10.8044C10.5457 11.4216 10.3359 11.6313 10.3359 11.8901C10.3359 12.1487 10.5457 12.3584 10.8044 12.3584Z" fill="white"/>
<path d="M9.82643 17.6038H6.67163C6.41284 17.6038 6.20312 17.8135 6.20312 18.072C6.20312 18.3306 6.41284 18.5403 6.67163 18.5403H9.82643C10.085 18.5403 10.2947 18.3306 10.2947 18.072C10.2947 17.8135 10.085 17.6038 9.82643 17.6038Z" fill="white"/>
<path d="M5.23585 17.6038H2.81201C2.55322 17.6038 2.34375 17.8135 2.34375 18.072C2.34375 18.3306 2.55322 18.5403 2.81201 18.5403H5.23585C5.49464 18.5403 5.70411 18.3306 5.70411 18.072C5.70411 17.8135 5.49464 17.6038 5.23585 17.6038Z" fill="white"/>
<path d="M15.5466 17.6038H11.4253C11.1665 17.6038 10.957 17.8135 10.957 18.072C10.957 18.3306 11.1665 18.5403 11.4253 18.5403H15.5466C15.8052 18.5403 16.0149 18.3306 16.0149 18.072C16.0149 17.8135 15.8052 17.6038 15.5466 17.6038Z" fill="white"/>
<path d="M21.1204 15.198H18.8667C18.6082 15.198 18.3984 15.4077 18.3984 15.6663C18.3984 15.925 18.6082 16.1348 18.8667 16.1348H21.1204C21.3792 16.1348 21.5886 15.925 21.5886 15.6663C21.5886 15.4077 21.3792 15.198 21.1204 15.198Z" fill="white"/>
<path d="M25.0308 16.1348H28.2122C28.471 16.1348 28.6807 15.925 28.6807 15.6663C28.6807 15.4077 28.471 15.198 28.2122 15.198H25.0308C24.772 15.198 24.5625 15.4077 24.5625 15.6663C24.5625 15.925 24.7722 16.1348 25.0308 16.1348Z" fill="white"/>
<path d="M23.4397 15.198H22.7107C22.4519 15.198 22.2422 15.4077 22.2422 15.6663C22.2422 15.925 22.4519 16.1348 22.7107 16.1348H23.4397C23.6985 16.1348 23.908 15.925 23.908 15.6663C23.908 15.4077 23.6985 15.198 23.4397 15.198Z" fill="white"/>
<path d="M18.8667 21.2383H21.1204C21.3792 21.2383 21.5886 21.0288 21.5886 20.77C21.5886 20.5115 21.3792 20.3018 21.1204 20.3018H18.8667C18.6082 20.3018 18.3984 20.5115 18.3984 20.77C18.3984 21.0288 18.6082 21.2383 18.8667 21.2383Z" fill="white"/>
<path d="M25.0308 21.2383H28.2122C28.471 21.2383 28.6807 21.0288 28.6807 20.77C28.6807 20.5115 28.471 20.3018 28.2122 20.3018H25.0308C24.772 20.3018 24.5625 20.5115 24.5625 20.77C24.5625 21.0288 24.7722 21.2383 25.0308 21.2383Z" fill="white"/>
<path d="M22.7105 21.2383H23.4395C23.6983 21.2383 23.908 21.0288 23.908 20.77C23.908 20.5115 23.6983 20.3018 23.4395 20.3018H22.7105C22.4517 20.3018 22.2422 20.5115 22.2422 20.77C22.2422 21.0288 22.4517 21.2383 22.7105 21.2383Z" fill="white"/>
<path d="M21.1204 25.4055H18.8667C18.6082 25.4055 18.3984 25.6152 18.3984 25.8738C18.3984 26.1323 18.6082 26.342 18.8667 26.342H21.1204C21.3792 26.342 21.5886 26.1323 21.5886 25.8738C21.5886 25.6152 21.3792 25.4055 21.1204 25.4055Z" fill="white"/>
<path d="M28.2122 25.4055H25.0308C24.772 25.4055 24.5625 25.6152 24.5625 25.8738C24.5625 26.1323 24.772 26.342 25.0308 26.342H28.2122C28.471 26.342 28.6807 26.1323 28.6807 25.8738C28.6807 25.6152 28.471 25.4055 28.2122 25.4055Z" fill="white"/>
<path d="M23.4397 25.4055H22.7107C22.4519 25.4055 22.2422 25.6152 22.2422 25.8738C22.2422 26.1323 22.4519 26.342 22.7107 26.342H23.4397C23.6985 26.342 23.908 26.1323 23.908 25.8738C23.908 25.6152 23.6985 25.4055 23.4397 25.4055Z" fill="white"/>
<path d="M29.9391 0.0625H2.06129C0.924808 0.0625 0 0.987065 0 2.12379V24.7843C0 25.9208 0.924808 26.8453 2.06129 26.8453H3.82375C4.08229 26.8453 4.29201 26.6359 4.29201 26.3771C4.29201 26.1185 4.08229 25.9088 3.82375 25.9088H2.06129C1.44117 25.9088 0.936771 25.4044 0.936771 24.7843V23.0077H17.9991V23.8148H17.6278C17.1197 23.8148 16.7066 24.2279 16.7066 24.736V25.9088H6.67117C6.41262 25.9088 6.20291 26.1185 6.20291 26.3771C6.20291 26.6359 6.41262 26.8453 6.67117 26.8453H11.1741V28.525H9.76005C8.81668 28.525 8.04935 29.2926 8.04935 30.2357V31.2475C8.04935 31.6779 8.39945 32.028 8.82987 32.028H23.1346C23.565 32.028 23.9151 31.6779 23.9151 31.2475V30.2357C23.9151 29.2926 23.1478 28.525 22.2044 28.525H20.7904V27.933H29.4484C29.9562 27.933 30.3693 27.5199 30.3693 27.0118V26.7914C31.2821 26.5795 31.9645 25.7604 31.9645 24.7843L31.9999 2.12354C32.0001 0.987065 31.0756 0.0625 29.9391 0.0625ZM17.6434 21.8927V19.6478H29.4327V21.8927H17.6434ZM18.9356 18.711V17.7257H28.1402V18.711H18.9356ZM28.1402 22.8292V23.8148H18.9356V22.8292H28.1402ZM12.1106 26.8453H16.7066V27.0121C16.7066 27.5199 17.1197 27.933 17.6278 27.933H19.8538V28.525H12.1106V26.8453ZM22.2047 29.4618C22.6314 29.4618 22.9786 29.809 22.9786 30.2357V31.0915H8.98588V30.2357C8.98588 29.809 9.33329 29.4618 9.76005 29.4618H22.2047ZM29.4327 26.9962H17.6434V24.7516H29.4327V26.9962ZM31.028 24.7843C31.028 25.2379 30.7574 25.6288 30.3695 25.8063V24.7357C30.3695 24.2279 29.9562 23.8148 29.4484 23.8148H29.077V23.0077H31.028V24.7843ZM31.028 22.0711H30.3541C30.3636 22.0182 30.3695 19.6322 30.3695 19.6322C30.3695 19.1241 29.9562 18.711 29.4484 18.711H29.077V17.7257H29.4484C29.9562 17.7257 30.3695 17.3123 30.3695 16.8045V14.5284C30.3695 14.0206 29.9562 13.6072 29.4484 13.6072H26.8031C26.5443 13.6072 26.3348 13.817 26.3348 14.0758C26.3348 14.3343 26.5443 14.544 26.8031 14.544H29.4327V16.7889H17.6434V14.544H23.889C24.1478 14.544 24.3573 14.3343 24.3573 14.0758C24.3573 13.817 24.1478 13.6072 23.889 13.6072H17.6278C17.1197 13.6072 16.7066 14.0206 16.7066 14.5284V16.8045C16.7066 17.3123 17.1197 17.7257 17.6278 17.7257H17.9991V18.711H17.6278C17.1197 18.711 16.7066 19.1244 16.7066 19.6322C16.7066 19.6322 16.7125 22.0182 16.722 22.0711H0.936771V6.43314H31.028V22.0711ZM31.028 5.49636H0.971195V2.12354C0.971195 1.50367 1.47559 0.999272 2.09571 0.999272H29.9034C30.5236 0.999272 31.028 1.50367 31.028 2.12379V5.49636Z" fill="white"/>
<path d="M3.4524 1.86011C2.69458 1.86011 2.07812 2.47657 2.07812 3.23438C2.07812 3.9922 2.69458 4.6089 3.4524 4.6089C4.21021 4.6089 4.82691 3.9922 4.82691 3.23438C4.82691 2.47657 4.21021 1.86011 3.4524 1.86011ZM3.4524 3.67213C3.21118 3.67213 3.01465 3.47584 3.01465 3.23438C3.01465 2.99317 3.21118 2.79664 3.4524 2.79664C3.69385 2.79664 3.89014 2.99317 3.89014 3.23438C3.89014 3.47584 3.69385 3.67213 3.4524 3.67213Z" fill="white"/>
<path d="M6.95265 1.86011C6.19483 1.86011 5.57812 2.47657 5.57812 3.23438C5.57812 3.9922 6.19483 4.6089 6.95265 4.6089C7.71047 4.6089 8.32693 3.9922 8.32693 3.23438C8.32693 2.47657 7.71022 1.86011 6.95265 1.86011ZM6.95265 3.67213C6.71119 3.67213 6.5149 3.47584 6.5149 3.23438C6.5149 2.99317 6.71119 2.79664 6.95265 2.79664C7.19386 2.79664 7.3904 2.99317 7.3904 3.23438C7.3904 3.47584 7.19386 3.67213 6.95265 3.67213Z" fill="white"/>
<path d="M10.4524 1.86011C9.69458 1.86011 9.07812 2.47657 9.07812 3.23438C9.07812 3.9922 9.69458 4.6089 10.4524 4.6089C11.2102 4.6089 11.8269 3.9922 11.8269 3.23438C11.8269 2.47657 11.2102 1.86011 10.4524 1.86011ZM10.4524 3.67213C10.2112 3.67213 10.0147 3.47584 10.0147 3.23438C10.0147 2.99317 10.2112 2.79664 10.4524 2.79664C10.6939 2.79664 10.8901 2.99317 10.8901 3.23438C10.8901 3.47584 10.6939 3.67213 10.4524 3.67213Z" fill="white"/>
</g>
<defs>
<clipPath id="clip0">
<rect width="32" height="32" fill="white"/>
</clipPath>
</defs>
</svg>
