<svg width="32" height="32" viewBox="0 0 32 32" fill="none" xmlns="http://www.w3.org/2000/svg">
<path d="M11.3151 8.9119L10.7739 9.10802C9.93867 9.4109 9.31554 10.1415 9.1476 11.0153L8.96398 11.9776C8.87235 12.4542 8.9971 12.9423 9.30642 13.3166C9.61585 13.6913 10.0721 13.9062 10.558 13.9062H15.249C15.7312 13.9062 16.1851 13.6941 16.4945 13.3244C16.8036 12.955 16.9322 12.4713 16.8473 11.9973L16.6761 11.0401C16.5174 10.1526 15.8922 9.41008 15.0443 9.1024L14.4706 8.89446V8.04884C14.4706 8.02509 14.4683 8.00196 14.4648 7.97915C14.8834 7.55302 15.1232 6.97196 15.1232 6.37746V5.11752C15.1232 3.88765 14.1225 2.88708 12.8926 2.88708C11.6627 2.88708 10.6619 3.88765 10.6619 5.11752V6.41671C10.6619 7.02783 10.9139 7.58577 11.319 7.99096C11.3167 8.00996 11.3151 8.02915 11.3151 8.04877V8.9119ZM15.7531 11.2051L15.9243 12.1625C15.9602 12.3625 15.9059 12.5667 15.7753 12.7227C15.6446 12.879 15.4527 12.9686 15.2489 12.9686H10.5579C10.3525 12.9686 10.1598 12.8779 10.029 12.7196C9.89854 12.5616 9.84585 12.3556 9.8846 12.154L10.0682 11.1917C10.174 10.641 10.5669 10.1803 11.0932 9.98946L11.4477 9.86102C11.4566 9.87015 11.4655 9.87933 11.4752 9.88777C11.8791 10.241 12.3858 10.4176 12.8928 10.4175C13.3992 10.4175 13.9057 10.2413 14.3097 9.88877C14.3243 9.87608 14.3377 9.8624 14.3504 9.84815L14.7243 9.98371C15.259 10.1776 15.6531 10.6456 15.7531 11.2051ZM11.5994 5.11752C11.5994 4.40465 12.1794 3.82458 12.8924 3.82458C13.4942 3.82458 13.9998 4.23834 14.1433 4.79584C14.0831 4.82527 14.0213 4.85308 13.958 4.8784C13.3816 5.10915 12.916 5.07852 12.783 4.98527C12.571 4.83665 12.2787 4.8879 12.13 5.0999C11.9814 5.3119 12.0327 5.60415 12.2447 5.75283C12.4736 5.9134 12.7843 5.99365 13.139 5.99365C13.4612 5.99365 13.8196 5.92671 14.1855 5.79427V6.37734C14.1855 6.73565 14.0373 7.08652 13.7789 7.33996C13.6593 7.45733 13.5222 7.54827 13.375 7.61102C13.3647 7.61496 13.3546 7.61921 13.3447 7.62384C13.1935 7.68365 13.032 7.71371 12.8669 7.7094C12.1679 7.69596 11.5994 7.11602 11.5994 6.41665V5.11752ZM12.8489 8.64683C12.8632 8.64708 12.8774 8.64721 12.8917 8.64721C13.1117 8.64721 13.3272 8.61415 13.533 8.55071V9.30065C13.1423 9.54152 12.6429 9.5414 12.2527 9.30027V8.55208C12.4424 8.60952 12.6422 8.64283 12.8489 8.64683Z" fill="white"/>
<path d="M5.51953 21.9314H20.1177C20.3766 21.9314 20.5864 21.7216 20.5864 21.4626C20.5864 21.2037 20.3766 20.9939 20.1177 20.9939H5.51953C5.26059 20.9939 5.05078 21.2037 5.05078 21.4626C5.05078 21.7216 5.26059 21.9314 5.51953 21.9314Z" fill="white"/>
<path d="M5.51953 24.4591H20.1177C20.3766 24.4591 20.5864 24.2493 20.5864 23.9904C20.5864 23.7314 20.3766 23.5216 20.1177 23.5216H5.51953C5.26059 23.5216 5.05078 23.7314 5.05078 23.9904C5.05078 24.2493 5.26059 24.4591 5.51953 24.4591Z" fill="white"/>
<path d="M5.51953 26.9866H20.1177C20.3766 26.9866 20.5864 26.7768 20.5864 26.5178C20.5864 26.2589 20.3766 26.0491 20.1177 26.0491H5.51953C5.26059 26.0491 5.05078 26.2589 5.05078 26.5178C5.05078 26.7768 5.26059 26.9866 5.51953 26.9866Z" fill="white"/>
<path d="M5.51953 29.514H20.1177C20.3766 29.514 20.5864 29.3042 20.5864 29.0453C20.5864 28.7864 20.3766 28.5765 20.1177 28.5765H5.51953C5.26059 28.5765 5.05078 28.7864 5.05078 29.0453C5.05078 29.3042 5.26059 29.514 5.51953 29.514Z" fill="white"/>
<path d="M5.05078 16.4077C5.05078 16.6666 5.26059 16.8764 5.51953 16.8764H20.1177C20.3766 16.8764 20.5864 16.6666 20.5864 16.4077C20.5864 16.1488 20.3766 15.939 20.1177 15.939H5.51953C5.26059 15.939 5.05078 16.1488 5.05078 16.4077Z" fill="white"/>
<path d="M5.51953 19.4041H20.1177C20.3766 19.4041 20.5864 19.1942 20.5864 18.9353C20.5864 18.6764 20.3766 18.4666 20.1177 18.4666H5.51953C5.26059 18.4666 5.05078 18.6764 5.05078 18.9353C5.05078 19.1942 5.26059 19.4041 5.51953 19.4041Z" fill="white"/>
<path d="M3.78691 21.9333C4.04678 21.9333 4.25747 21.7227 4.25747 21.4628C4.25747 21.203 4.04678 20.9923 3.78691 20.9923C3.52703 20.9923 3.31641 21.2029 3.31641 21.4628C3.31641 21.7227 3.52709 21.9333 3.78691 21.9333Z" fill="white"/>
<path d="M3.78691 16.8783C4.04678 16.8783 4.25747 16.6676 4.25747 16.4078C4.25747 16.1479 4.04678 15.9373 3.78691 15.9373C3.52703 15.9373 3.31641 16.1479 3.31641 16.4078C3.31641 16.6676 3.52709 16.8783 3.78691 16.8783Z" fill="white"/>
<path d="M3.78691 19.4057C4.04678 19.4057 4.25747 19.1951 4.25747 18.9352C4.25747 18.6753 4.04678 18.4647 3.78691 18.4647C3.52703 18.4647 3.31641 18.6753 3.31641 18.9352C3.31641 19.1951 3.52709 19.4057 3.78691 19.4057Z" fill="white"/>
<path d="M3.78691 24.4608C4.04678 24.4608 4.25747 24.2501 4.25747 23.9903C4.25747 23.7304 4.04678 23.5198 3.78691 23.5198C3.52703 23.5198 3.31641 23.7304 3.31641 23.9903C3.31641 24.2501 3.52709 24.4608 3.78691 24.4608Z" fill="white"/>
<path d="M3.78691 26.9884C4.04678 26.9884 4.25747 26.7777 4.25747 26.5179C4.25747 26.258 4.04678 26.0474 3.78691 26.0474C3.52703 26.0474 3.31641 26.258 3.31641 26.5179C3.31641 26.7777 3.52709 26.9884 3.78691 26.9884Z" fill="white"/>
<path d="M3.78691 29.5158C4.04678 29.5158 4.25747 29.3052 4.25747 29.0453C4.25747 28.7855 4.04678 28.5748 3.78691 28.5748C3.52703 28.5748 3.31641 28.7855 3.31641 29.0453C3.31641 29.3051 3.52709 29.5158 3.78691 29.5158Z" fill="white"/>
<path d="M30.3532 7.38256C30.1641 7.14319 29.9853 6.917 29.8989 6.70862C29.8057 6.48369 29.7689 6.1865 29.73 5.87175C29.6618 5.32037 29.5846 4.69544 29.1485 4.25938C28.7123 3.82331 28.0873 3.74606 27.536 3.67788C27.2212 3.639 26.9238 3.60225 26.6989 3.509C26.4905 3.42256 26.2643 3.24394 26.0249 3.05475C25.6955 2.79444 25.3332 2.50863 24.9048 2.37894V2.23712C24.9048 1.00362 23.9012 0 22.6675 0H3.13972C1.90603 0 0.902344 1.00362 0.902344 2.23719V4.0465C0.902344 4.30544 1.11216 4.51525 1.37109 4.51525C1.63003 4.51525 1.83984 4.30544 1.83984 4.0465V2.23719C1.83984 1.5205 2.42297 0.9375 3.13972 0.9375H22.6675C23.3842 0.9375 23.9673 1.5205 23.9673 2.23719V2.37906C23.5391 2.50881 23.1769 2.7945 22.8475 3.05481C22.608 3.24394 22.3819 3.42263 22.1735 3.50906C21.9486 3.60225 21.6513 3.639 21.3365 3.67794C20.7851 3.74606 20.1602 3.82331 19.724 4.25938C19.2878 4.6955 19.2105 5.32044 19.1423 5.87181C19.1035 6.1865 19.0667 6.48375 18.9735 6.70869C18.887 6.91706 18.7083 7.14325 18.5192 7.38263C18.1689 7.82581 17.772 8.32812 17.772 8.97119C17.772 9.61425 18.169 10.1166 18.5192 10.5597C18.7083 10.7991 18.887 11.0253 18.9735 11.2337C19.0667 11.4586 19.1035 11.7558 19.1423 12.0706C19.2105 12.6219 19.2878 13.2469 19.7239 13.6829C20.16 14.1191 20.785 14.1962 21.3364 14.2644C21.5008 14.2847 21.6601 14.3047 21.8072 14.3322V21.4176C21.8072 21.6953 21.9622 21.9433 22.2117 22.0648C22.4612 22.1865 22.752 22.1556 22.9708 21.9843L23.9673 21.2041V29.7629C23.9673 30.4796 23.3842 31.0626 22.6674 31.0626H3.13972C2.42297 31.0626 1.83984 30.4796 1.83984 29.7629V6.11069C1.83984 5.85175 1.63003 5.64194 1.37109 5.64194C1.11216 5.64194 0.902344 5.85175 0.902344 6.11069V29.7628C0.902344 30.9964 1.90603 32 3.13972 32H22.6675C23.9012 32 24.9048 30.9964 24.9048 29.7628V21.2041L25.9013 21.9842C26.0313 22.0861 26.187 22.1383 26.3443 22.1383C26.4516 22.1383 26.5596 22.114 26.6608 22.0647C26.9105 21.9432 27.0656 21.6952 27.0656 21.4176V16.1865C27.0656 15.9276 26.8558 15.7177 26.5968 15.7177C26.3379 15.7177 26.1281 15.9276 26.1281 16.1865V20.9712L24.882 19.9956C24.7561 19.8959 24.5977 19.841 24.436 19.841C24.2743 19.841 24.116 19.8959 23.992 19.994L22.7446 20.9707V14.8066C22.7786 14.8333 22.8128 14.8602 22.8474 14.8875C23.2907 15.2378 23.793 15.6346 24.4362 15.6346C25.0792 15.6346 25.5816 15.2377 26.0248 14.8876C26.2643 14.6984 26.4905 14.5197 26.6988 14.4333C26.9238 14.3401 27.2211 14.3033 27.5359 14.2644C28.0873 14.1962 28.7122 14.119 29.1485 13.6829C29.5845 13.2468 29.6618 12.6219 29.73 12.0706C29.7689 11.7558 29.8057 11.4586 29.8989 11.2336C29.9853 11.0253 30.164 10.7991 30.3532 10.5597C30.7035 10.1165 31.1003 9.61419 31.1003 8.97112C31.1003 8.32806 30.7034 7.82575 30.3532 7.38256ZM29.6177 9.97844C29.3972 10.2575 29.1692 10.546 29.033 10.8745C28.8909 11.217 28.8445 11.5924 28.7996 11.9555C28.7452 12.3959 28.6938 12.8118 28.4857 13.0199C28.2775 13.2281 27.8615 13.2794 27.421 13.3339C27.0579 13.3787 26.6825 13.4251 26.3399 13.5672C26.0114 13.7034 25.7229 13.9313 25.4438 14.1518C25.0889 14.4321 24.7537 14.697 24.4363 14.697C24.1188 14.697 23.7837 14.4322 23.4287 14.1518C23.1497 13.9314 22.8612 13.7034 22.5327 13.5672C22.51 13.5578 22.4315 13.5279 22.4146 13.5227C22.1048 13.4149 21.7733 13.3736 21.4515 13.3339C21.011 13.2794 20.595 13.228 20.3868 13.0199C20.1788 12.8118 20.1273 12.3959 20.0729 11.9556C20.028 11.5924 19.9817 11.2171 19.8396 10.8745C19.7033 10.546 19.4754 10.2575 19.2549 9.97844C18.9746 9.62356 18.7097 9.28844 18.7097 8.97112C18.7097 8.65381 18.9745 8.31869 19.2549 7.96381C19.4754 7.68475 19.7034 7.39625 19.8396 7.06775C19.9817 6.72525 20.0281 6.34981 20.0729 5.98675C20.1273 5.54638 20.1788 5.13044 20.3869 4.92231C20.5951 4.71419 21.0111 4.66281 21.4515 4.60838C21.8147 4.5635 22.19 4.51713 22.5327 4.37506C22.8612 4.23887 23.1497 4.01094 23.4287 3.79044C23.7829 3.51062 24.1175 3.24637 24.4344 3.24537C24.435 3.24537 24.4356 3.24544 24.4362 3.24544C24.4368 3.24544 24.4374 3.24537 24.438 3.24537C24.755 3.24631 25.0896 3.51062 25.4438 3.79044C25.7229 4.01087 26.0114 4.23887 26.3399 4.37506C26.6825 4.51713 27.058 4.56356 27.4211 4.60838C27.8615 4.66281 28.2775 4.71425 28.4857 4.92238C28.6938 5.1305 28.7452 5.54638 28.7997 5.98675C28.8445 6.34981 28.8909 6.72519 29.033 7.06775C29.1692 7.39625 29.3972 7.68475 29.6177 7.96381C29.898 8.31869 30.1628 8.65381 30.1628 8.97112C30.1628 9.28844 29.898 9.62362 29.6177 9.97844Z" fill="white"/>
<path d="M27.446 7.48157L25.8509 7.03026L24.9286 5.65276C24.8184 5.48826 24.6345 5.39014 24.4366 5.39014C24.2386 5.39014 24.0547 5.48832 23.9446 5.65276L23.0223 7.03026L21.427 7.48164C21.2365 7.53557 21.0863 7.68026 21.0251 7.86851C20.964 8.05676 21.0006 8.26207 21.123 8.41745L22.1482 9.72014L22.0846 11.3762C22.0769 11.5741 22.1679 11.7617 22.3281 11.8781C22.4309 11.9528 22.5527 11.9914 22.6759 11.9914C22.7448 11.9914 22.814 11.9794 22.8805 11.9549L24.4365 11.3825L25.9923 11.9548C26.1781 12.0233 26.3845 11.9946 26.5447 11.8783C26.7049 11.7619 26.796 11.5744 26.7884 11.3764L26.7248 9.72007L27.75 8.41739C27.8724 8.26182 27.9089 8.05664 27.8478 7.86839C27.7868 7.68014 27.6366 7.53551 27.446 7.48157ZM25.9093 9.24051C25.8227 9.35076 25.7779 9.48864 25.7832 9.6292L25.8318 10.8969L24.641 10.4589C24.5091 10.4103 24.3638 10.4104 24.2321 10.4588L23.0411 10.8969L23.0898 9.62876C23.0951 9.4887 23.0502 9.35082 22.9634 9.2402L22.1788 8.2432L23.4 7.89776C23.535 7.85945 23.6525 7.77407 23.7305 7.65745L24.4365 6.60307L25.1423 7.65732C25.2205 7.77401 25.3379 7.85939 25.4732 7.89782L26.6941 8.2432L25.9093 9.24051Z" fill="white"/>
</svg>
