<svg width="32" height="32" viewBox="0 0 32 32" fill="none" xmlns="http://www.w3.org/2000/svg">
<g clip-path="url(#clip0)">
<path d="M22.2982 15.7513C22.2143 15.5581 22.1567 15.3544 22.1267 15.1459C22.0487 14.604 21.8989 14.0741 21.6814 13.5707C21.5788 13.3332 21.3032 13.2237 21.0654 13.3264C20.8278 13.429 20.7184 13.7048 20.8211 13.9424C21.0057 14.3697 21.1328 14.8195 21.199 15.2793C21.2409 15.5704 21.3214 15.8547 21.4384 16.1242L22.4556 18.4699C22.8852 19.4605 22.748 20.5623 22.0886 21.4174C21.5267 22.1458 20.695 22.5515 19.8013 22.5548C20.0604 22.0091 20.2059 21.3994 20.2059 20.7562V16.4436C20.2059 15.9209 19.7966 15.5006 19.274 15.4868L16.6226 15.417C15.7184 15.3931 14.8341 15.0656 14.1325 14.4949L13.958 14.3529C13.7952 14.2203 13.5906 14.1599 13.3818 14.182C13.173 14.2043 12.9858 14.3068 12.8547 14.4707C12.1668 15.3302 11.7879 16.4097 11.7879 17.5105V20.7562C11.7879 21.3994 11.9335 22.009 12.1925 22.5548C11.2989 22.5515 10.4672 22.1459 9.90537 21.4174C9.24585 20.5623 9.10863 19.4606 9.53827 18.4699L10.5555 16.1243C10.6724 15.8547 10.753 15.5704 10.7949 15.2793C10.9749 14.0283 11.6002 12.8834 12.5554 12.0557C13.5107 11.228 14.7329 10.7722 15.9969 10.7722C17.4253 10.7722 18.7619 11.336 19.7603 12.3598C19.941 12.5452 20.2377 12.5488 20.423 12.3681C20.6083 12.1875 20.612 11.8907 20.4313 11.7055C19.2549 10.4992 17.6801 9.83496 15.9968 9.83496C14.5074 9.83496 13.0672 10.3721 11.9417 11.3473C10.8161 12.3226 10.0793 13.6716 9.86713 15.1458C9.83713 15.3544 9.77946 15.5581 9.69561 15.7513L8.67837 18.0969C8.11095 19.4053 8.29215 20.8605 9.16318 21.9898C9.90824 22.9558 11.0121 23.4942 12.198 23.4941C12.3862 23.4941 12.5768 23.48 12.7681 23.4524C13.0987 23.8476 13.5004 24.1812 13.9533 24.4339V25.3382L11.5572 26.2995C9.87837 26.9731 8.79359 28.5772 8.79359 30.3861V31.5314C8.79359 31.7903 9.00335 32 9.26222 32C9.52109 32 9.73085 31.7903 9.73085 31.5314V30.3861C9.73085 28.9623 10.5848 27.6996 11.9062 27.1694L14.063 26.3041C14.3324 27.0787 15.0693 27.6362 15.9344 27.6362C16.7995 27.6362 17.5364 27.0786 17.8058 26.3041L19.9628 27.1695C20.0194 27.1922 20.0792 27.2185 20.1511 27.2523C20.2155 27.2826 20.2834 27.297 20.3503 27.297C20.5261 27.297 20.6948 27.1975 20.7746 27.0277C20.8848 26.7935 20.7842 26.5143 20.55 26.4042C20.4612 26.3624 20.3854 26.3292 20.3116 26.2996L17.9156 25.3382V24.5004C18.4196 24.241 18.8651 23.8836 19.2257 23.4524C19.4171 23.48 19.6074 23.4941 19.7958 23.4941C20.9817 23.4941 22.0856 22.9557 22.8306 21.9898C23.7016 20.8606 23.8829 19.4053 23.3154 18.0969L22.2982 15.7513ZM16.9783 25.6552C16.9783 26.2308 16.5101 26.699 15.9344 26.699C15.3588 26.699 14.8906 26.2308 14.8906 25.6552V24.8165C15.2434 24.9127 15.6141 24.9651 15.9969 24.9651C16.3348 24.9651 16.6632 24.924 16.9783 24.8484V25.6552ZM15.9969 24.0278C14.193 24.0278 12.7253 22.5602 12.7253 20.7562V17.5106C12.7253 16.6743 12.9961 15.8532 13.4908 15.1811L13.5411 15.222C14.4023 15.9227 15.4879 16.3246 16.5979 16.3539L19.2492 16.4238C19.2602 16.4241 19.2687 16.4328 19.2687 16.4436V20.7562C19.2686 22.5602 17.8009 24.0278 15.9969 24.0278Z" fill="white"/>
<path d="M21.612 27.7305C21.4007 27.88 21.3507 28.1725 21.5003 28.3837C21.9175 28.9731 22.138 29.6655 22.138 30.3861V31.5314C22.138 31.7903 22.3477 32 22.6066 32C22.8655 32 23.0752 31.7903 23.0752 31.5314V30.3861C23.0752 29.4704 22.7952 28.5908 22.2652 27.8422C22.1157 27.6309 21.8232 27.5809 21.612 27.7305Z" fill="white"/>
<path d="M7.13799 7.01823C6.09407 6.30492 4.78828 6.17139 3.55522 6.65245C2.65576 7.00324 1.93664 7.71781 1.58198 8.61283C1.35122 9.19537 1.256 9.79109 1.29918 10.3835C1.31805 10.6416 1.54174 10.8358 1.80061 10.8169C2.05873 10.7981 2.25274 10.5736 2.234 10.3155C2.20119 9.86501 2.27499 9.40831 2.45338 8.95811C2.71244 8.30428 3.23824 7.78223 3.89588 7.52567C4.83589 7.15901 5.82495 7.25611 6.60925 7.7921C7.3758 8.31584 7.83337 9.18193 7.83337 10.1088C7.83337 10.6905 7.65686 11.2483 7.32294 11.722C7.31907 11.7275 7.31532 11.7331 7.31163 11.7387L5.7371 14.19C5.68861 14.2656 5.66281 14.3534 5.66281 14.4433V14.6567H5.49841V12.3106C5.97441 12.2679 6.34882 11.8672 6.34882 11.3803V10.6113C6.34882 10.096 5.92955 9.67674 5.41424 9.67674H4.64525C4.12995 9.67674 3.71068 10.096 3.71068 10.6113V11.3803C3.71068 11.8672 4.08515 12.2679 4.56109 12.3106V14.6568H4.39669V14.4433C4.39669 14.3535 4.37089 14.2656 4.3224 14.19L2.88952 11.9593C2.74968 11.7415 2.45975 11.6784 2.24193 11.8183C2.02424 11.9581 1.96107 12.2481 2.10091 12.4658L3.45943 14.5809V14.9166C3.45943 15.0506 3.49905 15.1753 3.56647 15.2806V15.7659C3.56647 16.5198 4.17981 17.1332 4.9338 17.1332H5.12563C5.87956 17.1332 6.49297 16.5198 6.49297 15.7659V15.2806C6.56039 15.1753 6.6 15.0506 6.6 14.9166V14.5809L8.09493 12.2535C8.53694 11.6228 8.77057 10.8814 8.77057 10.1089C8.77057 8.87214 8.16029 7.71681 7.13799 7.01823ZM5.41149 10.6113L5.41449 11.3776L5.05465 11.3789C5.04634 11.3784 5.03809 11.3776 5.02965 11.3776C5.01997 11.3776 5.01047 11.3785 5.00097 11.3791L4.64788 11.3803L4.64519 10.614L5.41149 10.6113ZM5.55571 15.7658C5.55571 16.0029 5.36276 16.1958 5.12563 16.1958H4.9338C4.69668 16.1958 4.50373 16.0029 4.50373 15.7658V15.594H5.55571V15.7658Z" fill="white"/>
<path d="M15.9339 8.32081C18.228 8.32081 20.0943 6.45447 20.0943 4.16037C20.0943 1.86633 18.228 0 15.9339 0C13.6398 0 11.7734 1.86633 11.7734 4.16037C11.7734 6.45447 13.6398 8.32081 15.9339 8.32081ZM15.9339 0.93726C17.7111 0.93726 19.157 2.38314 19.157 4.16037C19.157 5.93761 17.7111 7.38355 15.9339 7.38355C14.1566 7.38355 12.7107 5.93761 12.7107 4.16037C12.7107 2.38314 14.1566 0.93726 15.9339 0.93726Z" fill="white"/>
<path d="M15.1081 5.72416C15.1995 5.81563 15.3195 5.86137 15.4394 5.86137C15.5593 5.86137 15.6793 5.81563 15.7708 5.72416L17.9601 3.53485C18.1431 3.35177 18.1431 3.05509 17.9601 2.87208C17.7771 2.68913 17.4804 2.68913 17.2974 2.87208L15.4395 4.73004L15.1242 4.41481C14.9412 4.23185 14.6445 4.23179 14.4615 4.41487C14.2785 4.59788 14.2785 4.89462 14.4615 5.07757L15.1081 5.72416Z" fill="white"/>
<path d="M30.672 9.32104C30.5854 9.0543 30.3592 8.86366 30.0817 8.82329L28.1341 8.5403L27.2632 6.77544C27.1391 6.52407 26.8878 6.36792 26.6075 6.36792C26.3273 6.36792 26.076 6.52407 25.952 6.77544L25.0809 8.5403L23.1333 8.82329C22.8559 8.86366 22.6297 9.05429 22.5431 9.32098C22.4565 9.5876 22.5275 9.87471 22.7282 10.0703L24.1375 11.4441L23.8048 13.3839C23.7575 13.6602 23.8689 13.9342 24.0957 14.0989C24.3224 14.2637 24.6174 14.285 24.8656 14.1546L26.6076 13.2387L28.3496 14.1546C28.4576 14.2113 28.5743 14.2393 28.6905 14.2393C28.8415 14.2393 28.9914 14.1919 29.1196 14.0988C29.3464 13.934 29.4578 13.6601 29.4104 13.3838L29.0777 11.4441L30.4869 10.0704C30.6876 9.87477 30.7586 9.5876 30.672 9.32104ZM28.3458 10.8485C28.1735 11.0164 28.0948 11.2584 28.1355 11.4957L28.4159 13.1306L26.9478 12.3587C26.8412 12.3027 26.7244 12.2747 26.6075 12.2747C26.4907 12.2747 26.3738 12.3027 26.2672 12.3586L24.7991 13.1306L25.0795 11.4955C25.1201 11.2583 25.0415 11.0164 24.8692 10.8485L23.6814 9.69076L25.3231 9.45226C25.5612 9.41751 25.767 9.26799 25.8733 9.05229L26.6075 7.5648L27.3415 9.05205C27.4479 9.26793 27.6537 9.41751 27.8921 9.45219L29.5335 9.69069L28.3458 10.8485Z" fill="white"/>
<path d="M20.9039 6.01136C21.619 6.29029 22.3119 6.63195 22.9719 7.02866C22.7656 7.12557 22.6552 7.36083 22.7222 7.58595C22.7829 7.78934 22.9692 7.92087 23.1712 7.92087C23.2155 7.92087 23.2605 7.9145 23.3052 7.90125L24.193 7.63682C24.3916 7.57771 24.5278 7.395 24.5278 7.18768V6.22743C24.5278 5.96856 24.318 5.7588 24.0592 5.7588C23.8003 5.7588 23.5905 5.96856 23.5905 6.22743V6.30841C22.8447 5.84896 22.0582 5.45557 21.2445 5.13815C21.0034 5.04405 20.7317 5.16327 20.6376 5.40445C20.5436 5.64558 20.6628 5.91726 20.9039 6.01136Z" fill="white"/>
<path d="M8.5394 7.16536C8.62307 7.16536 8.7078 7.14299 8.78428 7.096C9.22179 6.82719 9.67736 6.58213 10.1429 6.36406L10.1186 6.45529C10.0517 6.70529 10.2002 6.96216 10.4503 7.02908C10.4908 7.03989 10.5315 7.04507 10.5716 7.04507C10.7785 7.04507 10.968 6.9068 11.024 6.69735L11.3102 5.6265C11.3739 5.38825 11.242 5.14131 11.0085 5.06189L10.1497 4.76959C9.90486 4.68599 9.63843 4.81714 9.55508 5.06227C9.49478 5.23935 9.54689 5.42711 9.67273 5.54933C9.20048 5.77371 8.73835 6.02427 8.29371 6.29745C8.07321 6.43298 8.00423 6.72153 8.13969 6.94204C8.22817 7.086 8.38194 7.16536 8.5394 7.16536Z" fill="white"/>
</g>
<defs>
<clipPath id="clip0">
<rect width="32" height="32" fill="white"/>
</clipPath>
</defs>
</svg>
