<svg width="32" height="32" viewBox="0 0 32 32" fill="none" xmlns="http://www.w3.org/2000/svg">
<g clip-path="url(#clip0)">
<path d="M2.4138 5.1743C2.67259 5.1743 2.88229 4.9646 2.88229 4.70581V2.96772C2.88229 1.84797 3.79222 0.936977 4.91059 0.936977H15.5966C15.7018 0.936977 15.8048 0.949657 15.905 0.972082V6.9999C15.905 8.19199 16.8723 9.16176 18.0614 9.16176H24.0698C24.0919 9.26145 24.1044 9.36389 24.1044 9.46846V12.0274C24.1044 12.2862 24.3141 12.4959 24.5729 12.4959C24.8317 12.4959 25.0413 12.2862 25.0413 12.0274V9.46846C25.0413 8.84362 24.7985 8.25595 24.3576 7.81376L17.254 0.688116C16.8116 0.244363 16.223 0 15.5966 0H4.91059C3.27551 0 1.94531 1.33132 1.94531 2.96772V4.70581C1.94531 4.9646 2.15507 5.1743 2.4138 5.1743ZM23.4442 8.22478H18.0614C17.389 8.22478 16.842 7.67528 16.842 6.9999V1.60198L23.4442 8.22478Z" fill="white"/>
<path d="M7.67155 27.9907H4.91059C3.79222 27.9907 2.88229 27.0798 2.88229 25.96V6.89207C2.88229 6.63328 2.67259 6.42358 2.4138 6.42358C2.15501 6.42358 1.94531 6.63328 1.94531 6.89207V25.96C1.94531 27.5964 3.27551 28.9277 4.91059 28.9277H7.67155C7.93034 28.9277 8.14004 28.718 8.14004 28.4592C8.14004 28.2004 7.93034 27.9907 7.67155 27.9907Z" fill="white"/>
<path d="M5.99583 9.8403H13.7172C13.976 9.8403 14.1857 9.6306 14.1857 9.37181C14.1857 9.11302 13.976 8.90332 13.7172 8.90332H5.99583C5.73704 8.90332 5.52734 9.11302 5.52734 9.37181C5.52734 9.6306 5.73704 9.8403 5.99583 9.8403Z" fill="white"/>
<path d="M5.99583 20.1494C5.73704 20.1494 5.52734 20.3591 5.52734 20.6179C5.52734 20.8767 5.73704 21.0864 5.99583 21.0864H13.7172C13.976 21.0864 14.1857 20.8767 14.1857 20.6179C14.1857 20.3591 13.976 20.1494 13.7172 20.1494H5.99583Z" fill="white"/>
<path d="M20.3214 13.1206C20.3214 12.8618 20.1117 12.6521 19.8529 12.6521H5.87083C5.61204 12.6521 5.40234 12.8618 5.40234 13.1206C5.40234 13.3794 5.61204 13.5891 5.87083 13.5891H19.8529C20.1116 13.5891 20.3214 13.3793 20.3214 13.1206Z" fill="white"/>
<path d="M17.2004 16.8694C17.2004 16.6106 16.9907 16.4009 16.7319 16.4009H5.87083C5.61204 16.4009 5.40234 16.6106 5.40234 16.8694C5.40234 17.1282 5.61204 17.3378 5.87083 17.3378H16.7319C16.9906 17.3378 17.2004 17.1281 17.2004 16.8694Z" fill="white"/>
<path d="M30.0511 29.3809C30.0202 28.9504 29.8226 28.317 29.0568 27.7413L25.0142 24.5505L25.9296 23.6371C26.5388 23.9239 27.2624 23.7131 27.748 23.2261C28.3893 22.5823 28.4646 21.6099 27.9158 21.058L25.0426 18.1742V14.2138C25.0426 13.9551 24.8329 13.7454 24.5741 13.7454C24.3154 13.7454 24.1057 13.9551 24.1057 14.2138V17.2338L23.1747 16.2994C22.5832 15.7036 21.5831 15.8715 21.0092 16.467C20.4804 16.9979 20.3368 17.752 20.6103 18.3097L16.4106 22.5005C15.8541 22.2326 15.1054 22.3779 14.5775 22.9049C13.9833 23.4782 13.8157 24.4794 14.4101 25.0705L17.3357 27.9909H9.85911C9.60032 27.9909 9.39062 28.2006 9.39062 28.4594C9.39062 28.7182 9.60032 28.9279 9.85911 28.9279H18.2743L19.1648 29.8168C19.777 30.405 20.7314 30.2463 21.3321 29.6482C21.8212 29.1594 22.0304 28.4303 21.7379 27.8199L22.6274 26.9323L25.8178 30.9822C26.9639 32.3728 28.1304 32.2327 29.2749 31.2004C29.8203 30.6545 30.096 30.0083 30.0511 29.3809ZM21.6733 17.1278C21.9156 16.9051 22.2379 16.7474 22.5105 16.9604L27.2517 21.7191C27.4305 21.8989 27.3537 22.2914 27.0876 22.5612C26.8386 22.7977 26.4696 22.9642 26.2092 22.6952L24.4529 20.9323C24.2701 20.7489 23.9735 20.7485 23.7904 20.931C23.6071 21.1137 23.6066 21.4103 23.7891 21.5935L25.2158 23.0256C23.985 24.2524 22.3548 25.8803 21.1244 27.1082L17.1226 23.1134L21.2248 19.0199L22.2448 20.0436C22.4275 20.2269 22.7241 20.2273 22.9074 20.0448C23.0907 19.8622 23.0912 19.5655 22.9086 19.3823L21.5575 18.0262C21.3117 17.8331 21.3826 17.4295 21.6733 17.1278ZM20.6698 28.9853C20.4004 29.254 20.0062 29.3323 19.8265 29.1533L15.0717 24.407C14.8593 24.1338 15.0165 23.8107 15.2396 23.5676C15.5357 23.2808 15.9378 23.2071 16.128 23.4446L20.8378 28.1459C21.0503 28.419 20.8926 28.7427 20.6698 28.9853ZM28.6121 30.5382C27.9079 31.2399 27.148 31.2218 26.5574 30.4068L23.2952 26.2659L24.3463 25.217L28.4808 28.4803C29.2951 29.0716 29.3141 29.8341 28.6121 30.5382Z" fill="white"/>
</g>
<defs>
<clipPath id="clip0">
<rect width="32" height="32" fill="white"/>
</clipPath>
</defs>
</svg>
