<svg width="32" height="32" viewBox="0 0 32 32" fill="none" xmlns="http://www.w3.org/2000/svg">
<g clip-path="url(#clip0)">
<path d="M18.1599 2.19981C18.36 2.23088 18.5617 2.26669 18.7594 2.30638C19.0071 2.35606 19.2598 2.19513 19.3113 1.93894C19.3621 1.68513 19.1977 1.43806 18.9438 1.38719C18.7327 1.34481 18.5173 1.30656 18.3036 1.27344C18.0479 1.23369 17.8083 1.40894 17.7686 1.66475C17.7288 1.92056 17.904 2.16019 18.1599 2.19981ZM15.7324 2.03681L15.7468 2.03656C15.9456 2.03288 16.1435 2.03338 16.3404 2.03813C16.5979 2.04437 16.8139 1.84119 16.8202 1.58069C16.8264 1.32188 16.6216 1.10706 16.3627 1.10088C16.1554 1.09588 15.9374 1.09525 15.7329 1.09913C15.4669 1.10413 15.2472 1.31006 15.2533 1.57875C15.2591 1.8375 15.4736 2.04069 15.7324 2.03681ZM16.2547 29.9634H16.2532C16.0515 29.9672 15.849 29.9666 15.6491 29.9616C15.3908 29.9581 15.1753 30.1599 15.1689 30.4186C15.1625 30.6774 15.3672 30.8924 15.626 30.8988C15.8402 30.9041 16.0557 30.9048 16.2705 30.9008V30.9007C16.5338 30.8977 16.7442 30.6807 16.7353 30.4164C16.7266 30.1589 16.5118 29.9542 16.2547 29.9634ZM13.3103 2.29325C13.5091 2.2545 13.711 2.21962 13.9104 2.18981C14.1664 2.1515 14.3429 1.91288 14.3046 1.65688C14.2662 1.40087 14.0279 1.22437 13.7716 1.26269C13.5586 1.29456 13.3431 1.33169 13.1307 1.37312C12.8767 1.42269 12.7109 1.66881 12.7604 1.92294C12.8103 2.17869 13.0611 2.34181 13.3103 2.29325ZM18.6796 29.7088C18.4816 29.7472 18.2795 29.7819 18.0791 29.8118C17.8231 29.8501 17.6466 30.0887 17.6848 30.3447C17.7196 30.5773 17.9196 30.7442 18.1478 30.7442C18.3837 30.7442 18.6294 30.6735 18.8582 30.6291C19.1124 30.5798 19.2784 30.3337 19.2291 30.0796C19.1797 29.8255 18.9336 29.6593 18.6796 29.7088ZM13.8298 29.7986C13.6302 29.7674 13.4284 29.7314 13.2302 29.6915C12.9766 29.6404 12.7293 29.8048 12.6782 30.0586C12.6271 30.3124 12.7915 30.5596 13.0453 30.6106C13.2569 30.6532 13.4722 30.6916 13.6853 30.7248C13.9355 30.7639 14.1805 30.5916 14.2207 30.3339C14.2606 30.0782 14.0856 29.8385 13.8298 29.7986ZM30.3427 14.299C30.5987 14.2605 30.775 14.0217 30.7364 13.7657C30.7043 13.5522 30.6671 13.3367 30.6257 13.1252C30.5762 12.8713 30.3301 12.7055 30.0758 12.7551C29.8218 12.8047 29.656 13.0509 29.7056 13.3051C29.7443 13.5032 29.7793 13.7051 29.8094 13.9053C29.8481 14.1626 30.0911 14.3369 30.3427 14.299ZM30.8986 16.3794C30.904 16.1621 30.9047 15.9466 30.9007 15.7283C30.8959 15.4621 30.6883 15.2421 30.4218 15.2478C30.157 15.2533 29.9587 15.4816 29.9634 15.7466C29.9671 15.9498 29.9664 16.1536 29.9614 16.3563C29.955 16.6151 30.1596 16.83 30.4184 16.8365C30.6759 16.8429 30.8922 16.6403 30.8986 16.3794ZM30.0572 19.327C30.3048 19.3769 30.5578 19.2161 30.6094 18.9603C30.652 18.7491 30.6905 18.5337 30.7239 18.3202C30.7639 18.0644 30.589 17.8246 30.3333 17.7847C30.0775 17.7449 29.8377 17.9196 29.7977 18.1754C29.7664 18.3754 29.7303 18.5771 29.6904 18.7749C29.6392 19.0286 29.8034 19.2758 30.0572 19.327ZM1.10106 15.6318C1.09588 15.8464 1.09531 16.057 1.09931 16.2736L1.09944 16.2806C1.10381 16.5368 1.31281 16.7414 1.568 16.7414C1.82975 16.7414 2.04138 16.5266 2.03681 16.2647L2.03656 16.2533C2.033 16.0538 2.03356 15.8532 2.03831 15.6542C2.04463 15.3911 1.83256 15.1742 1.5695 15.1742C1.31581 15.1743 1.10719 15.3767 1.10106 15.6318ZM25.8858 19.7716C25.6343 19.7716 25.3862 19.7873 25.1426 19.8169C25.6366 18.6226 25.9063 17.297 25.9063 16C25.9063 14.6874 25.6436 13.3847 25.1421 12.1821C25.3861 12.2118 25.634 12.2284 25.8859 12.2284C29.2395 12.2284 32.0001 9.47156 32.0001 6.11425C32.0001 4.94844 31.6706 3.81463 31.0474 2.83544C30.9084 2.61706 30.6187 2.55288 30.4003 2.69169C30.1819 2.83069 30.1176 3.12038 30.2566 3.33881C30.7838 4.16731 31.0625 5.127 31.0625 6.11419C31.0625 7.383 30.6029 8.546 29.8424 9.44731C29.5211 8.47487 28.8454 7.63987 27.9536 7.12569C28.1761 6.75994 28.3043 6.33087 28.3043 5.87244V5.12875C28.3043 3.79519 27.2194 2.71025 25.8857 2.71025C24.5521 2.71025 23.4672 3.79519 23.4672 5.12875V5.87244C23.4672 6.33081 23.5954 6.75981 23.8178 7.1255C22.9257 7.63969 22.2501 8.47475 21.9291 9.44725C21.1687 8.546 20.7091 7.383 20.7091 6.11419C20.7091 3.25975 23.0313 0.9375 25.8857 0.9375C26.9595 0.9375 27.9892 1.26312 28.8636 1.87912C29.0753 2.02831 29.3677 1.97756 29.5168 1.76587C29.6659 1.55425 29.6152 1.26188 29.4036 1.11275C28.3703 0.38475 27.1539 0 25.8858 0C22.5144 0 19.7716 2.74281 19.7716 6.11419C19.7716 6.36588 19.7874 6.61394 19.8171 6.85775C18.6049 6.35687 17.3174 6.09375 16 6.09375C14.6877 6.09375 13.3853 6.35631 12.1829 6.85763C12.2126 6.61387 12.2284 6.36588 12.2284 6.11419C12.2284 2.74281 9.48556 0 6.11419 0C2.74281 0 0 2.74281 0 6.11419C0 9.46288 2.78688 12.2284 6.11419 12.2284C6.36606 12.2284 6.614 12.2118 6.85794 12.182C6.35644 13.3847 6.09375 14.6874 6.09375 16C6.09375 17.3036 6.36425 18.6291 6.85763 19.8169C6.61387 19.7872 6.36581 19.7716 6.11419 19.7716C2.74281 19.7716 0 22.5144 0 25.8858C0 29.2588 2.78531 32 6.11419 32C9.46213 32 12.2284 29.2399 12.2284 25.8858C12.2284 25.6342 12.2127 25.3862 12.1831 25.1425C13.3855 25.6437 14.6879 25.9062 16 25.9062C17.3121 25.9062 18.6145 25.6437 19.8169 25.1425C19.7872 25.3862 19.7716 25.6342 19.7716 25.8858C19.7716 29.2593 22.5561 32 25.8858 32C29.2153 32 32 29.2599 32 25.8858C32 22.5144 29.2572 19.7716 25.8858 19.7716ZM24.4048 5.12875C24.4048 4.31212 25.0691 3.64775 25.8858 3.64775C26.7025 3.64775 27.3669 4.31212 27.3669 5.12875V5.87244C27.3669 6.68906 26.7025 7.35344 25.8858 7.35344C25.0691 7.35344 24.4048 6.68906 24.4048 5.87244V5.12875ZM24.4767 7.83619C24.8738 8.12194 25.3603 8.29094 25.8858 8.29094C26.4113 8.29094 26.8977 8.122 27.2948 7.83631C28.2232 8.28969 28.8903 9.17694 29.0661 10.1943C28.1878 10.8805 27.0842 11.2909 25.8858 11.2909C24.6875 11.2909 23.5839 10.8805 22.7056 10.1944C22.8809 9.17694 23.5479 8.28963 24.4767 7.83619ZM19.1124 7.58831C19.4406 7.70944 19.7611 7.85025 20.0727 8.00906C20.6799 9.86888 22.1565 11.3228 23.9917 11.9277C24.6309 13.1797 24.9688 14.5833 24.9688 16C24.9688 16.2808 24.9554 16.561 24.9292 16.8397C24.0999 17.1681 22.3467 17.7814 21.8983 17.2966C21.722 17.1061 21.8369 16.6872 22.0391 16.0195C22.3004 15.1564 22.6257 14.0824 22.2809 12.8401C21.8162 11.1658 20.4202 10.3387 19.401 9.73475C18.7504 9.34919 18.1885 9.01625 18.2059 8.69006C18.2181 8.46237 18.4673 8.048 19.1124 7.58831ZM2.15762 9.44731C1.39713 8.546 0.9375 7.383 0.9375 6.11419C0.9375 3.25975 3.25975 0.9375 6.11419 0.9375C8.96863 0.9375 11.2909 3.25975 11.2909 6.11419C11.2909 7.383 10.8312 8.54594 10.0708 9.44725C9.74981 8.47475 9.07413 7.63969 8.18213 7.1255C8.40456 6.75981 8.53275 6.33081 8.53275 5.87244V5.12875C8.53275 3.79519 7.44781 2.71025 6.11419 2.71025C4.78056 2.71025 3.69563 3.79519 3.69563 5.12875V5.87244C3.69563 6.33087 3.82387 6.75994 4.04631 7.12569C3.15456 7.63987 2.47887 8.47487 2.15762 9.44731ZM7.59525 5.12875V5.87244C7.59525 6.68906 6.93088 7.35344 6.11419 7.35344C5.2975 7.35344 4.63312 6.68906 4.63312 5.87244V5.12875C4.63312 4.31212 5.2975 3.64775 6.11419 3.64775C6.93088 3.64775 7.59525 4.31206 7.59525 5.12875ZM6.11419 11.2909C4.91581 11.2909 3.81219 10.8804 2.93388 10.1943C3.10963 9.17694 3.77675 8.28969 4.70525 7.83631C5.10231 8.122 5.58875 8.29094 6.11419 8.29094C6.63969 8.29094 7.12619 8.12194 7.52331 7.83619C8.45206 8.28956 9.11913 9.17694 9.29438 10.1944C8.41613 10.8805 7.3125 11.2909 6.11419 11.2909ZM6.11419 31.0625C4.91581 31.0625 3.81219 30.6521 2.93388 29.9659C3.10969 28.9481 3.77688 28.0609 4.7055 27.6081C5.10256 27.8937 5.58888 28.0626 6.11419 28.0626C6.6395 28.0626 7.12587 27.8937 7.52294 27.6081C8.45187 28.0611 9.119 28.9484 9.29438 29.9661C8.41606 30.6521 7.3125 31.0625 6.11419 31.0625ZM4.63312 25.6441V24.9004C4.63312 24.0838 5.2975 23.4194 6.11419 23.4194C6.93088 23.4194 7.59525 24.0838 7.59525 24.9004V25.6441C7.59525 26.4607 6.93088 27.1251 6.11419 27.1251C5.2975 27.1251 4.63312 26.4607 4.63312 25.6441ZM10.0708 29.2189C9.74981 28.2463 9.07406 27.4114 8.18194 26.8974C8.40444 26.5317 8.53275 26.1026 8.53275 25.6441V24.9004C8.53275 23.5668 7.44781 22.4819 6.11419 22.4819C4.78056 22.4819 3.69563 23.5667 3.69563 24.9004V25.644C3.69563 26.1026 3.82394 26.5317 4.0465 26.8975C3.15456 27.4113 2.47881 28.2462 2.15756 29.2189C1.39713 28.3176 0.9375 27.1546 0.9375 25.8858C0.9375 23.0314 3.25975 20.7091 6.11419 20.7091C8.96863 20.7091 11.2909 23.0314 11.2909 25.8858C11.2909 27.1546 10.8312 28.3176 10.0708 29.2189ZM20.0723 23.9917C18.8202 24.6309 17.4167 24.9688 16 24.9688C14.5833 24.9688 13.1798 24.6309 11.9277 23.9917C11.7527 23.4559 11.5058 22.9526 11.1981 22.493C12.299 22.2121 13.1167 22.052 13.6748 22.2816C14.0889 22.4521 14.2757 22.7035 14.4921 22.9946C14.748 23.3389 15.038 23.7292 15.6663 23.9364C15.9595 24.0332 16.2327 24.071 16.4953 24.071C16.9499 24.071 17.3724 23.9574 17.8102 23.8398C18.1057 23.7603 18.4112 23.6782 18.7663 23.6151C19.2391 23.5306 19.7327 23.5065 20.2396 23.5404C20.1781 23.6881 20.1223 23.8386 20.0723 23.9917ZM18.6017 22.6922C18.2072 22.7623 17.8669 22.8538 17.5667 22.9344C16.9211 23.1079 16.4947 23.2226 15.9599 23.0461C15.6134 22.9318 15.4586 22.7236 15.2445 22.4354C14.9958 22.1007 14.6862 21.6841 14.0311 21.4145C13.0597 21.0147 11.8259 21.3747 10.5514 21.6838C9.85863 20.9526 8.98756 20.3922 8.00863 20.0724C7.66969 19.4084 7.41506 18.7019 7.25125 17.9731C7.93175 18.2276 8.80369 18.4722 9.8035 18.4722C10.1129 18.4722 10.4537 18.3627 10.4423 17.9867C10.4345 17.728 10.2182 17.5238 9.95956 17.5324C8.77919 17.5667 7.78781 17.1955 7.0765 16.8923C7.04694 16.5962 7.03119 16.2984 7.03119 15.9999C7.03119 14.5833 7.36906 13.1797 8.00819 11.9277C9.45456 11.4513 10.7075 10.425 11.4493 9.09769C12.6879 9.14581 13.6312 9.45344 13.7855 9.87331C13.8571 10.0684 13.7361 10.32 13.5328 10.7146C13.2547 11.2541 12.9087 11.9256 13.1206 12.8012C13.2822 13.4707 13.6778 13.8219 13.9666 14.0783C14.2138 14.2978 14.3337 14.4126 14.3598 14.6222C14.4507 15.3521 13.3571 16.4532 11.922 17.0769C11.6846 17.1801 11.5758 17.4562 11.6789 17.6936C11.7833 17.9339 12.0629 18.0378 12.2957 17.9367C13.1234 17.5769 13.8796 17.0676 14.4251 16.5023C15.0704 15.8337 15.3694 15.1436 15.2901 14.5066C15.2194 13.937 14.8699 13.6266 14.589 13.3772C14.3397 13.1559 14.1245 12.9648 14.0317 12.5809C13.902 12.0446 14.1274 11.6072 14.3661 11.1441C14.6083 10.6742 14.8827 10.1418 14.6655 9.55013C14.4803 9.04619 14.0023 8.67044 13.2448 8.43319C12.7921 8.29138 12.304 8.21881 11.8673 8.1835C11.8883 8.12556 11.9082 8.06713 11.9274 8.00838C13.1797 7.36913 14.5833 7.03125 16 7.03125C16.6852 7.03125 17.3671 7.11106 18.0306 7.26481C17.5585 7.71575 17.2939 8.18825 17.2698 8.64025C17.2221 9.53344 18.0484 10.023 18.9232 10.5414C19.9031 11.122 21.0138 11.7801 21.3776 13.0909C21.6497 14.0712 21.3799 14.9619 21.1419 15.7479C20.8941 16.5661 20.6601 17.3389 21.2101 17.9333C21.5026 18.2496 21.9284 18.4084 22.5043 18.4083C23.094 18.4083 23.8418 18.2411 24.7638 17.9067C24.6006 18.6591 24.3405 19.3883 23.9912 20.0726C22.6196 20.5207 21.4599 21.4415 20.7056 22.6418C19.9815 22.5549 19.2751 22.5718 18.6017 22.6922ZM25.8858 31.0625C24.6875 31.0625 23.5839 30.6521 22.7056 29.9661C22.8809 28.9484 23.5481 28.0611 24.4771 27.6081C24.8741 27.8937 25.3604 28.0626 25.8858 28.0626C26.4111 28.0626 26.8974 27.8937 27.2945 27.6081C28.2231 28.0609 28.8903 28.9481 29.0661 29.9659C28.1878 30.6521 27.0841 31.0625 25.8858 31.0625ZM24.4048 25.6441V24.9004C24.4048 24.0838 25.0691 23.4194 25.8858 23.4194C26.7025 23.4194 27.3669 24.0838 27.3669 24.9004V25.6441C27.3669 26.4607 26.7025 27.1251 25.8858 27.1251C25.0691 27.1251 24.4048 26.4607 24.4048 25.6441ZM29.8424 29.2189C29.5212 28.2462 28.8454 27.4113 27.9535 26.8975C28.1761 26.5317 28.3044 26.1026 28.3044 25.644V24.9004C28.3044 23.5667 27.2194 22.4818 25.8858 22.4818C24.5522 22.4818 23.4673 23.5667 23.4673 24.9004V25.644C23.4673 26.1025 23.5955 26.5316 23.8181 26.8974C22.9259 27.4113 22.2502 28.2463 21.9292 29.2188C21.1688 28.3175 20.7091 27.1546 20.7091 25.8857C20.7091 23.0313 23.0314 20.7091 25.8858 20.7091C28.7402 20.7091 31.0625 23.0314 31.0625 25.8858C31.0625 27.1546 30.6029 28.3176 29.8424 29.2189ZM1.94037 12.6836C1.6865 12.6324 1.43944 12.797 1.38844 13.0507C1.346 13.2618 1.30762 13.4772 1.27437 13.6909C1.23456 13.9467 1.40969 14.1863 1.66544 14.2261C1.91556 14.2651 2.16056 14.0928 2.20069 13.835C2.23187 13.6349 2.26781 13.4331 2.3075 13.2355C2.35856 12.9817 2.19419 12.7346 1.94037 12.6836ZM1.65612 17.6901C1.40012 17.7284 1.22356 17.9671 1.26188 18.2231C1.29375 18.4364 1.33087 18.6519 1.37206 18.8638C1.42188 19.1195 1.67256 19.2829 1.92169 19.2344C2.17581 19.1849 2.34175 18.9388 2.29225 18.6847C2.25362 18.4862 2.21887 18.2843 2.189 18.0844C2.15075 17.8284 1.91256 17.6523 1.65612 17.6901Z" fill="white"/>
</g>
<defs>
<clipPath id="clip0">
<rect width="32" height="32" fill="white"/>
</clipPath>
</defs>
</svg>
