<svg width="32" height="32" viewBox="0 0 32 32" fill="none" xmlns="http://www.w3.org/2000/svg">
<g clip-path="url(#clip0)">
<path d="M1.59997 29.9492H4.2666C4.7191 29.9478 5.14965 29.7539 5.45058 29.4159H18.8263C19.6088 29.4162 20.3763 29.2009 21.0444 28.7936L31.0394 22.7089C31.8267 22.2319 32.185 21.278 31.9063 20.4007C31.6275 19.5234 30.7843 18.9511 29.8661 19.0161V3.81642C29.8661 3.22731 29.3885 2.74976 28.7994 2.74976H26.6662C26.0771 2.74976 25.5995 3.22731 25.5995 3.81642V20.3675L23.9995 20.9009V7.01636C23.9995 6.42725 23.522 5.94969 22.9329 5.94969H20.7996C20.2105 5.94969 19.7329 6.42725 19.7329 7.01636V22.3227L19.4993 22.4006C19.3363 22.4551 19.1656 22.4827 18.9937 22.4827H18.7009C18.9361 21.7747 18.8516 20.9993 18.4695 20.3585C18.461 20.3402 18.4513 20.3223 18.4406 20.3052C18.35 20.1564 18.2471 20.0155 18.1329 19.8839V10.2163C18.1329 9.62718 17.6553 9.14963 17.0662 9.14963H14.933C14.3438 9.14963 13.8663 9.62718 13.8663 10.2163V18.7494H12.9063C12.6919 18.7477 12.478 18.7299 12.2663 18.6961V13.4162C12.2663 12.8271 11.7888 12.3496 11.1997 12.3496H9.06639C8.47727 12.3496 7.99972 12.8271 7.99972 13.4162V16.7511C7.61479 16.663 7.2213 16.6177 6.82643 16.6162H5.76832C5.54314 15.9792 4.94209 15.5523 4.26648 15.5495H1.59997C0.716361 15.5495 0 16.2659 0 17.1495V28.3493C0 29.2329 0.716361 29.9492 1.59997 29.9492ZM26.6662 3.81642H28.7994V19.3004L26.6662 20.0118V3.81642ZM20.7996 7.01636H22.9329V21.2561L20.7996 21.9676V7.01636ZM14.933 10.2163H17.0663V19.0694C16.6393 18.8621 16.1714 18.7528 15.6967 18.7494H14.933V10.2163H14.933ZM9.06651 13.4162H11.1998V18.3953C10.841 18.243 10.5046 18.0426 10.1998 17.7996C9.85206 17.5225 9.47144 17.2894 9.06651 17.1057V13.4162ZM9.53313 18.6327C10.4914 19.3972 11.6805 19.8144 12.9064 19.8161H15.6956C16.4394 19.8181 17.1289 20.2055 17.5175 20.8395C17.5233 20.8528 17.5297 20.8652 17.5351 20.8747C17.8701 21.3628 17.8551 22.0106 17.4978 22.4827H14.253C13.2001 22.4816 12.1706 22.7934 11.2952 23.3787L10.9043 23.6389C10.742 23.743 10.6486 23.9265 10.6599 24.119C10.6711 24.3114 10.7854 24.4828 10.9586 24.5672C11.1318 24.6516 11.3372 24.636 11.4958 24.5263L11.8867 24.2661C12.587 23.7979 13.4107 23.5484 14.253 23.5493H18.9938C19.2803 23.5494 19.5651 23.5033 19.8369 23.4127L29.7093 20.1216C30.0894 19.9951 30.5078 20.1267 30.7471 20.448C30.9041 20.6573 30.9653 20.9233 30.9158 21.1803C30.8662 21.4372 30.7105 21.6613 30.4869 21.7973L20.4897 27.8826C19.9886 28.188 19.4131 28.3494 18.8263 28.3493H5.86657V17.6828H6.82655C7.81022 17.6842 8.76433 18.019 9.53313 18.6327ZM1.06667 17.1495C1.06667 16.8549 1.30547 16.6162 1.59997 16.6162H4.2666C4.56116 16.6162 4.79991 16.8549 4.79991 17.1495V28.3493C4.79991 28.6438 4.56116 28.8826 4.2666 28.8826H1.59997C1.30541 28.8826 1.06667 28.6438 1.06667 28.3493V17.1495Z" fill="white"/>
<path d="M2.66509 2.05082H3.73176C4.32087 2.05082 4.79843 2.52838 4.79843 3.11749V6.31743H5.33173C5.7521 6.31649 6.13384 6.56255 6.30659 6.94579C6.47933 7.32903 6.41083 7.77802 6.13171 8.09233L4.00957 10.3973C3.8022 10.6194 3.51283 10.7467 3.20896 10.7495C2.90509 10.7522 2.61347 10.6301 2.40216 10.4117L0.256079 8.07733C-0.0143534 7.76115 -0.0762897 7.31653 0.0975194 6.93848C0.271329 6.56042 0.649071 6.31793 1.06513 6.31736H1.59843V3.11743C1.59843 2.52838 2.07598 2.05082 2.66509 2.05082ZM1.05388 7.37016L3.21171 9.68955L5.33698 7.38397H4.26506C3.97051 7.38397 3.73176 7.14516 3.73176 6.85067V3.11743H2.66509V6.85073C2.66509 7.14529 2.42629 7.38403 2.13179 7.38403L1.05388 7.37016Z" fill="white"/>
<path d="M10.1328 2.05082H11.1995C11.7886 2.05082 12.2661 2.52838 12.2661 3.11749V6.31743H12.7994C13.2198 6.31649 13.6015 6.56255 13.7743 6.94579C13.947 7.32903 13.8785 7.77802 13.5994 8.09233L11.4773 10.3973C11.27 10.6194 10.9806 10.7467 10.6767 10.7495C10.3729 10.7522 10.0812 10.6301 9.86994 10.4117L7.72385 8.07739C7.45342 7.76121 7.39148 7.3166 7.56529 6.93854C7.7391 6.56049 8.11684 6.31799 8.5329 6.31743H9.0662V3.11749C9.0662 2.52838 9.54375 2.05082 10.1328 2.05082ZM8.52059 7.37016L10.6784 9.68955L12.8048 7.38397H11.7328C11.4382 7.38397 11.1995 7.14516 11.1995 6.85067V3.11743H10.1328V6.85073C10.1328 7.14529 9.894 7.38403 9.5995 7.38403L8.52059 7.37016Z" fill="white"/>
</g>
<defs>
<clipPath id="clip0">
<rect width="32" height="32" fill="white"/>
</clipPath>
</defs>
</svg>
