<svg width="32" height="32" viewBox="0 0 32 32" fill="none" xmlns="http://www.w3.org/2000/svg">
<g clip-path="url(#clip0)">
<path d="M15.9992 3.19997C16.2937 3.19997 16.5325 2.96117 16.5325 2.66664V0.533328C16.5325 0.238797 16.2937 0 15.9992 0C15.7046 0 15.4658 0.238797 15.4658 0.533328V2.66664C15.4658 2.96117 15.7046 3.19997 15.9992 3.19997Z" fill="white"/>
<path d="M9.40537 2.44358L10.472 4.29049C10.6176 4.54656 10.9432 4.63609 11.1993 4.49049C11.4554 4.34489 11.5449 4.0193 11.3993 3.76323C11.3982 3.76117 11.397 3.75917 11.3958 3.7571L10.3291 1.91019C10.1835 1.65412 9.8579 1.56459 9.60184 1.71019C9.34577 1.85579 9.25624 2.18138 9.40184 2.43745C9.40297 2.43951 9.40417 2.44158 9.40537 2.44358Z" fill="white"/>
<path d="M5.10354 7.12496C5.10554 7.12616 5.10761 7.1273 5.10968 7.1285L6.95659 8.19515C7.21072 8.34408 7.53745 8.25888 7.68638 8.00475C7.83532 7.75062 7.75012 7.42389 7.49599 7.27496C7.49399 7.27376 7.49192 7.27263 7.48985 7.27143L5.64294 6.20477C5.38881 6.05584 5.06208 6.14104 4.91315 6.39517C4.76421 6.64923 4.84941 6.97603 5.10354 7.12496Z" fill="white"/>
<path d="M6.39919 12.7998C6.39919 12.5053 6.16039 12.2665 5.86586 12.2665H3.73255C3.43802 12.2665 3.19922 12.5053 3.19922 12.7998C3.19922 13.0943 3.43802 13.3331 3.73255 13.3331H5.86586C6.16039 13.3331 6.39919 13.0943 6.39919 12.7998Z" fill="white"/>
<path d="M6.96283 17.401C6.96077 17.4022 6.9587 17.4034 6.95663 17.4046L5.10972 18.4713C4.85365 18.6168 4.76406 18.9424 4.90959 19.1985C5.05512 19.4545 5.38072 19.5441 5.63678 19.3986C5.63885 19.3974 5.64091 19.3962 5.64298 19.395L7.48989 18.3284C7.74596 18.1828 7.83556 17.8572 7.69003 17.6012C7.54449 17.3451 7.2189 17.2555 6.96283 17.401Z" fill="white"/>
<path d="M26.8946 18.4749C26.8925 18.4737 26.8905 18.4725 26.8884 18.4713L25.0415 17.4047C24.7874 17.2557 24.4606 17.3409 24.3116 17.5949C24.1626 17.849 24.2478 18.1758 24.5019 18.3248C24.504 18.326 24.506 18.3272 24.5081 18.3284L26.355 19.395C26.6091 19.544 26.9359 19.4588 27.0849 19.2048C27.2339 18.9506 27.1487 18.6239 26.8946 18.4749Z" fill="white"/>
<path d="M28.2643 12.2666H26.131C25.8365 12.2666 25.5977 12.5054 25.5977 12.7999C25.5977 13.0945 25.8365 13.3333 26.131 13.3333H28.2643C28.5588 13.3333 28.7976 13.0945 28.7976 12.7999C28.7976 12.5054 28.5588 12.2666 28.2643 12.2666Z" fill="white"/>
<path d="M24.7757 8.26653C24.8693 8.26653 24.9613 8.24187 25.0423 8.19507L26.8892 7.12841C27.1453 6.98281 27.2348 6.65722 27.0892 6.40115C26.9436 6.14509 26.618 6.05556 26.362 6.20115C26.3599 6.20229 26.3579 6.20349 26.3558 6.20469L24.5089 7.27134C24.2539 7.41861 24.1665 7.7448 24.3137 7.99987C24.4091 8.16487 24.5851 8.26653 24.7757 8.26653Z" fill="white"/>
<path d="M20.7976 4.48603C20.7978 4.48616 20.798 4.48629 20.7982 4.48636C21.0533 4.63349 21.3795 4.54596 21.5266 4.29076C21.5266 4.2907 21.5267 4.29063 21.5267 4.29063L22.5934 2.44371C22.7424 2.18965 22.6572 1.86285 22.4031 1.71386C22.149 1.56486 21.8222 1.65006 21.6732 1.90412C21.672 1.90619 21.6708 1.90825 21.6696 1.91032L20.603 3.75723C20.4555 4.01223 20.5427 4.33849 20.7976 4.48603Z" fill="white"/>
<path d="M17.0658 21.3331C17.3603 21.3331 17.5991 21.0943 17.5991 20.7997V14.9331H18.6658C19.844 14.9331 20.7991 13.978 20.7991 12.7998C20.7991 11.6216 19.844 10.6665 18.6658 10.6665C17.4876 10.6665 16.5325 11.6216 16.5325 12.7998V13.8665H15.4658V12.7998C15.4658 11.6216 14.5107 10.6665 13.3325 10.6665C12.1543 10.6665 11.1992 11.6216 11.1992 12.7998C11.1992 13.978 12.1543 14.9331 13.3325 14.9331H14.3992V20.7997C14.3992 21.0943 14.638 21.3331 14.9325 21.3331C15.227 21.3331 15.4658 21.0943 15.4658 20.7997V14.9331H16.5325V20.7997C16.5325 21.0943 16.7712 21.3331 17.0658 21.3331ZM17.5991 12.7998C17.5991 12.2107 18.0767 11.7332 18.6658 11.7332C19.2549 11.7332 19.7324 12.2107 19.7324 12.7998C19.7324 13.3889 19.2549 13.8665 18.6658 13.8665H17.5991V12.7998ZM14.3992 13.8665H13.3325C12.7434 13.8665 12.2659 13.3889 12.2659 12.7998C12.2659 12.2107 12.7434 11.7332 13.3325 11.7332C13.9217 11.7332 14.3992 12.2107 14.3992 12.7998V13.8665Z" fill="white"/>
<path d="M16.4115 4.27686C11.7042 4.05072 7.70474 7.68342 7.47861 12.3908C7.34907 15.0862 8.5022 17.684 10.5881 19.3961C10.964 19.6906 11.1877 20.1385 11.1972 20.6159V21.8665C11.2 22.5421 11.6268 23.1432 12.2638 23.3684V23.9998C12.2652 24.3947 12.4135 24.775 12.6798 25.0665C12.1252 25.6694 12.1252 26.5969 12.6798 27.1998C12.0869 27.8498 12.1332 28.8574 12.7832 29.4503C13.0784 29.7196 13.4641 29.8682 13.8638 29.8664C14.1509 29.874 14.3897 29.6473 14.3972 29.3602C14.4001 29.2482 14.3668 29.1382 14.3022 29.0467C14.2853 29.0141 14.2653 28.9832 14.2425 28.9544C14.1986 28.9143 14.1485 28.8815 14.0942 28.8574C14.0787 28.8494 14.0633 28.843 14.0473 28.8366C13.9933 28.8169 13.9367 28.8056 13.8793 28.803C13.8739 28.803 13.8691 28.7998 13.8638 28.7998C13.5693 28.7998 13.3305 28.561 13.3305 28.2664C13.3305 27.9719 13.5693 27.7331 13.8638 27.7331H15.9971C16.2916 27.7331 16.5304 27.4943 16.5304 27.1998C16.5304 26.9053 16.2916 26.6665 15.9971 26.6665H13.8638C13.5693 26.6665 13.3305 26.4277 13.3305 26.1331C13.3305 25.8386 13.5693 25.5998 13.8638 25.5998H15.9971C16.2916 25.5998 16.5304 25.361 16.5304 25.0665C16.5304 24.772 16.2916 24.5332 15.9971 24.5332H13.8638C13.5693 24.5332 13.3305 24.2944 13.3305 23.9998V23.4665H15.9971C16.2916 23.4665 16.5304 23.2277 16.5304 22.9332C16.5304 22.6386 16.2916 22.3998 15.9971 22.3998H12.7972C12.5026 22.3998 12.2638 22.1611 12.2638 21.8665V20.6159C12.2551 19.8184 11.8878 19.0672 11.2638 18.5706C8.078 15.9523 7.61794 11.2472 10.2362 8.06135C11.7339 6.23897 14.0047 5.23151 16.3608 5.34404C20.3013 5.57844 23.3965 8.8078 23.4637 12.7546C23.4828 15.0247 22.4621 17.1788 20.6931 18.6015C20.0737 19.1116 19.7196 19.8754 19.7304 20.6777V21.8665C19.7304 22.1611 19.4916 22.3998 19.1971 22.3998H17.5971C17.3026 22.3998 17.0638 22.6386 17.0638 22.9332C17.0638 23.2277 17.3026 23.4665 17.5971 23.4665H18.6638V23.9998C18.6638 24.2944 18.425 24.5332 18.1304 24.5332H17.5971C17.3026 24.5332 17.0638 24.772 17.0638 25.0665C17.0638 25.361 17.3026 25.5998 17.5971 25.5998H18.1304C18.425 25.5998 18.6638 25.8386 18.6638 26.1331C18.6638 26.4277 18.425 26.6665 18.1304 26.6665H17.5971C17.3026 26.6665 17.0638 26.9053 17.0638 27.1998C17.0638 27.4943 17.3026 27.7331 17.5971 27.7331H18.1304C18.425 27.7331 18.6638 27.9719 18.6638 28.2664C18.6638 28.561 18.425 28.7998 18.1304 28.7998H15.4638C15.1693 28.7998 14.9305 29.0386 14.9305 29.3331C14.9305 29.6276 15.1693 29.8664 15.4638 29.8664H17.5059C17.2114 30.6996 16.2973 31.1362 15.4642 30.8418C15.2091 30.7516 14.9811 30.5982 14.8014 30.396C14.6055 30.176 14.2683 30.1564 14.0483 30.3523C13.8283 30.5482 13.8087 30.8854 14.0046 31.1053C14.98 32.2045 16.6617 32.3048 17.7608 31.3295C18.2148 30.9266 18.5174 30.3807 18.6184 29.7822C19.4537 29.5211 19.9191 28.6324 19.6581 27.7971C19.5888 27.5752 19.4714 27.3713 19.3144 27.1998C19.8691 26.5969 19.8691 25.6694 19.3144 25.0665C19.5807 24.775 19.729 24.3947 19.7304 23.9998V23.3684C20.3674 23.1432 20.7943 22.5421 20.7971 21.8665V20.6777C20.7899 20.1986 20.9975 19.7413 21.3629 19.4313C23.3858 17.805 24.5529 15.3421 24.5304 12.7466C24.4533 8.23548 20.9153 4.54465 16.4115 4.27686Z" fill="white"/>
</g>
<defs>
<clipPath id="clip0">
<rect width="32" height="32" fill="white"/>
</clipPath>
</defs>
</svg>
