<svg width="32" height="32" viewBox="0 0 32 32" fill="none" xmlns="http://www.w3.org/2000/svg">
<g clip-path="url(#clip0)">
<path d="M31.7366 4.0387C31.7176 4.02082 27.9588 0.436137 27.9588 0.436137C27.8151 0.298262 27.6665 0.155762 27.389 0.155762H12.2565C11.8145 0.155762 11.4549 0.515324 11.4549 0.957324V3.41876L6.12145 4.33301C5.69395 4.40801 5.40645 4.81714 5.48051 5.2442L5.7512 6.82245C4.01764 7.40582 2.23783 8.0072 0.519639 8.62439C0.113639 8.77282 -0.0994232 9.22426 0.0454519 9.6327L3.46326 19.1337C3.53201 19.3249 3.7122 19.4439 3.90439 19.4439C3.95701 19.4439 4.01064 19.435 4.06301 19.4161C4.30664 19.3285 4.43308 19.06 4.34545 18.8164L0.978202 9.45589C2.59695 8.87632 4.27333 8.30907 5.91164 7.75764L7.52233 17.1479L9.3757 27.9624C9.44264 28.3442 9.7782 28.6158 10.157 28.6158C10.1998 28.6158 10.2433 28.6123 10.287 28.6051L15.3067 27.7437L19.2292 27.0713L13.3298 29.1918L8.67758 30.8644L5.06458 20.8151C4.97701 20.5715 4.70858 20.4451 4.46489 20.5326C4.22126 20.6202 4.09483 20.8887 4.18239 21.1323L7.84664 31.3244C7.96383 31.6449 8.26745 31.8442 8.58839 31.8442C8.67708 31.8442 8.76714 31.8289 8.85489 31.7969L13.6468 30.074L24.5277 26.1631L26.6064 25.8068H31.1983C31.6403 25.8068 32 25.4464 32 25.0034V4.56689C32 4.28632 31.8478 4.1432 31.7366 4.0387ZM30.4947 4.1497H28.1491L28.091 4.14995C27.9786 4.1507 27.7157 4.15264 27.649 4.08639C27.6336 4.07107 27.6156 4.01995 27.6156 3.92501L27.6102 1.39907L30.4947 4.1497ZM31.0625 24.8692H12.3924V15.7338C12.3924 15.4749 12.1825 15.265 11.9236 15.265C11.6648 15.265 11.4549 15.4749 11.4549 15.7338V25.0033C11.4549 25.4463 11.8145 25.8067 12.2565 25.8067H21.0573L15.1482 26.8196L10.2743 27.656L8.44633 16.9894L6.42951 5.23132L11.4548 4.36989V13.5588C11.4548 13.8176 11.6647 14.0275 11.9236 14.0275C12.1825 14.0275 12.3923 13.8176 12.3923 13.5588V1.0932H26.672L26.6781 3.92607C26.6781 4.26945 26.7826 4.5472 26.9885 4.7517C27.305 5.06589 27.7523 5.08776 28.03 5.08776C28.0538 5.08776 28.0765 5.08757 28.0976 5.08745L31.0625 5.08726V24.8692Z" fill="white"/>
<path d="M14.6514 7.43433C14.6514 7.6932 14.8612 7.90308 15.1201 7.90308H28.5224C28.7812 7.90308 28.9911 7.6932 28.9911 7.43433C28.9911 7.17545 28.7812 6.96558 28.5224 6.96558H15.1201C14.8612 6.96558 14.6514 7.17545 14.6514 7.43433Z" fill="white"/>
<path d="M28.5224 10.2957H15.1201C14.8612 10.2957 14.6514 10.5055 14.6514 10.7644C14.6514 11.0233 14.8612 11.2332 15.1201 11.2332H28.5224C28.7812 11.2332 28.9911 11.0233 28.9911 10.7644C28.9911 10.5055 28.7812 10.2957 28.5224 10.2957Z" fill="white"/>
<path d="M28.5224 13.6257H15.1201C14.8612 13.6257 14.6514 13.8356 14.6514 14.0945C14.6514 14.3534 14.8612 14.5632 15.1201 14.5632H28.5224C28.7812 14.5632 28.9911 14.3534 28.9911 14.0945C28.9911 13.8356 28.7812 13.6257 28.5224 13.6257Z" fill="white"/>
<path d="M28.5224 16.9559H15.1201C14.8612 16.9559 14.6514 17.1658 14.6514 17.4247C14.6514 17.6836 14.8612 17.8934 15.1201 17.8934H28.5224C28.7812 17.8934 28.9911 17.6836 28.9911 17.4247C28.9911 17.1658 28.7812 16.9559 28.5224 16.9559Z" fill="white"/>
<path d="M28.5224 20.2861H15.1201C14.8612 20.2861 14.6514 20.496 14.6514 20.7549C14.6514 21.0138 14.8612 21.2236 15.1201 21.2236H28.5224C28.7812 21.2236 28.9911 21.0138 28.9911 20.7549C28.9911 20.496 28.7812 20.2861 28.5224 20.2861Z" fill="white"/>
</g>
<defs>
<clipPath id="clip0">
<rect width="32" height="32" fill="white"/>
</clipPath>
</defs>
</svg>
