<svg width="32" height="32" viewBox="0 0 32 32" fill="none" xmlns="http://www.w3.org/2000/svg">
<g clip-path="url(#clip0)">
<path d="M30.6361 15.8855L30.6125 15.8864C29.8866 15.9137 29.2601 16.4237 29.089 17.1267L28.5868 19.1889C28.1098 21.1473 26.7976 22.7783 24.9868 23.6636C24.7742 23.7674 24.5343 23.7447 24.345 23.6024C24.1558 23.4602 24.0671 23.2361 24.1078 23.0029L24.5043 20.7323C24.6237 20.0481 24.1838 19.4052 23.5027 19.2687C22.9858 19.1653 22.4681 19.3852 22.1839 19.8292L19.618 23.8374C19.2506 23.5726 18.7341 23.6042 18.4038 23.9345L16.5426 25.7957C16.3595 25.9788 16.3595 26.2756 16.5426 26.4586L21.9467 31.8627C22.0383 31.9542 22.1583 32 22.2782 32C22.3981 32 22.5181 31.9542 22.6097 31.8627L24.4709 30.0016C24.819 29.6534 24.836 29.0983 24.5229 28.7291C25.1199 28.397 25.7026 28.0165 26.2555 27.597C26.4618 27.4406 26.5021 27.1465 26.3456 26.9402C26.1893 26.7341 25.8952 26.6937 25.6888 26.8502C24.7383 27.5712 23.9417 27.9751 23.8368 28.0374L20.3041 24.5047L22.9735 20.3348C23.0478 20.2186 23.1833 20.1614 23.3185 20.1881C23.4968 20.2238 23.612 20.3921 23.5806 20.5711L23.1842 22.8417C23.0832 23.4204 23.3122 23.9991 23.7818 24.3519C24.2514 24.7048 24.8708 24.7637 25.3985 24.5058C27.4603 23.4978 28.9545 21.6407 29.4976 19.4107L29.9998 17.3486C30.1614 16.6846 31.1165 16.6537 31.0602 17.2356C30.7517 20.4162 29.3302 23.4087 27.0575 25.6618C26.8737 25.8441 26.8724 26.1409 27.0546 26.3247C27.2369 26.5085 27.5336 26.5099 27.7175 26.3276C30.1453 23.9208 31.6638 20.724 31.9933 17.326C32.0697 16.5389 31.437 15.8571 30.6361 15.8855ZM22.2782 30.8684L17.5373 26.1275L19.0709 24.5974L23.8079 29.3386L22.2782 30.8684Z" fill="white"/>
<path d="M9.91277 7.90619L10.536 8.25157C10.5412 8.2545 10.5455 8.25869 10.5485 8.26388L11.5237 9.95275C11.5267 9.95788 11.5282 9.96375 11.528 9.96969L11.5156 10.6823C11.5095 11.0346 11.6952 11.363 12.0005 11.5393L13.4129 12.3546C13.563 12.4414 13.7305 12.4846 13.898 12.4846C14.071 12.4846 14.244 12.4384 14.3975 12.3461L15.0086 11.9789C15.0135 11.976 15.0193 11.9744 15.0252 11.9744H16.9755C16.9814 11.9744 16.9872 11.976 16.9923 11.9791L17.6032 12.3462C17.9054 12.5277 18.2827 12.531 18.5877 12.3547L20.0002 11.5393C20.3054 11.3631 20.4911 11.0347 20.485 10.6823L20.4727 9.96969C20.4725 9.96375 20.474 9.95794 20.477 9.95282L21.4522 8.26382C21.4552 8.25869 21.4595 8.2545 21.4645 8.25169L22.0878 7.90619C22.3961 7.73538 22.5876 7.41025 22.5876 7.05782V5.42688C22.5876 5.0745 22.3962 4.74944 22.0878 4.5785L21.4647 4.23313C21.4595 4.23019 21.4552 4.226 21.4521 4.22075L21.3958 4.12319C21.2663 3.89907 20.9795 3.82226 20.7555 3.95176C20.5313 4.08119 20.4545 4.36788 20.584 4.59207L20.6402 4.6895C20.7282 4.84188 20.856 4.9675 21.01 5.05294L21.6333 5.39838C21.6437 5.40419 21.6502 5.41507 21.6502 5.42688V7.05782C21.6502 7.06963 21.6437 7.0805 21.6334 7.08625L21.0098 7.43188C20.856 7.51719 20.7282 7.64288 20.6403 7.79513L19.665 9.48413C19.5771 9.63657 19.5322 9.81013 19.5353 9.986L19.5477 10.6986C19.5479 10.7104 19.5417 10.7214 19.5314 10.7273L18.1189 11.5428C18.1087 11.5486 18.096 11.5485 18.086 11.5425L17.4752 11.1754C17.3243 11.0848 17.1515 11.0369 16.9755 11.0369H15.0253C14.8492 11.0369 14.6763 11.0848 14.5257 11.1754L13.9147 11.5425C13.9047 11.5486 13.892 11.5487 13.8818 11.5428L12.4694 10.7274C12.4592 10.7214 12.4528 10.7104 12.4531 10.6986L12.4655 9.986C12.4686 9.81013 12.4237 9.63657 12.3357 9.48407L11.3606 7.79519C11.2727 7.64282 11.1448 7.51719 10.9908 7.43175L10.3674 7.08625C10.3571 7.08057 10.3506 7.06963 10.3506 7.05782V5.42688C10.3506 5.41507 10.3571 5.40413 10.3673 5.39844L10.991 5.05282C11.1448 4.9675 11.2727 4.84182 11.3605 4.68957L12.3358 3.00057C12.4237 2.84813 12.4686 2.67457 12.4655 2.49869L12.4531 1.78613C12.4528 1.77438 12.4591 1.76338 12.4693 1.75744L13.8819 0.94188C13.8922 0.936005 13.9047 0.93613 13.9148 0.942255L14.5258 1.30938C14.6766 1.39994 14.8493 1.44788 15.0253 1.44788H16.9755C17.1513 1.44788 17.324 1.4 17.4751 1.30932L18.086 0.942255C18.0962 0.93613 18.1087 0.936005 18.119 0.941942L19.5315 1.7575C19.5417 1.76338 19.5479 1.77438 19.5477 1.78613L19.5353 2.49875C19.5327 2.64613 19.5655 2.79594 19.6302 2.93188C19.7415 3.16563 20.0212 3.26507 20.2548 3.15394C20.4887 3.04276 20.588 2.76307 20.4769 2.52932C20.4737 2.52269 20.4727 2.51744 20.4727 2.51507L20.4851 1.8025C20.4912 1.45 20.3054 1.12163 20.0002 0.945567L18.5877 0.130005C18.2825 -0.0463076 17.9052 -0.0431201 17.6031 0.138567L16.9924 0.505505C16.9872 0.50863 16.9813 0.510255 16.9755 0.510255H15.0252C15.0193 0.510255 15.0135 0.50863 15.0084 0.50563L14.3976 0.13863C14.0957 -0.0429326 13.7182 -0.0463701 13.413 0.129942L12.0005 0.94538C11.6953 1.12157 11.5095 1.44994 11.5156 1.80238L11.528 2.51494C11.5282 2.52088 11.5267 2.52669 11.5237 2.53182L10.5485 4.22082C10.5455 4.22594 10.5412 4.23013 10.5362 4.23294L9.91259 4.5785C9.60446 4.74944 9.41309 5.07457 9.41309 5.42682V7.05775C9.41309 7.41025 9.60452 7.73532 9.91277 7.90619Z" fill="white"/>
<path d="M15.9989 3.40747C14.4357 3.40747 13.1641 4.67922 13.1641 6.24235C13.1641 7.80547 14.4358 9.07716 15.9989 9.07716C17.5621 9.07716 18.8337 7.80541 18.8337 6.24235C18.8338 4.67916 17.5621 3.40747 15.9989 3.40747ZM15.9989 8.13972C14.9527 8.13972 14.1016 7.2886 14.1016 6.24241C14.1016 5.19622 14.9527 4.34497 15.9989 4.34497C17.0451 4.34497 17.8962 5.19616 17.8962 6.24235C17.8962 7.28853 17.0451 8.13972 15.9989 8.13972Z" fill="white"/>
<path d="M24.5273 15.4469C25.6904 15.4469 26.6367 14.5006 26.6367 13.3376C26.6367 12.1745 25.6904 11.2283 24.5273 11.2283C23.3643 11.2283 22.418 12.1745 22.418 13.3376C22.418 14.5006 23.3643 15.4469 24.5273 15.4469ZM24.5273 12.1658C25.1735 12.1658 25.6992 12.6915 25.6992 13.3376C25.6992 13.9837 25.1735 14.5094 24.5273 14.5094C23.8812 14.5094 23.3555 13.9837 23.3555 13.3376C23.3555 12.6915 23.8812 12.1658 24.5273 12.1658Z" fill="white"/>
<path d="M21.2742 10.2616L21.2822 10.722L20.6397 11.835L20.2371 12.0582C19.9776 12.2019 19.8164 12.4755 19.8164 12.7722V13.903C19.8164 14.1995 19.9775 14.4732 20.237 14.617L20.6397 14.8402L21.2822 15.9531L21.2742 16.4136C21.269 16.7101 21.4253 16.9865 21.6822 17.1348L22.6615 17.7002C22.7878 17.7731 22.9287 17.8095 23.0697 17.8095C23.2153 17.8095 23.3608 17.7706 23.4901 17.693L23.8848 17.4558H25.1699L25.5646 17.693C25.8188 17.8457 26.1362 17.8485 26.3932 17.7002L27.3725 17.1348C27.6293 16.9865 27.7857 16.7102 27.7805 16.4136L27.7725 15.9531L28.415 14.8402L28.8179 14.6169C29.0772 14.473 29.2383 14.1995 29.2383 13.903V12.7722C29.2383 12.4755 29.0772 12.202 28.8178 12.0582L28.415 11.8349L27.7725 10.722L27.7805 10.2616C27.7857 9.96498 27.6293 9.68867 27.3725 9.54042L26.3932 8.97498C26.1365 8.82667 25.8189 8.82961 25.5646 8.98223L25.1699 9.21942H23.8848L23.4901 8.98223C23.2359 8.82954 22.9184 8.82673 22.6615 8.97498L21.6821 9.54048C21.4253 9.68873 21.269 9.9651 21.2742 10.2616ZM22.2127 10.3166L23.0683 9.8226L23.4308 10.0404C23.5578 10.1167 23.7031 10.1569 23.8512 10.1569H25.2035C25.3515 10.1569 25.4968 10.1166 25.6239 10.0404L25.9863 9.8226L26.842 10.3166L26.8346 10.7394C26.832 10.8876 26.8698 11.0338 26.9438 11.1617L27.6198 12.3325C27.6938 12.4609 27.8015 12.5667 27.931 12.6385L28.3008 12.8435V13.8316L27.9309 14.0366C27.8013 14.1085 27.6937 14.2143 27.6199 14.3423L26.9438 15.5133C26.8697 15.6416 26.832 15.7877 26.8345 15.9358L26.8419 16.3586L25.9863 16.8525L25.6238 16.6348C25.4968 16.5585 25.3515 16.5183 25.2034 16.5183H23.8512C23.7032 16.5183 23.5578 16.5586 23.4307 16.6348L23.0683 16.8525L22.2127 16.3586L22.2201 15.9358C22.2227 15.7877 22.1849 15.6416 22.1108 15.5134L21.4348 14.3426C21.3608 14.2142 21.2532 14.1084 21.1236 14.0366L20.7538 13.8317V12.8436L21.1232 12.6389C21.253 12.5671 21.3608 12.4612 21.4347 12.3329L22.1107 11.1621C22.1848 11.0339 22.2227 10.8877 22.2201 10.7394L22.2127 10.3166Z" fill="white"/>
<path d="M7.47259 15.4469C8.63566 15.4469 9.58191 14.5006 9.58191 13.3376C9.58191 12.1745 8.63566 11.2283 7.47259 11.2283C6.30953 11.2283 5.36328 12.1745 5.36328 13.3376C5.36328 14.5006 6.30953 15.4469 7.47259 15.4469ZM7.47259 12.1658C8.11872 12.1658 8.64441 12.6915 8.64441 13.3376C8.64441 13.9837 8.11872 14.5094 7.47259 14.5094C6.82647 14.5094 6.30078 13.9837 6.30078 13.3376C6.30078 12.6915 6.82647 12.1658 7.47259 12.1658Z" fill="white"/>
<path d="M3.1813 14.6168L3.58412 14.84L4.22662 15.9529L4.21849 16.4134C4.21337 16.71 4.36974 16.9863 4.62655 17.1346L5.6058 17.6999C5.86249 17.8483 6.18005 17.8455 6.43449 17.6928L6.82918 17.4556H8.11424L8.50899 17.6928C8.63824 17.7704 8.78374 17.8093 8.92949 17.8093C9.07037 17.8093 9.21131 17.7729 9.33755 17.7L10.3168 17.1346C10.5737 16.9863 10.7301 16.71 10.7249 16.4133L10.7168 15.9529L11.3593 14.84L11.7622 14.6167C12.0216 14.4729 12.1827 14.1993 12.1827 13.9028V12.772C12.1827 12.4754 12.0216 12.2018 11.7622 12.058L11.3594 11.8347L10.7168 10.7219L10.7249 10.2614C10.7301 9.96486 10.5737 9.68849 10.3169 9.54024L9.33762 8.97486C9.08087 8.82642 8.76337 8.8293 8.50906 8.98205L8.11424 9.21924H6.82918L6.43437 8.98199C6.18005 8.82924 5.86262 8.82661 5.60587 8.9748L4.62662 9.54024C4.36974 9.68849 4.21337 9.96486 4.21849 10.2615L4.22662 10.7219L3.58412 11.8347L3.18137 12.058C2.92193 12.2018 2.76074 12.4754 2.76074 12.772V13.9028C2.76074 14.1994 2.92187 14.4729 3.1813 14.6168ZM3.69824 12.8434L4.06762 12.6387C4.19724 12.567 4.30499 12.4612 4.37918 12.3327L5.05537 11.1615C5.12937 11.0333 5.16712 10.8872 5.16455 10.7392L5.15712 10.3165L6.0128 9.82248L6.37512 10.0402C6.50205 10.1165 6.64743 10.1568 6.79562 10.1568H8.14793C8.29606 10.1568 8.44143 10.1164 8.56831 10.0402L8.93081 9.82248L9.78643 10.3165L9.77899 10.7392C9.77643 10.8872 9.81418 11.0333 9.88824 11.1616L10.5644 12.3328C10.6386 12.4612 10.7463 12.567 10.8759 12.6387L11.2453 12.8435V13.8315L10.8756 14.0365C10.7461 14.1082 10.6384 14.214 10.5644 14.3423L9.88812 15.5136C9.81412 15.6419 9.77643 15.7879 9.77899 15.9359L9.78643 16.3585L8.93074 16.8525L8.56843 16.6348C8.44149 16.5585 8.29612 16.5182 8.14793 16.5182H6.79562C6.64749 16.5182 6.50212 16.5586 6.37524 16.6348L6.0128 16.8525L5.15712 16.3585L5.16455 15.9358C5.16712 15.7879 5.12943 15.6419 5.0553 15.5134L4.37912 14.3422C4.30505 14.214 4.19749 14.1083 4.06793 14.0365L3.69818 13.8315V12.8434H3.69824Z" fill="white"/>
<path d="M13.5958 23.9344C13.2654 23.6041 12.7489 23.5724 12.3815 23.8373L9.81567 19.8291C9.53149 19.3851 9.01349 19.1648 8.4968 19.2687C7.8158 19.4051 7.3758 20.048 7.4953 20.7322L7.89168 23.0028C7.93236 23.2359 7.84374 23.4601 7.65449 23.6023C7.46536 23.7445 7.2253 23.7673 7.01268 23.6634C5.20186 22.7781 3.88974 21.1471 3.4128 19.1888L2.91055 17.1266C2.73936 16.4236 2.11286 15.9136 1.38674 15.8863L1.36374 15.8854C0.569113 15.8549 -0.0703871 16.5344 0.00623785 17.3259C0.4718 22.1265 3.26368 26.3855 7.47693 28.7288C7.16368 29.0979 7.18043 29.6532 7.52868 30.0015L9.38986 31.8627C9.48143 31.9542 9.60136 31.9999 9.72136 31.9999C9.8413 31.9999 9.9613 31.9542 10.0528 31.8627L12.1329 29.7827C12.316 29.5996 12.316 29.3028 12.1329 29.1198C11.9499 28.9368 11.6531 28.9367 11.47 29.1198L9.72174 30.868L8.19168 29.3345L12.9329 24.5974L14.4627 26.1272L12.7952 27.7946C12.6121 27.9777 12.6121 28.2744 12.7952 28.4575C12.9783 28.6404 13.2751 28.6406 13.458 28.4575L15.4569 26.4587C15.5449 26.3708 15.5942 26.2516 15.5942 26.1272C15.5942 26.0028 15.5449 25.8837 15.457 25.7957L13.5958 23.9344ZM0.939363 17.2354C0.91705 17.0051 1.10555 16.8119 1.32874 16.8224C1.33499 16.8226 1.35824 16.8234 1.35199 16.8233C1.6658 16.835 1.92611 17.0461 1.99968 17.3484L2.50193 19.4106C3.04499 21.6406 4.53905 23.4976 6.60093 24.5057C7.12861 24.7636 7.74818 24.7048 8.21768 24.3518C8.6873 23.9989 8.91624 23.4203 8.81524 22.8416L8.41886 20.571C8.38755 20.3919 8.50274 20.2237 8.68093 20.1879C8.81649 20.1609 8.95168 20.2184 9.02605 20.3347L11.6954 24.5046L8.16267 28.0373C8.10592 27.9846 1.68974 24.9728 0.939363 17.2354Z" fill="white"/>
</g>
<defs>
<clipPath id="clip0">
<rect width="32" height="32" fill="white"/>
</clipPath>
</defs>
</svg>
