<svg width="32" height="32" viewBox="0 0 32 32" fill="none" xmlns="http://www.w3.org/2000/svg">
<g clip-path="url(#clip0)">
<path d="M30.4054 18.113H25.0898V15.9868C25.0898 15.083 24.3986 14.3921 23.4951 14.3921H21.3689C20.4651 14.3921 19.7742 15.083 19.7742 15.9868V18.113H14.4586C13.5548 18.113 12.8639 18.804 12.8639 19.7077V30.3389C12.8639 30.4983 12.9169 30.7109 12.9701 30.8705H11.8008V13.329H7.01674V30.8705H5.42205V17.0499H0.638006V30.8705H0.106445V31.9336H30.4054C31.3089 31.9336 32.0001 31.2424 32.0001 30.3389V19.7077C32.0001 18.804 31.3089 18.113 30.4054 18.113ZM20.8373 15.9868C20.8373 15.6678 21.0499 15.4552 21.3689 15.4552H23.4951C23.8139 15.4552 24.0267 15.6678 24.0267 15.9868V18.113H20.8373V15.9868ZM14.4586 19.1762H30.4054C30.7241 19.1762 30.937 19.3887 30.937 19.7077V20.7708H13.927V19.7077C13.927 19.3887 14.1396 19.1762 14.4586 19.1762ZM21.3689 21.834H23.4951V23.4286C23.4951 23.7476 23.2823 23.9602 22.9636 23.9602H21.9004C21.5815 23.9602 21.3689 23.7476 21.3689 23.4286V21.834ZM8.07986 14.3921H10.7377V30.8705H8.07986V14.3921ZM1.70113 18.113H4.35893V30.8705H1.70113V18.113ZM30.4054 30.8705H14.4586C14.1396 30.8705 13.927 30.6579 13.927 30.3389V21.834H20.3058V23.4286C20.3058 24.3321 20.9967 25.0233 21.9004 25.0233H22.9636C23.8671 25.0233 24.5582 24.3321 24.5582 23.4286V21.834H30.937V30.3389C30.937 30.6579 30.7241 30.8705 30.4054 30.8705Z" fill="white"/>
<path d="M9.14296 3.97342L14.4586 9.28903L21.9004 1.84717V3.22929H22.9636V0.039917H19.2426V1.10304H21.156L14.4586 7.80077L9.14296 2.48515L0 11.6279L0.744134 12.372L9.14296 3.97342Z" fill="white"/>
<path d="M27.2148 17.0499H28.278V1.10304H30.9357V17.0499H31.9989V0.039917H27.2148V17.0499Z" fill="white"/>
<path d="M25.62 13.329V4.82397H20.8359V13.329H21.8991V5.8871H24.5569V13.329H25.62Z" fill="white"/>
<path d="M19.2411 14.3922V10.6713H14.457V17.05H15.5202V11.7344H18.178V14.3922H19.2411Z" fill="white"/>
</g>
<defs>
<clipPath id="clip0">
<rect width="32" height="32" fill="white"/>
</clipPath>
</defs>
</svg>
