<svg width="32" height="32" viewBox="0 0 32 32" fill="none" xmlns="http://www.w3.org/2000/svg">
<path d="M29.5264 0H5.48677C5.22733 0 5.0171 0.210223 5.0171 0.469667V16C5.0171 16.2594 5.22733 16.4697 5.48677 16.4697C5.74622 16.4697 5.95644 16.2594 5.95644 16V0.939335H29.0567V28.5245C29.0567 29.9229 27.919 31.0607 26.5205 31.0607C25.1221 31.0607 23.9843 29.9229 23.9843 28.5245C23.9843 28.265 23.7741 28.0548 23.5147 28.0548H5.95644V18.2139C5.95644 17.9544 5.74622 17.7442 5.48677 17.7442C5.22733 17.7442 5.0171 17.9544 5.0171 18.2139V28.0548H2.47357C2.21413 28.0548 2.00391 28.265 2.00391 28.5245C2.00391 30.4409 3.56301 32 5.47944 32H5.48677H26.5205C28.437 32 29.9961 30.4409 29.9961 28.5245V0.469667C29.9961 0.210223 29.7859 0 29.5264 0ZM5.48677 31.0607H5.47944C4.2414 31.0607 3.20776 30.1689 2.98683 28.9941H23.0766C23.1865 29.8046 23.5769 30.5271 24.1465 31.0607H5.48677Z" fill="white"/>
<path d="M26.9902 3.47553C26.9902 3.21608 26.78 3.00586 26.5205 3.00586H8.48529C8.22585 3.00586 8.01562 3.21608 8.01562 3.47553V7.48335C8.01562 7.7428 8.22585 7.95302 8.48529 7.95302H26.5205C26.78 7.95302 26.9902 7.7428 26.9902 7.48335V3.47553ZM26.0508 7.01369H8.95496V3.94519H26.0508V7.01369Z" fill="white"/>
<path d="M8.48529 10.9589H11.4912C11.7506 10.9589 11.9608 10.7486 11.9608 10.4892C11.9608 10.2298 11.7506 10.0195 11.4912 10.0195H8.48529C8.22585 10.0195 8.01562 10.2298 8.01562 10.4892C8.01562 10.7486 8.22585 10.9589 8.48529 10.9589Z" fill="white"/>
<path d="M26.5215 10.0195H13.997C13.7376 10.0195 13.5273 10.2298 13.5273 10.4892C13.5273 10.7486 13.7376 10.9589 13.997 10.9589H26.5215C26.7809 10.9589 26.9911 10.7486 26.9911 10.4892C26.9911 10.2298 26.7809 10.0195 26.5215 10.0195Z" fill="white"/>
<path d="M8.48529 12.9628H13.9961C14.2555 12.9628 14.4657 12.7525 14.4657 12.4931C14.4657 12.2337 14.2555 12.0234 13.9961 12.0234H8.48529C8.22585 12.0234 8.01562 12.2337 8.01562 12.4931C8.01562 12.7525 8.22585 12.9628 8.48529 12.9628Z" fill="white"/>
<path d="M26.5215 12.0234H16.0009C15.7415 12.0234 15.5312 12.2337 15.5312 12.4931C15.5312 12.7525 15.7415 12.9628 16.0009 12.9628H26.5215C26.7809 12.9628 26.9911 12.7525 26.9911 12.4931C26.9911 12.2337 26.7809 12.0234 26.5215 12.0234Z" fill="white"/>
<path d="M8.48529 25.9883H11.9921C12.2516 25.9883 12.4618 25.7781 12.4618 25.5186C12.4618 25.2592 12.2516 25.049 11.9921 25.049H8.48529C8.22585 25.049 8.01562 25.2592 8.01562 25.5186C8.01562 25.7781 8.22585 25.9883 8.48529 25.9883Z" fill="white"/>
<path d="M13.997 25.9883H26.5215C26.7809 25.9883 26.9911 25.7781 26.9911 25.5186C26.9911 25.2592 26.7809 25.049 26.5215 25.049H13.997C13.7376 25.049 13.5273 25.2592 13.5273 25.5186C13.5273 25.7781 13.7376 25.9883 13.997 25.9883Z" fill="white"/>
<path d="M11.4931 23.4834C11.7526 23.4834 11.9628 23.2732 11.9628 23.0138V22.4815H11.9941C13.0818 22.4815 13.9667 21.5966 13.9667 20.5089C13.9667 19.4212 13.0818 18.5363 11.9941 18.5363H10.9921C10.4224 18.5363 9.95887 18.0727 9.95887 17.503C9.95887 16.9333 10.4224 16.4697 10.9921 16.4697H13.497C13.7565 16.4697 13.9667 16.2595 13.9667 16.0001C13.9667 15.7406 13.7565 15.5304 13.497 15.5304H11.9628V14.9981C11.9628 14.7387 11.7526 14.5284 11.4931 14.5284C11.2337 14.5284 11.0234 14.7387 11.0234 14.9981V15.5304H10.9921C9.90445 15.5304 9.01953 16.4153 9.01953 17.503C9.01953 18.5907 9.90445 19.4756 10.9921 19.4756H11.9941C12.5638 19.4756 13.0274 19.9391 13.0274 20.5089C13.0274 21.0786 12.5638 21.5421 11.9941 21.5421H9.4892C9.22975 21.5421 9.01953 21.7524 9.01953 22.0118C9.01953 22.2713 9.22975 22.4815 9.4892 22.4815H11.0234V23.0138C11.0234 23.2732 11.2337 23.4834 11.4931 23.4834Z" fill="white"/>
<path d="M18.0019 21.5421H15.497C15.2376 21.5421 15.0273 21.7524 15.0273 22.0118C15.0273 22.2713 15.2376 22.4815 15.497 22.4815H17.0313V23.0138C17.0313 23.2732 17.2415 23.4834 17.5009 23.4834C17.7604 23.4834 17.9706 23.2732 17.9706 23.0138V22.4815H18.0019C19.0896 22.4815 19.9745 21.5966 19.9745 20.5089C19.9745 19.4212 19.0896 18.5363 18.0019 18.5363H16.9999C16.4302 18.5363 15.9667 18.0727 15.9667 17.503C15.9667 16.9333 16.4302 16.4697 16.9999 16.4697H19.5048C19.7643 16.4697 19.9745 16.2595 19.9745 16.0001C19.9745 15.7406 19.7643 15.5304 19.5048 15.5304H17.9706V14.9981C17.9706 14.7387 17.7604 14.5284 17.5009 14.5284C17.2415 14.5284 17.0313 14.7387 17.0313 14.9981V15.5304H16.9999C15.9123 15.5304 15.0273 16.4153 15.0273 17.503C15.0273 18.5907 15.9123 19.4756 16.9999 19.4756H18.0019C18.5716 19.4756 19.0352 19.9391 19.0352 20.5089C19.0352 21.0786 18.5716 21.5421 18.0019 21.5421Z" fill="white"/>
<path d="M24.0175 21.5421H21.5126C21.2532 21.5421 21.043 21.7524 21.043 22.0118C21.043 22.2713 21.2532 22.4815 21.5126 22.4815H23.0469V23.0138C23.0469 23.2732 23.2571 23.4834 23.5166 23.4834C23.776 23.4834 23.9862 23.2732 23.9862 23.0138V22.4815H24.0175C25.1052 22.4815 25.9901 21.5966 25.9901 20.5089C25.9901 19.4212 25.1052 18.5363 24.0175 18.5363H23.0156C22.4458 18.5363 21.9823 18.0727 21.9823 17.503C21.9823 16.9333 22.4458 16.4697 23.0156 16.4697H25.5205C25.7799 16.4697 25.9901 16.2595 25.9901 16.0001C25.9901 15.7406 25.7799 15.5304 25.5205 15.5304H23.9862V14.9981C23.9862 14.7387 23.776 14.5284 23.5166 14.5284C23.2571 14.5284 23.0469 14.7387 23.0469 14.9981V15.5304H23.0156C21.9279 15.5304 21.043 16.4153 21.043 17.503C21.043 18.5907 21.9279 19.4756 23.0156 19.4756H24.0175C24.5873 19.4756 25.0508 19.9391 25.0508 20.5089C25.0508 21.0786 24.5873 21.5421 24.0175 21.5421Z" fill="white"/>
</svg>
