<svg width="24" height="24" viewBox="0 0 24 24" fill="none" xmlns="http://www.w3.org/2000/svg">
<g clip-path="url(#clip0)">
<path d="M23.7904 4.76831L16.5117 12.0001L23.7904 19.232C23.922 18.957 24.0018 18.6529 24.0018 18.3283V5.67201C24.0018 5.34731 23.922 5.04333 23.7904 4.76831Z" fill="white"/>
<path d="M21.8891 3.5625H2.1078C1.7831 3.5625 1.47912 3.64233 1.2041 3.77391L10.5071 13.03C11.3296 13.8526 12.6672 13.8526 13.4898 13.03L22.7928 3.77391C22.5177 3.64233 22.2138 3.5625 21.8891 3.5625Z" fill="white"/>
<path d="M0.211406 4.76819C0.0798281 5.0432 0 5.34719 0 5.67189V18.3281C0 18.6528 0.0798281 18.9569 0.211406 19.2318L7.49011 12L0.211406 4.76819Z" fill="white"/>
<path d="M15.5141 12.9944L14.4841 14.0244C13.1135 15.3949 10.8833 15.3949 9.51274 14.0244L8.4828 12.9944L1.2041 20.2262C1.47912 20.3578 1.7831 20.4376 2.1078 20.4376H21.8891C22.2138 20.4376 22.5177 20.3578 22.7928 20.2262L15.5141 12.9944Z" fill="white"/>
</g>
<defs>
<clipPath id="clip0">
<rect width="24" height="24" fill="white"/>
</clipPath>
</defs>
</svg>
