<svg width="90" height="90" viewBox="0 0 90 90" fill="none" xmlns="http://www.w3.org/2000/svg">
<g clip-path="url(#clip0)">
<path d="M60.0041 46.2903V49.9277C60.0041 52.5816 64.1518 50.1666 65.0994 49.7662C76.2766 54.9023 89.5261 46.3072 89.38 33.9909C89.3802 24.4732 81.6355 16.7295 72.1158 16.7295C56.7662 16.7108 49.0637 35.5593 60.0041 46.2903ZM72.116 19.3702C80.1796 19.3702 86.7395 25.9291 86.7395 33.9911C86.8698 44.639 75.2055 51.92 65.7057 47.1352C65.3434 46.9672 64.979 46.9572 64.6123 47.1053L62.6446 47.9366V45.7247C62.6446 45.3553 62.4899 45.0029 62.218 44.7529C52.4704 35.8068 58.8752 19.3628 72.116 19.3702Z" fill="white"/>
<path d="M67.9729 31.6995C68.7022 31.6995 69.2932 31.1085 69.2932 30.3791C69.2932 28.8429 70.6402 27.5342 72.1746 27.5572C73.6457 27.5868 74.858 28.7596 74.9342 30.2272C75.0171 31.8229 73.7156 33.2017 72.1157 33.2017C71.3863 33.2017 70.7953 33.7927 70.7953 34.5221V38.8541C70.855 40.6007 73.3756 40.6026 73.436 38.8541V35.6787C75.9421 35.0504 77.7054 32.6728 77.5714 30.0904C77.4237 27.2469 75.0764 24.9744 72.2276 24.9172C69.2058 24.8535 66.6523 27.3601 66.6523 30.3791C66.6525 31.1085 67.2435 31.6995 67.9729 31.6995Z" fill="white"/>
<path d="M72.1173 41.583C70.418 41.583 70.4152 44.2237 72.1173 44.2237C73.8165 44.2237 73.8193 41.583 72.1173 41.583Z" fill="white"/>
<path d="M18.7277 68.3262H8.62114C7.89178 68.3262 7.30078 68.9172 7.30078 69.6465V74.709C7.30078 75.4384 7.89178 76.0294 8.62114 76.0294H18.7277C19.4571 76.0294 20.0481 75.4384 20.0481 74.709V69.6465C20.0481 68.9173 19.4571 68.3262 18.7277 68.3262ZM17.4074 73.3886H9.94151L18 73.5L17.4074 70.9669V73.3886Z" fill="white"/>
<path d="M89.0853 58.1206C88.3385 57.2138 87.2365 56.6936 86.0615 56.6936H48.5956C48.0592 56.6936 47.54 56.7848 47.0545 56.9534C45.4729 54.6984 43.5332 52.7047 41.3231 51.062H49.9859C50.7152 51.062 51.3062 50.471 51.3062 49.7416V25.298C51.5342 6.95831 31.3422 -5.58408 14.8649 2.5034C13.3227 3.23559 14.4551 5.62104 15.9976 4.88904C30.7649 -2.35465 48.8681 8.8672 48.6653 25.2983L48.6655 48.4211H39.4409C41.3171 46.2988 42.7124 43.7702 43.2374 41.6467C43.4524 41.6671 43.6682 41.6805 43.8842 41.6869C46.4999 41.6869 48.628 39.5588 48.628 36.9432V32.6346C48.628 30.4717 47.1728 28.6422 45.19 28.0737C46.1 16.503 37.5986 6.61237 25.7665 6.53843C13.9348 6.61273 5.43294 16.5033 6.34329 28.0737C4.62629 28.566 3.30487 30.0039 2.98147 31.785L3.02266 25.2982C3.02266 18.9219 5.76021 12.8089 10.5334 8.52655C11.8041 7.38628 10.0408 5.42105 8.76976 6.56079C3.43902 11.3433 0.381583 18.1728 0.381583 25.2895V49.733C0.453059 50.5421 0.738257 50.985 1.54685 51.0618H10.366C3.92403 55.8499 0.0205078 63.5389 0.0205078 71.5704V75.2477C0.0205078 76.9548 2.66123 76.9548 2.66123 75.2477V71.5704C2.66123 65.5868 5.07521 59.7519 9.27819 55.4956L18.5278 61.8233C19.1351 62.1917 19.7147 62.1185 20.2666 61.6034L24.5529 56.7089V75.2475C24.5529 76.9546 27.1936 76.9546 27.1936 75.2475V56.7089L31.48 61.6036C32.0319 62.1187 32.6115 62.1919 33.2188 61.8234L42.4343 55.5191C43.3344 56.4334 44.1599 57.4236 44.9009 58.4817C44.4433 59.0575 44.1157 59.7455 43.9673 60.5052L39.7034 82.326H22.2926C21.5632 82.326 20.9722 82.917 20.9722 83.6464V85.9217C20.9722 88.1703 22.8019 90 25.0505 90H80.4264C82.6767 90 84.6232 88.3971 85.0547 86.1885L85.817 82.2884C86.1446 80.6133 83.5528 80.1057 83.2254 81.7819L82.4631 85.6821C82.2731 86.654 81.4167 87.3593 80.4264 87.3593H42.9599C42.1628 87.3593 41.5546 86.6206 41.7074 85.8382L46.5587 61.0117C46.7487 60.0397 47.6053 59.3343 48.5956 59.3343H86.0615C86.8587 59.3343 87.4671 60.0732 87.3143 60.8555L84.5729 74.8845C84.2452 76.5598 86.837 77.0668 87.1645 75.391L89.9059 61.362C90.1312 60.2089 89.8321 59.0274 89.0853 58.1206ZM25.873 51.8765C25.8704 51.8765 25.8679 51.8765 25.8653 51.8765C18.8219 51.873 12.658 47.0852 10.9346 40.3892C11.8497 39.5239 12.4215 38.2992 12.4215 36.9432V32.6651C16.6687 32.6533 25.4445 31.5702 29.998 23.4349C31.474 26.0538 34.3517 29.9134 39.1819 31.8134C39.0452 32.2934 39.1346 36.361 39.1107 36.9432C39.1107 38.3822 39.755 39.6737 40.7701 40.5445C40.7671 40.5557 40.7641 40.567 40.7609 40.5783C38.9848 42.9709 36.1557 44.4124 33.1009 44.4124H30.6098C29.1511 39.4741 21.9546 40.3656 21.8218 45.5743C21.9185 50.5903 28.7889 51.6915 30.5102 47.0532H33.1007C34.8184 47.0532 36.4805 46.6954 37.9966 46.0338C35.0962 49.6953 30.5485 51.8765 25.873 51.8765ZM26.2936 47.3781C25.2843 47.3781 24.4631 46.5688 24.4631 45.5742C24.5632 43.181 28.0247 43.1819 28.1245 45.5742C28.1244 46.5688 27.3031 47.3781 26.2936 47.3781ZM45.9869 32.6346V30.0129C45.9869 31.1725 45.0438 29.4342 43.8842 29.4342C42.7712 29.39 42.001 30.7174 42.001 29.5L41.7517 32.6346C41.8642 29.8409 45.8743 29.8409 45.9869 32.6346ZM25.7664 9.17916C35.0202 9.17916 42.5489 16.6389 42.5489 25.808V28.0737C41.6956 28.3184 40.9401 28.7966 40.3562 29.4342C33.8037 26.9676 31.2584 19.9637 31.233 19.8926C30.8388 18.7639 29.1773 18.7352 28.7514 19.8611C27.126 24.1607 24.1316 27.1509 19.8515 28.7487C16.6289 29.9516 13.4673 30.0765 11.6295 30.0129C11.0126 29.086 10.0785 28.3876 8.98366 28.0736V25.8078C8.98384 16.6389 16.5124 9.17916 25.7664 9.17916ZM5.54561 39.0461C5.54561 37.8865 6.45983 40 7.61946 40H7.64869C8.80832 40 9.27819 37.8865 9.27819 39.0461L9.78081 36.9432C9.50098 38 8.83754 39.0461 7.67791 39.0461H7.64869C6.48905 39.0461 5.54561 38.1029 5.54561 36.9432V39.0461ZM2.94467 37.5576C3.25399 40.1966 5.87799 42.1284 8.53227 41.6097C9.28418 44.1758 10.5961 46.4872 12.3161 48.4211H2.94467V37.5576ZM19.0517 58.9824L11.2975 53.6775C12.5333 52.6897 13.8724 51.8271 15.2964 51.1051C17.5864 52.7497 20.2673 53.871 23.1431 54.31L19.0517 58.9824ZM32.6946 58.9824L28.6032 54.3102C31.4246 53.8805 34.1197 52.7911 36.4405 51.1296C37.8568 51.8517 39.1885 52.7133 40.418 53.6986L32.6946 58.9824ZM25.0502 87.3593C24.2574 87.3593 23.6126 86.7144 23.6126 85.9217V84.9668H39.1871C38.9853 85.7489 38.9902 86.591 39.2554 87.3593H25.0502Z" fill="white"/>
<path d="M59.0645 73.3466C59.0645 76.3502 61.5078 78.7934 64.5112 78.7934C71.7373 78.4942 71.7352 68.1977 64.5112 67.8997C61.5078 67.8997 59.0645 70.343 59.0645 73.3466ZM61.002 73.3466C61.002 74.8939 66.0587 76.1526 64.5114 76.1526C64.5112 71.5 64.5112 74 64.5114 70.5404C66.0587 70.5404 61.002 71.7993 61.002 73.3466Z" fill="white"/>
<ellipse cx="26" cy="45.5" rx="3" ry="2.5" fill="white"/>
<circle cx="64.5" cy="73.5" r="3.5" fill="white"/>
</g>
<defs>
<clipPath id="clip0">
<rect width="90" height="90" fill="white"/>
</clipPath>
</defs>
</svg>
