<svg width="90" height="90" viewBox="0 0 90 90" fill="none" xmlns="http://www.w3.org/2000/svg">
<path d="M6.19585 21.4333C6.01707 19.4055 6.13513 17.3636 6.54666 15.37C7.09706 12.8874 8.17817 10.8263 9.75907 9.246C11.9741 7.02925 15.0893 5.81434 19.0061 5.63444C20.9035 5.56304 22.8032 5.6929 24.6725 6.02067L25.1706 3.18887C23.0967 2.82513 20.9896 2.68177 18.8858 2.76216C14.2184 2.97748 10.4635 4.47462 7.72672 7.21365C5.75003 9.18978 4.4075 11.7275 3.73792 14.7595C3.73679 14.7651 3.73511 14.7713 3.73398 14.7769C3.26286 17.0482 3.1285 19.3757 3.33257 21.6858L6.19585 21.4333Z" fill="white"/>
<path d="M12.5001 40.2168C11.6343 38.637 10.8404 37.0494 10.1399 35.4966L7.51953 36.6789C8.25039 38.2986 9.07795 39.9543 9.97971 41.5987L12.5001 40.2168Z" fill="white"/>
<path d="M4.16797 26.9879C4.52834 28.5278 4.96629 30.0491 5.48014 31.5451L8.20062 30.6158C7.71825 29.2114 7.30616 27.784 6.96828 26.3391L4.16797 26.9879Z" fill="white"/>
<path d="M23.7256 56.0479C23.6002 55.9045 23.4754 55.7623 23.3512 55.6189L21.1816 57.5039C21.3087 57.6507 21.4363 57.7974 21.5656 57.9441C22.2954 58.7751 23.0549 59.6128 23.8234 60.4347C24.168 60.8024 24.516 61.1695 24.868 61.5349L26.9397 59.5419C26.5967 59.186 26.2577 58.8291 25.9232 58.4709C25.1744 57.6709 24.4356 56.8552 23.7256 56.0479Z" fill="white"/>
<path d="M17.7085 53.2801L19.9776 51.5159C19.769 51.2472 19.5627 50.9785 19.358 50.7086C18.4827 49.5572 17.6354 48.3884 16.8405 47.2354L14.4736 48.8668C15.2944 50.057 16.1675 51.2618 17.0693 52.4475C17.2796 52.7258 17.4932 53.0029 17.7085 53.2801Z" fill="white"/>
<path d="M27.3125 63.9962C30.0285 66.6464 32.8861 69.1471 35.8731 71.4864C39.9243 74.6746 44.2482 77.5002 48.7952 79.9289C51.4511 81.3428 54.2036 82.5673 57.0314 83.5939L54.406 84.3455L55.1964 87.1093L62.5466 85.0061C63.3095 84.788 63.7508 83.9919 63.5327 83.2285L61.6173 76.5338L58.853 77.3243L60.0707 81.5773C56.6385 80.4911 53.3153 79.0896 50.1434 77.39C45.7464 75.0412 41.5654 72.3089 37.6485 69.2258C34.7425 66.95 31.9619 64.5174 29.3195 61.9397L27.3125 63.9962Z" fill="white"/>
<path d="M86.2023 64.4662C85.6154 60.7996 84.4027 56.8552 82.5975 52.7427L79.9653 53.898C81.6721 57.7867 82.8151 61.4961 83.3632 64.9199C84.3921 71.3481 83.262 76.4186 80.0963 79.5854C78.5283 81.1534 76.4892 82.2283 74.0352 82.7815C72.0512 83.2279 69.8018 83.3342 67.3478 83.0992C66.7429 83.0413 66.1189 82.9609 65.4926 82.8619L65.0439 85.701C65.7265 85.809 66.4095 85.8961 67.0735 85.9602C68.0084 86.0496 68.9192 86.0946 69.8058 86.0946C71.4401 86.1047 73.0705 85.9332 74.6671 85.5852C77.6603 84.91 80.1705 83.5754 82.1286 81.6172C85.9735 77.7723 87.3818 71.8423 86.2023 64.4662Z" fill="white"/>
<path d="M79.2336 46.0862L76.7363 47.5097C77.4284 48.724 78.0811 49.9474 78.6765 51.1454L81.2514 49.8675C80.6324 48.6194 79.9538 47.3478 79.2336 46.0862Z" fill="white"/>
<path d="M72.562 36.0942L70.2783 37.8404C71.3499 39.242 72.3956 40.6897 73.3878 42.1452L75.7637 40.5266C74.7416 39.0278 73.6644 37.5363 72.562 36.0942Z" fill="white"/>
<path d="M65.4554 27.7866L63.377 29.7712C64.5936 31.0457 65.7916 32.3719 66.9374 33.7116L69.1221 31.8434C67.942 30.4644 66.7085 29.0994 65.4554 27.7866Z" fill="white"/>
<path d="M29.8362 12.8486L32.6472 12.2476L31.719 7.90572C34.3568 8.84122 36.9238 9.96843 39.3981 11.2767C43.7377 13.5682 47.8687 16.2341 51.7428 19.2464C53.5694 20.6558 55.4095 22.1856 57.2113 23.7918C58.2104 24.684 59.2167 25.6183 60.2017 26.5696C60.6284 26.9817 61.0641 27.4106 61.4981 27.8435L63.5305 25.8112C63.0852 25.3665 62.6377 24.9257 62.1981 24.5018C61.1872 23.5247 60.1533 22.5645 59.1262 21.6464C57.2732 19.9952 55.3803 18.4216 53.5042 16.974C51.6771 15.5533 49.7853 14.2074 47.8445 12.9335C48.947 12.3117 50.0546 11.723 51.139 11.1839L49.86 8.60959C48.5703 9.24938 47.2537 9.95437 45.9471 10.7032L46.8601 12.2965C44.8666 11.0265 42.8275 9.83968 40.7417 8.73496C38.8837 7.75393 36.9772 6.87071 35.0281 6.08701L37.5608 5.54617L36.9615 2.73462L29.4859 4.33239C28.7095 4.49824 28.2148 5.2617 28.3807 6.0381L29.8362 12.8486Z" fill="white"/>
<path d="M3.18148 64.6912C2.81774 66.7651 2.67438 68.8722 2.75533 70.976C2.96953 75.6428 4.46667 79.3972 7.20626 82.1356C9.18239 84.1123 11.7218 85.4537 14.7521 86.1227C14.7577 86.1233 14.7639 86.125 14.7706 86.1261C16.3549 86.455 17.9701 86.6208 19.5893 86.6208C20.2858 86.6208 20.9824 86.5905 21.6784 86.5292L21.426 83.6648C19.3981 83.8447 17.3556 83.7261 15.3626 83.3134C12.8794 82.7647 10.819 81.6847 9.23861 80.1033C7.02242 77.8871 5.80695 74.7714 5.62705 70.8557C5.55565 68.9577 5.68439 67.0586 6.01328 65.1881L3.18148 64.6912Z" fill="white"/>
<path d="M36.6716 82.3413C38.2924 81.611 39.9475 80.7823 41.5908 79.8817L40.21 77.3613C38.6308 78.2266 37.0426 79.0209 35.4893 79.7209L36.6716 82.3413Z" fill="white"/>
<path d="M26.9808 85.6931C28.5212 85.3328 30.0426 84.8948 31.538 84.381L30.6087 81.6599C29.2049 82.1428 27.7774 82.5538 26.332 82.8928L26.9808 85.6931Z" fill="white"/>
<path d="M55.6123 66.5093L57.4962 68.6805C57.6435 68.5534 57.7903 68.4252 57.9375 68.2959C58.769 67.5651 59.6073 66.8044 60.4281 66.0381C60.7958 65.6935 61.1629 65.3455 61.5289 64.993L59.5353 62.9219C59.1794 63.2654 58.8224 63.6033 58.4638 63.9383C57.6649 64.6855 56.8497 65.4248 56.0401 66.1354C55.8979 66.2608 55.7557 66.3856 55.6123 66.5093Z" fill="white"/>
<path d="M47.2285 73.0194L48.86 75.3868C50.0502 74.5672 51.255 73.6935 52.4412 72.7917C52.719 72.5809 52.9961 72.3678 53.2733 72.1525L51.5091 69.8823C51.2409 70.0909 50.9717 70.2978 50.7024 70.503C49.5504 71.3783 48.3827 72.225 47.2285 73.0194Z" fill="white"/>
<path d="M64.9135 6.49677C71.3412 5.46907 76.4122 6.59853 79.5791 9.76483C81.1459 11.3317 82.2214 13.3713 82.7752 15.8253C83.221 17.8099 83.3284 20.0598 83.0922 22.5133C83.0349 23.1171 82.9556 23.7405 82.8556 24.3679L85.6947 24.8171C85.8026 24.1324 85.8897 23.4493 85.9538 22.7876C86.2181 20.0311 86.0921 17.4765 85.5788 15.194C84.9042 12.2008 83.5695 9.6895 81.6114 7.73136C77.766 3.88648 71.8342 2.47761 64.4599 3.65823C60.7949 4.2446 56.8494 5.45783 52.7363 7.26249L53.8916 9.89526C57.7804 8.18843 61.4886 7.04491 64.9135 6.49677Z" fill="white"/>
<path d="M33.7033 22.9232L31.8346 20.739C30.4555 21.9191 29.0911 23.1525 27.7783 24.404L29.7634 26.4836C31.0385 25.2664 32.3647 24.0684 33.7033 22.9232Z" fill="white"/>
<path d="M42.1394 16.4735L40.5197 14.0977C39.0209 15.1203 37.5294 16.1975 36.0879 17.2994L37.8341 19.583C39.234 18.512 40.6827 17.4658 42.1394 16.4735Z" fill="white"/>
<path d="M84.9992 27.3151C84.7811 26.5516 83.985 26.1103 83.2221 26.3285L76.5269 28.2444L77.3173 31.0082L81.5709 29.791C80.4842 33.2227 79.0821 36.5464 77.3826 39.7183C75.0337 44.1153 72.3014 48.2964 69.2183 52.2132C66.942 55.1192 64.5099 57.8993 61.9316 60.5416L63.9887 62.5492C66.6389 59.8333 69.139 56.9756 71.4789 53.9886C74.6671 49.938 77.4927 45.6136 79.9214 41.0665C81.3348 38.4101 82.5598 35.6587 83.5864 32.8303L84.3381 35.4558L87.1019 34.6653L84.9992 27.3151Z" fill="white"/>
<path d="M5.73081 61.513C5.83144 61.513 5.93263 61.5023 6.03214 61.4804L12.8415 60.0254L12.2405 57.2138L7.89921 58.1426C8.83471 55.5042 9.96135 52.9378 11.2702 50.4635C13.5605 46.1233 16.2276 41.9923 19.2393 38.1182C20.6482 36.2922 22.1779 34.4521 23.7847 32.6497C24.6769 31.6501 25.6113 30.6443 26.5625 29.6599C26.9791 29.2287 27.4075 28.7924 27.837 28.3629L25.8047 26.3306C25.3639 26.7713 24.9232 27.2188 24.4953 27.6624C23.5177 28.6744 22.5574 29.7077 21.6393 30.736C19.9865 32.5884 18.414 34.4819 16.9669 36.3574C13.8535 40.3636 11.0964 44.6329 8.72845 49.1199C7.74685 50.9768 6.86307 52.8838 6.08049 54.8335L5.5391 52.2991L2.72754 52.8995L4.32531 60.3751C4.46698 61.0385 5.05279 61.5118 5.73081 61.513Z" fill="white"/>
<path d="M32.5186 33.5336V56.3352C32.5186 57.5518 33.2011 59.2649 36.662 60.5169C38.9029 61.3276 41.8325 61.7745 44.9437 61.7745H45.055C46.8524 61.7745 48.6458 61.6104 50.4133 61.2848C54.8941 60.4252 57.492 58.6211 57.492 56.3352V33.5336C57.492 32.3164 56.7313 30.6045 53.2699 29.3514C51.0284 28.5407 48.0594 28.0938 44.9443 28.0938C41.828 28.0938 38.9119 28.5407 36.6704 29.3514C33.2095 30.604 32.5186 32.3164 32.5186 33.5336ZM49.8753 58.4598C48.2489 58.7611 46.5983 58.9084 44.9448 58.9C42.1524 58.9 39.5837 58.5138 37.6486 57.8144C35.7557 57.1291 35.3931 56.4421 35.3931 56.3352V52.3234C35.8018 52.5398 36.2263 52.7265 36.662 52.8811C38.9029 53.6924 41.8325 54.1387 44.9493 54.1387C48.0667 54.1387 51.0408 53.6924 53.2817 52.8811C53.773 52.7034 54.0783 52.5162 54.6175 52.3223V56.3347C54.6175 56.6045 53.4537 57.7734 49.8753 58.4598ZM54.6175 48.6989C54.6175 48.8068 54.1851 49.4933 52.2928 50.1786C50.3571 50.8791 47.7367 51.2642 44.9443 51.2642C42.1524 51.2642 39.5837 50.8791 37.6486 50.1786C35.7557 49.4933 35.3931 48.8063 35.3931 48.6989V44.7399C35.8018 44.9569 36.2263 45.1436 36.662 45.2982C38.9029 46.1094 41.8325 46.5558 44.9493 46.5558C48.0667 46.5558 51.0408 46.1094 53.2817 45.2982C53.773 45.1205 54.0783 44.9333 54.6175 44.7399V48.6989ZM52.2928 42.5951C50.3571 43.2956 47.7367 43.6807 44.9443 43.6807C42.1524 43.6807 39.5837 43.2956 37.6486 42.5951C35.7557 41.9103 35.3931 41.2233 35.3931 41.1165V37.1564C35.8024 37.3728 36.2263 37.5595 36.662 37.7147C38.9034 38.5259 41.8331 38.9723 44.9493 38.9723C48.0656 38.9723 51.0402 38.5253 53.2817 37.7147C53.773 37.5364 54.0783 37.3492 54.6175 37.1564V41.1165C54.6175 41.2233 54.1851 41.9103 52.2928 42.5951ZM37.5963 32.0544C39.532 31.3534 42.1355 30.9683 44.9268 30.9683C47.7176 30.9683 50.3217 31.3534 52.2574 32.0544C54.1492 32.7398 54.5478 33.4262 54.5478 33.5336C54.5478 33.6398 54.1492 34.3263 52.2574 35.0116C50.3217 35.7127 47.7176 36.0978 44.9268 36.0978C42.1355 36.0978 39.532 35.7115 37.5963 35.0116C35.7034 34.3263 35.3054 33.6398 35.3054 33.5336C35.3054 33.4262 35.704 32.7398 37.5969 32.0544H37.5963Z" fill="white"/>
</svg>
