<svg width="90" height="90" viewBox="0 0 90 90" fill="none" xmlns="http://www.w3.org/2000/svg">
<path d="M15.4688 11.25C12.9795 11.2481 10.545 11.9809 8.4704 13.3565C6.39575 14.7322 4.77321 16.6895 3.80606 18.9832C2.83891 21.2769 2.57018 23.805 3.03352 26.2508C3.49687 28.6966 4.67169 30.9512 6.41079 32.7322C6.47847 32.8187 6.55639 32.8966 6.64282 32.9643C8.1282 34.4116 9.94658 35.4716 11.9379 36.051C13.9293 36.6304 16.0325 36.7114 18.0625 36.2869C20.0925 35.8623 21.987 34.9453 23.5793 33.6165C25.1716 32.2877 26.4128 30.5878 27.1938 28.6666C27.9747 26.7453 28.2713 24.6615 28.0576 22.5986C27.8439 20.5358 27.1264 18.557 25.9682 16.8366C24.8101 15.1163 23.2467 13.7069 21.4159 12.7328C19.585 11.7586 17.5427 11.2494 15.4688 11.25ZM16.875 14.1645C18.9767 14.4711 20.9233 15.4481 22.4251 16.9499C23.927 18.4518 24.9039 20.3983 25.2106 22.5L24.5 15.5L16.875 14.1645ZM5.62505 23.9063C5.62842 21.5402 6.4826 19.2543 8.03162 17.4658C9.58065 15.6773 11.7212 14.5056 14.0625 14.1645V23.3244L7.58852 29.7984C6.31203 28.0995 5.62286 26.0313 5.62505 23.9063ZM15.4688 33.75C13.3437 33.7522 11.2756 33.063 9.57661 31.7865L16.0506 25.3125H25.2106C24.8695 27.6538 23.6977 29.7944 21.9092 31.3434C20.1208 32.8925 17.8348 33.7466 15.4688 33.75Z" fill="white"/>
<path d="M66.0938 46.4062C63.0468 46.4048 60.0563 47.2287 57.44 48.7905C54.8238 50.3523 52.6795 52.5937 51.2349 55.2764C49.7903 57.9592 49.0994 60.9832 49.2356 64.0271C49.3718 67.071 50.33 70.0212 52.0084 72.5643L46.4062 78.1682V52.0312C46.4062 51.6583 46.2581 51.3006 45.9944 51.0369C45.7306 50.7732 45.373 50.625 45 50.625H41.3631L48.3943 43.5938H61.875C62.248 43.5938 62.6056 43.4456 62.8694 43.1819C63.1331 42.9181 63.2812 42.5605 63.2812 42.1875C63.2812 41.8145 63.1331 41.4569 62.8694 41.1931C62.6056 40.9294 62.248 40.7813 61.875 40.7813H47.8125C47.4395 40.7811 47.0816 40.9291 46.8176 41.1926L37.3869 50.625H2.8125C2.43954 50.625 2.08185 50.7732 1.81813 51.0369C1.55441 51.3006 1.40625 51.6583 1.40625 52.0312V87.1875C1.40625 87.5605 1.55441 87.9181 1.81813 88.1819C2.08185 88.4456 2.43954 88.5938 2.8125 88.5938H45C45.373 88.5938 45.7306 88.4456 45.9944 88.1819C46.2581 87.9181 46.4062 87.5605 46.4062 87.1875V82.1443L53.7627 74.7879C55.6725 76.8345 58.0616 78.3737 60.7146 79.2668C63.3676 80.1599 66.2011 80.3789 68.9598 79.9039C71.7185 79.429 74.3157 78.275 76.5173 76.5462C78.7188 74.8173 80.4556 72.5677 81.5711 70.0003C82.6866 67.4329 83.1457 64.6282 82.9071 61.8391C82.6684 59.05 81.7395 56.3642 80.2041 54.0235C78.6687 51.6829 76.575 49.7611 74.1118 48.4314C71.6485 47.1016 68.893 46.4057 66.0938 46.4062ZM43.5938 81.5607V85.7812H4.21875V53.4375H43.5938V81.5607ZM66.0938 77.3438C63.3125 77.3438 60.5936 76.519 58.281 74.9738C55.9685 73.4286 54.166 71.2323 53.1017 68.6627C52.0373 66.0932 51.7589 63.2656 52.3015 60.5378C52.8441 57.8099 54.1834 55.3042 56.1501 53.3376C58.1167 51.3709 60.6224 50.0316 63.3503 49.489C66.0781 48.9464 68.9057 49.2248 71.4752 50.2892C74.0448 51.3535 76.2411 53.156 77.7863 55.4685C79.3315 57.7811 80.1562 60.5 80.1562 63.2812C80.1519 67.0095 78.669 70.5839 76.0327 73.2202C73.3964 75.8565 69.822 77.3394 66.0938 77.3438Z" fill="white"/>
<path d="M66.0938 50.625C63.5906 50.625 61.1436 51.3673 59.0623 52.758C56.981 54.1486 55.3588 56.1253 54.4009 58.4379C53.443 60.7505 53.1923 63.2953 53.6807 65.7504C54.169 68.2054 55.3744 70.4606 57.1444 72.2306C58.9144 74.0006 61.1696 75.206 63.6246 75.6943C66.0797 76.1827 68.6245 75.932 70.9371 74.9741C73.2497 74.0162 75.2264 72.394 76.617 70.3127C78.0077 68.2314 78.75 65.7844 78.75 63.2813C78.7461 59.9258 77.4115 56.7089 75.0388 54.3362C72.6661 51.9635 69.4492 50.6289 66.0938 50.625ZM66.0938 73.125C64.1468 73.125 62.2437 72.5477 60.6249 71.466C59.0061 70.3844 57.7444 68.847 56.9993 67.0483C56.2543 65.2496 56.0593 63.2703 56.4392 61.3608C56.819 59.4513 57.7565 57.6973 59.1332 56.3207C60.5098 54.944 62.2638 54.0065 64.1733 53.6266C66.0828 53.2468 68.0621 53.4418 69.8608 54.1868C71.6595 54.9319 73.1969 56.1936 74.2785 57.8124C75.3602 59.4312 75.9375 61.3343 75.9375 63.2813C75.9346 65.8911 74.8966 68.3932 73.0512 70.2386C71.2057 72.0841 68.7036 73.1221 66.0938 73.125Z" fill="white"/>
<path d="M70.3125 63.2812V67.5C70.3125 67.873 70.1643 68.2306 69.9006 68.4944C69.6369 68.7581 69.2792 68.9062 68.9062 68.9062H67.5C67.5 69.2792 67.3518 69.6369 67.0881 69.9006C66.8244 70.1643 66.4667 70.3125 66.0938 70.3125C65.7208 70.3125 65.3631 70.1643 65.0994 69.9006C64.8357 69.6369 64.6875 69.2792 64.6875 68.9062H63.2812C62.9083 68.9062 62.5506 68.7581 62.2869 68.4944C62.0232 68.2306 61.875 67.873 61.875 67.5C61.875 67.127 62.0232 66.7694 62.2869 66.5056C62.5506 66.2419 62.9083 66.0938 63.2812 66.0938H67.5V64.6875H63.2812C62.9083 64.6875 62.5506 64.5393 62.2869 64.2756C62.0232 64.0119 61.875 63.6542 61.875 63.2812V59.0625C61.875 58.6895 62.0232 58.3319 62.2869 58.0681C62.5506 57.8044 62.9083 57.6562 63.2812 57.6562H64.6875C64.6875 57.2833 64.8357 56.9256 65.0994 56.6619C65.3631 56.3982 65.7208 56.25 66.0938 56.25C66.4667 56.25 66.8244 56.3982 67.0881 56.6619C67.3518 56.9256 67.5 57.2833 67.5 57.6562H68.9062C69.2792 57.6562 69.6369 57.8044 69.9006 58.0681C70.1643 58.3319 70.3125 58.6895 70.3125 59.0625C70.3125 59.4355 70.1643 59.7931 69.9006 60.0569C69.6369 60.3206 69.2792 60.4688 68.9062 60.4688H64.6875V61.875H68.9062C69.2792 61.875 69.6369 62.0232 69.9006 62.2869C70.1643 62.5506 70.3125 62.9083 70.3125 63.2812Z" fill="white"/>
<path d="M56.25 35.1562H61.875C62.248 35.1562 62.6056 35.0081 62.8694 34.7444C63.1331 34.4806 63.2812 34.123 63.2812 33.75V5.625C63.2812 5.25204 63.1331 4.89435 62.8694 4.63063C62.6056 4.36691 62.248 4.21875 61.875 4.21875H56.25C55.877 4.21875 55.5194 4.36691 55.2556 4.63063C54.9919 4.89435 54.8438 5.25204 54.8438 5.625V33.75C54.8438 34.123 54.9919 34.4806 55.2556 34.7444C55.5194 35.0081 55.877 35.1562 56.25 35.1562ZM61 32.3438L60.4688 7.03125V32.3438H57.6562H61Z" fill="white"/>
<path d="M66.0938 35.1562H71.7188C72.0917 35.1562 72.4494 35.0081 72.7131 34.7444C72.9768 34.4806 73.125 34.123 73.125 33.75V19.6875C73.125 19.3145 72.9768 18.9569 72.7131 18.6931C72.4494 18.4294 72.0917 18.2812 71.7188 18.2812H66.0938C65.7208 18.2812 65.3631 18.4294 65.0994 18.6931C64.8357 18.9569 64.6875 19.3145 64.6875 19.6875V33.75C64.6875 34.123 64.8357 34.4806 65.0994 34.7444C65.3631 35.0081 65.7208 35.1562 66.0938 35.1562ZM71 33.75L70.3125 21.0938V32.3438H67.5L71 33.75Z" fill="white"/>
<path d="M75.9375 35.1562H81.5625C81.9355 35.1562 82.2931 35.0081 82.5569 34.7444C82.8206 34.4806 82.9688 34.123 82.9688 33.75V14.0625C82.9688 13.6895 82.8206 13.3319 82.5569 13.0681C82.2931 12.8044 81.9355 12.6562 81.5625 12.6562H75.9375C75.5645 12.6562 75.2069 12.8044 74.9431 13.0681C74.6794 13.3319 74.5312 13.6895 74.5312 14.0625V33.75C74.5312 34.123 74.6794 34.4806 74.9431 34.7444C75.2069 35.0081 75.5645 35.1562 75.9375 35.1562ZM80.5 33L80.1562 15.4688V32.3438H77.3438L80.5 33Z" fill="white"/>
<path d="M36.5625 35.1562H42.1875C42.5605 35.1562 42.9181 35.0081 43.1819 34.7444C43.4456 34.4806 43.5938 34.123 43.5938 33.75V19.6875C43.5938 19.3145 43.4456 18.9569 43.1819 18.6931C42.9181 18.4294 42.5605 18.2812 42.1875 18.2812H36.5625C36.1895 18.2812 35.8319 18.4294 35.5681 18.6931C35.3044 18.9569 35.1562 19.3145 35.1562 19.6875V33.75C35.1562 34.123 35.3044 34.4806 35.5681 34.7444C35.8319 35.0081 36.1895 35.1562 36.5625 35.1562ZM41.5 33L40.7812 21.0938V32.3438H37.9688L41.5 33Z" fill="white"/>
<path d="M46.4062 35.1562H52.0312C52.4042 35.1562 52.7619 35.0081 53.0256 34.7444C53.2893 34.4806 53.4375 34.123 53.4375 33.75V14.0625C53.4375 13.6895 53.2893 13.3319 53.0256 13.0681C52.7619 12.8044 52.4042 12.6562 52.0312 12.6562H46.4062C46.0333 12.6562 45.6756 12.8044 45.4119 13.0681C45.1482 13.3319 45 13.6895 45 14.0625V33.75C45 34.123 45.1482 34.4806 45.4119 34.7444C45.6756 35.0081 46.0333 35.1562 46.4062 35.1562ZM51.5 33L50.625 15.4688V32.3438H47.8125L51.5 33Z" fill="white"/>
<path d="M32.3438 39.375H87.1875C87.5605 39.375 87.9181 39.2268 88.1819 38.9631C88.4456 38.6994 88.5938 38.3417 88.5938 37.9688C88.5938 37.5958 88.4456 37.2381 88.1819 36.9744C87.9181 36.7107 87.5605 36.5625 87.1875 36.5625H33.75V2.8125C33.75 2.43954 33.6018 2.08185 33.3381 1.81813C33.0744 1.55441 32.7167 1.40625 32.3438 1.40625C31.9708 1.40625 31.6131 1.55441 31.3494 1.81813C31.0857 2.08185 30.9375 2.43954 30.9375 2.8125V37.9688C30.9375 38.3417 31.0857 38.6994 31.3494 38.9631C31.6131 39.2268 31.9708 39.375 32.3438 39.375Z" fill="white"/>
<path d="M40.7812 56.25H7.03125C6.65829 56.25 6.3006 56.3982 6.03688 56.6619C5.77316 56.9256 5.625 57.2833 5.625 57.6562V64.6875C5.625 65.0605 5.77316 65.4181 6.03688 65.6819C6.3006 65.9456 6.65829 66.0938 7.03125 66.0938H40.7812C41.1542 66.0938 41.5119 65.9456 41.7756 65.6819C42.0393 65.4181 42.1875 65.0605 42.1875 64.6875V57.6562C42.1875 57.2833 42.0393 56.9256 41.7756 56.6619C41.5119 56.3982 41.1542 56.25 40.7812 56.25ZM39.375 63.2812H8.4375V59.0625H39.375V63.2812Z" fill="white"/>
<path d="M40.7812 67.5H7.03125C6.65829 67.5 6.3006 67.6482 6.03688 67.9119C5.77316 68.1756 5.625 68.5333 5.625 68.9062C5.625 69.2792 5.77316 69.6369 6.03688 69.9006C6.3006 70.1643 6.65829 70.3125 7.03125 70.3125H40.7812C41.1542 70.3125 41.5119 70.1643 41.7756 69.9006C42.0393 69.6369 42.1875 69.2792 42.1875 68.9062C42.1875 68.5333 42.0393 68.1756 41.7756 67.9119C41.5119 67.6482 41.1542 67.5 40.7812 67.5Z" fill="white"/>
<path d="M40.7812 71.7188H7.03125C6.65829 71.7188 6.3006 71.8669 6.03688 72.1306C5.77316 72.3944 5.625 72.752 5.625 73.125C5.625 73.498 5.77316 73.8556 6.03688 74.1194C6.3006 74.3831 6.65829 74.5312 7.03125 74.5312H40.7812C41.1542 74.5312 41.5119 74.3831 41.7756 74.1194C42.0393 73.8556 42.1875 73.498 42.1875 73.125C42.1875 72.752 42.0393 72.3944 41.7756 72.1306C41.5119 71.8669 41.1542 71.7188 40.7812 71.7188Z" fill="white"/>
<path d="M40.7812 75.9375H7.03125C6.65829 75.9375 6.3006 76.0857 6.03688 76.3494C5.77316 76.6131 5.625 76.9708 5.625 77.3438C5.625 77.7167 5.77316 78.0744 6.03688 78.3381C6.3006 78.6018 6.65829 78.75 7.03125 78.75H40.7812C41.1542 78.75 41.5119 78.6018 41.7756 78.3381C42.0393 78.0744 42.1875 77.7167 42.1875 77.3438C42.1875 76.9708 42.0393 76.6131 41.7756 76.3494C41.5119 76.0857 41.1542 75.9375 40.7812 75.9375Z" fill="white"/>
<path d="M21.0938 80.1562H7.03125C6.65829 80.1562 6.3006 80.3044 6.03688 80.5681C5.77316 80.8319 5.625 81.1895 5.625 81.5625C5.625 81.9355 5.77316 82.2931 6.03688 82.5569C6.3006 82.8206 6.65829 82.9688 7.03125 82.9688H21.0938C21.4667 82.9688 21.8244 82.8206 22.0881 82.5569C22.3518 82.2931 22.5 81.9355 22.5 81.5625C22.5 81.1895 22.3518 80.8319 22.0881 80.5681C21.8244 80.3044 21.4667 80.1562 21.0938 80.1562Z" fill="white"/>
<path d="M26.7188 80.1562H25.3125C24.9395 80.1562 24.5819 80.3044 24.3181 80.5681C24.0544 80.8319 23.9062 81.1895 23.9062 81.5625C23.9062 81.9355 24.0544 82.2931 24.3181 82.5569C24.5819 82.8206 24.9395 82.9688 25.3125 82.9688H26.7188C27.0917 82.9688 27.4494 82.8206 27.7131 82.5569C27.9768 82.2931 28.125 81.9355 28.125 81.5625C28.125 81.1895 27.9768 80.8319 27.7131 80.5681C27.4494 80.3044 27.0917 80.1562 26.7188 80.1562Z" fill="white"/>
<path d="M66.0938 40.7812C65.7208 40.7812 65.3631 40.9294 65.0994 41.1931C64.8357 41.4569 64.6875 41.8145 64.6875 42.1875C64.6875 42.5605 64.8357 42.9181 65.0994 43.1819C65.3631 43.4456 65.7208 43.5938 66.0938 43.5938H67.5C67.873 43.5938 68.2306 43.4456 68.4944 43.1819C68.7581 42.9181 68.9062 42.5605 68.9062 42.1875C68.9062 41.8145 68.7581 41.4569 68.4944 41.1931C68.2306 40.9294 67.873 40.7812 67.5 40.7812H66.0938Z" fill="white"/>
<path d="M21.0938 37.9688H7.03125C6.65829 37.9688 6.3006 38.1169 6.03688 38.3806C5.77316 38.6444 5.625 39.002 5.625 39.375C5.625 39.748 5.77316 40.1056 6.03688 40.3694C6.3006 40.6331 6.65829 40.7813 7.03125 40.7813H20.5114L27.1306 47.4006C27.3943 47.6644 27.752 47.8125 28.125 47.8125C28.498 47.8125 28.8557 47.6644 29.1194 47.4006C29.3831 47.1369 29.5313 46.7792 29.5313 46.4063C29.5313 46.0333 29.3831 45.6756 29.1194 45.4119L22.0881 38.3806C21.9576 38.25 21.8025 38.1464 21.6319 38.0758C21.4613 38.0051 21.2784 37.9687 21.0938 37.9688Z" fill="white"/>
<path d="M2.8125 8.4375H9.84375C10.2167 8.4375 10.5744 8.28934 10.8381 8.02562C11.1018 7.7619 11.25 7.40421 11.25 7.03125V2.8125C11.25 2.43954 11.1018 2.08185 10.8381 1.81813C10.5744 1.55441 10.2167 1.40625 9.84375 1.40625H2.8125C2.43954 1.40625 2.08185 1.55441 1.81813 1.81813C1.55441 2.08185 1.40625 2.43954 1.40625 2.8125V7.03125C1.40625 7.40421 1.55441 7.7619 1.81813 8.02562C2.08185 8.28934 2.43954 8.4375 2.8125 8.4375ZM4.21875 4.21875H8.4375V5.625H4.21875V4.21875Z" fill="white"/>
<path d="M14.0625 4.21875H26.7188C27.0917 4.21875 27.4494 4.07059 27.7131 3.80687C27.9768 3.54315 28.125 3.18546 28.125 2.8125C28.125 2.43954 27.9768 2.08185 27.7131 1.81813C27.4494 1.55441 27.0917 1.40625 26.7188 1.40625H14.0625C13.6895 1.40625 13.3319 1.55441 13.0681 1.81813C12.8044 2.08185 12.6562 2.43954 12.6562 2.8125C12.6562 3.18546 12.8044 3.54315 13.0681 3.80687C13.3319 4.07059 13.6895 4.21875 14.0625 4.21875Z" fill="white"/>
<path d="M14.0625 8.4375H18.2812C18.6542 8.4375 19.0119 8.28934 19.2756 8.02562C19.5393 7.7619 19.6875 7.40421 19.6875 7.03125C19.6875 6.65829 19.5393 6.3006 19.2756 6.03688C19.0119 5.77316 18.6542 5.625 18.2812 5.625H14.0625C13.6895 5.625 13.3319 5.77316 13.0681 6.03688C12.8044 6.3006 12.6562 6.65829 12.6562 7.03125C12.6562 7.40421 12.8044 7.7619 13.0681 8.02562C13.3319 8.28934 13.6895 8.4375 14.0625 8.4375Z" fill="white"/>
<path d="M87.1875 81.5625H80.1562C79.7833 81.5625 79.4256 81.7107 79.1619 81.9744C78.8982 82.2381 78.75 82.5958 78.75 82.9688V87.1875C78.75 87.5605 78.8982 87.9181 79.1619 88.1819C79.4256 88.4456 79.7833 88.5938 80.1562 88.5938H87.1875C87.5605 88.5938 87.9181 88.4456 88.1819 88.1819C88.4456 87.9181 88.5938 87.5605 88.5938 87.1875V82.9688C88.5938 82.5958 88.4456 82.2381 88.1819 81.9744C87.9181 81.7107 87.5605 81.5625 87.1875 81.5625ZM85.7812 85.7812H81.5625V84.375H85.7812V85.7812Z" fill="white"/>
<path d="M75.9375 85.7812H63.2812C62.9083 85.7812 62.5506 85.9294 62.2869 86.1931C62.0232 86.4569 61.875 86.8145 61.875 87.1875C61.875 87.5605 62.0232 87.9181 62.2869 88.1819C62.5506 88.4456 62.9083 88.5938 63.2812 88.5938H75.9375C76.3105 88.5938 76.6681 88.4456 76.9319 88.1819C77.1956 87.9181 77.3438 87.5605 77.3438 87.1875C77.3438 86.8145 77.1956 86.4569 76.9319 86.1931C76.6681 85.9294 76.3105 85.7812 75.9375 85.7812Z" fill="white"/>
<path d="M75.9375 81.5625H71.7188C71.3458 81.5625 70.9881 81.7107 70.7244 81.9744C70.4607 82.2381 70.3125 82.5958 70.3125 82.9688C70.3125 83.3417 70.4607 83.6994 70.7244 83.9631C70.9881 84.2268 71.3458 84.375 71.7188 84.375H75.9375C76.3105 84.375 76.6681 84.2268 76.9319 83.9631C77.1956 83.6994 77.3438 83.3417 77.3438 82.9688C77.3438 82.5958 77.1956 82.2381 76.9319 81.9744C76.6681 81.7107 76.3105 81.5625 75.9375 81.5625Z" fill="white"/>
</svg>
