<svg width="90" height="90" viewBox="0 0 90 90" fill="none" xmlns="http://www.w3.org/2000/svg">
<circle cx="22.5" cy="59.5" r="2.5" fill="white"/>
<circle cx="33" cy="86" r="2" fill="white"/>
<ellipse cx="45" cy="59.5" rx="2" ry="1.5" fill="white"/>
<circle cx="57" cy="86" r="2" fill="white"/>
<ellipse cx="68" cy="59.5" rx="2" ry="1.5" fill="white"/>
<ellipse cx="16.5" cy="4" rx="1.5" ry="2" fill="white"/>
<ellipse cx="32.5" cy="8" rx="2.5" ry="2" fill="white"/>
<circle cx="45" cy="4" r="2" fill="white"/>
<circle cx="57.5" cy="8.5" r="2.5" fill="white"/>
<circle cx="74" cy="4" r="2" fill="white"/>
<path d="M18.1487 68.1757C18.1487 67.4476 17.5584 66.8573 16.8304 66.8573C9.00387 66.8573 2.63672 60.4948 2.63672 52.6743C2.63672 47.1264 5.90326 42.0564 10.9584 39.7577C11.6213 39.4564 11.9143 38.6747 11.6128 38.0118C11.3115 37.3489 10.5296 37.0559 9.86695 37.3574C3.87299 40.083 0 46.0951 0 52.6743C0 61.9487 7.54998 69.4941 16.8304 69.4941C17.5584 69.4941 18.1487 68.9038 18.1487 68.1757Z" fill="white"/>
<path d="M27.607 40.635C29.5079 30.019 38.7343 22.314 49.5452 22.314C57.8124 22.314 65.3598 26.8504 69.2417 34.1531C69.5836 34.7959 70.3816 35.0401 71.0247 34.6983C71.6675 34.3566 71.9116 33.5584 71.5699 32.9154C70.8316 31.5265 69.9747 30.2272 69.0155 29.0271V11.4534L72.2049 7.65299C72.6362 7.81471 73.1029 7.90312 73.5902 7.90312C75.7711 7.90312 77.5453 6.13055 77.5453 3.95156C77.5453 1.77258 75.7709 0 73.5902 0C71.4094 0 69.6351 1.77258 69.6351 3.95156C69.6351 4.68387 69.8355 5.37029 70.1844 5.95881L66.6872 10.1259C66.4881 10.3634 66.3787 10.6634 66.3787 10.9733V26.2069C64.0641 24.0877 61.3709 22.4271 58.4421 21.3108V12.109C59.9766 11.5654 61.0788 10.1004 61.0788 8.38318C61.0788 6.2042 59.3046 4.43162 57.1237 4.43162C54.9428 4.43162 53.1686 6.2042 53.1686 8.38318C53.1686 10.1004 54.2708 11.5654 55.8053 12.109V20.471C53.7893 19.9501 51.6889 19.6773 49.5452 19.6773C48.4538 19.6773 47.3766 19.7476 46.3188 19.8842V7.67742C47.8533 7.13373 48.9555 5.66877 48.9555 3.95156C48.9555 1.77258 47.1813 0 45.0004 0C42.8195 0 41.0453 1.77258 41.0453 3.95156C41.0453 5.66877 42.1475 7.13373 43.6821 7.67742V20.3697C40.1859 21.2101 36.9607 22.7874 34.1955 24.9434V12.109C35.7301 11.5654 36.8322 10.1004 36.8322 8.38318C36.8322 6.2042 35.058 4.43162 32.8771 4.43162C30.6962 4.43162 28.9221 6.2042 28.9221 8.38318C28.9221 10.1004 30.0242 11.5654 31.5588 12.109V27.3194C28.6855 30.3059 26.5427 34.0255 25.4418 38.2178C24.826 37.8494 24.1905 37.5228 23.5384 37.2387V10.9735C23.5384 10.6634 23.4291 10.3634 23.2299 10.1261L19.7329 5.95898C20.0818 5.37029 20.2822 4.68387 20.2822 3.95156C20.2822 1.77258 18.5081 0 16.3271 0C14.1462 0 12.3721 1.77258 12.3721 3.95156C12.3721 6.13055 14.1462 7.90312 16.3271 7.90312C16.8142 7.90312 17.2811 7.81471 17.7123 7.65299L20.9017 11.4534V36.3458C19.5854 36.0204 18.2219 35.8545 16.8306 35.8545C16.1025 35.8545 15.5122 36.4447 15.5122 37.1728C15.5122 37.9009 16.1025 38.4912 16.8306 38.4912C20.0019 38.4912 23.0007 39.513 25.5031 41.4461C25.7374 41.6271 26.0218 41.7212 26.3092 41.7212C26.469 41.7212 26.6297 41.6922 26.7833 41.6329C27.2135 41.467 27.5256 41.0887 27.607 40.635ZM73.5902 2.63672C74.3172 2.63672 74.9085 3.22646 74.9085 3.95156C74.9085 4.67666 74.3172 5.26641 73.5902 5.26641C72.8632 5.26641 72.2718 4.67666 72.2718 3.95156C72.2718 3.22646 72.8632 2.63672 73.5902 2.63672ZM57.1237 7.06816C57.8507 7.06816 58.4421 7.65809 58.4421 8.38301C58.4421 9.10793 57.8507 9.69785 57.1237 9.69785C56.3967 9.69785 55.8053 9.10811 55.8053 8.38301C55.8053 7.65791 56.3967 7.06816 57.1237 7.06816ZM45.0004 2.63672C45.7274 2.63672 46.3188 3.22646 46.3188 3.95156C46.3188 4.67666 45.7274 5.26641 45.0004 5.26641C44.2734 5.26641 43.6821 4.67666 43.6821 3.95156C43.6821 3.22646 44.2734 2.63672 45.0004 2.63672ZM32.8771 7.06816C33.6042 7.06816 34.1955 7.65809 34.1955 8.38301C34.1955 9.10793 33.6042 9.69785 32.8771 9.69785C32.1501 9.69785 31.5588 9.10811 31.5588 8.38301C31.5588 7.65791 32.1501 7.06816 32.8771 7.06816ZM15.0088 3.95156C15.0088 3.22646 15.6001 2.63672 16.3271 2.63672C17.0542 2.63672 17.6455 3.22646 17.6455 3.95156C17.6455 4.67666 17.0542 5.26641 16.3271 5.26641C15.6001 5.26641 15.0088 4.67648 15.0088 3.95156Z" fill="white"/>
<path d="M77.3028 44.1153C76.3404 44.1153 75.3926 44.2216 74.4684 44.4326C74.4573 42.5967 74.2451 40.7677 73.838 38.9937C73.6751 38.2839 72.9676 37.8408 72.2581 38.0037C71.5485 38.1667 71.1051 38.874 71.2681 39.5836C71.6423 41.2136 71.832 42.8968 71.832 44.5857C71.832 45.1009 71.8137 45.6261 71.7777 46.1466C71.7464 46.5987 71.9496 47.0353 72.3158 47.3025C72.6819 47.5699 73.1597 47.63 73.5807 47.4625C74.7642 46.9912 76.0165 46.7522 77.3027 46.7522C82.85 46.7522 87.3628 51.2617 87.3628 56.8047C87.3628 62.3478 82.8498 66.8573 77.3027 66.8573H72.9792C72.2511 66.8573 71.6608 67.4476 71.6608 68.1757C71.6608 68.9038 72.2511 69.494 72.9792 69.494H77.3027C84.3039 69.494 89.9995 63.8017 89.9995 56.8047C89.9997 49.8078 84.3039 44.1153 77.3028 44.1153Z" fill="white"/>
<path d="M62.4944 66.8572H50.2764C49.5483 66.8572 48.958 67.4475 48.958 68.1755C48.958 68.9036 49.5483 69.4939 50.2764 69.4939H55.8052V82.3226C54.2706 82.8663 53.1685 84.3313 53.1685 86.0485C53.1685 88.2275 54.9427 90 57.1236 90C59.3045 90 61.0786 88.2275 61.0786 86.0485C61.0786 84.3311 59.9765 82.8661 58.4419 82.3226V69.4939H62.4944C63.2225 69.4939 63.8128 68.9036 63.8128 68.1755C63.8128 67.4475 63.2225 66.8572 62.4944 66.8572ZM57.1236 87.3633C56.3965 87.3633 55.8052 86.7736 55.8052 86.0485C55.8052 85.3234 56.3965 84.7336 57.1236 84.7336C57.8506 84.7336 58.4419 85.3235 58.4419 86.0485C58.4419 86.7734 57.8506 87.3633 57.1236 87.3633Z" fill="white"/>
<path d="M39.7197 66.8572H27.7148C26.9868 66.8572 26.3965 67.4475 26.3965 68.1755C26.3965 68.9036 26.9868 69.4939 27.7148 69.4939H31.5581V82.3226C30.0236 82.8663 28.9214 84.3313 28.9214 86.0485C28.9214 88.2275 30.6956 90 32.8765 90C35.0574 90 36.8316 88.2275 36.8316 86.0485C36.8316 84.3311 35.7294 82.8661 34.1948 82.3226V69.4939H39.7197C40.4477 69.4939 41.038 68.9036 41.038 68.1755C41.038 67.4475 40.4477 66.8572 39.7197 66.8572ZM32.8765 87.3633C32.1495 87.3633 31.5581 86.7736 31.5581 86.0485C31.5581 85.3234 32.1495 84.7336 32.8765 84.7336C33.6035 84.7336 34.1948 85.3235 34.1948 86.0485C34.1948 86.7734 33.6035 87.3633 32.8765 87.3633Z" fill="white"/>
<path d="M22.3033 55.4832C20.1223 55.4832 18.3482 57.2557 18.3482 59.4347C18.3482 61.1519 19.4503 62.6169 20.9849 63.1606V81.1799L15.4003 87.8341C14.9322 88.3919 15.005 89.2233 15.5628 89.6914C15.8097 89.8987 16.1105 89.9999 16.4095 89.9999C16.7857 89.9999 17.1594 89.8398 17.4201 89.529L23.3131 82.5071C23.5123 82.2696 23.6216 81.9695 23.6216 81.6596V63.1604C25.1562 62.6167 26.2583 61.1517 26.2583 59.4345C26.2583 57.2557 24.4842 55.4832 22.3033 55.4832ZM22.3033 60.7496C21.5762 60.7496 20.9849 60.1598 20.9849 59.4347C20.9849 58.7096 21.5762 58.1199 22.3033 58.1199C23.0303 58.1199 23.6216 58.7098 23.6216 59.4347C23.6216 60.1596 23.0303 60.7496 22.3033 60.7496Z" fill="white"/>
<path d="M45 55.4832C42.8191 55.4832 41.0449 57.2557 41.0449 59.4347C41.0449 61.1519 42.1471 62.6169 43.6816 63.1606V88.6817C43.6816 89.4098 44.2719 90.0001 45 90.0001C45.7281 90.0001 46.3184 89.4098 46.3184 88.6817V63.1606C47.8529 62.6169 48.9551 61.1519 48.9551 59.4347C48.9551 57.2557 47.1809 55.4832 45 55.4832ZM45 60.7496C44.273 60.7496 43.6816 60.1598 43.6816 59.4347C43.6816 58.7096 44.273 58.1199 45 58.1199C45.727 58.1199 46.3184 58.7098 46.3184 59.4347C46.3184 60.1596 45.727 60.7496 45 60.7496Z" fill="white"/>
<path d="M69.0146 81.1799V63.1606C70.5492 62.6169 71.6514 61.1519 71.6514 59.4347C71.6514 57.2557 69.8772 55.4832 67.6963 55.4832C65.5154 55.4832 63.7412 57.2557 63.7412 59.4347C63.7412 61.1519 64.8434 62.6169 66.3779 63.1606V81.6598C66.3779 81.9699 66.4873 82.2699 66.6864 82.5072L72.5795 89.5292C72.8403 89.84 73.2139 90.0001 73.5901 90.0001C73.8891 90.0001 74.1898 89.8988 74.4368 89.6916C74.9945 89.2235 75.0671 88.3919 74.5992 87.8343L69.0146 81.1799ZM67.6963 58.1199C68.4233 58.1199 69.0146 58.7098 69.0146 59.4347C69.0146 60.1596 68.4233 60.7496 67.6963 60.7496C66.9693 60.7496 66.3779 60.1598 66.3779 59.4347C66.3779 58.7096 66.9693 58.1199 67.6963 58.1199Z" fill="white"/>
</svg>
