<svg width="90" height="90" viewBox="0 0 90 90" fill="none" xmlns="http://www.w3.org/2000/svg">
<circle cx="29.5" cy="43.5" r="2.5" fill="white"/>
<circle cx="32.5" cy="32.5" r="2.5" fill="white"/>
<circle cx="48" cy="38" r="2" fill="white"/>
<ellipse cx="39.5" cy="51" rx="2.5" ry="2" fill="white"/>
<path d="M73.0897 44.9817C73.0869 38.5531 70.8961 32.3345 66.8445 27.3359C66.3863 26.7705 65.5564 26.6833 64.9902 27.1419C64.4245 27.6003 64.3377 28.4305 64.7961 28.9962C64.9549 29.192 65.1094 29.3908 65.2618 29.5909H54.8631C54.813 29.5909 54.7722 29.5503 54.7722 29.5V21.4914C56.9994 22.4167 59.0994 23.6604 61.0031 25.2034C61.569 25.662 62.3992 25.575 62.8574 25.0093C63.3159 24.4436 63.229 23.6136 62.6634 23.155C57.3012 18.8086 50.5343 16.602 43.6113 16.9431C36.6379 17.286 30.0765 20.1959 25.1358 25.1366C20.1952 30.0772 17.2853 36.6386 16.9425 43.6119C16.6018 50.5355 18.8081 57.3017 23.1544 62.6639C23.4149 62.9854 23.7953 63.1522 24.1794 63.1522C24.4709 63.1522 24.7644 63.0559 25.0088 62.858C25.5744 62.3996 25.6613 61.5693 25.2028 61.0037C21.2658 56.1465 19.2676 50.0159 19.5761 43.7414C19.8868 37.4233 22.5236 31.4779 27.0005 27.0011C31.4775 22.5241 37.4228 19.8874 43.7409 19.5766C44.1916 19.5545 44.6414 19.5455 45.0902 19.5471V25.5145C45.0902 25.9151 44.9341 26.2918 44.6507 26.575L40.6654 30.5605C40.3821 30.8438 40.0054 30.9998 39.6047 30.9998H36.2375C35.6857 29.3636 34.1376 28.1816 32.3176 28.1816C30.0366 28.1816 28.1811 30.0373 28.1811 32.3181C28.1811 34.599 30.0368 36.4548 32.3176 36.4548C34.1376 36.4548 35.6855 35.2728 36.2375 33.6365H39.6047C40.7097 33.6365 41.7484 33.2063 42.5299 32.425L46.5152 28.4395C47.2966 27.6581 47.7271 26.6195 47.7271 25.5145V19.6916C49.2247 19.8519 50.6995 20.1444 52.1357 20.5627V29.5C52.1357 31.004 53.3593 32.2276 54.8633 32.2276H67.0229C67.8387 33.6324 68.5157 35.1088 69.046 36.6364H51.7375C51.1857 35.0002 49.6376 33.8182 47.8176 33.8182C45.5367 33.8182 43.6811 35.6739 43.6811 37.9547C43.6811 40.2355 45.5368 42.0912 47.8176 42.0912C49.6376 42.0912 51.1856 40.9092 51.7375 39.2731H69.805C70.1365 40.715 70.3422 42.1898 70.4187 43.6818H56.0305C54.9257 43.6818 53.8868 44.1122 53.1053 44.8935L49.12 48.879C48.8366 49.1622 48.4599 49.3183 48.0593 49.3183H43.283C42.7312 47.6821 41.1831 46.5001 39.3631 46.5001C37.0821 46.5001 35.2266 48.3559 35.2266 50.6366C35.2266 52.9174 37.0823 54.7731 39.3631 54.7731C41.1831 54.7731 42.731 53.5912 43.283 51.955H48.0593C49.1643 51.955 50.203 51.5247 50.9845 50.7433L54.9698 46.7578C55.2531 46.4747 55.6298 46.3186 56.0305 46.3186H70.4192C70.3422 47.8141 70.1339 49.2884 69.8026 50.7273H58.8486C57.7438 50.7273 56.7049 51.1576 55.9234 51.939L47.7105 60.1518C46.9294 60.9332 46.4991 61.9719 46.4991 63.0767V70.409C46.4186 70.4138 46.3382 70.4198 46.2577 70.4236C43.8889 70.5403 41.5401 70.3273 39.2722 69.8056V63.0767C39.2722 61.9717 38.842 60.933 38.0607 60.1517L31.2569 53.348C30.9737 53.0647 30.8176 52.6882 30.8176 52.2876V47.5111C32.4538 46.9593 33.6357 45.4112 33.6357 43.5913C33.6357 41.3104 31.78 39.4548 29.4993 39.4548C27.2185 39.4548 25.3628 41.3105 25.3628 43.5913C25.3628 45.4113 26.5447 46.9593 28.1809 47.5111V52.2876C28.1809 53.3925 28.6112 54.4312 29.3926 55.2126L36.1964 62.0163C36.4794 62.2995 36.6355 62.6761 36.6355 63.0768V69.0467C33.8832 68.0908 31.2961 66.6619 28.9955 64.797C28.4298 64.3386 27.5996 64.4254 27.1412 64.9911C26.6827 65.5568 26.7696 66.3868 27.3352 66.8454C32.3371 70.8996 38.5603 73.0916 44.9937 73.0916C45.4572 73.0916 45.922 73.0802 46.3873 73.0573C53.3607 72.7144 59.9221 69.8045 64.8628 64.8638C69.8034 59.9231 72.7133 53.3618 73.0561 46.3885C73.0786 45.9296 73.0893 45.4713 73.0895 45.0139C73.0895 45.0093 73.0902 45.0051 73.0902 45.0005C73.0907 44.9939 73.0898 44.9879 73.0897 44.9817ZM32.3177 33.818C31.4907 33.818 30.818 33.1452 30.818 32.3181C30.818 31.4912 31.4907 30.8183 32.3177 30.8183C33.1448 30.8183 33.8175 31.4912 33.8175 32.3181C33.8177 33.1453 33.145 33.818 32.3177 33.818ZM47.8178 39.4545C46.9907 39.4545 46.318 38.7816 46.318 37.9547C46.318 37.1278 46.9907 36.4549 47.8178 36.4549C48.6448 36.4549 49.3175 37.1278 49.3175 37.9547C49.3175 38.7816 48.6448 39.4545 47.8178 39.4545ZM39.3634 52.1362C38.5364 52.1362 37.8636 51.4633 37.8636 50.6364C37.8636 49.8096 38.5364 49.1367 39.3634 49.1367C40.1905 49.1367 40.8632 49.8096 40.8632 50.6364C40.8632 51.4633 40.1905 52.1362 39.3634 52.1362ZM29.4996 45.0907C28.6726 45.0907 27.9998 44.4178 27.9998 43.591C27.9998 42.7641 28.6726 42.0912 29.4996 42.0912C30.3267 42.0912 30.9994 42.7641 30.9994 43.591C30.9994 44.4178 30.3267 45.0907 29.4996 45.0907ZM62.9986 62.999C59.2086 66.789 54.3662 69.2596 49.1363 70.1172V63.0763C49.1363 62.6759 49.2924 62.2992 49.5756 62.0158L57.7883 53.8031C58.0716 53.5198 58.4483 53.3637 58.8489 53.3637H69.0435C67.7939 56.9588 65.7425 60.2549 62.9986 62.999Z" fill="white"/>
<path d="M89.6839 39.6958C89.4763 37.9515 88.0084 36.6362 86.2692 36.6362H82.0229C81.0714 32.3961 79.4176 28.4017 77.095 24.7331L80.096 21.7322C81.3257 20.5021 81.4335 18.534 80.3468 17.1541C79.2476 15.7586 78.0611 14.4214 76.8199 13.1803C75.5786 11.9391 74.2416 10.7524 72.846 9.65338C71.4661 8.56652 69.4978 8.67428 68.2678 9.90422L65.2671 12.9052C61.5987 10.5826 57.604 8.92881 53.364 7.9773V3.73078C53.364 1.99143 52.0487 0.523477 50.304 0.316055C48.5395 0.106172 46.755 0 45 0C43.245 0 41.4605 0.106172 39.6962 0.316055C37.9515 0.523477 36.6362 1.99143 36.6362 3.73078V7.97713C32.3961 8.92863 28.4015 10.5824 24.7331 12.905L21.7324 9.90422C20.5019 8.67393 18.534 8.56652 17.1543 9.6532C15.7586 10.7524 14.4214 11.9389 13.1803 13.1801C11.9389 14.4214 10.7524 15.7584 9.65355 17.154C8.56652 18.534 8.67445 20.5021 9.90422 21.7322L12.9052 24.7331C10.5827 28.4013 8.92898 32.396 7.97748 36.6362H3.73078C1.9916 36.6362 0.523652 37.9515 0.316055 39.696C0.106172 41.4601 0 43.2446 0 45C0 46.7554 0.106172 48.5399 0.316055 50.3042C0.523652 52.0485 1.9916 53.3638 3.73078 53.3638H7.9773C8.92881 57.6042 10.5826 61.5987 12.905 65.2667L9.90404 68.2678C8.67428 69.4979 8.56652 71.466 9.6532 72.8459C10.7524 74.2416 11.9391 75.5786 13.1801 76.8197C14.4214 78.0609 15.7584 79.2476 17.154 80.3466C18.5342 81.4335 20.5022 81.3257 21.7322 80.0958L24.733 77.095C28.4013 79.4174 32.396 81.0714 36.636 82.0229V86.2694C36.636 88.0088 37.9513 89.4767 39.696 89.6841C41.4605 89.8938 43.245 90 45 90C46.755 90 48.5395 89.8938 50.3038 89.6839C52.0485 89.4765 53.3638 88.0086 53.3638 86.2692V82.0227C57.6039 81.0712 61.5985 79.4174 65.2669 77.0948L68.2676 80.0956C69.4978 81.3257 71.4658 81.4331 72.8457 80.3466C74.2414 79.2475 75.5786 78.0608 76.8196 76.8197C78.0609 75.5784 79.2476 74.2416 80.3464 72.8459C81.4335 71.4658 81.3255 69.4978 80.0958 68.2676L77.0948 65.2667C79.4174 61.5983 81.0712 57.6039 82.0227 53.3637H86.269C88.0082 53.3637 89.4762 52.0483 89.6838 50.3038C89.8938 48.5399 90 46.7554 90 45C90 43.2446 89.8938 41.4601 89.6839 39.6958ZM87.0659 49.9925C87.0161 50.4113 86.6737 50.727 86.2694 50.727H80.9524C80.3215 50.727 79.779 51.1738 79.6584 51.7932C78.7532 56.4395 76.9546 60.7837 74.3126 64.7054C73.9601 65.2287 74.0278 65.9282 74.4738 66.3743L78.2316 70.132C78.5174 70.4178 78.5362 70.8831 78.2754 71.2144C77.2404 72.5288 76.1235 73.7873 74.9554 74.9552C73.7875 76.1231 72.5289 77.2402 71.2146 78.2752C70.8836 78.5363 70.4183 78.5171 70.1325 78.2313L66.3746 74.4736C65.9287 74.0276 65.2289 73.96 64.7058 74.3124C60.7841 76.9542 56.4398 78.7528 51.7936 79.6583C51.1745 79.779 50.7275 80.3213 50.7275 80.9522V86.2692C50.7275 86.6735 50.4118 87.0159 49.9931 87.0657C48.3312 87.2633 46.6515 87.3633 45 87.3633C43.3485 87.3633 41.6688 87.2633 40.0073 87.0657C39.5886 87.0159 39.2729 86.6735 39.2729 86.2692V80.9522C39.2729 80.3213 38.8259 79.7788 38.2068 79.6583C33.5605 78.7528 29.2162 76.9542 25.2946 74.3124C25.0703 74.1612 24.8136 74.0874 24.5584 74.0874C24.2181 74.0874 23.8806 74.2187 23.6255 74.4736L19.8677 78.2313C19.5819 78.5169 19.1166 78.5361 18.7856 78.275C17.4711 77.24 16.2125 76.1231 15.0448 74.9551C13.8767 73.7872 12.7598 72.5286 11.7246 71.2143C11.4639 70.8831 11.4827 70.4178 11.7686 70.132L15.5264 66.3741C15.9724 65.928 16.04 65.2286 15.6876 64.7053C13.046 60.7839 11.2472 56.4395 10.3417 51.7931C10.221 51.1738 9.67869 50.727 9.04781 50.727H3.73078C3.32648 50.727 2.98406 50.4113 2.93432 49.9927C2.73674 48.3316 2.63672 46.6516 2.63672 45C2.63672 43.3484 2.73674 41.6684 2.93414 40.0075C2.98389 39.5888 3.32631 39.273 3.73061 39.273H9.04764C9.67852 39.273 10.221 38.8262 10.3416 38.2069C11.247 33.5605 13.0456 29.2162 15.6874 25.2946C16.0399 24.7713 15.9722 24.0718 15.5262 23.6257L11.7686 19.8679C11.4827 19.582 11.4639 19.1167 11.7248 18.7854C12.7598 17.4712 13.8765 16.2127 15.0448 15.0446C16.2127 13.8767 17.4713 12.7596 18.7856 11.7246C19.1167 11.4637 19.582 11.4827 19.8677 11.7686L23.6255 15.5262C24.0718 15.9725 24.7716 16.0397 25.2944 15.6874C29.2161 13.0456 33.5603 11.247 38.2066 10.3417C38.8257 10.221 39.2727 9.67869 39.2727 9.04764V3.73078C39.2727 3.32648 39.5884 2.98406 40.0071 2.93432C41.6688 2.73674 43.3485 2.63672 45 2.63672C46.6515 2.63672 48.3312 2.73674 49.9927 2.93432C50.4114 2.98406 50.7271 3.32648 50.7271 3.73078V9.04781C50.7271 9.67869 51.1741 10.2212 51.7932 10.3419C56.4395 11.2472 60.7837 13.0458 64.7054 15.6876C65.2287 16.04 65.928 15.9725 66.3743 15.5264L70.1321 11.7686C70.4178 11.4829 70.8831 11.4637 71.2143 11.7248C72.5287 12.7598 73.7873 13.8769 74.9551 15.0448C76.1233 16.2128 77.24 17.4714 78.2752 18.7857C78.5359 19.1169 78.5171 19.5822 78.2313 19.868L74.4734 23.6257C74.0275 24.0718 73.9598 24.7714 74.3122 25.2946C76.9542 29.2164 78.7528 33.5607 79.6581 38.2068C79.7788 38.826 80.3211 39.273 80.952 39.273H86.269C86.6733 39.273 87.0158 39.5887 87.0655 40.0073C87.2633 41.6684 87.3633 43.3484 87.3633 45C87.3633 46.6516 87.2633 48.3316 87.0659 49.9925Z" fill="white"/>
</svg>
