<svg width="40" height="40" viewBox="0 0 40 40" fill="none" xmlns="http://www.w3.org/2000/svg">
<g clip-path="url(#clip0)">
<path d="M20.2174 14.1802H5.21867C4.89508 14.1802 4.63281 14.4425 4.63281 14.766C4.63281 15.0896 4.89508 15.3519 5.21867 15.3519H20.2175C20.5411 15.3519 20.8034 15.0896 20.8034 14.766C20.8034 14.4425 20.5411 14.1802 20.2174 14.1802Z" fill="#F28505"/>
<path d="M20.2174 18.297H5.21867C4.89508 18.297 4.63281 18.5593 4.63281 18.8829C4.63281 19.2064 4.89508 19.4687 5.21867 19.4687H20.2175C20.5411 19.4687 20.8034 19.2064 20.8034 18.8829C20.8034 18.5593 20.5411 18.297 20.2174 18.297Z" fill="#F28505"/>
<path d="M20.2174 22.4138H5.21867C4.89508 22.4138 4.63281 22.6762 4.63281 22.9997C4.63281 23.3232 4.89508 23.5855 5.21867 23.5855H20.2175C20.5411 23.5855 20.8034 23.3232 20.8034 22.9997C20.8034 22.6762 20.5411 22.4138 20.2174 22.4138Z" fill="#F28505"/>
<path d="M20.8034 27.1166C20.8034 26.793 20.5411 26.5308 20.2175 26.5308H5.21867C4.89508 26.5308 4.63281 26.7931 4.63281 27.1166C4.63281 27.4401 4.89508 27.7025 5.21867 27.7025H20.2175C20.5411 27.7025 20.8034 27.4402 20.8034 27.1166Z" fill="#F28505"/>
<path d="M5.21867 32.5641C4.89508 32.5641 4.63281 32.8264 4.63281 33.1499C4.63281 33.4735 4.89508 33.7358 5.21867 33.7358H12.7373C13.0609 33.7358 13.3231 33.4735 13.3231 33.1499C13.3231 32.8264 13.0609 32.5641 12.7373 32.5641H5.21867Z" fill="#F28505"/>
<path d="M26.968 7.25408V5.35299C26.968 4.62877 26.3788 4.03955 25.6545 4.03955H13.6259C12.9016 4.03955 12.3125 4.62877 12.3125 5.35299V7.25408C12.3125 7.9783 12.9016 8.56744 13.6259 8.56744H14.6416C14.9652 8.56744 15.2275 8.3051 15.2275 7.98158C15.2275 7.65799 14.9652 7.39572 14.6416 7.39572H13.6259C13.5478 7.39572 13.4843 7.33221 13.4843 7.25416V5.35299C13.4843 5.27494 13.5478 5.21135 13.6259 5.21135H25.6545C25.7327 5.21135 25.7962 5.27486 25.7962 5.35299V7.25408C25.7962 7.33213 25.7327 7.39564 25.6545 7.39564H17.3807C17.0571 7.39564 16.7948 7.65799 16.7948 7.9815C16.7948 8.3051 17.0571 8.56736 17.3807 8.56736H25.6546C26.3788 8.56752 26.968 7.9783 26.968 7.25408Z" fill="#F28505"/>
<path d="M31.3495 35.7262C31.0259 35.7262 30.7637 35.9886 30.7637 36.3121V37.1011C30.7637 38.0534 29.9889 38.8282 29.0365 38.8282H3.11758C2.16531 38.8282 1.39047 38.0534 1.39047 37.1011V8.93969C1.39047 8.81289 1.40531 8.68852 1.4318 8.5675H6.76641C7.88016 8.5675 8.78625 7.66141 8.78625 6.54766V1.21312C8.90727 1.18664 9.03156 1.1718 9.15836 1.1718H29.0364C29.9888 1.1718 30.7636 1.94656 30.7636 2.89891V10.6991C30.7636 11.0227 31.0259 11.2849 31.3495 11.2849C31.673 11.2849 31.9353 11.0226 31.9353 10.6991V2.89883C31.9354 1.30047 30.6349 0 29.0365 0H9.15844C8.38414 0 7.65609 0.301563 7.10859 0.849063L1.06773 6.88992C0.520234 7.43742 0.21875 8.16539 0.21875 8.93977V37.1012C0.21875 38.6996 1.51914 40 3.11758 40H29.0365C30.6349 40 31.9354 38.6995 31.9354 37.1012V36.3122C31.9354 35.9886 31.6731 35.7262 31.3495 35.7262ZM7.61453 2.00031V6.54766C7.61453 7.01531 7.23406 7.39578 6.76641 7.39578H2.21906L7.61453 2.00031Z" fill="#F28505"/>
<path d="M39.3741 20.9374C39.7854 20.3337 39.8918 19.5891 39.6661 18.8944C39.4404 18.1997 38.9165 17.6599 38.2291 17.4133C37.773 17.2497 37.4687 16.831 37.4541 16.3466C37.432 15.6165 37.0804 14.9515 36.4894 14.5221C35.8985 14.0928 35.1573 13.964 34.4563 14.1685C33.9909 14.3043 33.4989 14.1443 33.2023 13.7611C32.7554 13.1834 32.0801 12.8521 31.3496 12.8521C30.6192 12.8521 29.9438 13.1834 29.4968 13.7611C29.2002 14.1444 28.708 14.3042 28.2429 14.1685C27.5419 13.9638 26.8007 14.0928 26.2097 14.5221C25.6187 14.9515 25.2673 15.6164 25.2451 16.3465C25.2305 16.8309 24.9263 17.2496 24.4701 17.4132C23.7826 17.6598 23.2588 18.1997 23.0331 18.8943C22.8074 19.589 22.9138 20.3337 23.3251 20.9373C23.5979 21.3378 23.5979 21.8553 23.3251 22.2558C22.9138 22.8595 22.8074 23.6041 23.0331 24.2988C23.2588 24.9935 23.7826 25.5333 24.4701 25.7799C24.9263 25.9436 25.2305 26.3623 25.2451 26.8467C25.2655 27.5182 25.5732 28.1492 26.0896 28.5778C26.4303 28.8606 26.8396 29.0375 27.268 29.0967V34.4309C27.268 34.881 27.5121 35.297 27.905 35.5164C28.2974 35.7357 28.7798 35.726 29.1634 35.4898L31.3122 34.167C31.3472 34.1453 31.368 34.1551 31.3873 34.167L33.536 35.4898C33.9194 35.7257 34.4016 35.7359 34.7944 35.5163C35.1874 35.2968 35.4315 34.8808 35.4315 34.4308V29.0965C35.8597 29.0374 36.269 28.8605 36.6097 28.5778C37.1262 28.1492 37.434 27.5183 37.4544 26.8466C37.4689 26.3622 37.7732 25.9435 38.2293 25.7799C38.9169 25.5333 39.4407 24.9934 39.6663 24.2987C39.892 23.604 39.7856 22.8594 39.3744 22.2557C39.1012 21.8554 39.1012 21.3379 39.3741 20.9374ZM34.1501 34.492L32.0014 33.1692C31.6019 32.9233 31.0976 32.9229 30.6977 33.1692L28.549 34.4919C28.5001 34.5217 28.4397 34.4874 28.4397 34.4308V28.9854C28.8425 28.9388 29.2419 29.1027 29.4968 29.4321C29.9439 30.0098 30.6192 30.3411 31.3497 30.3411C32.0801 30.3411 32.7554 30.0098 33.2023 29.4321C33.4573 29.1026 33.8568 28.9388 34.2595 28.9854V34.4308C34.2595 34.4878 34.1983 34.5217 34.1501 34.492ZM38.4058 22.9157C38.6114 23.2174 38.6645 23.5896 38.5517 23.9367C38.4389 24.2839 38.1771 24.5538 37.8334 24.6771C36.9208 25.0044 36.3122 25.8421 36.2829 26.8113C36.2725 27.152 36.1227 27.4591 35.8612 27.6761C35.5673 27.9201 35.1691 28.0121 34.7846 27.8999C33.8539 27.6284 32.869 27.9484 32.2755 28.7151C32.0522 29.0038 31.7146 29.1694 31.3495 29.1694C30.9845 29.1694 30.6469 29.0038 30.4234 28.7151C29.9704 28.1295 29.2891 27.8045 28.5779 27.8045C28.3577 27.8045 28.1346 27.8356 27.9146 27.8999C27.5263 28.013 27.1294 27.9181 26.8377 27.676C26.5762 27.459 26.4265 27.1519 26.4162 26.8113C26.3869 25.8421 25.7783 25.0044 24.8655 24.677C24.522 24.5537 24.2602 24.2839 24.1473 23.9367C24.0345 23.5896 24.0877 23.2174 24.2933 22.9156C24.8391 22.1143 24.8391 21.0789 24.2933 20.2776C24.0877 19.9759 24.0345 19.6037 24.1473 19.2564C24.2602 18.9092 24.522 18.6394 24.8655 18.5162C25.7783 18.1888 26.3869 17.351 26.4162 16.3819C26.4273 16.017 26.6029 15.6846 26.8983 15.4701C27.1935 15.2555 27.5638 15.1911 27.9145 15.2933C28.845 15.5649 29.8302 15.2449 30.4234 14.4781C30.6469 14.1894 30.9844 14.0238 31.3495 14.0238C31.7146 14.0238 32.0521 14.1893 32.2755 14.4781C32.8689 15.2449 33.8536 15.5649 34.7845 15.2933C35.135 15.191 35.5053 15.2554 35.8007 15.47C36.0961 15.6846 36.2719 16.017 36.2828 16.3818C36.3122 17.351 36.9208 18.1888 37.8334 18.5161C38.1771 18.6393 38.4388 18.9092 38.5517 19.2563C38.6645 19.6035 38.6114 19.9758 38.4058 20.2774C37.8598 21.0788 37.8598 22.1144 38.4058 22.9157Z" fill="#F28505"/>
<path d="M31.348 16.6862C28.6403 16.6862 26.4375 18.889 26.4375 21.5966C26.4375 24.3043 28.6403 26.5071 31.348 26.5071C34.0555 26.5071 36.2584 24.3043 36.2584 21.5966C36.2584 18.889 34.0555 16.6862 31.348 16.6862ZM31.348 25.3354C29.2864 25.3354 27.6092 23.6582 27.6092 21.5967C27.6092 19.5352 29.2864 17.858 31.348 17.858C33.4095 17.858 35.0866 19.5351 35.0866 21.5967C35.0866 23.6583 33.4095 25.3354 31.348 25.3354Z" fill="#F28505"/>
</g>
<defs>
<clipPath id="clip0">
<rect width="40" height="40" fill="white"/>
</clipPath>
</defs>
</svg>
