<svg width="32" height="32" viewBox="0 0 32 32" fill="none" xmlns="http://www.w3.org/2000/svg">
<path d="M13.5 21.625C13.8452 21.625 14.125 21.3452 14.125 21C14.125 20.6548 13.8452 20.375 13.5 20.375C13.1548 20.375 12.875 20.6548 12.875 21C12.875 21.3452 13.1548 21.625 13.5 21.625Z" fill="#F28505"/>
<path d="M2.5 8.5V11C2.5 11.3452 2.77981 11.625 3.125 11.625H21.1875C21.5326 11.625 21.8125 11.3452 21.8125 11V8.5C21.8125 8.15481 21.5326 7.875 21.1875 7.875H3.125C2.77981 7.875 2.5 8.15481 2.5 8.5ZM9.125 9.125H20.5625V10.375H9.125V9.125ZM3.75 9.125H7.875V10.375H3.75V9.125Z" fill="#F28505"/>
<path d="M3.125 14.125H21.1875C21.5326 14.125 21.8125 13.8452 21.8125 13.5C21.8125 13.1548 21.5326 12.875 21.1875 12.875H3.125C2.77981 12.875 2.5 13.1548 2.5 13.5C2.5 13.8452 2.77981 14.125 3.125 14.125Z" fill="#F28505"/>
<path d="M3.125 16.625H21.1875C21.5326 16.625 21.8125 16.3452 21.8125 16C21.8125 15.6548 21.5326 15.375 21.1875 15.375H3.125C2.77981 15.375 2.5 15.6548 2.5 16C2.5 16.3452 2.77981 16.625 3.125 16.625Z" fill="#F28505"/>
<path d="M3.125 19.125H13.5C13.8452 19.125 14.125 18.8452 14.125 18.5C14.125 18.1548 13.8452 17.875 13.5 17.875H3.125C2.77981 17.875 2.5 18.1548 2.5 18.5C2.5 18.8452 2.77981 19.125 3.125 19.125Z" fill="#F28505"/>
<path d="M3.125 21.625H11C11.3452 21.625 11.625 21.3452 11.625 21C11.625 20.6548 11.3452 20.375 11 20.375H3.125C2.77981 20.375 2.5 20.6548 2.5 21C2.5 21.3452 2.77981 21.625 3.125 21.625Z" fill="#F28505"/>
<path d="M8.5 26.625H11.6879C11.9782 28.0497 13.2408 29.125 14.75 29.125C16.4731 29.125 17.875 27.7231 17.875 26C17.875 24.2769 16.4731 22.875 14.75 22.875C13.2409 22.875 11.9782 23.9503 11.6879 25.375H8.5C8.15481 25.375 7.875 25.6548 7.875 26C7.875 26.3452 8.15481 26.625 8.5 26.625ZM14.75 25.375H12.9825C13.2405 24.6476 13.9352 24.125 14.75 24.125C15.7839 24.125 16.625 24.9661 16.625 26C16.625 27.0339 15.7839 27.875 14.75 27.875C13.9352 27.875 13.2405 27.3524 12.9825 26.625H14.75C15.0951 26.625 15.375 26.3452 15.375 26C15.375 25.6548 15.0952 25.375 14.75 25.375Z" fill="#F28505"/>
<path d="M21.1875 5C21.5326 5 21.8125 4.72019 21.8125 4.375C21.8125 4.02981 21.5326 3.75 21.1875 3.75H19.9375C19.5924 3.75 19.3125 4.02981 19.3125 4.375C19.3125 4.72019 19.5924 5 19.9375 5H21.1875Z" fill="#F28505"/>
<path d="M17.4375 5C17.7826 5 18.0625 4.72019 18.0625 4.375C18.0625 4.02981 17.7826 3.75 17.4375 3.75H16.1875C15.8424 3.75 15.5625 4.02981 15.5625 4.375C15.5625 4.72019 15.8424 5 16.1875 5H17.4375Z" fill="#F28505"/>
<path d="M13.6875 5C14.0327 5 14.3125 4.72019 14.3125 4.375C14.3125 4.02981 14.0327 3.75 13.6875 3.75H12.4375C12.0923 3.75 11.8125 4.02981 11.8125 4.375C11.8125 4.72019 12.0923 5 12.4375 5H13.6875Z" fill="#F28505"/>
<path d="M12.25 32C12.5952 32 12.875 31.7202 12.875 31.375C12.875 31.0298 12.5952 30.75 12.25 30.75C11.9048 30.75 11.625 31.0298 11.625 31.375C11.625 31.7202 11.9048 32 12.25 32Z" fill="#F28505"/>
<path d="M0.625 32H9.4375C9.78269 32 10.0625 31.7202 10.0625 31.375C10.0625 31.0298 9.78269 30.75 9.4375 30.75H1.25V6.25H5.625C5.97019 6.25 6.25 5.97019 6.25 5.625V1.25H23.0625V18.9158C22.779 19.2512 22.5142 19.5457 22.2852 19.7807L20.9602 18.4557C19.7393 17.2339 17.7619 17.2334 16.5405 18.4556L15.6567 19.3393C15.4127 19.5834 15.4127 19.9791 15.6567 20.2232L23.0624 27.6289V30.75H15.0624C14.7172 30.75 14.4374 31.0298 14.4374 31.375C14.4374 31.7202 14.7172 32 15.0624 32H23.6874C24.0326 32 24.3124 31.7202 24.3124 31.375V28.8789L24.4955 29.0619C24.7396 29.3058 25.1354 29.306 25.3794 29.0619L26.2632 28.1782C27.4843 26.9571 27.4846 24.98 26.2632 23.7587L24.9384 22.4338C26.1239 21.2786 28.7318 19.3598 30.1019 18.7631C32.0252 17.9259 32.7192 15.3109 31.0783 13.67C29.4497 12.0406 26.8464 12.7027 25.9935 14.6314C25.6736 15.3543 25.0109 16.3707 24.3125 17.3231V0.625C24.3125 0.279813 24.0326 0 23.6875 0H5.625C5.45456 0 5.29437 0.071875 5.18306 0.183062L0.183062 5.18306C0.07 5.29588 0 5.45538 0 5.625V31.375C0 31.7202 0.279813 32 0.625 32ZM25.3792 24.6426C26.1119 25.3752 26.1121 26.5615 25.3792 27.2943L24.9375 27.7361L16.9826 19.7812L17.4246 19.3393C18.1572 18.6063 19.3431 18.6059 20.0762 19.3394L25.3792 24.6426ZM24.1774 19.5314C25.2605 18.2251 26.5956 16.3598 27.1366 15.1371C27.6224 14.0386 29.1664 13.5254 30.1943 14.5538C31.2227 15.5822 30.7003 17.1394 29.6029 17.617C28.0478 18.2944 25.3409 20.292 24.0544 21.5499L23.1691 20.6646C23.4654 20.3614 23.8116 19.9727 24.1774 19.5314ZM5 2.13387V5H2.13387L5 2.13387Z" fill="#F28505"/>
</svg>
