<svg width="54" height="54" viewBox="0 0 54 54" fill="none" xmlns="http://www.w3.org/2000/svg">
<path d="M29.6665 52.5464H24.3336C23.9858 52.5477 23.6491 52.4242 23.3846 52.1983C23.1201 51.9724 22.9455 51.6591 22.8924 51.3154L22.3728 48.044C19.8935 47.5061 17.5309 46.5276 15.3973 45.155L12.7075 47.0983C12.4266 47.3026 12.0818 47.3996 11.7355 47.3718C11.3893 47.3439 11.0644 47.1931 10.8197 46.9465L7.0587 43.184C6.81273 42.9392 6.66234 42.6146 6.63464 42.2687C6.60694 41.9228 6.70376 41.5784 6.90765 41.2976L8.85019 38.6079C7.47813 36.4743 6.49989 34.112 5.96192 31.6331L2.68981 31.1135C2.34621 31.0603 2.03311 30.8856 1.80735 30.6211C1.5816 30.3567 1.45817 30.02 1.45948 29.6723V24.3395C1.45815 23.9917 1.58155 23.6549 1.80729 23.3904C2.03303 23.1258 2.34615 22.9509 2.68981 22.8975L5.96192 22.3787C6.49975 19.8997 7.47801 17.5374 8.85019 15.4039L6.90765 12.7141C6.70453 12.4331 6.60812 12.0889 6.63566 11.7433C6.66321 11.3976 6.81291 11.0731 7.05797 10.8278L10.8219 7.06456C11.0665 6.81833 11.3912 6.66774 11.7371 6.64004C12.0831 6.61233 12.4276 6.70934 12.7083 6.91351L15.3973 8.85605C17.5305 7.48381 19.8926 6.50555 22.3713 5.96778L22.8909 2.69567C22.944 2.35201 23.1187 2.03882 23.3832 1.81304C23.6477 1.58726 23.9844 1.46388 24.3321 1.46534H29.665C30.0127 1.46388 30.3495 1.58726 30.6139 1.81304C30.8784 2.03882 31.0531 2.35201 31.1062 2.69567L31.6258 5.96778C34.1055 6.50521 36.4687 7.48349 38.6027 8.85605L41.2925 6.91351C41.5734 6.70918 41.9182 6.61216 42.2645 6.64C42.6108 6.66784 42.9356 6.8187 43.1803 7.06529L46.9428 10.8278C47.1889 11.0723 47.3393 11.3968 47.367 11.7427C47.3947 12.0885 47.2978 12.4328 47.0939 12.7134L45.1513 15.4039C46.5235 17.5374 47.5018 19.8997 48.0396 22.3787L51.3117 22.8975C51.6551 22.9512 51.9679 23.1262 52.1933 23.3908C52.4188 23.6553 52.542 23.9919 52.5406 24.3395V29.6723C52.5419 30.02 52.4184 30.3567 52.1927 30.6211C51.9669 30.8856 51.6538 31.0603 51.3102 31.1135L48.0381 31.6331C47.5002 34.112 46.5219 36.4743 45.1499 38.6079L47.0924 41.2976C47.2963 41.5782 47.3932 41.9225 47.3657 42.2682C47.3381 42.614 47.1879 42.9385 46.9421 43.1833L43.1781 46.9465C42.9337 47.193 42.6091 47.3438 42.2631 47.3716C41.917 47.3995 41.5725 47.3025 41.2918 47.0983L38.6027 45.155C36.4696 46.5275 34.1075 47.506 31.6287 48.044L31.1091 51.3154C31.056 51.6594 30.8811 51.9728 30.6164 52.1988C30.3516 52.4247 30.0145 52.5481 29.6665 52.5464ZM15.3791 43.5394C15.5247 43.5393 15.667 43.5827 15.7877 43.6642C18.0103 45.1703 20.5162 46.2082 23.1529 46.7144C23.3003 46.7426 23.4354 46.8155 23.5399 46.9232C23.6444 47.0309 23.7131 47.1683 23.7367 47.3165L24.3358 51.087H29.6686L30.2678 47.3165C30.2914 47.1683 30.3601 47.0309 30.4645 46.9232C30.569 46.8155 30.7041 46.7426 30.8515 46.7144C33.4882 46.2082 35.9942 45.1703 38.2167 43.6642C38.3406 43.5804 38.4873 43.5367 38.6369 43.539C38.7865 43.5414 38.9317 43.5896 39.053 43.6773L42.1507 45.9146L45.9139 42.1522L43.6765 39.0545C43.5889 38.9334 43.5406 38.7883 43.5382 38.6389C43.5357 38.4894 43.5791 38.3428 43.6627 38.2189C45.1686 35.9963 46.2062 33.4904 46.7122 30.8538C46.7404 30.7063 46.8133 30.5712 46.921 30.4667C47.0287 30.3623 47.166 30.2936 47.3142 30.27L51.0811 29.6723V24.3395L47.3099 23.7411C47.1617 23.7175 47.0243 23.6488 46.9166 23.5443C46.8089 23.4398 46.736 23.3047 46.7078 23.1573C46.2018 20.5207 45.1642 18.0147 43.6583 15.7921C43.5748 15.6682 43.5313 15.5216 43.5338 15.3722C43.5363 15.2227 43.5846 15.0777 43.6722 14.9566L45.9095 11.8589L42.1463 8.10005L39.0486 10.3374C38.9274 10.425 38.7821 10.4733 38.6325 10.4757C38.4829 10.478 38.3363 10.4343 38.2123 10.3505C35.99 8.84333 33.484 7.80449 30.8472 7.29735C30.6998 7.2692 30.5646 7.19629 30.4602 7.08856C30.3557 6.98083 30.287 6.84351 30.2634 6.69532L29.6643 2.9248H24.3336L23.7345 6.69532C23.7109 6.84351 23.6422 6.98083 23.5377 7.08856C23.4332 7.19629 23.2981 7.2692 23.1507 7.29735C20.5141 7.80338 18.0081 8.84097 15.7855 10.3469C15.6616 10.4307 15.5149 10.4744 15.3653 10.472C15.2158 10.4697 15.0705 10.4214 14.9493 10.3338L11.8538 8.10005L8.09054 11.8633L10.3279 14.9595C10.4155 15.0806 10.4638 15.2257 10.4663 15.3751C10.4687 15.5245 10.4253 15.6711 10.3418 15.795C8.83611 18.017 7.79853 20.5222 7.29221 23.158C7.26407 23.3054 7.19116 23.4406 7.08343 23.545C6.9757 23.6495 6.83838 23.7182 6.69019 23.7418L2.91894 24.3395V29.6723L6.69019 30.2707C6.83838 30.2943 6.9757 30.363 7.08343 30.4675C7.19116 30.5719 7.26407 30.7071 7.29221 30.8545C7.79824 33.4911 8.83583 35.997 10.3418 38.2196C10.4253 38.3436 10.4687 38.4902 10.4663 38.6396C10.4638 38.789 10.4155 38.9341 10.3279 39.0552L8.09054 42.1529L11.8538 45.9154L14.9515 43.678C15.076 43.5883 15.2256 43.5398 15.3791 43.5394Z" fill="white"/>
<path d="M32.1226 40.6153C31.952 40.6155 31.7868 40.5558 31.6556 40.4468C31.5244 40.3377 31.4356 40.1862 31.4045 40.0184C31.3735 39.8507 31.4022 39.6774 31.4856 39.5286C31.5691 39.3798 31.702 39.265 31.8614 39.204C32.5011 38.9547 33.1189 38.6523 33.7083 38.2999C33.8752 38.2018 34.0743 38.174 34.2617 38.2226C34.4491 38.2713 34.6095 38.3924 34.7077 38.5593C34.8058 38.7263 34.8336 38.9253 34.7849 39.1127C34.7363 39.3002 34.6152 39.4606 34.4483 39.5587C33.7891 39.9517 33.0983 40.289 32.3831 40.5672C32.3 40.5991 32.2117 40.6154 32.1226 40.6153Z" fill="white"/>
<path d="M26.3075 41.5857H26.2703C23.4185 41.443 20.6713 40.4668 18.3688 38.7782C16.0664 37.0896 14.3098 34.7627 13.3167 32.0857C12.3235 29.4087 12.1375 26.4991 12.7815 23.7174C13.4256 20.9357 14.8714 18.404 16.94 16.4359C19.0087 14.4677 21.6091 13.1496 24.4195 12.6448C27.2298 12.1399 30.1265 12.4705 32.7508 13.5956C35.375 14.7206 37.6117 16.5908 39.1836 18.9744C40.7556 21.3581 41.5939 24.1504 41.5946 27.0057C41.5946 27.232 41.5873 27.4589 41.5793 27.6858C41.5741 27.8759 41.495 28.0565 41.3587 28.1892C41.2224 28.3218 41.0397 28.3959 40.8495 28.3959H40.8379C40.647 28.3928 40.4649 28.3151 40.3307 28.1794C40.1964 28.0436 40.1207 27.8607 40.1198 27.6698C40.1271 27.4275 40.1344 27.2166 40.1344 27.0057C40.1339 24.4359 39.3796 21.9227 37.9649 19.7773C36.5502 17.6319 34.5372 15.9486 32.1753 14.936C29.8134 13.9233 27.2063 13.6257 24.677 14.08C22.1476 14.5344 19.8071 15.7207 17.9453 17.4921C16.0835 19.2634 14.7822 21.542 14.2026 24.0457C13.623 26.5493 13.7905 29.1679 14.6844 31.5773C15.5783 33.9866 17.1593 36.0808 19.2317 37.6005C21.304 39.1202 23.7766 39.9987 26.3432 40.127C26.5368 40.1318 26.7205 40.2132 26.854 40.3534C26.9875 40.4936 27.0598 40.6811 27.0551 40.8746C27.0503 41.0682 26.9689 41.2519 26.8287 41.3854C26.6885 41.5189 26.501 41.5912 26.3075 41.5865V41.5857Z" fill="white"/>
<path d="M37.9088 36.2807C37.7713 36.2806 37.6366 36.2416 37.5203 36.1683C37.404 36.095 37.3107 35.9903 37.2513 35.8663C37.1919 35.7422 37.1687 35.604 37.1845 35.4674C37.2002 35.3308 37.2543 35.2014 37.3404 35.0942C37.7873 34.5343 38.1832 33.9354 38.5233 33.3049C38.6157 33.1347 38.7719 33.0083 38.9575 32.9534C39.1432 32.8984 39.343 32.9195 39.5131 33.0119C39.6833 33.1043 39.8097 33.2605 39.8646 33.4461C39.9196 33.6318 39.8985 33.8316 39.8061 34.0018C39.424 34.7082 38.9798 35.3793 38.4787 36.007C38.4103 36.0925 38.3236 36.1614 38.225 36.2088C38.1263 36.2562 38.0183 36.2807 37.9088 36.2807Z" fill="white"/>
<path d="M25.5786 35.3809C25.4865 35.3809 25.3951 35.3636 25.3093 35.3299C25.1609 35.2709 25.0359 35.1649 24.9535 35.0281C24.8711 34.8913 24.8359 34.7312 24.8533 34.5724L25.421 29.3403L21.7548 28.7083C21.6317 28.687 21.5161 28.6344 21.4191 28.5556C21.3221 28.4768 21.247 28.3744 21.2009 28.2583C21.1549 28.1421 21.1394 28.0161 21.156 27.8922C21.1726 27.7684 21.2208 27.6509 21.2958 27.551L27.7649 18.9263C27.8599 18.7969 27.995 18.7025 28.1491 18.6577C28.3032 18.6129 28.4678 18.6201 28.6174 18.6783C28.767 18.7365 28.8933 18.8423 28.9766 18.9795C29.0599 19.1167 29.0957 19.2775 29.0784 19.4371L28.5727 24.6532L32.2469 25.2866C32.3701 25.308 32.4858 25.3607 32.5828 25.4397C32.6799 25.5187 32.7549 25.6212 32.8009 25.7376C32.8468 25.854 32.8621 25.9802 32.8452 26.1041C32.8283 26.2281 32.7798 26.3456 32.7044 26.4454L26.1609 35.0912C26.0929 35.1813 26.0049 35.2543 25.9038 35.3046C25.8028 35.3548 25.6915 35.381 25.5786 35.3809ZM23.1793 27.4721L26.3434 28.0216C26.5262 28.0532 26.6902 28.1533 26.8019 28.3014C26.9136 28.4496 26.9646 28.6347 26.9447 28.8192L26.5893 32.1081L30.8144 26.5213L27.6569 25.974C27.4753 25.9428 27.3122 25.8441 27.2004 25.6976C27.0886 25.5512 27.0364 25.3678 27.0541 25.1844L27.3745 21.8832L23.1793 27.4721Z" fill="white"/>
</svg>
