<svg width="54" height="54" viewBox="0 0 54 54" fill="none" xmlns="http://www.w3.org/2000/svg">
<path d="M43.7941 47.9882H41.8986L38.9492 32.1046H40.5946C40.7904 32.1046 40.9781 32.0269 41.1166 31.8884C41.255 31.7499 41.3328 31.5622 41.3328 31.3664V28.8351C41.3327 28.6393 41.2549 28.4516 41.1165 28.3132C40.978 28.1748 40.7903 28.0969 40.5946 28.0968H38.2072L35.9202 15.7781H37.0938C37.2896 15.7781 37.4774 15.7003 37.6159 15.5618C37.7543 15.4234 37.8321 15.2356 37.8321 15.0398V12.5085C37.8321 12.3127 37.7543 12.125 37.6159 11.9865C37.4774 11.848 37.2896 11.7703 37.0938 11.7703H16.9063C16.7105 11.7703 16.5227 11.848 16.3842 11.9865C16.2458 12.125 16.168 12.3127 16.168 12.5085V15.0398C16.168 15.2356 16.2458 15.4234 16.3842 15.5618C16.5227 15.7003 16.7105 15.7781 16.9063 15.7781H18.0799L15.7929 28.0968H13.4064C13.2106 28.0969 13.0229 28.1748 12.8845 28.3132C12.746 28.4516 12.6682 28.6393 12.6681 28.8351V31.3664C12.6681 31.5622 12.7459 31.7499 12.8844 31.8884C13.0228 32.0269 13.2106 32.1046 13.4064 32.1046H15.0517L12.1015 47.9882H10.2061C10.0103 47.9883 9.82256 48.0662 9.68413 48.2046C9.5457 48.343 9.46789 48.5307 9.46777 48.7265V51.2578C9.46789 51.4535 9.5457 51.6413 9.68413 51.7797C9.82256 51.9181 10.0103 51.9959 10.2061 51.996H43.7941C43.9898 51.9959 44.1775 51.9181 44.316 51.7797C44.4544 51.6413 44.5322 51.4535 44.5323 51.2578V48.7265C44.5322 48.5307 44.4544 48.343 44.316 48.2046C44.1775 48.0662 43.9898 47.9883 43.7941 47.9882ZM40.3967 47.9882H39.3251L37.6921 39.1921L36.3758 32.1046H37.4474L40.3967 47.9882ZM21.0516 32.1046L25.3708 34.3026L18.0238 38.04L19.1262 32.1046H21.0516ZM34.8727 32.1046L35.975 38.0417L28.6281 34.3009L32.9485 32.1046H34.8727ZM36.4171 40.424L37.7313 47.5022L28.8639 43.68L36.4171 40.424ZM27.0001 42.8743L18.7591 39.3221L27.0001 35.1291L35.241 39.3221L27.0001 42.8743ZM27.0001 33.4724L24.3089 32.1046H29.6912L27.0001 33.4724ZM17.5817 40.4223L25.1333 43.6784L16.2659 47.5005L17.5817 40.4223ZM27.0001 44.4825L35.1334 47.9882H18.8667L27.0001 44.4825ZM36.7032 28.0951H35.6333L33.3467 15.7764H34.4183L36.7032 28.0951ZM33.5535 28.0951L28.3399 24.6522L32.9299 21.6215L34.1297 28.0968L33.5535 28.0951ZM19.8704 28.0968L21.0719 21.6232L25.6619 24.6539L20.4445 28.0968H19.8704ZM28.801 17.4938L31.9048 16.0987L32.4701 19.1434L28.801 17.4938ZM31.9229 20.517L27.0001 23.7675L22.0759 20.5191L27.0001 18.3034L31.9229 20.517ZM27.0001 16.6843L24.9793 15.7781H29.0208L27.0001 16.6843ZM25.1991 17.4938L21.5288 19.1434L22.0941 16.0987L25.1991 17.4938ZM27.0001 25.5365L30.8758 28.0968H23.1243L27.0001 25.5365ZM17.6446 13.2468H36.3556V14.3015H17.6446V13.2468ZM19.5818 15.7781H20.6534L18.3668 28.0968H17.2969L19.5818 15.7781ZM14.1447 29.5734H39.8554V30.6281H14.1447V29.5734ZM16.5527 32.1046H17.6243L16.3081 39.1921L14.675 47.9882H13.6034L16.5527 32.1046ZM43.0558 50.5212H10.9443V49.4665H43.0558V50.5212Z" fill="white"/>
<path d="M27 10.5553C27.8669 10.5543 28.6979 10.2095 29.3108 9.59654C29.9238 8.98361 30.2685 8.15257 30.2696 7.28575C30.2696 5.10803 27.8096 2.51603 27.5274 2.22746C27.3856 2.08959 27.1957 2.01245 26.9979 2.01245C26.8002 2.01245 26.6102 2.08959 26.4685 2.22746C26.1883 2.51603 23.7284 5.10803 23.7284 7.28575C23.7294 8.15294 24.0745 8.98429 24.6879 9.59729C25.3013 10.2103 26.1328 10.5548 27 10.5553ZM27 3.85126C27.7467 4.74986 28.7943 6.24034 28.7943 7.28575C28.7943 7.76127 28.6054 8.21732 28.2691 8.55357C27.9329 8.88981 27.4768 9.07871 27.0013 9.07871C26.5258 9.07871 26.0697 8.88981 25.7335 8.55357C25.3972 8.21732 25.2083 7.76127 25.2083 7.28575C25.2071 6.2319 26.2407 4.75787 27 3.85126Z" fill="white"/>
</svg>
