<svg width="54" height="54" viewBox="0 0 54 54" fill="none" xmlns="http://www.w3.org/2000/svg">
<path d="M49.7812 11.8125H43.875V10.125H44.7188C44.9425 10.125 45.1571 10.0361 45.3154 9.87787C45.4736 9.71964 45.5625 9.50503 45.5625 9.28125V8.4375H46.4062C47.0776 8.4375 47.7214 8.17082 48.1961 7.69611C48.6708 7.22141 48.9375 6.57758 48.9375 5.90625V1.6875H47.25V5.90625C47.25 6.13003 47.1611 6.34464 47.0029 6.50287C46.8446 6.66111 46.63 6.75 46.4062 6.75H45.5625V5.90625C45.5625 5.68247 45.4736 5.46786 45.3154 5.30963C45.1571 5.1514 44.9425 5.0625 44.7188 5.0625H29.5312C29.3075 5.0625 29.0929 5.1514 28.9346 5.30963C28.7764 5.46786 28.6875 5.68247 28.6875 5.90625V9.28125C28.6875 9.50503 28.7764 9.71964 28.9346 9.87787C29.0929 10.0361 29.3075 10.125 29.5312 10.125H30.375V11.8125H4.21875C3.54742 11.8125 2.90359 12.0792 2.42889 12.5539C1.95418 13.0286 1.6875 13.6724 1.6875 14.3438V48.0938C1.6875 48.3175 1.77639 48.5321 1.93463 48.6904C2.09286 48.8486 2.30747 48.9375 2.53125 48.9375H5.90625V51.4688C5.90625 51.6925 5.99514 51.9071 6.15338 52.0654C6.31161 52.2236 6.52622 52.3125 6.75 52.3125H15.1875C15.4113 52.3125 15.6259 52.2236 15.7841 52.0654C15.9424 51.9071 16.0312 51.6925 16.0312 51.4688V48.9375H37.9688V51.4688C37.9688 51.6925 38.0576 51.9071 38.2159 52.0654C38.3741 52.2236 38.5887 52.3125 38.8125 52.3125H47.25C47.4738 52.3125 47.6884 52.2236 47.8466 52.0654C48.0049 51.9071 48.0938 51.6925 48.0938 51.4688V48.9375H51.4688C51.6925 48.9375 51.9071 48.8486 52.0654 48.6904C52.2236 48.5321 52.3125 48.3175 52.3125 48.0938V14.3438C52.3125 13.6724 52.0458 13.0286 51.5711 12.5539C51.0964 12.0792 50.4526 11.8125 49.7812 11.8125ZM30.375 6.75H43.875V8.4375H30.375V6.75ZM42.1875 10.125V11.8125H40.5V10.125H42.1875ZM38.8125 10.125V11.8125H35.4375V10.125H38.8125ZM33.75 10.125V11.8125H32.0625V10.125H33.75ZM14.3438 50.625H7.59375V48.9375H14.3438V50.625ZM46.4062 50.625H39.6562V48.9375H46.4062V50.625ZM50.625 47.25H3.375V43.875H50.625V47.25ZM9.28125 37.9688H7.59375V36.2812H9.28125V37.9688ZM9.28125 21.0938H7.59375V19.4062H9.28125V21.0938ZM10.9688 42.1875V16.875H22.7812V42.1875H10.9688ZM24.4688 42.1875V16.875H27.8438V42.1875H24.4688ZM29.5312 42.1875V16.875H44.7188V42.1875H29.5312ZM50.625 42.1875H46.4062V16.0312C46.4062 15.8075 46.3174 15.5929 46.1591 15.4346C46.0009 15.2764 45.7863 15.1875 45.5625 15.1875H10.125C9.90122 15.1875 9.68661 15.2764 9.52838 15.4346C9.37014 15.5929 9.28125 15.8075 9.28125 16.0312V17.7188H6.75C6.52622 17.7188 6.31161 17.8076 6.15338 17.9659C5.99514 18.1241 5.90625 18.3387 5.90625 18.5625V21.9375C5.90625 22.1613 5.99514 22.3759 6.15338 22.5341C6.31161 22.6924 6.52622 22.7812 6.75 22.7812H9.28125V34.5938H6.75C6.52622 34.5938 6.31161 34.6826 6.15338 34.8409C5.99514 34.9991 5.90625 35.2137 5.90625 35.4375V38.8125C5.90625 39.0363 5.99514 39.2509 6.15338 39.4091C6.31161 39.5674 6.52622 39.6562 6.75 39.6562H9.28125V42.1875H3.375V14.3438C3.375 14.12 3.46389 13.9054 3.62213 13.7471C3.78036 13.5889 3.99497 13.5 4.21875 13.5H49.7812C50.005 13.5 50.2196 13.5889 50.3779 13.7471C50.5361 13.9054 50.625 14.12 50.625 14.3438V42.1875Z" fill="white"/>
<path d="M20.25 18.5625H13.5C13.2762 18.5625 13.0616 18.6514 12.9034 18.8096C12.7451 18.9679 12.6562 19.1825 12.6562 19.4062V26.1562C12.6562 26.38 12.7451 26.5946 12.9034 26.7529C13.0616 26.9111 13.2762 27 13.5 27H20.25C20.4738 27 20.6884 26.9111 20.8466 26.7529C21.0049 26.5946 21.0938 26.38 21.0938 26.1562V19.4062C21.0938 19.1825 21.0049 18.9679 20.8466 18.8096C20.6884 18.6514 20.4738 18.5625 20.25 18.5625ZM19.4062 25.3125H14.3438V20.25H19.4062V25.3125Z" fill="white"/>
<path d="M36.947 31.7368L42.8532 24.1431C42.9502 24.0184 43.0103 23.869 43.0265 23.7119C43.0428 23.5548 43.0146 23.3963 42.9453 23.2544C42.8759 23.1126 42.7681 22.993 42.6342 22.9093C42.5002 22.8257 42.3455 22.7813 42.1875 22.7812H39.4597L41.2231 19.8408C41.3 19.7128 41.3416 19.5666 41.3435 19.4173C41.3455 19.268 41.3078 19.1208 41.2343 18.9908C41.1607 18.8608 41.054 18.7527 40.925 18.6774C40.796 18.6022 40.6494 18.5625 40.5 18.5625H36.2813C36.1309 18.5625 35.9832 18.6027 35.8535 18.679C35.7239 18.7552 35.6169 18.8647 35.5438 18.9962L31.3251 26.5899C31.2537 26.7184 31.217 26.8632 31.2188 27.0102C31.2206 27.1571 31.2607 27.3011 31.3352 27.4278C31.4097 27.5544 31.516 27.6594 31.6436 27.7324C31.7712 27.8054 31.9156 27.8438 32.0625 27.8438H35.4375V31.2188C35.4375 31.3946 35.4925 31.5661 35.5948 31.7093C35.6971 31.8524 35.8415 31.9599 36.0079 32.0169C36.0959 32.0469 36.1883 32.0623 36.2813 32.0625C36.4097 32.0625 36.5364 32.0331 36.6518 31.9767C36.7672 31.9202 36.8681 31.8382 36.947 31.7368ZM33.4969 26.1562L36.7791 20.25H39.01L37.2465 23.1905C37.1697 23.3184 37.1281 23.4645 37.1261 23.6137C37.1241 23.763 37.1618 23.9101 37.2352 24.0401C37.3086 24.17 37.4152 24.2782 37.5441 24.3535C37.673 24.4288 37.8195 24.4686 37.9688 24.4688H40.4621L37.125 28.7592V27C37.125 26.7762 37.0361 26.5616 36.8779 26.4034C36.7197 26.2451 36.5051 26.1562 36.2813 26.1562H33.4969Z" fill="white"/>
<path d="M12.6562 28.6875H21.0938V30.375H12.6562V28.6875Z" fill="white"/>
<path d="M12.6562 32.0625H16.0312V33.75H12.6562V32.0625Z" fill="white"/>
<path d="M17.7188 32.0625H21.0938V33.75H17.7188V32.0625Z" fill="white"/>
<path d="M41.3438 38.8125H39.6562V40.5H42.1875C42.4113 40.5 42.6259 40.4111 42.7841 40.2529C42.9424 40.0946 43.0312 39.88 43.0312 39.6562V34.5938H41.3438V38.8125Z" fill="white"/>
<path d="M36.2812 38.8125H37.9688V40.5H36.2812V38.8125Z" fill="white"/>
<path d="M32.9062 38.8125H34.5938V40.5H32.9062V38.8125Z" fill="white"/>
</svg>
