<svg width="54" height="54" viewBox="0 0 54 54" fill="none" xmlns="http://www.w3.org/2000/svg">
<path d="M14.5884 13.3988L15.7865 12.2007L13.3987 9.82134L13.9978 9.22228C14.1532 9.06139 14.2408 8.8469 14.2425 8.62321C14.2392 8.39985 14.1518 8.18593 13.9978 8.02415L11.61 5.64478C10.9225 4.958 10.0192 4.52928 9.05241 4.43091C8.08564 4.33255 7.11452 4.57054 6.30278 5.10478L2.61559 1.42603L1.4259 2.61571L5.10465 6.29446C4.57024 7.10766 4.33219 8.08009 4.43053 9.04819C4.52888 10.0163 4.95763 10.921 5.64465 11.6101L8.02403 13.9979C8.18581 14.1519 8.39973 14.2393 8.62309 14.2426C8.84678 14.2409 9.06126 14.1533 9.22215 13.9979L9.82122 13.3988L12.2006 15.7867L13.3987 14.5885L11.0109 12.2007L12.2006 11.011L14.5884 13.3988ZM8.62309 12.2007L6.83434 10.412C6.58565 10.1802 6.38618 9.90078 6.24783 9.59028C6.10948 9.27978 6.03509 8.9446 6.02909 8.60473C6.0231 8.26486 6.08562 7.92726 6.21293 7.61207C6.34024 7.29689 6.52972 7.01057 6.77009 6.77021C7.01045 6.52985 7.29676 6.34036 7.61195 6.21305C7.92713 6.08574 8.26473 6.02322 8.60461 6.02922C8.94448 6.03521 9.27966 6.1096 9.59016 6.24795C9.90066 6.3863 10.1801 6.58577 10.4118 6.83446L12.2006 8.62321L8.62309 12.2007Z" fill="white"/>
<path d="M50.1946 7.39134L52.574 5.00353L51.3843 3.8054L48.9965 6.19321L47.8068 5.00353L50.1946 2.61571L48.9965 1.42603L46.6087 3.8054L46.0181 3.21478C45.8588 3.0567 45.6434 2.96799 45.419 2.96799C45.1946 2.96799 44.9792 3.0567 44.8199 3.21478L42.4321 5.60259C41.7458 6.29063 41.3181 7.19453 41.2212 8.16152C41.1244 9.12851 41.3643 10.0993 41.9006 10.9098L38.2134 14.5885L39.4115 15.7867L43.0903 12.0995C43.9007 12.6357 44.8715 12.8757 45.8385 12.7788C46.8055 12.682 47.7094 12.2542 48.3974 11.5679L50.7853 9.18009C50.9433 9.02078 51.032 8.80545 51.032 8.58103C51.032 8.3566 50.9433 8.14127 50.7853 7.98196L50.1946 7.39134ZM47.2078 10.3698C46.976 10.6185 46.6966 10.8179 46.3861 10.9563C46.0756 11.0946 45.7404 11.169 45.4005 11.175C45.0606 11.181 44.723 11.1185 44.4079 10.9912C44.0927 10.8639 43.8064 10.6744 43.566 10.434C43.3256 10.1937 43.1361 9.90735 43.0088 9.59217C42.8815 9.27698 42.819 8.93938 42.825 8.59951C42.831 8.25964 42.9054 7.92446 43.0437 7.61396C43.1821 7.30346 43.3816 7.02401 43.6303 6.79228L45.419 5.00353L48.9965 8.58103L47.2078 10.3698Z" fill="white"/>
<path d="M48.8953 47.7058C49.4297 46.8926 49.6677 45.9202 49.5694 44.9521C49.471 43.984 49.0423 43.0793 48.3553 42.3902L45.9759 40.0024C45.8141 39.8483 45.6002 39.761 45.3768 39.7577C45.1531 39.7593 44.9386 39.847 44.7778 40.0024L44.1787 40.6014L41.7993 38.2136L40.6012 39.4117L42.989 41.7996L41.7993 42.9892L39.4115 40.6014L38.2134 41.7996L40.6012 44.1789L40.0021 44.778C39.8467 44.9389 39.7591 45.1534 39.7574 45.377C39.7607 45.6004 39.8481 45.8143 40.0021 45.9761L42.3899 48.3555C43.0758 49.0451 43.9794 49.4758 44.947 49.5742C45.9146 49.6727 46.8864 49.4328 47.6971 48.8955L51.3843 52.5742L52.574 51.3845L48.8953 47.7058ZM47.1656 47.1658C46.691 47.6398 46.0476 47.9061 45.3768 47.9061C44.706 47.9061 44.0627 47.6398 43.5881 47.1658L41.7993 45.377L45.3768 41.7996L47.1656 43.5883C47.6396 44.0629 47.9058 44.7063 47.9058 45.377C47.9058 46.0478 47.6396 46.6912 47.1656 47.1658Z" fill="white"/>
<path d="M15.7865 39.4117L14.5884 38.2136L10.9097 41.9008C10.0992 41.3646 9.12838 41.1246 8.1614 41.2215C7.19441 41.3183 6.29051 41.746 5.60247 42.4324L3.21465 44.8202C3.05658 44.9795 2.96787 45.1948 2.96787 45.4192C2.96787 45.6437 3.05658 45.859 3.21465 46.0183L3.80528 46.6089L1.4259 48.9967L2.61559 50.1948L5.0034 47.807L6.19309 48.9967L3.80528 51.3845L5.0034 52.5742L7.39122 50.1948L7.98184 50.7855C8.14022 50.9457 8.35561 51.0367 8.5809 51.0386C8.69259 51.0385 8.80314 51.0161 8.90602 50.9726C9.00891 50.9291 9.10205 50.8655 9.17997 50.7855L11.5678 48.3977C12.2541 47.7096 12.6818 46.8057 12.7787 45.8387C12.8755 44.8718 12.6356 43.901 12.0993 43.0905L15.7865 39.4117ZM10.3697 47.208L8.5809 48.9967L5.0034 45.4192L6.79215 43.6305C7.02389 43.3818 7.30334 43.1823 7.61384 43.044C7.92434 42.9056 8.25952 42.8312 8.59939 42.8252C8.93926 42.8192 9.27686 42.8818 9.59204 43.0091C9.90723 43.1364 10.1935 43.3259 10.4339 43.5662C10.6743 43.8066 10.8638 44.0929 10.9911 44.4081C11.1184 44.7233 11.1809 45.0609 11.1749 45.4007C11.1689 45.7406 11.0945 46.0758 10.9562 46.3863C10.8178 46.6968 10.6183 46.9762 10.3697 47.208Z" fill="white"/>
<path d="M37.8422 23.178C37.7662 23.0564 37.6605 22.9562 37.535 22.8868C37.4095 22.8174 37.2684 22.7811 37.125 22.7814H27.8438V10.1252C27.8431 9.93561 27.7787 9.75176 27.6609 9.60328C27.543 9.4548 27.3786 9.35034 27.1941 9.30674C27.0101 9.26102 26.8161 9.27962 26.6442 9.35943C26.4723 9.43925 26.3328 9.57548 26.2491 9.74549L16.1241 29.9955C16.0593 30.1239 16.0285 30.2668 16.0346 30.4105C16.0406 30.5542 16.0832 30.694 16.1585 30.8166C16.2337 30.9391 16.339 31.0405 16.4644 31.1109C16.5899 31.1813 16.7312 31.2185 16.875 31.2189H26.1563V43.8752C26.1569 44.0648 26.2213 44.2486 26.3392 44.3971C26.457 44.5456 26.6215 44.65 26.8059 44.6936C26.8693 44.7103 26.9345 44.7188 27 44.7189C27.1558 44.7185 27.3085 44.6748 27.441 44.5929C27.5735 44.511 27.6808 44.394 27.7509 44.2549L37.8759 24.0049C37.9413 23.8756 37.9724 23.7318 37.9665 23.587C37.9606 23.4423 37.9178 23.3015 37.8422 23.178ZM27.8438 40.2977V30.3752C27.8438 30.1514 27.7549 29.9368 27.5966 29.7786C27.4384 29.6203 27.2238 29.5314 27 29.5314H18.2419L26.1563 13.7027V23.6252C26.1563 23.849 26.2451 24.0636 26.4034 24.2218C26.5616 24.38 26.7762 24.4689 27 24.4689H35.7581L27.8438 40.2977Z" fill="white"/>
</svg>
