<svg width="44" height="54" viewBox="0 0 44 54" fill="none" xmlns="http://www.w3.org/2000/svg">
<path d="M43.3284 19.4654C43.3281 19.4625 43.328 19.4596 43.3277 19.4569C43.319 19.3736 43.2984 19.2942 43.2676 19.2196C43.2659 19.2154 43.2643 19.2112 43.2624 19.2071C43.2315 19.1355 43.1915 19.0695 43.1433 19.0095C43.1379 19.0027 43.1324 18.9961 43.1267 18.9895C43.0978 18.9556 43.0664 18.924 43.0325 18.8949C43.0275 18.8906 43.0229 18.8859 43.0177 18.8816C43.0014 18.8683 42.9844 18.856 42.9671 18.8438C42.9538 18.8344 42.9403 18.8257 42.9264 18.817C42.9056 18.8041 42.8845 18.7919 42.8626 18.7807C42.8398 18.769 42.8166 18.7582 42.7929 18.7487C42.7858 18.7459 42.7794 18.7419 42.7724 18.7393L28.8526 12.7516V7.9519H41.609V11.5699C41.609 12.0458 41.9948 12.4316 42.4707 12.4316C42.9466 12.4316 43.3324 12.0458 43.3324 11.5699V7.13581C43.3332 7.12065 43.3347 7.1056 43.3347 7.0902C43.3347 7.06228 43.3309 7.03551 43.3283 7.00828C43.328 7.00541 43.3279 7.00254 43.3276 6.99978C43.3188 6.91648 43.2983 6.83709 43.2675 6.76252C43.2658 6.75827 43.2641 6.75414 43.2623 6.75C43.2314 6.67842 43.1914 6.61236 43.1432 6.55238C43.1378 6.5456 43.1322 6.53894 43.1266 6.53239C43.0977 6.4985 43.0663 6.4669 43.0324 6.43783C43.0274 6.43347 43.0228 6.42876 43.0176 6.42451C43.0013 6.41118 42.9843 6.39889 42.967 6.38671C42.9537 6.37729 42.9401 6.36855 42.9262 6.35994C42.9054 6.34695 42.8844 6.33477 42.8625 6.32363C42.8397 6.31191 42.8165 6.30111 42.7927 6.29157C42.7857 6.28882 42.7793 6.2848 42.7723 6.28215L28.3315 0.0700851C28.2268 0.0251617 28.1119 0 27.991 0H16.0069C15.886 0 15.7711 0.0251617 15.6667 0.0699702C15.6664 0.0700851 1.19516 6.29502 1.19516 6.29502C1.19252 6.29617 1.18987 6.29732 1.18723 6.29847C1.17769 6.3026 1.16931 6.3072 1.16058 6.31134C1.13783 6.32214 1.11565 6.33363 1.09394 6.34626C1.07889 6.355 1.06383 6.36373 1.04947 6.37326C1.04201 6.3782 1.03511 6.38372 1.02776 6.38889C1.01317 6.39923 0.998805 6.40969 0.985018 6.42083C0.978124 6.42646 0.971461 6.43243 0.964682 6.43829C0.951354 6.44978 0.938371 6.46139 0.925848 6.47368C0.919069 6.48023 0.912635 6.48701 0.906201 6.49379C0.894596 6.50585 0.883337 6.51814 0.872537 6.5309C0.865873 6.5386 0.859439 6.54652 0.85312 6.55445C0.843354 6.56675 0.834048 6.57927 0.824971 6.59202C0.818537 6.60098 0.812218 6.60994 0.806129 6.61914C0.798086 6.63155 0.790618 6.6443 0.78315 6.65694C0.77729 6.66705 0.771201 6.67693 0.765686 6.68727C0.758677 6.7006 0.752473 6.71427 0.746039 6.72794C0.739031 6.74311 0.732252 6.75839 0.726048 6.7739C0.718924 6.79182 0.712031 6.80974 0.706171 6.82813C0.702839 6.83858 0.700197 6.84938 0.697324 6.86007C0.693073 6.87523 0.688937 6.89051 0.68549 6.90591C0.683192 6.91637 0.681469 6.92694 0.679516 6.93751C0.676528 6.95417 0.673886 6.97083 0.671818 6.98772C0.670669 6.99748 0.669635 7.00725 0.668831 7.01713C0.667222 7.03574 0.666418 7.05435 0.665958 7.07308C0.665843 7.07894 0.665039 7.08457 0.665039 7.09032V11.57C0.665039 12.0459 1.05085 12.4317 1.52674 12.4317C2.00263 12.4317 2.38844 12.0459 2.38844 11.57V7.95202H15.1449V12.7515L1.19516 18.752C1.19252 18.7532 1.18987 18.7543 1.18723 18.7555C1.17769 18.7596 1.16931 18.7642 1.16058 18.7683C1.13783 18.7791 1.11565 18.7906 1.09394 18.8033C1.07889 18.812 1.06383 18.8207 1.04947 18.8303C1.04201 18.8352 1.03511 18.8407 1.02776 18.8459C1.01317 18.8562 0.998805 18.8667 0.985018 18.8778C0.978124 18.8835 0.971461 18.8894 0.964682 18.8953C0.951354 18.9068 0.938371 18.9184 0.925848 18.9307C0.919069 18.9372 0.912635 18.944 0.906201 18.9508C0.894596 18.9628 0.883337 18.9751 0.872537 18.9879C0.865873 18.9956 0.859439 19.0035 0.85312 19.0114C0.843354 19.0237 0.834048 19.0363 0.824971 19.049C0.818537 19.058 0.812218 19.0669 0.806129 19.0761C0.798086 19.0885 0.790618 19.1013 0.78315 19.1139C0.77729 19.124 0.771201 19.1339 0.765686 19.1443C0.758677 19.1576 0.752473 19.1713 0.746039 19.1849C0.739031 19.2001 0.732252 19.2154 0.726048 19.2309C0.718924 19.2488 0.712031 19.2667 0.706171 19.2851C0.702839 19.2956 0.700197 19.3064 0.697324 19.3171C0.693073 19.3322 0.688937 19.3475 0.68549 19.3629C0.683192 19.3734 0.681469 19.3839 0.679516 19.3945C0.676528 19.4112 0.673886 19.4278 0.671818 19.4447C0.670669 19.4545 0.669635 19.4642 0.668831 19.4741C0.667222 19.4927 0.666418 19.5113 0.665958 19.5301C0.665843 19.5359 0.665039 19.5416 0.665039 19.5473V24.027C0.665039 24.5029 1.05085 24.8887 1.52674 24.8887C2.00263 24.8887 2.38844 24.5029 2.38844 24.027V20.409H14.8334L4.6538 52.8805C4.65288 52.8835 4.65265 52.8866 4.65173 52.8896C4.63944 52.9306 4.6299 52.9724 4.62381 53.0146C4.62335 53.0178 4.62255 53.0209 4.62209 53.0241C4.61658 53.0653 4.61497 53.1069 4.61543 53.1485C4.61554 53.1568 4.61543 53.165 4.61577 53.1732C4.61738 53.2136 4.62186 53.2537 4.6291 53.2935C4.63036 53.3004 4.63197 53.3071 4.63335 53.314C4.65035 53.3961 4.67965 53.4762 4.72101 53.5518C4.72423 53.5577 4.72722 53.5634 4.73055 53.5692C4.751 53.6044 4.77398 53.6385 4.79983 53.6714C4.80466 53.6775 4.80994 53.6832 4.81488 53.6892C4.82545 53.702 4.83556 53.715 4.84694 53.7271C4.86141 53.7426 4.87704 53.7567 4.89244 53.7708C4.89715 53.7752 4.9014 53.7798 4.90622 53.784C4.93897 53.813 4.97367 53.8386 5.00951 53.8617C5.01238 53.8635 5.01468 53.8659 5.01755 53.8678C5.02146 53.8702 5.0256 53.8718 5.0295 53.8741C5.058 53.8913 5.08706 53.9071 5.11694 53.9207C5.1213 53.9228 5.12555 53.9252 5.13003 53.9272C5.16381 53.9419 5.19817 53.9543 5.23321 53.9646C5.24114 53.9669 5.24918 53.9686 5.25722 53.9707C5.28445 53.9778 5.31203 53.9837 5.33972 53.9881C5.34983 53.9897 5.35994 53.9914 5.37005 53.9926C5.40475 53.9969 5.43967 53.9999 5.47472 53.9999C5.66096 53.9999 5.84617 53.9408 6.00104 53.8216C6.02299 53.8047 6.04424 53.7866 6.06481 53.7675L30.6133 30.793L36.72 50.2719L25.1093 39.4058C24.7618 39.0806 24.2165 39.0986 23.8914 39.4461C23.5662 39.7935 23.5842 40.3389 23.9317 40.6641L37.9329 53.7673C38.0969 53.9208 38.3087 53.9999 38.5219 53.9999C38.6801 53.9999 38.8391 53.9565 38.9802 53.8678C39.3116 53.6595 39.4611 53.254 39.344 52.8805L29.1642 20.409H41.6091V24.027C41.6091 24.5029 41.9949 24.8887 42.4708 24.8887C42.9467 24.8887 43.3325 24.5029 43.3325 24.027V19.5928C43.3333 19.5776 43.3348 19.5626 43.3348 19.5472C43.3348 19.5195 43.331 19.4926 43.3284 19.4654ZM16.8686 18.6856V14.1805H27.1294V18.6856H16.8686ZM28.8527 6.2285V2.17046L38.2868 6.22861H28.8527V6.2285ZM16.8686 1.7234H27.1294V6.2285H16.8686V1.7234ZM5.71105 6.2285L15.1452 2.17034V6.2285H5.71105ZM27.1293 7.9519V12.457H16.8685V7.9519H27.1293ZM15.1452 14.6275V18.6856H5.71105L15.1452 14.6275ZM13.3845 30.793L20.7379 37.6749L7.27786 50.2718L13.3845 30.793ZM30.0414 28.968L21.9989 36.4947L13.9566 28.968L16.6398 20.409H27.3582L30.0414 28.968ZM28.8527 18.6856V14.6275L38.2868 18.6856H28.8527Z" fill="white"/>
</svg>
