<svg width="54" height="54" viewBox="0 0 54 54" fill="none" xmlns="http://www.w3.org/2000/svg">
<path d="M22.8274 3.16406H9.86133C8.84366 3.16406 8.01562 3.9921 8.01562 5.00977V24.5585C8.01562 24.9955 8.36968 25.3495 8.80664 25.3495C9.2436 25.3495 9.59766 24.9955 9.59766 24.5585V5.00977C9.59766 4.86432 9.71589 4.74609 9.86133 4.74609H22.8274C23.2644 4.74609 23.6185 4.39204 23.6185 3.95508C23.6185 3.51812 23.2643 3.16406 22.8274 3.16406Z" fill="white"/>
<path d="M8.01562 34.0137C8.01562 35.0313 8.84366 35.8594 9.86133 35.8594H44.1387C45.1563 35.8594 45.9844 35.0313 45.9844 34.0137V5.00977C45.9844 3.9921 45.1563 3.16406 44.1387 3.16406H26.5189C26.0819 3.16406 25.7278 3.51812 25.7278 3.95508C25.7278 4.39204 26.0819 4.74609 26.5189 4.74609H44.1387C44.2841 4.74609 44.4023 4.86432 44.4023 5.00977V34.0137C44.4023 34.1591 44.2841 34.2773 44.1387 34.2773H9.86133C9.71589 34.2773 9.59766 34.1591 9.59766 34.0137V28.2499C9.59766 27.813 9.2436 27.4589 8.80664 27.4589C8.36968 27.4589 8.01562 27.813 8.01562 28.2499V34.0137Z" fill="white"/>
<path d="M53.209 52.418H35.9648C34.6564 52.418 33.5918 51.3534 33.5918 50.0449V39.0234H35.1738V49.7285C35.1738 50.3392 35.6706 50.8359 36.2812 50.8359H53.209C53.6459 50.8359 54 50.4819 54 50.0449C54 49.608 53.6459 49.2539 53.209 49.2539H36.7559V43.1367H41.3965C42.4142 43.1367 43.2422 42.3087 43.2422 41.291V39.0234H45.1934C47.3742 39.0234 49.1484 37.2492 49.1484 35.0684V19.5005C49.1484 19.0636 48.7944 18.7095 48.3574 18.7095C47.9205 18.7095 47.5664 19.0636 47.5664 19.5005V35.0684C47.5664 36.3768 46.5018 37.4414 45.1934 37.4414C41.647 37.4414 12.2924 37.4414 8.80664 37.4414C7.4982 37.4414 6.43359 36.3768 6.43359 35.0684V3.95508C6.43359 2.64663 7.4982 1.58203 8.80664 1.58203H45.1934C46.5018 1.58203 47.5664 2.64663 47.5664 3.95508V15.8091C47.5664 16.2461 47.9205 16.6001 48.3574 16.6001C48.7944 16.6001 49.1484 16.2461 49.1484 15.8091V3.95508C49.1484 1.7742 47.3742 0 45.1934 0H8.80664C6.62576 0 4.85156 1.7742 4.85156 3.95508V35.0684C4.85156 37.2492 6.62576 39.0234 8.80664 39.0234H10.7578V41.291C10.7578 42.3087 11.5858 43.1367 12.6035 43.1367H17.2441V49.2539H11.5488C11.1119 49.2539 10.7578 49.608 10.7578 50.0449C10.7578 50.4819 11.1119 50.8359 11.5488 50.8359H17.7188C18.3294 50.8359 18.8262 50.3392 18.8262 49.7285V39.0234H20.4082V50.0449C20.4082 51.3534 19.3436 52.418 18.0352 52.418H0.791016C0.354059 52.418 0 52.772 0 53.209C0 53.6459 0.354059 54 0.791016 54H18.0352C20.216 54 21.9902 52.2258 21.9902 50.0449V43.1367H24.627V53.209C24.627 53.6459 24.981 54 25.418 54C25.8549 54 26.209 53.6459 26.209 53.209V39.0234H27.791V53.209C27.791 53.6459 28.1451 54 28.582 54C29.019 54 29.373 53.6459 29.373 53.209V43.1367H32.0098V50.0449C32.0098 52.2258 33.784 54 35.9648 54H53.209C53.6459 54 54 53.6459 54 53.209C54 52.772 53.6459 52.418 53.209 52.418ZM41.6602 41.291C41.6602 41.4365 41.5419 41.5547 41.3965 41.5547H36.7559V39.0234H41.6602V41.291ZM17.2441 41.5547H12.6035C12.4581 41.5547 12.3398 41.4365 12.3398 41.291V39.0234H17.2441V41.5547ZM24.627 41.5547H21.9902V39.0234H24.627V41.5547ZM29.373 41.5547V39.0234H32.0098V41.5547H29.373Z" fill="white"/>
<path d="M0.791016 50.8359H7.85742C8.29438 50.8359 8.64844 50.4819 8.64844 50.0449C8.64844 49.608 8.29438 49.2539 7.85742 49.2539H0.791016C0.354059 49.2539 0 49.608 0 50.0449C0 50.4819 0.354059 50.8359 0.791016 50.8359Z" fill="white"/>
<path d="M22.5765 22.8832H24.7481L23.4063 25.9867C23.1716 26.5297 23.2255 27.1491 23.5504 27.6436C23.8754 28.138 24.4225 28.4331 25.0141 28.4331C25.5622 28.4331 26.086 28.1713 26.4149 27.7329L31.4694 20.9977C31.7845 20.578 31.8345 20.0258 31.5998 19.5563C31.3652 19.087 30.8936 18.7954 30.3688 18.7954H28.197L29.5387 15.6921C29.7736 15.149 29.7198 14.5296 29.395 14.0351C29.07 13.5407 28.5228 13.2456 27.9312 13.2456C27.3831 13.2456 26.8594 13.5073 26.5303 13.9457L21.4758 20.6809C21.1608 21.1006 21.1108 21.6528 21.3455 22.1223C21.5799 22.5916 22.0517 22.8832 22.5765 22.8832ZM27.7956 14.8953C27.8275 14.853 27.8781 14.8275 27.9312 14.8275C28.0068 14.8275 28.0499 14.8691 28.0728 14.9039C28.0957 14.9387 28.1167 14.9948 28.0867 15.0642L26.2673 19.2724C26.1615 19.5169 26.186 19.7981 26.3322 20.0208C26.4785 20.2434 26.7269 20.3774 26.9933 20.3774H29.9571L25.1496 26.7834C25.1178 26.8257 25.0673 26.8511 25.0142 26.8511C24.9386 26.8511 24.8954 26.8095 24.8726 26.7746C24.8497 26.7398 24.8286 26.6837 24.8585 26.6143L26.678 22.4061C26.7838 22.1616 26.7593 21.8804 26.613 21.6577C26.4667 21.4352 26.2183 21.3011 25.9519 21.3011H22.9883L27.7956 14.8953Z" fill="white"/>
<path d="M17.8582 31.3837H36.1417C39.1271 31.4602 41.0837 27.9825 39.5669 25.4511L30.4252 9.61724C28.8897 6.91556 24.9993 7.09042 23.5749 9.61724L14.4331 25.4512C12.8676 28.1439 14.9538 31.4079 17.8582 31.3837ZM15.8032 26.2421L24.9449 10.4082C25.7479 8.89805 28.1727 8.82117 29.0551 10.4082L38.1968 26.2421C39.0971 27.6787 37.9615 29.8363 36.1418 29.8016H17.8582C16.1473 29.8587 14.8762 27.8114 15.8032 26.2421Z" fill="white"/>
<path d="M14.502 15.293C14.9389 15.293 15.293 14.9389 15.293 14.502V12.8768C16.7441 12.5209 17.8242 11.2097 17.8242 9.65039C17.8242 7.8185 16.3338 6.32812 14.502 6.32812C12.6701 6.32812 11.1797 7.8185 11.1797 9.65039C11.1797 11.2097 12.2598 12.5208 13.7109 12.8768V14.502C13.7109 14.9389 14.065 15.293 14.502 15.293ZM12.7617 9.65039C12.7617 8.69084 13.5424 7.91016 14.502 7.91016C15.4615 7.91016 16.2422 8.69084 16.2422 9.65039C16.2422 10.6099 15.4615 11.3906 14.502 11.3906C13.5424 11.3906 12.7617 10.6099 12.7617 9.65039Z" fill="white"/>
</svg>
