<svg width="40" height="40" viewBox="0 0 40 40" fill="none" xmlns="http://www.w3.org/2000/svg">
<g clip-path="url(#clip0)">
<path d="M20.2174 14.1802H5.21867C4.89508 14.1802 4.63281 14.4425 4.63281 14.766C4.63281 15.0896 4.89508 15.3519 5.21867 15.3519H20.2175C20.5411 15.3519 20.8034 15.0896 20.8034 14.766C20.8034 14.4425 20.5411 14.1802 20.2174 14.1802Z" fill="#F28505"/>
<path d="M20.2174 18.297H5.21867C4.89508 18.297 4.63281 18.5593 4.63281 18.8829C4.63281 19.2064 4.89508 19.4687 5.21867 19.4687H20.2175C20.5411 19.4687 20.8034 19.2064 20.8034 18.8829C20.8034 18.5593 20.5411 18.297 20.2174 18.297Z" fill="#F28505"/>
<path d="M20.2174 22.4138H5.21867C4.89508 22.4138 4.63281 22.6762 4.63281 22.9997C4.63281 23.3232 4.89508 23.5855 5.21867 23.5855H20.2175C20.5411 23.5855 20.8034 23.3232 20.8034 22.9997C20.8034 22.6762 20.5411 22.4138 20.2174 22.4138Z" fill="#F28505"/>
<path d="M20.8034 27.1166C20.8034 26.793 20.5411 26.5308 20.2175 26.5308H5.21867C4.89508 26.5308 4.63281 26.7931 4.63281 27.1166C4.63281 27.4401 4.89508 27.7025 5.21867 27.7025H20.2175C20.5411 27.7025 20.8034 27.4402 20.8034 27.1166Z" fill="#F28505"/>
<path d="M5.21867 32.5641C4.89508 32.5641 4.63281 32.8264 4.63281 33.1499C4.63281 33.4735 4.89508 33.7358 5.21867 33.7358H12.7373C13.0609 33.7358 13.3231 33.4735 13.3231 33.1499C13.3231 32.8264 13.0609 32.5641 12.7373 32.5641H5.21867Z" fill="#F28505"/>
<path d="M26.9699 7.25408V5.35299C26.9699 4.62877 26.3808 4.03955 25.6565 4.03955H13.6278C12.9036 4.03955 12.3145 4.62877 12.3145 5.35299V7.25408C12.3145 7.9783 12.9036 8.56744 13.6278 8.56744H14.6436C14.9672 8.56744 15.2295 8.3051 15.2295 7.98158C15.2295 7.65799 14.9672 7.39572 14.6436 7.39572H13.6278C13.5498 7.39572 13.4862 7.33221 13.4862 7.25416V5.35299C13.4862 5.27494 13.5498 5.21135 13.6278 5.21135H25.6565C25.7346 5.21135 25.7981 5.27486 25.7981 5.35299V7.25408C25.7981 7.33213 25.7346 7.39564 25.6565 7.39564H17.3827C17.0591 7.39564 16.7968 7.65799 16.7968 7.9815C16.7968 8.3051 17.0591 8.56736 17.3827 8.56736H25.6566C26.3808 8.56752 26.9699 7.9783 26.9699 7.25408Z" fill="#F28505"/>
<path d="M31.3495 35.7262C31.0259 35.7262 30.7637 35.9886 30.7637 36.3121V37.1011C30.7637 38.0534 29.9889 38.8282 29.0365 38.8282H3.11758C2.16531 38.8282 1.39047 38.0534 1.39047 37.1011V8.93969C1.39047 8.81289 1.40531 8.68852 1.4318 8.5675H6.76641C7.88016 8.5675 8.78625 7.66141 8.78625 6.54766V1.21312C8.90727 1.18664 9.03156 1.1718 9.15836 1.1718H29.0364C29.9888 1.1718 30.7636 1.94656 30.7636 2.89891V10.6991C30.7636 11.0227 31.0259 11.2849 31.3495 11.2849C31.673 11.2849 31.9353 11.0226 31.9353 10.6991V2.89883C31.9354 1.30047 30.6349 0 29.0365 0H9.15844C8.38414 0 7.65609 0.301563 7.10859 0.849063L1.06773 6.88992C0.520234 7.43742 0.21875 8.16539 0.21875 8.93977V37.1012C0.21875 38.6996 1.51914 40 3.11758 40H29.0365C30.6349 40 31.9354 38.6995 31.9354 37.1012V36.3122C31.9354 35.9886 31.6731 35.7262 31.3495 35.7262ZM7.61453 2.00031V6.54766C7.61453 7.01531 7.23406 7.39578 6.76641 7.39578H2.21906L7.61453 2.00031Z" fill="#F28505"/>
<path d="M39.3751 20.9374C39.7864 20.3337 39.8928 19.5891 39.6671 18.8944C39.4414 18.1997 38.9175 17.6599 38.23 17.4133C37.7739 17.2497 37.4696 16.831 37.4551 16.3466C37.433 15.6165 37.0814 14.9515 36.4903 14.5221C35.8995 14.0928 35.1582 13.964 34.4573 14.1685C33.9918 14.3043 33.4999 14.1443 33.2033 13.7611C32.7564 13.1834 32.081 12.8521 31.3506 12.8521C30.6202 12.8521 29.9448 13.1834 29.4978 13.7611C29.2012 14.1444 28.7089 14.3042 28.2439 14.1685C27.5429 13.9638 26.8017 14.0928 26.2107 14.5221C25.6197 14.9515 25.2682 15.6164 25.2461 16.3465C25.2314 16.8309 24.9272 17.2496 24.4711 17.4132C23.7836 17.6598 23.2597 18.1997 23.0341 18.8943C22.8084 19.589 22.9148 20.3337 23.3261 20.9373C23.5989 21.3378 23.5989 21.8553 23.3261 22.2558C22.9148 22.8595 22.8084 23.6041 23.0341 24.2988C23.2597 24.9935 23.7836 25.5333 24.4711 25.7799C24.9272 25.9436 25.2315 26.3623 25.2461 26.8467C25.2664 27.5182 25.5742 28.1492 26.0906 28.5778C26.4313 28.8606 26.8406 29.0375 27.2689 29.0967V34.4309C27.2689 34.881 27.5131 35.297 27.906 35.5164C28.2984 35.7357 28.7808 35.726 29.1643 35.4898L31.3132 34.167C31.3482 34.1453 31.369 34.1551 31.3883 34.167L33.537 35.4898C33.9203 35.7257 34.4026 35.7359 34.7954 35.5163C35.1884 35.2968 35.4325 34.8808 35.4325 34.4308V29.0965C35.8607 29.0374 36.2699 28.8605 36.6107 28.5778C37.1271 28.1492 37.4349 27.5183 37.4553 26.8466C37.4699 26.3622 37.7742 25.9435 38.2303 25.7799C38.9178 25.5333 39.4417 24.9934 39.6673 24.2987C39.893 23.604 39.7866 22.8594 39.3753 22.2557C39.1022 21.8554 39.1022 21.3379 39.3751 20.9374ZM34.1511 34.492L32.0024 33.1692C31.6029 32.9233 31.0985 32.9229 30.6987 33.1692L28.55 34.4919C28.5011 34.5217 28.4407 34.4874 28.4407 34.4308V28.9854C28.8435 28.9388 29.2428 29.1027 29.4978 29.4321C29.9449 30.0098 30.6202 30.3411 31.3507 30.3411C32.081 30.3411 32.7564 30.0098 33.2033 29.4321C33.4583 29.1026 33.8578 28.9388 34.2605 28.9854V34.4308C34.2605 34.4878 34.1993 34.5217 34.1511 34.492ZM38.4067 22.9157C38.6124 23.2174 38.6655 23.5896 38.5527 23.9367C38.4399 24.2839 38.1781 24.5538 37.8344 24.6771C36.9217 25.0044 36.3132 25.8421 36.2839 26.8113C36.2735 27.152 36.1237 27.4591 35.8622 27.6761C35.5682 27.9201 35.1701 28.0121 34.7856 27.8999C33.8549 27.6284 32.87 27.9484 32.2765 28.7151C32.0532 29.0038 31.7156 29.1694 31.3505 29.1694C30.9855 29.1694 30.6479 29.0038 30.4244 28.7151C29.9714 28.1295 29.29 27.8045 28.5789 27.8045C28.3587 27.8045 28.1356 27.8356 27.9156 27.8999C27.5273 28.013 27.1303 27.9181 26.8387 27.676C26.5772 27.459 26.4275 27.1519 26.4172 26.8113C26.3879 25.8421 25.7793 25.0044 24.8665 24.677C24.5229 24.5537 24.2612 24.2839 24.1483 23.9367C24.0355 23.5896 24.0886 23.2174 24.2943 22.9156C24.8401 22.1143 24.8401 21.0789 24.2943 20.2776C24.0886 19.9759 24.0355 19.6037 24.1483 19.2564C24.2611 18.9092 24.5229 18.6394 24.8665 18.5162C25.7793 18.1888 26.3879 17.351 26.4172 16.3819C26.4282 16.017 26.6039 15.6846 26.8993 15.4701C27.1945 15.2555 27.5648 15.1911 27.9155 15.2933C28.846 15.5649 29.8311 15.2449 30.4244 14.4781C30.6478 14.1894 30.9853 14.0238 31.3505 14.0238C31.7156 14.0238 32.0531 14.1893 32.2765 14.4781C32.8699 15.2449 33.8546 15.5649 34.7855 15.2933C35.136 15.191 35.5063 15.2554 35.8017 15.47C36.0971 15.6846 36.2728 16.017 36.2838 16.3818C36.3132 17.351 36.9217 18.1888 37.8344 18.5161C38.1781 18.6393 38.4398 18.9092 38.5527 19.2563C38.6655 19.6035 38.6124 19.9758 38.4067 20.2774C37.8607 21.0788 37.8607 22.1144 38.4067 22.9157Z" fill="#F28505"/>
<path d="M31.3499 16.6862C28.6423 16.6862 26.4395 18.889 26.4395 21.5966C26.4395 24.3043 28.6423 26.5071 31.3499 26.5071C34.0575 26.5071 36.2603 24.3043 36.2603 21.5966C36.2603 18.889 34.0575 16.6862 31.3499 16.6862ZM31.3499 25.3354C29.2884 25.3354 27.6112 23.6582 27.6112 21.5967C27.6112 19.5352 29.2884 17.858 31.3499 17.858C33.4115 17.858 35.0886 19.5351 35.0886 21.5967C35.0886 23.6583 33.4114 25.3354 31.3499 25.3354Z" fill="#F28505"/>
</g>
<defs>
<clipPath id="clip0">
<rect width="40" height="40" fill="white"/>
</clipPath>
</defs>
</svg>
