<svg width="40" height="40" viewBox="0 0 40 40" fill="none" xmlns="http://www.w3.org/2000/svg">
<g clip-path="url(#clip0)">
<path d="M39.9267 9.48522C39.789 8.97326 39.4531 8.53681 38.9936 8.27221C38.5337 8.0063 37.9869 7.93437 37.474 8.07205C36.9617 8.21004 36.5253 8.5456 36.2607 9.00516L35.9274 9.58514C35.6107 9.4032 35.2062 9.51028 35.021 9.82533L33.3279 12.7112L32.7479 12.378C32.5943 12.2891 32.4114 12.265 32.2402 12.3112C32.0687 12.3578 31.9229 12.4704 31.8347 12.6247C31.654 12.9433 31.764 13.3482 32.0814 13.5311L32.6613 13.8644L26.9956 23.6827L25.5958 27.4223L24.9293 28.6685C24.539 29.3474 24.5807 30.1913 25.036 30.8283L23.5363 32.6678L23.1164 31.6149C22.927 31.1456 22.4886 30.824 21.9844 30.7847C21.48 30.7449 20.9967 30.9942 20.7366 31.4281L20.4967 31.8346L20.2702 29.1684C20.2181 28.5376 19.7296 28.0306 19.1015 27.9544C18.473 27.8786 17.878 28.2551 17.6772 28.8553L16.0375 33.7744C15.923 34.1223 16.1104 34.4972 16.4574 34.6144C16.5225 34.6447 16.5925 34.6629 16.6641 34.6675C16.9505 34.6684 17.2056 34.4858 17.2974 34.2144L18.9303 29.2953L19.1636 32.0012C19.2118 32.5786 19.6268 33.0587 20.1911 33.1895C20.7555 33.3204 21.3394 33.0717 21.6365 32.5747L21.8832 32.1679L22.2966 33.2146C22.472 33.6556 22.8687 33.9703 23.3384 34.0403C23.808 34.1103 24.2793 33.9251 24.5761 33.5544L26.1292 31.5882C26.3011 31.6331 26.4781 31.6556 26.6559 31.6549C27.3702 31.6605 28.0335 31.2842 28.3955 30.6681L29.062 29.555L31.6016 26.469L37.3272 16.5306L37.9072 16.8638C38.0618 16.9524 38.1744 17.0985 38.2203 17.2707C38.2665 17.4415 38.2424 17.6238 38.1539 17.7771L35.4877 22.3964C35.3871 22.5481 35.3529 22.7343 35.3933 22.912C35.4337 23.0893 35.5446 23.2426 35.7009 23.3361C35.8545 23.4252 36.0374 23.4493 36.2086 23.4031C36.3801 23.3566 36.5259 23.2439 36.6141 23.0897L39.2803 18.4703C39.5462 18.0105 39.6182 17.4637 39.4802 16.9507C39.3422 16.4385 39.0066 16.002 38.5471 15.7374L37.9671 15.4041L39.6335 12.5179C39.8154 12.2012 39.7083 11.797 39.3936 11.6115L39.7269 11.0315C39.9999 10.5645 40.0722 10.0066 39.9267 9.48522ZM37.4138 9.67171C37.502 9.51744 37.6484 9.4045 37.8206 9.35861C37.9918 9.3163 38.1728 9.34006 38.327 9.42533C38.4816 9.51353 38.5942 9.65999 38.6405 9.83184C38.6828 10.003 38.659 10.184 38.5737 10.3383L38.2405 10.9182L37.0805 10.2517L37.4138 9.67171ZM28.3287 28.2821L27.9955 28.0888L27.009 27.5154L27.9554 24.9826L30.055 26.1956L28.3287 28.2821ZM26.3291 30.2083C26.0476 30.012 25.961 29.6345 26.1292 29.335L26.4625 28.7554L27.6222 29.4219L27.2889 29.9951C27.1955 30.1572 27.0386 30.2724 26.856 30.3131C26.6734 30.3534 26.4824 30.3157 26.3291 30.2083ZM30.815 25.1027L28.5087 23.7696L33.8412 14.5309L36.1474 15.864L30.815 25.1027ZM36.814 14.7109L34.5077 13.3778L35.8408 11.0715L38.1471 12.4046L36.814 14.7109Z" fill="#F28505"/>
<path d="M10.519 29.875L8.15973 32.2281L6.74655 30.8149C6.48651 30.5565 6.06665 30.5565 5.80661 30.8149C5.68033 30.9402 5.60938 31.1105 5.60938 31.2882C5.60938 31.4659 5.68033 31.6364 5.80661 31.7614L7.21978 33.1745C7.46974 33.4226 7.80757 33.5615 8.15973 33.5612C8.51383 33.5632 8.8546 33.4242 9.10618 33.1745L11.459 30.8149C11.6855 30.5503 11.6702 30.1562 11.4241 29.9101C11.1778 29.6638 10.7836 29.6485 10.519 29.875Z" fill="#F28505"/>
<path d="M2.66602 31.668C2.66602 34.7973 5.20269 37.3337 8.33172 37.3337C11.4607 37.3337 13.9974 34.7973 13.9974 31.668C13.9974 31.2999 13.699 31.0014 13.3309 31.0014C12.9628 31.0014 12.6643 31.2999 12.6643 31.668C12.6643 34.0608 10.7245 36.0006 8.33172 36.0006C5.9389 36.0006 3.99912 34.0608 3.99912 31.668C3.99912 29.2751 5.9389 27.3354 8.33172 27.3354C9.26971 27.3328 10.1826 27.6371 10.9312 28.2021C11.2258 28.4231 11.6437 28.3632 11.8643 28.0686C12.0853 27.7741 12.0257 27.3565 11.7312 27.1355C10.0144 25.848 7.71724 25.641 5.79797 26.6005C3.87837 27.5603 2.66602 29.5222 2.66602 31.668Z" fill="#F28505"/>
<path d="M23.997 5.33909C24.3651 5.33909 24.6635 5.04096 24.6635 4.67253C24.6635 4.30443 24.3651 4.00598 23.997 4.00598H6.66655C6.29845 4.00598 6 4.30443 6 4.67253V7.33875C6 7.70717 6.29845 8.0053 6.66655 8.0053H23.997C24.3651 8.0053 24.6635 7.70717 24.6635 7.33875C24.6635 6.97065 24.3651 6.67219 23.997 6.67219H7.33311V5.33909H23.997Z" fill="#F28505"/>
<path d="M8.6646 9.33838C8.2965 9.33838 7.99805 9.63683 7.99805 10.0049C7.99805 10.3733 8.2965 10.6715 8.6646 10.6715H21.9956C22.3637 10.6715 22.6622 10.3733 22.6622 10.0049C22.6622 9.63683 22.3637 9.33838 21.9956 9.33838H8.6646Z" fill="#F28505"/>
<path d="M25.9948 14.0043H11.3306C10.9625 14.0043 10.6641 14.3027 10.6641 14.6708C10.6641 15.0393 10.9625 15.3374 11.3306 15.3374H25.9948C26.3629 15.3374 26.6613 15.0393 26.6613 14.6708C26.6613 14.3027 26.3629 14.0043 25.9948 14.0043Z" fill="#F28505"/>
<path d="M19.3302 18.6701C19.3302 18.302 19.0317 18.0035 18.6636 18.0035H5.33257C4.96447 18.0035 4.66602 18.302 4.66602 18.6701C4.66602 19.0385 4.96447 19.3367 5.33257 19.3367H18.6636C19.0317 19.3367 19.3302 19.0385 19.3302 18.6701Z" fill="#F28505"/>
<path d="M25.9945 18.0035H21.3287C20.9606 18.0035 20.6621 18.302 20.6621 18.6701C20.6621 19.0385 20.9606 19.3367 21.3287 19.3367H25.9945C26.3627 19.3367 26.6611 19.0385 26.6611 18.6701C26.6611 18.302 26.3627 18.0035 25.9945 18.0035Z" fill="#F28505"/>
<path d="M11.9981 22.6694C12.3662 22.6694 12.6647 22.3713 12.6647 22.0029C12.6647 21.6348 12.3662 21.3363 11.9981 21.3363H5.33257C4.96447 21.3363 4.66602 21.6348 4.66602 22.0029C4.66602 22.3713 4.96447 22.6694 5.33257 22.6694H11.9981Z" fill="#F28505"/>
<path d="M14.6646 22.6694H19.3305C19.6986 22.6694 19.997 22.3713 19.997 22.0029C19.997 21.6348 19.6986 21.3363 19.3305 21.3363H14.6646C14.2965 21.3363 13.998 21.6348 13.998 22.0029C13.998 22.3713 14.2965 22.6694 14.6646 22.6694Z" fill="#F28505"/>
<path d="M29.9949 30.6682C29.6268 30.6682 29.3283 30.9666 29.3283 31.3347V38.0002C29.3283 38.3687 29.0299 38.6668 28.6618 38.6668H1.99966C1.63156 38.6668 1.33311 38.3687 1.33311 38.0002V2.00637C1.33311 1.63827 1.63156 1.33982 1.99966 1.33982H28.6618C29.0299 1.33982 29.3283 1.63827 29.3283 2.00637V14.5244C29.3283 14.8925 29.6268 15.191 29.9949 15.191C30.363 15.191 30.6614 14.8925 30.6614 14.5244V2.00637C30.6614 0.902069 29.7661 0.00671387 28.6618 0.00671387H1.99966C0.895355 0.00671387 0 0.902069 0 2.00637V38.0002C0 39.1049 0.895355 39.9999 1.99966 39.9999H28.6618C29.7661 39.9999 30.6614 39.1049 30.6614 38.0002V31.3347C30.6614 30.9666 30.363 30.6682 29.9949 30.6682Z" fill="#F28505"/>
</g>
<defs>
<clipPath id="clip0">
<rect width="40" height="40" fill="white"/>
</clipPath>
</defs>
</svg>
