<svg width="40" height="40" viewBox="0 0 40 40" fill="none" xmlns="http://www.w3.org/2000/svg">
<path d="M0.835152 7.43406C6.325 12.0834 15.958 20.2629 18.7892 22.8133C19.1693 23.1575 19.5769 23.3325 20.0002 23.3325C20.4225 23.3325 20.8294 23.1591 21.2087 22.8166C24.0423 20.2637 33.6753 12.0834 39.1652 7.43406C39.507 7.14516 39.5591 6.63734 39.2824 6.28414C38.6427 5.46797 37.689 5 36.6668 5H3.33351C2.3114 5 1.35757 5.46797 0.717965 6.28422C0.441246 6.63734 0.493355 7.14516 0.835152 7.43406Z" fill="white"/>
<path d="M39.5166 9.95367C39.2212 9.81617 38.8737 9.86414 38.628 10.0741C32.5398 15.2352 24.7697 21.8507 22.325 24.0536C20.9529 25.2922 19.0486 25.2922 17.6733 24.0519C15.0675 21.7041 6.34188 14.2863 1.37203 10.0741C1.12461 9.86406 0.776328 9.81773 0.483359 9.95359C0.188828 10.0904 0 10.385 0 10.7097V31.6667C0 33.5052 1.49492 35.0001 3.33336 35.0001H36.6667C38.5051 35.0001 40 33.5052 40 31.6667V10.7097C40 10.385 39.8112 10.0896 39.5166 9.95367Z" fill="white"/>
</svg>
