<svg width="90" height="90" viewBox="0 0 90 90" fill="none" xmlns="http://www.w3.org/2000/svg">
<path d="M41.193 32.7557L32.7555 41.1932C32.5589 41.3899 32.425 41.6404 32.3708 41.9132C32.3165 42.1859 32.3444 42.4686 32.4508 42.7256C32.5572 42.9825 32.7374 43.2021 32.9686 43.3566C33.1998 43.5111 33.4716 43.5936 33.7497 43.5937H36.5622V70.3124H45.5L47.23 41.1932C47.23 40.8203 49.0703 40.0011 48.8066 39.7373C48.5429 39.4736 48.1852 39.3254 47.8122 39.3254H46.9881L42.1872 35.7384L47.23 40.7812H46.406C46.033 40.7812 45.6753 40.9293 45.4116 41.1931C45.1479 41.4568 44.9997 41.8145 44.9997 42.1874V70.3124H47.8122V43.5937H50.6247C50.9028 43.5936 51.1746 43.5111 51.4058 43.3566C51.637 43.2021 51.8172 42.9825 51.9236 42.7256C52.03 42.4686 52.0579 42.1859 52.0036 41.9132C51.9494 41.6404 51.8155 41.3899 51.6189 41.1932L43.1814 32.7557C42.9177 32.4921 42.5601 32.344 42.1872 32.344C41.8143 32.344 41.4567 32.4921 41.193 32.7557Z" fill="white"/>
<path d="M24.9002 45.412C24.6365 45.1483 24.2788 45.0002 23.906 45.0002C23.5331 45.0002 23.1754 45.1483 22.9117 45.412L14.4742 53.8495C14.2776 54.0461 14.1437 54.2967 14.0895 54.5694C14.0353 54.8422 14.0631 55.1249 14.1695 55.3818C14.2759 55.6387 14.4561 55.8583 14.6873 56.0129C14.9185 56.1674 15.1904 56.2499 15.4685 56.2499H18.281V70.3124H27.1303L29 54C29 53.627 30.3518 52.7068 30.0881 52.4431C29.8244 52.1794 29.4667 52.0312 29.0938 52.0312H28.2697L23.906 48.3946L28.9488 53.4374H28.1247C27.7517 53.4374 27.3941 53.5856 27.1303 53.8493C26.8666 54.113 26.7185 54.4707 26.7185 54.8437V70.3124H29.531V56.2499H32.3435C32.6215 56.2499 32.8934 56.1674 33.1246 56.0129C33.3558 55.8583 33.536 55.6387 33.6424 55.3818C33.7488 55.1249 33.7766 54.8422 33.7224 54.5694C33.6682 54.2967 33.5343 54.0461 33.3377 53.8495L24.9002 45.412Z" fill="white"/>
<path d="M14.0625 22.5H16.875V25.3125H14.0625V22.5Z" fill="white"/>
<path d="M19.6875 22.5H28.125V25.3125H19.6875V22.5Z" fill="white"/>
<path d="M14.0625 28.125H28.125V30.9375H14.0625V28.125Z" fill="white"/>
<path d="M14.0625 33.75H22.5V36.5625H14.0625V33.75Z" fill="white"/>
<path d="M25.3125 33.75H28.125V36.5625H25.3125V33.75Z" fill="white"/>
<path d="M81.4359 8.56406C81.1372 6.95023 80.2834 5.49173 79.0223 4.44129C77.7613 3.39084 76.1725 2.81463 74.5312 2.8125H9.84375C7.97895 2.8125 6.19052 3.55329 4.87191 4.87191C3.55329 6.19052 2.8125 7.97895 2.8125 9.84375V68.9062C2.81463 70.5475 3.39084 72.1363 4.44129 73.3973C5.49173 74.6584 6.95023 75.5122 8.56406 75.8109C8.86277 77.4248 9.71662 78.8833 10.9777 79.9337C12.2387 80.9842 13.8275 81.5604 15.4688 81.5625H55.9688L59.625 87.8906L62.0578 86.4844L56.8125 77.4C56.6274 77.0759 56.5769 76.6922 56.6719 76.3312C56.7694 75.9698 57.0062 75.6618 57.3304 75.4747C57.6547 75.2875 58.0398 75.2365 58.4016 75.3328C58.5795 75.3804 58.746 75.4635 58.891 75.577C59.036 75.6906 59.1565 75.8324 59.2453 75.9938L62.0578 80.8594C62.2159 81.1263 62.4561 81.3349 62.7425 81.454C63.0289 81.5731 63.3461 81.5964 63.6469 81.5203C63.9465 81.4396 64.2111 81.2621 64.3993 81.0154C64.5875 80.7686 64.6889 80.4666 64.6875 80.1562V63.2812C64.6875 62.9083 64.8357 62.5506 65.0994 62.2869C65.3631 62.0232 65.7208 61.875 66.0938 61.875C66.4667 61.875 66.8244 62.0232 67.0881 62.2869C67.3518 62.5506 67.5 62.9083 67.5 63.2812V75.9375C67.5 76.3105 67.6482 76.6681 67.9119 76.9319C68.1756 77.1956 68.5333 77.3438 68.9062 77.3438C69.2792 77.3438 69.6369 77.1956 69.9006 76.9319C70.1643 76.6681 70.3125 76.3105 70.3125 75.9375V71.7188C70.3369 71.3538 70.4929 71.0101 70.7515 70.7515C71.0101 70.4929 71.3538 70.3369 71.7188 70.3125C72.0917 70.3125 72.4494 70.4607 72.7131 70.7244C72.9768 70.9881 73.125 71.3458 73.125 71.7188V75.9375C73.125 76.3105 73.2732 76.6681 73.5369 76.9319C73.8006 77.1956 74.1583 77.3438 74.5312 77.3438C74.9042 77.3438 75.2619 77.1956 75.5256 76.9319C75.7893 76.6681 75.9375 76.3105 75.9375 75.9375V73.125C75.9375 72.752 76.0857 72.3944 76.3494 72.1306C76.6131 71.8669 76.9708 71.7188 77.3438 71.7188C77.7167 71.7188 78.0744 71.8669 78.3381 72.1306C78.6018 72.3944 78.75 72.752 78.75 73.125V77.3438C78.75 77.7167 78.8982 78.0744 79.1619 78.3381C79.4256 78.6018 79.7833 78.75 80.1562 78.75C80.5292 78.75 80.8869 78.6018 81.1506 78.3381C81.4143 78.0744 81.5625 77.7167 81.5625 77.3438V74.5312C81.5625 74.1583 81.7107 73.8006 81.9744 73.5369C82.2381 73.2732 82.5958 73.125 82.9688 73.125C83.3417 73.125 83.6994 73.2732 83.9631 73.5369C84.2268 73.8006 84.375 74.1583 84.375 74.5312V87.1875H87.1875V15.4688C87.1854 13.8275 86.6092 12.2387 85.5587 10.9777C84.5083 9.71662 83.0498 8.86277 81.4359 8.56406ZM15.4688 78.75C14.5988 78.7455 13.7514 78.4731 13.0419 77.9699C12.3323 77.4666 11.795 76.757 11.5031 75.9375H53.9016C53.7159 76.8987 53.8753 77.8947 54.3516 78.75H15.4688ZM78.75 68.9062C78.75 68.9906 78.7219 69.075 78.7219 69.1734C78.2814 69.0052 77.8151 68.9148 77.3438 68.9062C76.6185 68.9042 75.9054 69.0934 75.2766 69.4547C74.8958 68.856 74.3701 68.363 73.7482 68.0213C73.1263 67.6796 72.4283 67.5003 71.7188 67.5C71.2377 67.503 70.7612 67.5936 70.3125 67.7672V63.2812C70.3092 62.1634 69.8636 61.0923 69.0732 60.3018C68.2827 59.5114 67.2116 59.0658 66.0938 59.0625V32.3438H68.9062C69.1844 32.3448 69.4565 32.2623 69.6872 32.1068C69.9179 31.9513 70.0966 31.7301 70.2 31.4719C70.3077 31.2158 70.3371 30.9335 70.2846 30.6607C70.232 30.3879 70.0998 30.1368 69.9047 29.9391L61.4672 21.5016C61.2017 21.2381 60.8428 21.0903 60.4688 21.0903C60.0947 21.0903 59.7358 21.2381 59.4703 21.5016L51.0328 29.9391C50.8377 30.1368 50.7055 30.3879 50.6529 30.6607C50.6004 30.9335 50.6298 31.2158 50.7375 31.4719C50.8409 31.7301 51.0196 31.9513 51.2503 32.1068C51.481 32.2623 51.7531 32.3448 52.0312 32.3438H54.8438V70.3125H57.6562V30.9375C57.6562 30.5645 57.5081 30.2069 57.2444 29.9431C56.9806 29.6794 56.623 29.5312 56.25 29.5312H55.4203L60.4688 24.4828L65.5172 29.5312H64.6875C64.3145 29.5312 63.9569 29.6794 63.6931 29.9431C63.4294 30.2069 63.2812 30.5645 63.2812 30.9375V60.1594C62.8407 60.5518 62.4878 61.0326 62.2455 61.5705C62.0032 62.1084 61.8769 62.6913 61.875 63.2812V73.125H60.2578C59.9028 72.9055 59.5196 72.7352 59.1188 72.6188C58.5854 72.4732 58.0283 72.4356 57.4801 72.508C56.932 72.5805 56.4039 72.7616 55.9266 73.0406L55.8 73.125H9.84375C8.72589 73.1217 7.65478 72.6761 6.86433 71.8857C6.07388 71.0952 5.62834 70.0241 5.625 68.9062V16.875H78.75V68.9062ZM78.75 14.0625H5.625V9.84375C5.62834 8.72589 6.07388 7.65478 6.86433 6.86433C7.65478 6.07388 8.72589 5.62834 9.84375 5.625H74.5312C75.6491 5.62834 76.7202 6.07388 77.5107 6.86433C78.3011 7.65478 78.7467 8.72589 78.75 9.84375V14.0625ZM84.375 70.5656C83.8843 70.381 83.3618 70.2959 82.8379 70.3152C82.314 70.3345 81.7992 70.4579 81.3234 70.6781C81.4806 70.1006 81.561 69.5048 81.5625 68.9062V11.5031C82.382 11.795 83.0916 12.3323 83.5949 13.0419C84.0981 13.7514 84.3705 14.5988 84.375 15.4688V70.5656Z" fill="white"/>
<path d="M8.4375 8.4375H11.25V11.25H8.4375V8.4375Z" fill="white"/>
<path d="M14.0625 8.4375H16.875V11.25H14.0625V8.4375Z" fill="white"/>
<path d="M19.6875 8.4375H22.5V11.25H19.6875V8.4375Z" fill="white"/>
</svg>
