<svg width="90" height="90" viewBox="0 0 90 90" fill="none" xmlns="http://www.w3.org/2000/svg">
<g clip-path="url(#clip0)">
<path d="M1.75781 82.9688H4.76068V42.3523C4.76068 41.3815 5.54765 40.5945 6.51849 40.5945H19.1747C20.1456 40.5945 20.9326 41.3815 20.9326 42.3523V82.9688H26.1962V58.3009C26.1962 57.3301 26.9831 56.5431 27.954 56.5431H40.6102C41.5811 56.5431 42.368 57.3301 42.368 58.3009V82.9688H47.6316V71.4495C47.6316 70.4787 48.4186 69.6917 49.3894 69.6917C50.3603 69.6917 51.1472 70.4787 51.1472 71.4495V82.9688H60.2879V44.1101H51.1472V72.5C51.1472 73.4708 50.3603 74.2578 49.3894 74.2578C48.4186 74.2578 47.6316 73.4708 47.6316 72.5V42.3523C47.6316 41.3815 48.4186 40.5945 49.3894 40.5945H62.0457C63.0165 40.5945 63.8035 41.3815 63.8035 42.3523V82.9688H69.0671V58.3009C69.0671 57.3301 69.8541 56.5431 70.8249 56.5431H83.4812C84.452 56.5431 85.239 57.3301 85.239 58.3009V82.9688H88.2422C89.213 82.9688 90 83.7558 90 84.7267C90 85.6975 89.213 86.4845 88.2422 86.4845H1.75781C0.786972 86.4845 0 85.6975 0 84.7267C0 83.7558 0.786972 82.9688 1.75781 82.9688ZM81.7237 82.9688V60.0587H72.5831V82.9688H81.7237ZM38.8526 82.9688V60.0587H29.712V82.9688H38.8526ZM17.4169 82.9688V44.1101H8.27631V82.9688H17.4169Z" fill="white"/>
<path d="M77.1535 41.123C72.695 41.123 69.0676 37.4955 69.0676 33.037C69.0676 31.4441 69.5325 29.9586 70.3311 28.7053L60.0496 18.424C58.7965 19.2226 57.3108 19.6875 55.7179 19.6875C54.1249 19.6875 52.6394 19.2226 51.3862 18.4242L41.103 28.7074C41.9027 29.9612 42.3683 31.4478 42.3683 33.042C42.3683 37.5005 38.7409 41.1279 34.2824 41.1279C29.8239 41.1279 26.1964 37.5005 26.1964 33.042C26.1964 31.4478 26.6621 29.9612 27.4617 28.7074L17.1785 18.4242C15.9254 19.2227 14.4398 19.6875 12.8469 19.6875C8.3884 19.6875 4.76098 16.0601 4.76098 11.6016C4.76098 7.14305 8.3884 3.51562 12.8469 3.51562C17.3054 3.51562 20.9329 7.14305 20.9329 11.6016C20.9329 13.1971 20.4665 14.6848 19.6656 15.9393L29.9478 26.2215C31.2016 25.4218 32.6882 24.9562 34.2824 24.9562C35.8765 24.9562 37.3631 25.4218 38.617 26.2215L48.8991 15.9393C48.0983 14.6849 47.6319 13.1971 47.6319 11.6017C47.6319 7.14322 51.2593 3.5158 55.7179 3.5158C60.1764 3.5158 63.8038 7.14322 63.8038 11.6017C63.8038 13.1971 63.3374 14.6849 62.5366 15.9393L72.8157 26.2183C74.0703 25.4174 75.5579 24.9511 77.1533 24.9511C81.6118 24.9511 85.2393 28.5785 85.2393 33.037C85.2393 37.4955 81.612 41.123 77.1535 41.123ZM16.5 12C13.98 12 8.27643 9.08156 8.27643 11.6016C8.27643 14.1216 5.75643 8.5 8.27643 8.5C10.7964 8.5 6 13.52 6 11C6 8.48 19.0202 12 16.5 12ZM33 38.5C33 41.02 31.7624 37.6123 34.2824 37.6123C36.8024 37.6123 31 38.02 31 35.5C31 32.98 36.8024 39 34.2824 39C31.7624 39 33 35.98 33 38.5ZM55.7179 7.03125C53.1979 7.03125 51.1475 15.9393 51.1475 11.6016C51.1475 14.1216 53.48 5 56 5C58.52 5 60.2882 14.1216 60.2882 11.6016C60.0496 16.5 58.238 7.03125 55.7179 7.03125ZM77.1535 39.5C74.6335 39.5 71 35 72.5832 33.037C72.5832 35.557 74.6335 37.6073 77.1535 37.6073C79.6735 37.6073 81.7238 35.557 81.7238 33.037C84.6771 36 79.6735 39.5 77.1535 39.5Z" fill="white"/>
<path d="M49.3896 61.7819C49.852 61.7819 50.3055 61.9699 50.6324 62.2969C50.9594 62.6239 51.1475 63.0756 51.1475 63.5397C51.1475 64.002 50.9594 64.4555 50.6324 64.7824C50.3055 65.1094 49.852 65.2975 49.3896 65.2975C48.9273 65.2975 48.4738 65.1094 48.1469 64.7824C47.8199 64.4555 47.6318 64.002 47.6318 63.5397C47.6318 63.0774 47.8199 62.6239 48.1469 62.2969C48.4738 61.9699 48.9273 61.7819 49.3896 61.7819Z" fill="white"/>
</g>
<defs>
<clipPath id="clip0">
<rect width="90" height="90" fill="white" transform="matrix(-1 0 0 1 90 0)"/>
</clipPath>
</defs>
</svg>
