<svg width="90" height="90" viewBox="0 0 90 90" fill="none" xmlns="http://www.w3.org/2000/svg">
<path d="M82.7454 0.737671H5.90164C2.64225 0.737671 0 3.37992 0 6.63931V55.3278C0 57.7724 1.98169 59.7541 4.42623 59.7541H21.8582C24.0823 66.5364 29.2621 71.9441 35.9424 74.4581C42.6227 76.972 50.0827 76.3208 56.2264 72.6875L71.0705 87.5316C73.3753 89.8364 77.1121 89.8364 79.4169 87.5316C81.7217 85.2268 81.7217 81.49 79.4169 79.1852L64.5728 64.3396C65.4283 62.8904 66.1248 61.3529 66.6502 59.7541H84.0984C86.5429 59.7541 88.5246 57.7724 88.5246 55.3278V14.6065C88.6943 14.2141 88.647 14.6626 88.647 6.63931C88.647 3.37992 86.0048 0.737671 82.7454 0.737671ZM29.6469 66.9836C21.5809 58.9168 21.5814 45.8387 29.6479 37.7724C37.7144 29.7062 50.7925 29.7062 58.859 37.7724C66.9255 45.8387 66.926 58.9168 58.86 66.9836C50.7862 75.0341 37.7207 75.0341 29.6469 66.9836ZM66.1633 78.4564L58.7213 71.0055C60.2966 69.8145 61.6998 68.4114 62.8908 66.836L70.3357 74.2824C71.454 75.4403 71.438 77.2807 70.2998 78.4189C69.1616 79.5572 67.3211 79.5732 66.1633 78.4549V78.4564ZM77.3307 85.4513C76.7772 86.0049 76.0265 86.316 75.2437 86.316C74.4609 86.316 77.8841 87.5535 77.3307 86.9999L79 82.9999C81.0578 82.4905 78.9907 83.5577 79.5 81.4999L77.3307 81.2773C78.4797 82.4291 78.4797 84.2936 77.3307 85.4454V85.4513ZM85.5738 55.3278C85.5738 56.1427 84.9132 56.8032 84.0984 56.8032H67.4262C69.2349 47.4583 65.2543 37.9414 57.331 32.6669C49.4077 27.3925 39.0918 27.3925 31.1685 32.6669C23.2452 37.9414 19.2647 47.4583 21.0733 56.8032H4.42623C3.61138 56.8032 2.95082 56.1427 2.95082 55.3278V6.63931C2.95082 5.00962 4.27195 3.68849 5.90164 3.68849H82.7454C84.3751 3.68849 85.6962 5.00962 85.6962 6.63931V13.4262C85.5177 13.8437 85.5738 10.7468 85.5738 55.3278Z" fill="white"/>
<path d="M66.9508 9.5901C67.7657 9.5901 68.4262 8.92954 68.4262 8.11469C68.4262 7.29985 67.7657 6.63928 66.9508 6.63928H65.4754C64.6606 6.63928 64 7.29985 64 8.11469C64 8.92954 64.6606 9.5901 65.4754 9.5901H66.9508Z" fill="white"/>
<path d="M72.8524 9.5901H74.3278C75.1426 9.5901 75.8032 8.92954 75.8032 8.11469C75.8032 7.29985 75.1426 6.63928 74.3278 6.63928H72.8524C72.0375 6.63928 71.377 7.29985 71.377 8.11469C71.377 8.92954 72.0375 9.5901 72.8524 9.5901Z" fill="white"/>
<path d="M80.2303 9.5901H81.7057C82.5205 9.5901 83.1811 8.92954 83.1811 8.11469C83.1811 7.29985 82.5205 6.63928 81.7057 6.63928H80.2303C79.4154 6.63928 78.7549 7.29985 78.7549 8.11469C78.7549 8.92954 79.4154 9.5901 80.2303 9.5901Z" fill="white"/>
<path d="M13.8999 6.99989C15.6809 7.00107 17.3662 7.80649 18.4858 9.19158C19.6053 10.5767 20.0396 12.3933 19.6673 14.135L30.1295 19.3668C31.3225 17.981 33.0937 17.2311 34.9191 17.3391C36.7445 17.447 38.415 18.4004 39.4363 19.9171L49.6521 16.2787C48.7804 13.7542 49.7183 10.9593 51.9364 9.47165C54.1544 7.98401 57.0963 8.17687 59.1011 9.94136C61.106 11.7058 61.671 14.5993 60.4772 16.9884L73.9978 28.7032C76.4361 26.9956 79.7638 27.3677 81.7646 29.5718C83.7654 31.7758 83.8149 35.1239 81.8801 37.3861C79.9453 39.6483 76.6301 40.1187 74.1424 38.4839C71.6547 36.8491 70.771 33.6194 72.0798 30.9458L58.5591 19.231C56.3478 20.7738 53.3665 20.5968 51.3532 18.8032L40.4042 22.7027C40.6154 25.0112 39.4521 27.2288 37.4328 28.3672C35.4134 29.5056 32.9139 29.3529 31.0481 27.9771C29.1823 26.6013 28.2976 24.2586 28.7883 21.993L18.3262 16.7641C16.5393 18.81 13.585 19.3686 11.1746 18.1162C8.7642 16.8639 7.52286 14.1255 8.16965 11.4873C8.81645 8.84905 11.1836 6.99534 13.8999 6.99989ZM77.3426 36.5081C78.9723 36.5081 76.5 33.6296 76.5 31.9999C76.5 30.3702 78.9723 37.3861 77.3426 37.3861C75.7129 37.3861 78 30.8702 78 32.4999C78 34.1296 75.7129 36.5081 77.3426 36.5081ZM55.2114 16.2787C55.2114 14.649 56.8411 18.4999 55.2114 18.4999C53.5817 18.4999 55.2114 14.649 55.2114 16.2787C55.2114 17.9084 53.5817 17.3278 55.2114 17.3278C56.8411 17.3278 55.2114 17.9084 55.2114 16.2787ZM34.5557 26.1802C36.1854 26.1802 35 27.1296 35 25.4999C35 23.8702 36.6297 26.9999 35 26.9999C33.3703 26.9999 35.7226 24.5505 35.7226 26.1802C35.7226 27.8099 32.926 26.1802 34.5557 26.1802ZM13.5 8.49988C15.1297 8.49988 12 12.1296 12 10.4999C12 8.87019 15.5296 9.95071 13.8999 9.95071C12.2703 9.95071 15 13.8702 15 15.4999C15 16.2825 11.26 14.4347 11.8134 14.9881C12.3668 15.5415 12.7174 8.49988 13.5 8.49988Z" fill="white"/>
<path d="M56.7715 39.8493C51.708 34.7855 44.0927 33.2705 37.4767 36.0108C30.8607 38.7511 26.5469 45.2071 26.5469 52.3682C26.5469 59.5292 30.8607 65.9852 37.4767 68.7255C44.0927 71.4658 51.708 69.9508 56.7715 64.887C63.6737 57.9682 63.6737 46.7681 56.7715 39.8493ZM54.6852 62.8008C50.4656 67.0205 44.1196 68.2828 38.6063 65.9992C33.0931 63.7156 29.4983 58.3357 29.4983 52.3682C29.4983 46.4007 33.0931 41.0208 38.6063 38.7371C44.1196 36.4535 50.4656 37.7158 54.6852 41.9355C60.438 47.7011 60.438 57.0353 54.6852 62.8008Z" fill="white"/>
<path d="M48.6793 47.942C48.6793 48.7568 49.3398 49.4174 50.1547 49.4174C52.9786 49.4174 51.8529 43.1587 45.7284 42.1599C45.7284 41.345 45.0679 40.6844 44.253 40.6844C43.4382 40.6844 42.7776 41.345 42.7776 42.1599C39.4152 42.7087 36.876 45.0915 36.876 47.942C36.876 50.7925 39.4152 53.1767 42.7776 53.7241V59.5579C41.0809 59.1404 39.8268 58.05 39.8268 56.7945C39.8268 55.9796 39.1662 55.319 38.3514 55.319C35.5275 55.319 36.6547 61.5777 42.7776 62.5766C42.7776 63.3914 43.4382 64.052 44.253 64.052C45.0679 64.052 45.7284 63.3914 45.7284 62.5766C49.0909 62.0292 51.6301 59.6449 51.6301 56.7945C51.6301 53.944 49.0909 51.5612 45.7284 51.0123V45.1785C47.4252 45.5902 48.6793 46.6879 48.6793 47.942ZM42.7776 45.1785V50.7054C38.8575 49.742 38.8575 46.142 42.7776 45.1785ZM45.7284 59.5579V54.031C49.6486 54.9945 49.6486 58.5945 45.7284 59.5579Z" fill="white"/>
</svg>
