<svg width="90" height="90" viewBox="0 0 90 90" fill="none" xmlns="http://www.w3.org/2000/svg">
<path d="M82.9688 22.5001H81.1424C82.7741 20.68 83.8439 18.4263 84.2224 16.0113C84.6009 13.5964 84.2719 11.1235 83.2753 8.89143C82.2786 6.6594 80.6569 4.76374 78.6061 3.4335C76.5553 2.10327 74.1632 1.39539 71.7188 1.39539C69.2743 1.39539 66.8822 2.10327 64.8314 3.4335C62.7806 4.76374 61.1589 6.6594 60.1622 8.89143C59.1656 11.1235 58.8366 13.5964 59.2151 16.0113C59.5936 18.4263 60.6634 20.68 62.2951 22.5001H45V8.43756C45 8.0646 44.8518 7.70691 44.5881 7.44319C44.3244 7.17946 43.9667 7.03131 43.5938 7.03131H37.9688C37.5958 7.03131 37.2381 7.17946 36.9744 7.44319C36.7107 7.70691 36.5625 8.0646 36.5625 8.43756V22.5001H35.1562V2.81256C35.1562 2.4396 35.0081 2.08191 34.7444 1.81819C34.4806 1.55446 34.123 1.40631 33.75 1.40631H28.125C27.752 1.40631 27.3944 1.55446 27.1306 1.81819C26.8669 2.08191 26.7188 2.4396 26.7188 2.81256V22.5001H25.3125V12.6563C25.3125 12.2833 25.1643 11.9257 24.9006 11.6619C24.6369 11.3982 24.2792 11.2501 23.9062 11.2501H18.2812C17.9083 11.2501 17.5506 11.3982 17.2869 11.6619C17.0232 11.9257 16.875 12.2833 16.875 12.6563V22.5001H7.03125C5.53992 22.5017 4.11015 23.0949 3.05562 24.1494C2.00109 25.204 1.40792 26.6337 1.40625 28.1251V70.3126C1.40792 71.8039 2.00109 73.2337 3.05562 74.2882C4.11015 75.3427 5.53992 75.9359 7.03125 75.9376H36.0176L34.142 81.5626H29.5312C29.1583 81.5626 28.8006 81.7107 28.5369 81.9744C28.2732 82.2382 28.125 82.5958 28.125 82.9688V85.7813H14.0625C13.6895 85.7813 13.3319 85.9295 13.0681 86.1932C12.8044 86.4569 12.6562 86.8146 12.6562 87.1876C12.6562 87.5605 12.8044 87.9182 13.0681 88.1819C13.3319 88.4456 13.6895 88.5938 14.0625 88.5938H75.9375C76.3105 88.5938 76.6681 88.4456 76.9319 88.1819C77.1956 87.9182 77.3438 87.5605 77.3438 87.1876C77.3438 86.8146 77.1956 86.4569 76.9319 86.1932C76.6681 85.9295 76.3105 85.7813 75.9375 85.7813H61.875V82.9688C61.875 82.5958 61.7268 82.2382 61.4631 81.9744C61.1994 81.7107 60.8417 81.5626 60.4688 81.5626H55.858L53.9824 75.9376H82.9688C84.4601 75.9359 85.8898 75.3427 86.9444 74.2882C87.9989 73.2337 88.5921 71.8039 88.5938 70.3126V28.1251C88.5921 26.6337 87.9989 25.204 86.9444 24.1494C85.8898 23.0949 84.4601 22.5017 82.9688 22.5001ZM82 13C84.1017 13.3067 79.4352 8.89143 78.6751 7.10623C74 10 81.1539 10.5546 81.4605 12.6563H73.125L82 13ZM72.3006 15.4688H81.4605C81.2177 17.1586 80.5392 18.7561 79.4919 20.1042C78.4445 21.4524 77.0644 22.5047 75.4871 23.1579C73.9099 23.811 72.1898 24.0424 70.496 23.8294C68.8022 23.6164 67.193 22.9662 65.8266 21.9428L72.3006 15.4688ZM61.875 14.0626C61.8784 11.6965 62.7325 9.41059 64.2816 7.62211C65.8306 5.83363 67.9712 4.66187 70.3125 4.32076V13.4807L63.8385 19.9547C62.562 18.2558 61.8728 16.1876 61.875 14.0626ZM39.375 9.84381H42.1875V36.5626H39.375V9.84381ZM35.1562 25.3126H36.5625V36.5626H35.1562V25.3126ZM29.5312 4.21881H32.3438V36.5626H29.5312V4.21881ZM25.3125 25.3126H26.7188V36.5626H25.3125V25.3126ZM19.6875 14.0626H22.5V36.5626H19.6875V14.0626ZM59.0625 84.3751V85.7813H30.9375V84.3751H59.0625ZM37.1074 81.5626L38.983 75.9376H51.017L52.8926 81.5626H37.1074ZM85.7812 70.3126C85.7803 71.0582 85.4837 71.773 84.9564 72.3002C84.4292 72.8275 83.7144 73.1241 82.9688 73.1251H7.03125C6.28563 73.1241 5.57083 72.8275 5.04359 72.3002C4.51636 71.773 4.21973 71.0582 4.21875 70.3126V67.5001H85.7812V70.3126ZM85.7812 64.6876H4.21875V28.1251C4.21973 27.3794 4.51636 26.6646 5.04359 26.1374C5.57083 25.6102 6.28563 25.3135 7.03125 25.3126H16.875V36.5626H15.4688V28.1251C15.4688 27.7521 15.3206 27.3944 15.0569 27.1307C14.7931 26.867 14.4355 26.7188 14.0625 26.7188H8.4375C8.06454 26.7188 7.70685 26.867 7.44313 27.1307C7.17941 27.3944 7.03125 27.7521 7.03125 28.1251V37.9688C7.03125 38.3418 7.17941 38.6995 7.44313 38.9632C7.70685 39.2269 8.06454 39.3751 8.4375 39.3751H53.4375C53.8105 39.3751 54.1681 39.2269 54.4319 38.9632C54.6956 38.6995 54.8438 38.3418 54.8438 37.9688V28.1251C54.8438 27.7521 54.6956 27.3944 54.4319 27.1307C54.1681 26.867 53.8105 26.7188 53.4375 26.7188H47.8125C47.4395 26.7188 47.0819 26.867 46.8181 27.1307C46.5544 27.3944 46.4062 27.7521 46.4062 28.1251V36.5626H45V25.3126H65.932C67.721 26.2366 69.7052 26.7188 71.7188 26.7188C73.7323 26.7188 75.7165 26.2366 77.5055 25.3126H82.9688C83.7144 25.3135 84.4292 25.6102 84.9564 26.1374C85.4837 26.6646 85.7803 27.3794 85.7812 28.1251V64.6876ZM12.6562 29.5313V36.5626H9.84375V29.5313H12.6562ZM49.2188 36.5626V29.5313H52.0312V36.5626H49.2188Z" fill="white"/>
<path d="M16.875 68.9062H8.4375C8.06454 68.9062 7.70685 69.0544 7.44313 69.3181C7.17941 69.5819 7.03125 69.9395 7.03125 70.3125C7.03125 70.6855 7.17941 71.0431 7.44313 71.3069C7.70685 71.5706 8.06454 71.7188 8.4375 71.7188H16.875C17.248 71.7188 17.6056 71.5706 17.8694 71.3069C18.1331 71.0431 18.2812 70.6855 18.2812 70.3125C18.2812 69.9395 18.1331 69.5819 17.8694 69.3181C17.6056 69.0544 17.248 68.9062 16.875 68.9062Z" fill="white"/>
<path d="M22.5 68.9062H21.0938C20.7208 68.9062 20.3631 69.0544 20.0994 69.3181C19.8357 69.5819 19.6875 69.9395 19.6875 70.3125C19.6875 70.6855 19.8357 71.0431 20.0994 71.3069C20.3631 71.5706 20.7208 71.7188 21.0938 71.7188H22.5C22.873 71.7188 23.2306 71.5706 23.4944 71.3069C23.7581 71.0431 23.9062 70.6855 23.9062 70.3125C23.9062 69.9395 23.7581 69.5819 23.4944 69.3181C23.2306 69.0544 22.873 68.9062 22.5 68.9062Z" fill="white"/>
<path d="M60.4688 36.5625C60.6535 36.5628 60.8365 36.5265 61.0071 36.4558C61.1778 36.3851 61.3328 36.2814 61.4632 36.1507L66.6762 30.9375H78.75C79.123 30.9375 79.4807 30.7893 79.7444 30.5256C80.0081 30.2619 80.1563 29.9042 80.1563 29.5313C80.1563 29.1583 80.0081 28.8006 79.7444 28.5369C79.4807 28.2732 79.123 28.125 78.75 28.125H66.0938C65.9091 28.125 65.7263 28.1614 65.5556 28.232C65.385 28.3027 65.23 28.4063 65.0994 28.5369L59.4744 34.1619C59.2777 34.3585 59.1438 34.6091 59.0895 34.8819C59.0353 35.1547 59.0631 35.4374 59.1695 35.6944C59.276 35.9514 59.4562 36.171 59.6875 36.3255C59.9188 36.48 60.1907 36.5625 60.4688 36.5625Z" fill="white"/>
<path d="M78.75 52.0314C78.011 52.0319 77.2851 52.2265 76.645 52.5958C76.0049 52.9651 75.473 53.496 75.1026 54.1355L60.3809 45.5468C60.1814 44.5885 59.655 43.7293 58.8917 43.1166C58.1283 42.5038 57.1757 42.1755 56.1969 42.188C55.2181 42.2004 54.2742 42.5529 53.5267 43.1849C52.7792 43.8169 52.2748 44.6892 52.0998 45.6523L37.285 56.7634C36.882 56.1427 36.3226 55.6391 35.6632 55.3032C35.0039 54.9673 34.2677 54.8109 33.5286 54.8497C32.7896 54.8885 32.0739 55.1213 31.4533 55.5245C30.8328 55.9277 30.3293 56.4871 29.9936 57.1466L15.351 51.0452C15.12 50.0819 14.5575 49.2306 13.7619 48.6402C12.9664 48.0499 11.9886 47.7582 10.9997 47.8163C10.0107 47.8743 9.07373 48.2783 8.3527 48.9577C7.63168 49.637 7.17259 50.5483 7.05581 51.532C6.93902 52.5157 7.17199 53.5092 7.71392 54.3384C8.25586 55.1677 9.07221 55.7798 10.0201 56.0678C10.9679 56.3558 11.9869 56.3011 12.8985 55.9135C13.8101 55.5258 14.5563 54.8298 15.0065 53.9474L29.6491 60.0487C29.8751 60.9896 30.4178 61.8241 31.1861 62.4123C31.9544 63.0005 32.9015 63.3067 33.8688 63.2795C34.836 63.2523 35.7644 62.8934 36.4985 62.2629C37.2325 61.6324 37.7274 60.7688 37.9002 59.8167L52.7151 48.7056C53.1075 49.3102 53.6485 49.804 54.2863 50.1399C54.9241 50.4757 55.6374 50.6423 56.3579 50.6238C57.0785 50.6053 57.7823 50.4022 58.402 50.0341C59.0217 49.6659 59.5366 49.145 59.8975 48.521L74.6192 57.1097C74.7817 57.8905 75.1622 58.6092 75.7165 59.1826C76.2709 59.756 76.9765 60.1604 77.7514 60.3491C78.5262 60.5378 79.3388 60.503 80.0947 60.2486C80.8506 59.9943 81.5189 59.531 82.0222 58.9123C82.5254 58.2936 82.843 57.5449 82.9381 56.753C83.0332 55.9612 82.9018 55.1586 82.5593 54.4384C82.2168 53.7181 81.6772 53.1097 81.003 52.6837C80.3287 52.2577 79.5476 52.0315 78.75 52.0314ZM10.0201 51.8866C10.0191 52.2602 11.5 54 12.2415 53.0067C11.9768 53.2704 11.3736 51.5005 11 51.5C10.6264 51.4995 10.513 53.2954 10.249 53.0311C9.98504 52.7668 12.8985 51.4122 12.8985 51.0386C12.8985 50.6651 9.98504 51.303 10.249 51.0386C9.28889 52 9.12641 54.0005 9.5 54C9.87359 53.9995 11.9768 50.7725 12.2415 51.0362C12.5062 51.2998 11.9991 50.7659 12 51.1394L10.0201 51.8866ZM33.75 60.4689C33.3772 60.4684 33.0198 60.32 32.7562 60.0564C32.4926 59.7928 32.3443 59.4354 32.3438 59.0626V59.0556C32.3452 58.7778 32.4288 58.5066 32.5842 58.2762C32.7395 58.0459 32.9597 57.8668 33.2167 57.7614C33.4738 57.656 33.7563 57.6292 34.0287 57.6843C34.301 57.7393 34.5509 57.8738 34.7469 58.0707C34.9428 58.2677 35.0761 58.5183 35.1298 58.7908C35.1834 59.0634 35.1552 59.3458 35.0485 59.6024C34.9419 59.8589 34.7617 60.0781 34.5306 60.2323C34.2995 60.3866 34.0279 60.4689 33.75 60.4689ZM56.25 47.8126C55.9719 47.8126 55.7 47.7301 55.4688 47.5756C55.2375 47.4211 55.0573 47.2015 54.9508 46.9445C54.8444 46.6876 54.8165 46.4048 54.8708 46.132C54.9251 45.8592 55.059 45.6087 55.2557 45.412C55.4523 45.2153 55.7029 45.0814 55.9757 45.0271C56.2485 44.9729 56.5312 45.0007 56.7882 45.1072C57.0451 45.2136 57.2648 45.3938 57.4193 45.6251C57.5738 45.8564 57.6563 46.1282 57.6563 46.4064C57.6558 46.7792 57.5074 47.1366 57.2438 47.4002C56.9802 47.6638 56.6228 47.8121 56.25 47.8126ZM78.75 57.6564C78.4719 57.6564 78.2 57.5739 77.9688 57.4194C77.7375 57.2649 77.5573 57.0452 77.4508 56.7883C77.3444 56.5313 77.3165 56.2486 77.3708 55.9758C77.4251 55.703 77.559 55.4524 77.7557 55.2557C77.9523 55.0591 78.2029 54.9251 78.4757 54.8709C78.7485 54.8166 79.0312 54.8445 79.2882 54.9509C79.5451 55.0573 79.7648 55.2376 79.9193 55.4688C80.0738 55.7001 80.1563 55.972 80.1563 56.2501C80.1558 56.6229 80.0074 56.9803 79.7438 57.2439C79.4802 57.5075 79.1228 57.6559 78.75 57.6564Z" fill="white"/>
<path d="M67.5 60.4688H57.6562C57.2833 60.4688 56.9256 60.6169 56.6619 60.8806C56.3982 61.1444 56.25 61.502 56.25 61.875C56.25 62.248 56.3982 62.6056 56.6619 62.8694C56.9256 63.1331 57.2833 63.2812 57.6562 63.2812H67.5C67.873 63.2812 68.2306 63.1331 68.4944 62.8694C68.7581 62.6056 68.9062 62.248 68.9062 61.875C68.9062 61.502 68.7581 61.1444 68.4944 60.8806C68.2306 60.6169 67.873 60.4688 67.5 60.4688Z" fill="white"/>
<path d="M67.5 56.25H63.2812C62.9083 56.25 62.5506 56.3982 62.2869 56.6619C62.0232 56.9256 61.875 57.2833 61.875 57.6562C61.875 58.0292 62.0232 58.3869 62.2869 58.6506C62.5506 58.9143 62.9083 59.0625 63.2812 59.0625H67.5C67.873 59.0625 68.2306 58.9143 68.4944 58.6506C68.7581 58.3869 68.9062 58.0292 68.9062 57.6562C68.9062 57.2833 68.7581 56.9256 68.4944 56.6619C68.2306 56.3982 67.873 56.25 67.5 56.25Z" fill="white"/>
<path d="M8.4375 43.5938H23.9062C24.2792 43.5938 24.6369 43.4456 24.9006 43.1819C25.1643 42.9181 25.3125 42.5605 25.3125 42.1875C25.3125 41.8145 25.1643 41.4569 24.9006 41.1931C24.6369 40.9294 24.2792 40.7812 23.9062 40.7812H8.4375C8.06454 40.7812 7.70685 40.9294 7.44313 41.1931C7.17941 41.4569 7.03125 41.8145 7.03125 42.1875C7.03125 42.5605 7.17941 42.9181 7.44313 43.1819C7.70685 43.4456 8.06454 43.5938 8.4375 43.5938Z" fill="white"/>
<path d="M28.125 43.5938H29.5312C29.9042 43.5938 30.2619 43.4456 30.5256 43.1819C30.7893 42.9181 30.9375 42.5605 30.9375 42.1875C30.9375 41.8145 30.7893 41.4569 30.5256 41.1931C30.2619 40.9294 29.9042 40.7812 29.5312 40.7812H28.125C27.752 40.7812 27.3944 40.9294 27.1306 41.1931C26.8669 41.4569 26.7188 41.8145 26.7188 42.1875C26.7188 42.5605 26.8669 42.9181 27.1306 43.1819C27.3944 43.4456 27.752 43.5938 28.125 43.5938Z" fill="white"/>
<circle cx="34" cy="59" r="3" fill="white"/>
<circle cx="56.5" cy="46.5" r="2.5" fill="white"/>
<ellipse cx="79" cy="56.5" rx="2" ry="2.5" fill="white"/>
</svg>
