<svg width="90" height="90" viewBox="0 0 90 90" fill="none" xmlns="http://www.w3.org/2000/svg">
<path d="M67.5 74.5312C71.377 74.5312 74.5312 71.377 74.5312 67.5C74.5312 63.623 71.377 60.4688 67.5 60.4688C63.623 60.4688 60.4688 63.623 60.4688 67.5C60.4688 71.377 63.623 74.5312 67.5 74.5312ZM67.5 63.2812C69.8259 63.2812 71.7188 65.1741 71.7188 67.5C71.7188 69.8259 69.8259 71.7188 67.5 71.7188C65.1741 71.7188 63.2812 69.8259 63.2812 67.5C63.2812 65.1741 65.1741 63.2812 67.5 63.2812Z" fill="white"/>
<path d="M88.5938 72.8114V62.1872L84.6534 61.1845C84.4861 60.7373 84.2991 60.2859 84.0909 59.8402L86.1722 56.34L80.1562 50.3255V26.7188H68.9062V46.4062H62.1886L61.1859 50.3466C60.7373 50.5139 60.2873 50.7023 59.8416 50.9091L59.0625 50.4464V42.1875H47.8125V54.8438C43.8202 54.8438 40.0177 56.7633 37.6411 59.9794C37.3289 60.4012 36.9562 60.7345 36.5625 61.0214V30.9375H25.3125V61.875H16.875V50.625H5.625V62.0747C3.20625 62.7033 1.40625 64.8858 1.40625 67.5C1.40625 70.6022 3.92906 73.125 7.03125 73.125H34.1241C35.467 73.125 36.7495 73.8155 37.6397 75.0206C40.0177 78.2367 43.8202 80.1562 47.8125 80.1562C48.5873 80.1562 49.3467 80.062 50.0948 79.927L56.34 86.1722L59.8402 84.0923C60.2859 84.2991 60.7359 84.4875 61.1845 84.6548L62.1886 88.5938H72.8128L73.8155 84.6534C74.2641 84.4861 74.7141 84.2977 75.1598 84.0909L78.66 86.1708L86.1722 78.6586L84.0909 75.1584C84.2977 74.7127 84.4861 74.2613 84.6534 73.8141L88.5938 72.8114ZM71.7188 29.5312H77.3438V49.6111L75.1584 50.9091C74.7127 50.7023 74.2627 50.5139 73.8141 50.3466L72.8114 46.4062H71.7188V29.5312ZM56.25 45V48.9192L50.625 54.5442V45H56.25ZM28.125 33.75H33.75V61.875H28.125V33.75ZM14.0625 53.4375V61.875H8.4375V53.4375H14.0625ZM39.9009 73.3472C38.4736 71.4178 36.3684 70.3125 34.1241 70.3125H7.03125C5.48016 70.3125 4.21875 69.0511 4.21875 67.5C4.21875 65.9489 5.48016 64.6875 7.03125 64.6875H34.1241C36.3684 64.6875 38.4736 63.5822 39.9009 61.6528C41.7783 59.1131 44.6625 57.6562 47.8125 57.6562C51.0905 57.6562 54.1505 59.2537 55.9884 61.875H50.7614C48.3609 61.875 46.4062 63.8297 46.4062 66.2316V68.7698C46.4062 71.1703 48.3609 73.125 50.7628 73.125H55.9898C54.1519 75.7463 51.0905 77.3438 47.8139 77.3438C44.6625 77.3438 41.7783 75.8869 39.9009 73.3472ZM55.17 70.3125H50.7614C49.9106 70.3125 49.2188 69.6206 49.2188 68.7684V66.2302C49.2188 65.3794 49.9106 64.6875 50.7628 64.6875H55.1714C54.9619 65.6058 54.8438 66.5438 54.8438 67.5C54.8438 68.4562 54.9619 69.3942 55.17 70.3125ZM58.095 70.4011C57.8067 69.4659 57.6562 68.4942 57.6562 67.5C57.6562 66.5058 57.8067 65.5341 58.095 64.5989C58.6533 64.4133 59.0625 63.9028 59.0625 63.2812V62.4586C60.8386 59.4942 64.0336 57.6562 67.5 57.6562C72.9281 57.6562 77.3438 62.0733 77.3438 67.5C77.3438 72.9267 72.9281 77.3438 67.5 77.3438C64.0336 77.3438 60.8386 75.5058 59.0625 72.5414V71.7188C59.0625 71.0972 58.6533 70.5867 58.095 70.4011ZM82.6369 78.217L78.217 82.6369L75.2695 80.8847L74.5763 81.2447C73.7916 81.6497 72.9956 81.983 72.2095 82.2347L71.467 82.4709L70.6261 85.7812H64.3753L63.533 82.4709L62.7905 82.2347C62.0044 81.983 61.2084 81.6497 60.4237 81.2447L59.7305 80.8847L56.783 82.6369L53.1295 78.9834C54.8972 78.1805 56.468 76.9894 57.7069 75.4791C60.0877 78.397 63.6623 80.1562 67.5 80.1562C74.4778 80.1562 80.1562 74.4792 80.1562 67.5C80.1562 60.5208 74.4778 54.8438 67.5 54.8438C63.6623 54.8438 60.0877 56.603 57.7069 59.5209C56.4666 58.0106 54.8972 56.8195 53.1295 56.0166L56.783 52.3631L59.7305 54.1153L60.4237 53.7553C61.2084 53.3503 62.0044 53.017 62.7905 52.7653L63.533 52.5291L64.3739 49.2188H70.6247L71.467 52.5291L72.2095 52.7653C72.9956 53.017 73.7916 53.3503 74.5763 53.7553L75.2695 54.1153L78.217 52.3631L82.6369 56.783L80.8847 59.7291L81.2419 60.4209C81.6483 61.2084 81.9802 62.0044 82.2319 62.7919L82.4695 63.5344L85.7812 64.3739V70.6247L82.4709 71.4656L82.2333 72.2081C81.9816 72.9956 81.6497 73.7916 81.2433 74.5791L80.8861 75.2709L82.6369 78.217Z" fill="white"/>
<path d="M74.5312 18.2812C77.6334 18.2812 80.1562 15.7584 80.1562 12.6562C80.1562 9.55406 77.6334 7.03125 74.5312 7.03125C71.4291 7.03125 68.9062 9.55406 68.9062 12.6562C68.9062 15.7584 71.4291 18.2812 74.5312 18.2812ZM74.5312 16.5C76.0823 16.5 77.3438 15 77.3438 12.6562C77.3438 14.2073 76.0823 15.4688 74.5312 15.4688C72.9802 15.4688 71.7188 14.2073 71.7188 12.6562C70.5 14.5 72.9802 16.5 74.5312 16.5Z" fill="white"/>
<path d="M30.9375 22.5C34.0397 22.5 36.5625 19.9772 36.5625 16.875C36.5625 13.7728 34.0397 11.25 30.9375 11.25C27.8353 11.25 25.3125 13.7728 25.3125 16.875C25.3125 19.9772 27.8353 22.5 30.9375 22.5ZM30.9375 14.0625C32.4886 14.0625 28.5 16.5 30 18.5C30 20.0511 32.5511 12 31 12C29.4489 12 28.125 18.4261 28.125 16.875C27.5 19.5 29.3864 14.0625 30.9375 14.0625Z" fill="white"/>
<path d="M53.4375 33.75C55.7634 33.75 57.6562 31.8572 57.6562 29.5312C57.6562 27.2053 55.7634 25.3125 53.4375 25.3125C51.1116 25.3125 49.2188 27.2053 49.2188 29.5312C49.2188 31.8572 51.1116 33.75 53.4375 33.75ZM53.4375 32C54.2123 32 54.5 31 54.8438 29.5312C54.8438 30.3075 54.2123 30.9375 53.4375 30.9375C52.6627 30.9375 52.0312 30.3075 52.0312 29.5312C52 31.5 52.6627 32 53.4375 32Z" fill="white"/>
<path d="M11.25 42.1875C13.5759 42.1875 15.4688 40.2947 15.4688 37.9688C15.4688 35.6428 13.5759 33.75 11.25 33.75C8.92406 33.75 7.03125 35.6428 7.03125 37.9688C7.03125 40.2947 8.92406 42.1875 11.25 42.1875ZM11.25 40.5C12.0248 40.5 11.5 37.7238 11.5 38.5C11.5 39.2762 12.0248 39.375 11.25 39.375C10.4752 39.375 11 39.7762 11 39C11 38.2238 10.4752 40.5 11.25 40.5Z" fill="white"/>
<path d="M11.25 47.8125C16.6781 47.8125 21.0938 43.3955 21.0938 37.9688C21.0938 35.64 20.2767 33.5011 18.9197 31.8122L24.3619 25.9819C26.2125 27.3248 28.4808 28.125 30.9375 28.125C34.6345 28.125 37.9097 26.325 39.9614 23.5631L44.2645 25.9847C43.837 27.0872 43.5938 28.2797 43.5938 29.5312C43.5938 34.958 48.0094 39.375 53.4375 39.375C58.8656 39.375 63.2812 34.958 63.2812 29.5312C63.2812 27.713 62.7764 26.0142 61.9144 24.5517L66.7041 20.7197C68.7305 22.6884 71.4895 23.9062 74.5312 23.9062C80.7342 23.9062 85.7812 18.8592 85.7812 12.6562C85.7812 6.45328 80.7342 1.40625 74.5312 1.40625C68.3283 1.40625 63.2812 6.45328 63.2812 12.6562C63.2812 14.8064 63.8986 16.8103 64.9491 18.5203L60.1552 22.3552C58.3945 20.707 56.0348 19.6875 53.4375 19.6875C50.2664 19.6875 47.4483 21.2006 45.6469 23.5364L41.3494 21.1191C41.8866 19.8084 42.1875 18.3769 42.1875 16.875C42.1875 10.672 37.1405 5.625 30.9375 5.625C24.7345 5.625 19.6875 10.672 19.6875 16.875C19.6875 19.6102 20.6705 22.1175 22.2989 24.0694L16.8637 29.8927C15.2691 28.7817 13.3355 28.125 11.25 28.125C5.82188 28.125 1.40625 32.542 1.40625 37.9688C1.40625 43.3955 5.82188 47.8125 11.25 47.8125ZM74.5312 4.21875C79.1845 4.21875 82.9688 8.00297 82.9688 12.6562C82.9688 17.3095 79.1845 21.0938 74.5312 21.0938C69.878 21.0938 66.0938 17.3095 66.0938 12.6562C66.0938 8.00297 69.878 4.21875 74.5312 4.21875ZM53.4375 22.5C57.3145 22.5 60.4688 25.6542 60.4688 29.5312C60.4688 33.4083 57.3145 36.5625 53.4375 36.5625C49.5605 36.5625 46.4062 33.4083 46.4062 29.5312C46.4062 25.6542 49.5605 22.5 53.4375 22.5ZM30.9375 8.4375C35.5908 8.4375 39.375 12.2217 39.375 16.875C39.375 21.5283 35.5908 25.3125 30.9375 25.3125C26.2842 25.3125 22.5 21.5283 22.5 16.875C22.5 12.2217 26.2842 8.4375 30.9375 8.4375ZM11.25 30.9375C15.127 30.9375 18.2812 34.0917 18.2812 37.9688C18.2812 41.8458 15.127 45 11.25 45C7.37297 45 4.21875 41.8458 4.21875 37.9688C4.21875 34.0917 7.37297 30.9375 11.25 30.9375Z" fill="white"/>
</svg>
