<svg width="90" height="90" viewBox="0 0 90 90" fill="none" xmlns="http://www.w3.org/2000/svg">
<path d="M16.875 23.9063C16.875 23.0719 16.6276 22.2562 16.164 21.5624C15.7005 20.8687 15.0416 20.3279 14.2707 20.0086C13.4998 19.6893 12.6516 19.6058 11.8332 19.7686C11.0149 19.9313 10.2631 20.3331 9.67315 20.9231C9.08314 21.5131 8.68135 22.2649 8.51856 23.0832C8.35578 23.9016 8.43933 24.7498 8.75864 25.5207C9.07794 26.2916 9.61867 26.9504 10.3124 27.414C11.0062 27.8776 11.8219 28.125 12.6563 28.125C13.7747 28.1237 14.8471 27.6789 15.638 26.888C16.4289 26.0971 16.8737 25.0247 16.875 23.9063ZM11.25 23.9063C11.25 23.6281 11.3325 23.3562 11.487 23.125C11.6415 22.8937 11.8611 22.7135 12.1181 22.607C12.3751 22.5006 12.6578 22.4728 12.9306 22.527C13.2034 22.5813 13.454 22.7152 13.6506 22.9119C13.8473 23.1085 13.9812 23.3591 14.0355 23.6319C14.0897 23.9047 14.0619 24.1874 13.9555 24.4444C13.849 24.7014 13.6688 24.921 13.4375 25.0755C13.2063 25.23 12.9344 25.3125 12.6563 25.3125C12.2834 25.3121 11.926 25.1638 11.6623 24.9002C11.3987 24.6365 11.2504 24.2791 11.25 23.9063Z" fill="white"/>
<path d="M12.5 21L10 24L13 27L15 23.5L12.5 21Z" fill="white"/>
<path d="M12.5 21L10 24L13 27L15 23.5L12.5 21Z" fill="white"/>
<path d="M54.5 21L52 24L55 27L57 23.5L54.5 21Z" fill="white"/>
<path d="M54.5 21L52 24L55 27L57 23.5L54.5 21Z" fill="white"/>
<path d="M33.75 9.84375C30.9687 9.84375 28.2499 10.6685 25.9373 12.2137C23.6247 13.7589 21.8223 15.9552 20.758 18.5248C19.6936 21.0943 19.4151 23.9218 19.9577 26.6497C20.5003 29.3776 21.8396 31.8833 23.8063 33.8499C25.773 35.8166 28.2787 37.1559 31.0065 37.6985C33.7344 38.2411 36.5619 37.9627 39.1315 36.8983C41.7011 35.834 43.8973 34.0315 45.4425 31.719C46.9878 29.4064 47.8125 26.6875 47.8125 23.9062C47.8083 20.1779 46.3253 16.6036 43.689 13.9672C41.0527 11.3309 37.4783 9.84798 33.75 9.84375ZM33.75 35.1562C31.525 35.1562 29.3499 34.4964 27.4998 33.2603C25.6498 32.0241 24.2078 30.2671 23.3564 28.2114C22.5049 26.1558 22.2821 23.8938 22.7162 21.7115C23.1503 19.5292 24.2217 17.5246 25.7951 15.9513C27.3684 14.378 29.373 13.3065 31.5552 12.8724C33.7375 12.4383 35.9995 12.6611 38.0552 13.5126C40.1109 14.3641 41.8679 15.806 43.104 17.6561C44.3402 19.5061 45 21.6812 45 23.9062C44.9967 26.8889 43.8103 29.7484 41.7013 31.8575C39.5922 33.9666 36.7327 35.1529 33.75 35.1562Z" fill="white"/>
<path d="M33.75 19.6875C34.1228 19.6879 34.4803 19.8362 34.7439 20.0998C35.0075 20.3635 35.1558 20.7209 35.1562 21.0938C35.1562 21.4667 35.3044 21.8244 35.5681 22.0881C35.8319 22.3518 36.1895 22.5 36.5625 22.5C36.9355 22.5 37.2931 22.3518 37.5569 22.0881C37.8206 21.8244 37.9688 21.4667 37.9688 21.0938C37.9676 20.2217 37.6967 19.3713 37.1932 18.6593C36.6896 17.9473 35.9781 17.4085 35.1562 17.1169V16.875C35.1562 16.502 35.0081 16.1444 34.7444 15.8806C34.4806 15.6169 34.123 15.4688 33.75 15.4688C33.377 15.4688 33.0194 15.6169 32.7556 15.8806C32.4919 16.1444 32.3438 16.502 32.3438 16.875V17.1169C31.4059 17.4489 30.6156 18.1017 30.1124 18.9599C29.6092 19.8182 29.4255 20.8266 29.5937 21.8072C29.762 22.7878 30.2713 23.6773 31.0319 24.3187C31.7924 24.9601 32.7551 25.3121 33.75 25.3125C34.0281 25.3125 34.3 25.395 34.5313 25.5495C34.7625 25.704 34.9428 25.9236 35.0492 26.1806C35.1556 26.4376 35.1835 26.7203 35.1292 26.9931C35.075 27.2659 34.941 27.5165 34.7444 27.7131C34.5477 27.9098 34.2971 28.0437 34.0243 28.098C33.7516 28.1522 33.4688 28.1244 33.2119 28.018C32.9549 27.9115 32.7353 27.7313 32.5807 27.5C32.4262 27.2688 32.3438 26.9969 32.3438 26.7188C32.3438 26.3458 32.1956 25.9881 31.9319 25.7244C31.6681 25.4607 31.3105 25.3125 30.9375 25.3125C30.5645 25.3125 30.2069 25.4607 29.9431 25.7244C29.6794 25.9881 29.5312 26.3458 29.5312 26.7188C29.5324 27.5908 29.8033 28.4412 30.3068 29.1532C30.8104 29.8652 31.5219 30.404 32.3438 30.6956V30.9375C32.3438 31.3105 32.4919 31.6681 32.7556 31.9319C33.0194 32.1956 33.377 32.3438 33.75 32.3438C34.123 32.3438 34.4806 32.1956 34.7444 31.9319C35.0081 31.6681 35.1562 31.3105 35.1562 30.9375V30.6956C36.0941 30.3636 36.8844 29.7108 37.3876 28.8526C37.8908 27.9943 38.0745 26.9859 37.9063 26.0053C37.738 25.0247 37.2287 24.1352 36.4681 23.4938C35.7076 22.8524 34.7449 22.5004 33.75 22.5C33.377 22.5 33.0194 22.3518 32.7556 22.0881C32.4919 21.8244 32.3438 21.4667 32.3438 21.0938C32.3438 20.7208 32.4919 20.3631 32.7556 20.0994C33.0194 19.8357 33.377 19.6875 33.75 19.6875Z" fill="white"/>
<path d="M40.7812 40.7812H12.6562C12.2833 40.7812 11.9256 40.9294 11.6619 41.1931C11.3982 41.4569 11.25 41.8145 11.25 42.1875C11.25 42.5605 11.3982 42.9181 11.6619 43.1819C11.9256 43.4456 12.2833 43.5938 12.6562 43.5938H40.7812C41.1542 43.5938 41.5119 43.4456 41.7756 43.1819C42.0393 42.9181 42.1875 42.5605 42.1875 42.1875C42.1875 41.8145 42.0393 41.4569 41.7756 41.1931C41.5119 40.9294 41.1542 40.7812 40.7812 40.7812Z" fill="white"/>
<path d="M40.7812 46.4062H12.6562C12.2833 46.4062 11.9256 46.5544 11.6619 46.8181C11.3982 47.0819 11.25 47.4395 11.25 47.8125C11.25 48.1855 11.3982 48.5431 11.6619 48.8069C11.9256 49.0706 12.2833 49.2188 12.6562 49.2188H40.7812C41.1542 49.2188 41.5119 49.0706 41.7756 48.8069C42.0393 48.5431 42.1875 48.1855 42.1875 47.8125C42.1875 47.4395 42.0393 47.0819 41.7756 46.8181C41.5119 46.5544 41.1542 46.4062 40.7812 46.4062Z" fill="white"/>
<path d="M40.7812 52.0312H12.6562C12.2833 52.0312 11.9256 52.1794 11.6619 52.4431C11.3982 52.7069 11.25 53.0645 11.25 53.4375C11.25 53.8105 11.3982 54.1681 11.6619 54.4319C11.9256 54.6956 12.2833 54.8438 12.6562 54.8438H40.7812C41.1542 54.8438 41.5119 54.6956 41.7756 54.4319C42.0393 54.1681 42.1875 53.8105 42.1875 53.4375C42.1875 53.0645 42.0393 52.7069 41.7756 52.4431C41.5119 52.1794 41.1542 52.0312 40.7812 52.0312Z" fill="white"/>
<path d="M40.7812 57.6562H12.6562C12.2833 57.6562 11.9256 57.8044 11.6619 58.0681C11.3982 58.3319 11.25 58.6895 11.25 59.0625C11.25 59.4355 11.3982 59.7931 11.6619 60.0569C11.9256 60.3206 12.2833 60.4688 12.6562 60.4688H40.7812C41.1542 60.4688 41.5119 60.3206 41.7756 60.0569C42.0393 59.7931 42.1875 59.4355 42.1875 59.0625C42.1875 58.6895 42.0393 58.3319 41.7756 58.0681C41.5119 57.8044 41.1542 57.6562 40.7812 57.6562Z" fill="white"/>
<path d="M40.7812 63.2812H12.6562C12.2833 63.2812 11.9256 63.4294 11.6619 63.6931C11.3982 63.9569 11.25 64.3145 11.25 64.6875C11.25 65.0605 11.3982 65.4181 11.6619 65.6819C11.9256 65.9456 12.2833 66.0938 12.6562 66.0938H40.7812C41.1542 66.0938 41.5119 65.9456 41.7756 65.6819C42.0393 65.4181 42.1875 65.0605 42.1875 64.6875C42.1875 64.3145 42.0393 63.9569 41.7756 63.6931C41.5119 63.4294 41.1542 63.2812 40.7812 63.2812Z" fill="white"/>
<path d="M54.8438 63.2812H49.2188C48.8458 63.2812 48.4881 63.4294 48.2244 63.6931C47.9607 63.9569 47.8125 64.3145 47.8125 64.6875C47.8125 65.0605 47.9607 65.4181 48.2244 65.6819C48.4881 65.9456 48.8458 66.0938 49.2188 66.0938H54.8438C55.2167 66.0938 55.5744 65.9456 55.8381 65.6819C56.1018 65.4181 56.25 65.0605 56.25 64.6875C56.25 64.3145 56.1018 63.9569 55.8381 63.6931C55.5744 63.4294 55.2167 63.2812 54.8438 63.2812Z" fill="white"/>
<path d="M40.7812 68.9062H12.6562C12.2833 68.9062 11.9256 69.0544 11.6619 69.3181C11.3982 69.5819 11.25 69.9395 11.25 70.3125C11.25 70.6855 11.3982 71.0431 11.6619 71.3069C11.9256 71.5706 12.2833 71.7188 12.6562 71.7188H40.7812C41.1542 71.7188 41.5119 71.5706 41.7756 71.3069C42.0393 71.0431 42.1875 70.6855 42.1875 70.3125C42.1875 69.9395 42.0393 69.5819 41.7756 69.3181C41.5119 69.0544 41.1542 68.9062 40.7812 68.9062Z" fill="white"/>
<path d="M54.8438 68.9062H49.2188C48.8458 68.9062 48.4881 69.0544 48.2244 69.3181C47.9607 69.5819 47.8125 69.9395 47.8125 70.3125C47.8125 70.6855 47.9607 71.0431 48.2244 71.3069C48.4881 71.5706 48.8458 71.7188 49.2188 71.7188H54.8438C55.2167 71.7188 55.5744 71.5706 55.8381 71.3069C56.1018 71.0431 56.25 70.6855 56.25 70.3125C56.25 69.9395 56.1018 69.5819 55.8381 69.3181C55.5744 69.0544 55.2167 68.9062 54.8438 68.9062Z" fill="white"/>
<path d="M64.6904 28.129C61.9091 28.129 59.1903 28.9538 56.8777 30.499C54.5652 32.0442 52.7627 34.2405 51.6984 36.81C50.634 39.3796 50.3555 42.2071 50.8981 44.935C51.4407 47.6628 52.7801 50.1685 54.7467 52.1352C56.7134 54.1019 59.2191 55.4412 61.947 55.9838C64.6748 56.5264 67.5023 56.2479 70.0719 55.1836C72.6415 54.1192 74.8378 52.3168 76.383 50.0042C77.9282 47.6917 78.7529 44.9728 78.7529 42.1915C78.7487 38.4632 77.2658 34.8888 74.6295 32.2525C71.9932 29.6161 68.4187 28.1332 64.6904 28.129ZM53.4404 42.1915C53.4436 39.6986 54.2732 37.277 55.7995 35.3059C57.3259 33.3348 59.4627 31.9254 61.8755 31.2984V53.0849C59.4626 52.4578 57.3258 51.0484 55.7995 49.0772C54.2732 47.1061 53.4436 44.6845 53.4404 42.1915ZM64.6904 53.4415H64.688V30.9415H64.6904C67.6741 30.9415 70.5356 32.1268 72.6454 34.2366C74.7552 36.3464 75.9404 39.2078 75.9404 42.1915C75.9404 45.1752 74.7552 48.0367 72.6454 50.1465C70.5356 52.2563 67.6741 53.4415 64.6904 53.4415Z" fill="white"/>
<path d="M86.7765 81.0269L80.2747 67.5176C80.2288 67.3379 80.1476 67.1692 80.0358 67.0212L77.7155 62.1991C77.6352 62.0322 77.5227 61.8828 77.3844 61.7595C77.2462 61.6362 77.0849 61.5415 76.9099 61.4807C76.7349 61.4199 76.5497 61.3942 76.3647 61.4053C76.1798 61.4163 75.9989 61.4637 75.8324 61.5449L74.5683 62.1601L73.4307 59.8257C77.4104 57.8549 80.6067 54.5962 82.5004 50.5792C84.3941 46.5622 84.8739 42.0229 83.8617 37.6988C82.8496 33.3747 80.4051 29.5199 76.9253 26.7607C73.4455 24.0014 69.135 22.4999 64.694 22.5H64.6875V4.21875C64.6875 3.84579 64.5393 3.4881 64.2756 3.22438C64.0119 2.96066 63.6542 2.8125 63.2812 2.8125H4.21875C3.84579 2.8125 3.4881 2.96066 3.22438 3.22438C2.96066 3.4881 2.8125 3.84579 2.8125 4.21875V78.8954C2.8125 79.0842 2.85052 79.2711 2.9243 79.4449C2.99808 79.6187 3.10611 79.7758 3.24193 79.907L7.46068 83.9804C7.72285 84.2335 8.07306 84.375 8.4375 84.375C8.80194 84.375 9.15215 84.2335 9.41432 83.9804L12.6562 80.8501L15.8982 83.9804C16.1604 84.2335 16.5106 84.375 16.875 84.375C17.2394 84.375 17.5896 84.2335 17.8518 83.9804L21.0938 80.8501L24.3357 83.9804C24.5979 84.2335 24.9481 84.375 25.3125 84.375C25.6769 84.375 26.0271 84.2335 26.2893 83.9804L29.5312 80.8501L32.7732 83.9804C33.0354 84.2335 33.3856 84.375 33.75 84.375C34.1144 84.375 34.4646 84.2335 34.7268 83.9804L37.9688 80.8501L41.2107 83.9804C41.4729 84.2335 41.8231 84.375 42.1875 84.375C42.5519 84.375 42.9021 84.2335 43.1643 83.9804L46.4062 80.8501L49.6482 83.9804C49.9104 84.2335 50.2606 84.375 50.625 84.375C50.9894 84.375 51.3396 84.2335 51.6018 83.9804L54.8438 80.8501L58.0857 83.9804C58.3479 84.2335 58.6981 84.375 59.0625 84.375C59.4269 84.375 59.7771 84.2335 60.0393 83.9804L64.2581 79.907C64.3939 79.7758 64.5019 79.6187 64.5757 79.4449C64.6495 79.2711 64.6875 79.0842 64.6875 78.8954V61.875H64.694C66.776 61.8764 68.8449 61.5463 70.823 60.897L72.0396 63.393L70.7753 64.0083C70.4413 64.1713 70.1853 64.4599 70.0634 64.8111C69.9415 65.1622 69.9637 65.5474 70.1249 65.8823L79.1895 84.7167C79.6795 85.7225 80.5491 86.4925 81.6068 86.8572C82.6646 87.2219 83.8239 87.1514 84.8298 86.6614C85.8345 86.1718 86.6039 85.3034 86.969 84.247C87.3341 83.1906 87.2646 82.0324 86.7765 81.0269ZM61.875 78.2984L59.0625 81.0141L55.8206 77.8838C55.5584 77.6306 55.2082 77.4891 54.8438 77.4891C54.4793 77.4891 54.1291 77.6306 53.8669 77.8838L50.625 81.0141L47.3831 77.8838C47.1209 77.6306 46.7707 77.4891 46.4062 77.4891C46.0418 77.4891 45.6916 77.6306 45.4294 77.8838L42.1875 81.0141L38.9456 77.8838C38.6834 77.6306 38.3332 77.4891 37.9688 77.4891C37.6043 77.4891 37.2541 77.6306 36.9919 77.8838L33.75 81.0141L30.5081 77.8838C30.2459 77.6306 29.8957 77.4891 29.5312 77.4891C29.1668 77.4891 28.8166 77.6306 28.5544 77.8838L25.3125 81.0141L22.0706 77.8838C21.8084 77.6306 21.4582 77.4891 21.0938 77.4891C20.7293 77.4891 20.3791 77.6306 20.1169 77.8838L16.875 81.0141L13.6331 77.8838C13.3709 77.6306 13.0207 77.4891 12.6562 77.4891C12.2918 77.4891 11.9416 77.6306 11.6794 77.8838L8.4375 81.0141L5.625 78.2984V5.625H61.875V22.7027C60.9098 22.8421 59.9564 23.0537 59.0228 23.3355C58.9312 22.6593 58.677 22.0153 58.2819 21.459C57.8869 20.9026 57.3627 20.4503 56.7545 20.141C56.1462 19.8317 55.472 19.6745 54.7897 19.683C54.1073 19.6915 53.4372 19.8654 52.8369 20.1898C52.2365 20.5141 51.7238 20.9793 51.3427 21.5453C50.9615 22.1114 50.7234 22.7614 50.6488 23.4397C50.5741 24.118 50.665 24.8043 50.9138 25.4397C51.1627 26.0751 51.5619 26.6407 52.0773 27.0879C49.8266 28.9646 48.0239 31.3207 46.801 33.9838C45.578 36.6469 44.9658 39.5497 45.0091 42.4798C45.0524 45.41 45.7501 48.2934 47.0511 50.9192C48.3522 53.545 50.2237 55.8468 52.5289 57.6562H49.2188C48.8458 57.6562 48.4881 57.8044 48.2244 58.0681C47.9607 58.3319 47.8125 58.6895 47.8125 59.0625C47.8125 59.4355 47.9607 59.7931 48.2244 60.0569C48.4881 60.3206 48.8458 60.4688 49.2188 60.4688H54.8438C55.0734 60.4689 55.2996 60.4127 55.5025 60.3051C55.7054 60.1976 55.8788 60.0419 56.0076 59.8518C57.8551 60.7644 59.8354 61.3788 61.875 61.6723V78.2984ZM54.6033 25.2903C54.3169 25.2398 54.0532 25.1015 53.8489 24.8945C53.6445 24.6876 53.5095 24.4222 53.4626 24.1352C53.4157 23.8481 53.4591 23.5536 53.5869 23.2923C53.7147 23.0311 53.9206 22.816 54.176 22.6768C54.4314 22.5377 54.7237 22.4814 55.0126 22.5157C55.3014 22.55 55.5724 22.6732 55.7881 22.8683C56.0038 23.0634 56.1536 23.3207 56.2167 23.6046C56.2797 23.8885 56.253 24.185 56.1401 24.4531L56.1473 24.4563C55.6192 24.7119 55.1045 24.9899 54.6033 25.2903ZM64.694 59.0625C61.3564 59.0625 58.0938 58.0728 55.3188 56.2185C52.5437 54.3643 50.3808 51.7288 49.1035 48.6453C47.8263 45.5618 47.4921 42.1688 48.1433 38.8954C48.7944 35.6219 50.4016 32.6151 52.7616 30.2551C55.1216 27.8951 58.1284 26.2879 61.4019 25.6367C64.6753 24.9856 68.0683 25.3198 71.1518 26.597C74.2353 27.8743 76.8708 30.0372 78.7251 32.8123C80.5793 35.5873 81.569 38.8499 81.569 42.1875C81.5639 46.6615 79.7844 50.9507 76.6208 54.1143C73.4573 57.2779 69.168 59.0574 64.694 59.0625ZM73.2656 65.9246H72.5L74 69L75.8324 68.4603L77 67.5L77.0136 67.2282L74.4854 68.4603L73.2656 65.9246ZM84.3108 83.327C84.2204 83.5894 84.0543 83.8192 83.8335 83.9874C83.6127 84.1556 83.3471 84.2547 83.0701 84.2722C82.7931 84.2897 82.5171 84.2249 82.2769 84.0858C82.0367 83.9468 81.843 83.7397 81.7202 83.4908L75.7049 70.9928L78.2334 69.7607L84.2451 82.2526C84.3265 82.4185 84.3743 82.5989 84.3855 82.7833C84.3968 82.9678 84.3715 83.1524 84.3108 83.327Z" fill="white"/>
</svg>
