<svg width="90" height="90" viewBox="0 0 90 90" fill="none" xmlns="http://www.w3.org/2000/svg">
<g clip-path="url(#clip0)">
<path d="M82.4998 0H7.50023C3.35976 0.00480653 0.00480653 3.35976 0 7.50023V64.5C0.00480653 68.6398 3.35976 71.9948 7.50023 72.0003H35.8827C35.238 76.6063 31.7883 81.0001 28.4999 81.0001C26.0149 81.0001 24.0003 83.0148 24.0003 85.4997C24.0003 87.9854 26.0149 90 28.4999 90H61.5001C63.9851 90 65.9997 87.9854 65.9997 85.4997C65.9997 83.0148 63.9851 81.0001 61.5001 81.0001C58.2117 81.0001 54.762 76.6063 54.1173 72.0003H82.4998C86.6402 71.9948 89.9952 68.6398 90 64.5V7.50023C89.9952 3.35976 86.6402 0.00480653 82.4998 0ZM7.50023 2.99995H82.4998C84.9854 2.99995 87 5.01457 87 7.50023V11.9998H72.0003C71.1715 11.9998 70.5 12.6714 70.5 13.5001C70.5 14.3282 71.1715 14.9998 72.0003 14.9998H87V45H84.0001C83.1713 45 82.4998 45.6715 82.4998 46.5003C82.4998 47.3284 83.1713 48 84.0001 48H87V56.9998H2.99995V48H43.4997C44.3285 48 45 47.3284 45 46.5003C44.9952 36.031 36.7211 27.4356 26.2594 27.0325C15.7983 26.6295 6.88705 34.5623 6.07681 45H2.99995V14.9998H56.9998C57.8286 14.9998 58.5001 14.3282 58.5001 13.5001C58.5001 12.6714 57.8286 11.9998 56.9998 11.9998H2.99995V7.50023C2.99995 5.01457 5.01457 2.99995 7.50023 2.99995ZM31.0604 40.9392C30.4747 40.3542 29.5251 40.3542 28.9394 40.9392L24.8792 45H9.06784C9.83894 36.5 16.965 29.9906 25.5 29.9906C34.035 29.9906 41.161 36.5 41.9328 45H29.1213L31.0604 43.0602C31.6461 42.4745 31.6461 41.5256 31.0604 40.9392ZM61.5001 87H28.4999C27.6718 87 27.0003 86.3285 27.0003 85.4997C26.5 87 28.1719 87.5 29 87.5L62.5 88C63.3281 88 62.9997 84.6716 62.9997 85.4997C62.9997 86.3285 62.3282 87 61.5001 87ZM55.3052 81.0001H34.6948C37.0466 78.5406 38.5291 75.3799 38.9177 72.0003H51.0823C51.4709 75.3799 52.9534 78.5406 55.3052 81.0001ZM87 64.5C87 66.985 84.9854 69.0003 82.4998 69.0003H7.50023C5.01457 69.0003 2.99995 66.985 2.99995 64.5V59.9998H87V64.5Z" fill="white"/>
<path d="M46.5006 64.5001C46.5006 65.3282 45.8284 65.9997 45.0003 65.9997C44.1722 65.9997 43.5 65.3282 43.5 64.5001C43.5 63.6713 44.1722 62.9998 45.0003 62.9998C45.8284 62.9998 46.5006 63.6713 46.5006 64.5001Z" fill="white"/>
<path d="M55.9918 19.6277C54.8307 18.4707 52.9534 18.4707 51.7923 19.6277L49.6307 21.7907C48.471 22.9504 48.471 24.8305 49.6307 25.9902L51.1908 27.6031C50.7898 28.3694 50.4664 29.1728 50.2247 30.003H47.9745C46.3348 30.003 45.0041 31.3302 45 32.97V36.0296C45.0027 37.6694 46.3307 38.9973 47.9697 39.0001L50.211 39.0358C50.4691 39.8591 50.8076 40.6549 51.2238 41.4102L49.6287 43.0067C48.471 44.1671 48.471 46.0457 49.6287 47.2062L51.7937 49.3698C52.9541 50.5268 54.8328 50.5268 55.9932 49.3698L57.6075 47.8111C58.371 48.2107 59.173 48.5341 59.9998 48.7772V51.0267C60.0011 52.6678 61.3298 53.9978 62.9702 53.9998H66.0299C67.6696 53.9978 68.9976 52.6691 69.0003 51.0301L69.0388 48.7889C69.8607 48.5293 70.6558 48.1901 71.4118 47.7768L73.0062 49.3698C74.1673 50.5268 76.0453 50.5268 77.2064 49.3698L79.3707 47.2062C80.5291 46.0457 80.5291 44.1671 79.3707 43.0067L77.8107 41.3999C78.2117 40.6343 78.5351 39.8302 78.7768 39.0001H81.0269C82.6673 38.9994 83.9973 37.6707 84.0001 36.0296V32.97C83.9973 31.3309 82.6694 30.0023 81.0297 30.0002L78.7891 29.9638C78.531 29.1405 78.1918 28.3447 77.7763 27.588L79.3707 25.9936C80.5305 24.8339 80.5305 22.9532 79.3707 21.7934L77.205 19.6277C76.0439 18.4701 74.166 18.4701 73.0048 19.6277L71.4001 21.1892C70.6339 20.7889 69.8298 20.4655 69.0003 20.2231V17.9729C68.9989 16.3325 67.6703 15.0025 66.0299 14.9998H62.9702C61.3305 15.0025 60.0025 16.3305 59.9998 17.9702L59.9613 20.2107C59.1387 20.4703 58.3443 20.8095 57.5883 21.2235L55.9918 19.6277ZM60.8718 23.0775C62.1297 22.6957 62.9929 21.538 62.9997 20.2231L62.9702 17.9997L65.9997 17.9702V20.2203C66.0086 21.5332 66.8703 22.6881 68.1269 23.0699C68.7758 23.2766 69.4054 23.5382 70.0097 23.8513C71.1681 24.4727 72.5963 24.2674 73.5329 23.3446L75.0854 21.7502L77.2497 23.8726L75.6539 25.467C74.7324 26.4036 74.5278 27.8311 75.1485 28.9888C75.4617 29.593 75.7233 30.2227 75.9299 30.8716C76.311 32.1274 77.4646 32.9899 78.7768 33.0002L81.0001 32.97V36.0001H78.7768C77.4632 36.009 76.3083 36.8715 75.9272 38.1287C75.7205 38.7769 75.4589 39.4066 75.1458 40.0108C74.5258 41.1692 74.7311 42.5954 75.6525 43.5312L77.2497 45.0858L75.1273 47.2501L73.5329 45.6571C72.597 44.7349 71.1694 44.5296 70.0111 45.1497C69.4068 45.4628 68.7772 45.7244 68.1283 45.9318C66.8731 46.3129 66.0107 47.465 65.9997 48.7772L66.0299 50.9999L62.9997 51.0301V48.78C62.9915 47.4671 62.1291 46.3122 60.8732 45.9297C60.2243 45.7237 59.5947 45.4621 58.9904 45.1483C58.5482 44.9169 58.0559 44.7954 57.5567 44.7947C56.7732 44.7919 56.0207 45.1016 55.4672 45.6557L53.9147 47.2501L51.7497 45.1277L53.3448 43.5333C54.267 42.5967 54.4723 41.1692 53.8515 40.0108C53.5384 39.4066 53.2768 38.7769 53.0701 38.1287C52.6891 36.8728 51.5355 36.0104 50.2233 36.0001L48 36.0296L47.9697 33.0002H50.2199C51.5334 32.9912 52.6884 32.1281 53.0701 30.8716C53.2768 30.2227 53.5384 29.593 53.8515 28.9888C54.4723 27.8304 54.267 26.4036 53.3448 25.467L51.7497 23.9145L53.8728 21.7502L55.4672 23.3446C56.4031 24.2667 57.8307 24.472 58.989 23.8513C59.5933 23.5382 60.2229 23.2773 60.8718 23.0699V23.0775Z" fill="white"/>
<path d="M64.4999 43.4997C69.4705 43.4997 73.4997 39.4705 73.4997 34.4999C73.4997 29.5292 69.4705 25.5 64.4999 25.5C59.5292 25.5 55.5 29.5292 55.5 34.4999C55.5048 39.4684 59.5313 43.4949 64.4999 43.4997ZM64.4999 28.5C67.8136 28.5 70.4998 31.1861 70.4998 34.4999C70.4998 37.8136 67.8136 40.4998 64.4999 40.4998C61.1861 40.4998 58.5 37.8136 58.5 34.4999C58.5 31.1861 61.1861 28.5 64.4999 28.5Z" fill="white"/>
<path d="M72 32.5C72 33.3288 70 41 64 41.5C63.1712 41.5 58 39.5 58 34C58 30.5 63.6715 27.5 64.5003 27.5C65.3284 27.5 72 31.6719 72 32.5Z" fill="white"/>
<path d="M8.99995 7.5002C8.99995 8.32829 8.32841 8.99983 7.50032 8.99983C6.67154 8.99983 6 8.32829 6 7.5002C6 6.67142 6.67154 5.99988 7.50032 5.99988C8.32841 5.99988 8.99995 6.67142 8.99995 7.5002Z" fill="white"/>
<path d="M15 7.5002C15 8.32829 14.3284 8.99983 13.5003 8.99983C12.6715 8.99983 12 8.32829 12 7.5002C12 6.67142 12.6715 5.99988 13.5003 5.99988C14.3284 5.99988 15 6.67142 15 7.5002Z" fill="white"/>
<path d="M21 7.5002C21 8.32829 20.3284 8.99983 19.5003 8.99983C18.6715 8.99983 18 8.32829 18 7.5002C18 6.67142 18.6715 5.99988 19.5003 5.99988C20.3284 5.99988 21 6.67142 21 7.5002Z" fill="white"/>
<path d="M27 34.4999C27 35.3287 26.3284 36.0002 25.4996 36.0002C24.6715 36.0002 24 35.3287 24 34.4999C24 33.6718 24.6715 33.0002 25.4996 33.0002C26.3284 33.0002 27 33.6718 27 34.4999Z" fill="white"/>
<path d="M33 37.4998C33 38.3285 32.3284 39.0001 31.4996 39.0001C30.6715 39.0001 30 38.3285 30 37.4998C30 36.6717 30.6715 36.0001 31.4996 36.0001C32.3284 36.0001 33 36.6717 33 37.4998Z" fill="white"/>
<path d="M37.5 42.0001C37.5 42.8282 36.8284 43.4997 36.0003 43.4997C35.1715 43.4997 34.5 42.8282 34.5 42.0001C34.5 41.1713 35.1715 40.4998 36.0003 40.4998C36.8284 40.4998 37.5 41.1713 37.5 42.0001Z" fill="white"/>
<path d="M21 37.4998C21 38.3285 20.3284 39.0001 19.5003 39.0001C18.6715 39.0001 18 38.3285 18 37.4998C18 36.6717 18.6715 36.0001 19.5003 36.0001C20.3284 36.0001 21 36.6717 21 37.4998Z" fill="white"/>
<path d="M16.5 42.0001C16.5 42.8282 15.8284 43.4997 14.9996 43.4997C14.1715 43.4997 13.5 42.8282 13.5 42.0001C13.5 41.1713 14.1715 40.4998 14.9996 40.4998C15.8284 40.4998 16.5 41.1713 16.5 42.0001Z" fill="white"/>
<path d="M33.4688 22.2707C30.3879 21.2689 27.1455 20.8541 23.9114 21.0478C23.3752 21.0794 22.8973 21.3945 22.6562 21.8745C22.4159 22.3545 22.4496 22.9264 22.7448 23.3748C23.0401 23.8232 23.5523 24.0793 24.0879 24.0477C26.9457 23.8761 29.8097 24.2421 32.5316 25.1265C33.0411 25.294 33.6007 25.1773 34.0003 24.8202C34.3999 24.4632 34.5785 23.9193 34.4686 23.3947C34.3594 22.8701 33.9783 22.4437 33.4688 22.2769V22.2707Z" fill="white"/>
<path d="M14.3439 23.565C12.0065 24.7041 9.85734 26.1935 7.96975 27.9808C7.58043 28.3495 7.41769 28.8975 7.54197 29.4186C7.66626 29.9405 8.0597 30.3559 8.57332 30.509C9.08693 30.6615 9.64311 30.5289 10.0324 30.1602C11.6982 28.5816 13.5948 27.2667 15.6574 26.2607C16.1401 26.0259 16.4601 25.5514 16.4979 25.0165C16.5363 24.4817 16.2857 23.9667 15.8415 23.6666C15.3965 23.3659 14.8259 23.326 14.3439 23.5602V23.565Z" fill="white"/>
</g>
<defs>
<clipPath id="clip0">
<rect width="90" height="90" fill="white"/>
</clipPath>
</defs>
</svg>
