<svg width="32" height="32" viewBox="0 0 32 32" fill="none" xmlns="http://www.w3.org/2000/svg">
<path d="M12.2669 19.2C9.32135 19.2 6.93359 21.5877 6.93359 24.5333C6.93359 27.4789 9.32135 29.8666 12.2669 29.8666C15.2125 29.8666 17.6003 27.4789 17.6003 24.5333C17.5971 21.589 15.2112 19.2031 12.2669 19.2ZM12.2669 28.8C9.91042 28.8 8.00026 26.8898 8.00026 24.5333C8.00026 22.1768 9.91042 20.2666 12.2669 20.2666C14.6234 20.2666 16.5336 22.1768 16.5336 24.5333C16.531 26.8885 14.6221 28.7973 12.2669 28.8Z" fill="white"/>
<path d="M12.2661 22.9333C12.9174 22.9333 13.3328 23.2489 13.3328 23.4666H14.3995C14.3995 22.7088 13.7281 22.095 12.7995 21.92V21.3333H11.7328V21.92C10.8042 22.0937 10.1328 22.7077 10.1328 23.4666C10.1328 24.3642 11.0698 25.0666 12.2661 25.0666C12.9174 25.0666 13.3328 25.3822 13.3328 25.5999C13.3328 25.8176 12.9174 26.1333 12.2661 26.1333C11.6148 26.1333 11.1995 25.8176 11.1995 25.5999H10.1328C10.1328 26.3577 10.8042 26.9715 11.7328 27.1465V27.7333H12.7995V27.1465C13.7281 26.9728 14.3995 26.3588 14.3995 25.5999C14.3995 24.7023 13.4625 23.9999 12.2661 23.9999C11.6148 23.9999 11.1995 23.6843 11.1995 23.4666C11.1995 23.2489 11.6148 22.9333 12.2661 22.9333Z" fill="white"/>
<path d="M27.2 30.9333H4.8V18.1333H13.3333C14.2169 18.1333 14.9333 17.4169 14.9333 16.5333V3.2H20.8V9.6H27.2V17.0667H28.2667V8.84583L21.5542 2.13333H14.9333V1.6C14.9333 0.716406 14.2169 0 13.3333 0H1.6C0.716406 0 0 0.716406 0 1.6V16.5333C0 17.4169 0.716406 18.1333 1.6 18.1333H3.73333V32H28.2667V24.5333H27.2V30.9333ZM21.8667 3.95417L26.4458 8.53333L24.5 6L21.8667 3.95417ZM1.06667 16.5333V1.6C1.06667 1.30547 1.30547 1.06667 1.6 1.06667H13.3333C13.6279 1.06667 13.8667 1.30547 13.8667 1.6V16.5333C13.8667 16.8279 13.6279 17.0667 13.3333 17.0667H1.6C1.30547 17.0667 1.06667 16.8279 1.06667 16.5333Z" fill="white"/>
<path d="M17.0664 13.3333H18.1331V14.3999H17.0664V13.3333Z" fill="white"/>
<path d="M19.1992 13.3333H25.5992V14.3999H19.1992V13.3333Z" fill="white"/>
<path d="M17.0664 11.2H18.1331V12.2666H17.0664V11.2Z" fill="white"/>
<path d="M19.1992 11.2H25.5992V12.2666H19.1992V11.2Z" fill="white"/>
<path d="M17.0664 15.4666H18.1331V16.5332H17.0664V15.4666Z" fill="white"/>
<path d="M19.1992 15.4666H25.5992V16.5332H19.1992V15.4666Z" fill="white"/>
<path d="M17.0664 17.6001H18.1331V18.6668H17.0664V17.6001Z" fill="white"/>
<path d="M19.1992 17.6001H25.5992V18.6668H19.1992V17.6001Z" fill="white"/>
<path d="M13.3329 1.6001H1.59961V5.33343H13.3329V1.6001ZM12.2663 4.26676H2.66628V2.66676H12.2663V4.26676Z" fill="white"/>
<path d="M4.26615 5.8667H3.19948C2.61042 5.8667 2.13281 6.3443 2.13281 6.93337V8.00003C2.13281 8.58909 2.61042 9.0667 3.19948 9.0667H4.26615C4.85521 9.0667 5.33281 8.58909 5.33281 8.00003V6.93337C5.33281 6.3443 4.85521 5.8667 4.26615 5.8667ZM3.19948 8.00003V6.93337H4.26615V8.00003H3.19948Z" fill="white"/>
<path d="M8.00052 5.8667H6.93385C6.34479 5.8667 5.86719 6.3443 5.86719 6.93337V8.00003C5.86719 8.58909 6.34479 9.0667 6.93385 9.0667H8.00052C8.58958 9.0667 9.06719 8.58909 9.06719 8.00003V6.93337C9.06719 6.3443 8.58958 5.8667 8.00052 5.8667ZM6.93385 8.00003V6.93337H8.00052V8.00003H6.93385Z" fill="white"/>
<path d="M11.7329 5.8667H10.6663C10.0772 5.8667 9.59961 6.3443 9.59961 6.93337V8.00003C9.59961 8.58909 10.0772 9.0667 10.6663 9.0667H11.7329C12.322 9.0667 12.7996 8.58909 12.7996 8.00003V6.93337C12.7996 6.3443 12.322 5.8667 11.7329 5.8667ZM10.6663 8.00003V6.93337H11.7329V8.00003H10.6663Z" fill="white"/>
<path d="M4.26615 9.6001H3.19948C2.61042 9.6001 2.13281 10.0777 2.13281 10.6668V11.7334C2.13281 12.3225 2.61042 12.8001 3.19948 12.8001H4.26615C4.85521 12.8001 5.33281 12.3225 5.33281 11.7334V10.6668C5.33281 10.0777 4.85521 9.6001 4.26615 9.6001ZM3.19948 11.7334V10.6668H4.26615V11.7334H3.19948Z" fill="white"/>
<path d="M8.00052 9.6001H6.93385C6.34479 9.6001 5.86719 10.0777 5.86719 10.6668V11.7334C5.86719 12.3225 6.34479 12.8001 6.93385 12.8001H8.00052C8.58958 12.8001 9.06719 12.3225 9.06719 11.7334V10.6668C9.06719 10.0777 8.58958 9.6001 8.00052 9.6001ZM6.93385 11.7334V10.6668H8.00052V11.7334H6.93385Z" fill="white"/>
<path d="M11.7329 9.6001H10.6663C10.0772 9.6001 9.59961 10.0777 9.59961 10.6668V11.7334C9.59961 12.3225 10.0772 12.8001 10.6663 12.8001H11.7329C12.322 12.8001 12.7996 12.3225 12.7996 11.7334V10.6668C12.7996 10.0777 12.322 9.6001 11.7329 9.6001ZM10.6663 11.7334V10.6668H11.7329V11.7334H10.6663Z" fill="white"/>
<path d="M4.26615 13.3333H3.19948C2.61042 13.3333 2.13281 13.8109 2.13281 14.3999V15.4666C2.13281 16.0556 2.61042 16.5333 3.19948 16.5333H4.26615C4.85521 16.5333 5.33281 16.0556 5.33281 15.4666V14.3999C5.33281 13.8109 4.85521 13.3333 4.26615 13.3333ZM3.19948 15.4666V14.3999H4.26615V15.4666H3.19948Z" fill="white"/>
<path d="M8.00052 13.3333H6.93385C6.34479 13.3333 5.86719 13.8109 5.86719 14.3999V15.4666C5.86719 16.0556 6.34479 16.5333 6.93385 16.5333H8.00052C8.58958 16.5333 9.06719 16.0556 9.06719 15.4666V14.3999C9.06719 13.8109 8.58958 13.3333 8.00052 13.3333ZM6.93385 15.4666V14.3999H8.00052V15.4666H6.93385Z" fill="white"/>
<path d="M11.7329 13.3333H10.6663C10.0772 13.3333 9.59961 13.8109 9.59961 14.3999V15.4666C9.59961 16.0556 10.0772 16.5333 10.6663 16.5333H11.7329C12.322 16.5333 12.7996 16.0556 12.7996 15.4666V14.3999C12.7996 13.8109 12.322 13.3333 11.7329 13.3333ZM10.6663 15.4666V14.3999H11.7329V15.4666H10.6663Z" fill="white"/>
<path d="M31.516 17.0178C30.8829 16.4133 29.8868 16.4133 29.2538 17.0178L20.1108 26.1605C20.0665 26.2053 20.0303 26.2574 20.004 26.3146L18.7165 29.1105C18.6236 29.3131 18.6665 29.5524 18.8243 29.71C18.9819 29.8678 19.2212 29.9107 19.4238 29.8178L22.2197 28.5303C22.277 28.504 22.329 28.468 22.3738 28.4235L31.516 19.2805C32.141 18.6558 32.141 17.6425 31.516 17.0178ZM21.6863 27.6011L20.2889 28.2449L20.9327 26.8475L27.7496 20.03L28.5038 20.7842L21.6863 27.6011ZM29.2595 20.0277L28.5053 19.2738L28.8788 18.9003L29.6329 19.6545L29.2595 20.0277ZM30.7637 18.5238L31 18.5V18V17.5C31.2107 17.2984 30.5527 17.568 30.7637 17.7696C30.9717 17.9779 30.9717 18.3154 30.7637 18.5238Z" fill="white"/>
</svg>
