<svg width="32" height="32" viewBox="0 0 32 32" fill="none" xmlns="http://www.w3.org/2000/svg">
<path d="M25.953 0H10.4713C10.4654 0 10.4596 0.000691145 10.4537 0.000898488C10.4479 0.00110583 10.4422 0.00138229 10.4364 0.00172786C10.4143 0.00317927 10.3923 0.00566739 10.3711 0.00988337C10.348 0.0144449 10.3247 0.0210108 10.3028 0.0285443C10.299 0.0298574 10.2952 0.031378 10.2913 0.0327603C10.2706 0.040432 10.2505 0.0490713 10.2312 0.0592311L10.2276 0.060959C10.2073 0.0717408 10.1882 0.0841123 10.1697 0.0973823C10.1655 0.100354 10.1615 0.103464 10.1574 0.106575C10.1391 0.120605 10.1213 0.135326 10.1051 0.151568L4.57567 5.68093C4.55943 5.69724 4.54443 5.71514 4.53047 5.73346C4.52736 5.73761 4.52425 5.74168 4.52121 5.74583C4.50794 5.76429 4.49564 5.78343 4.48486 5.80354L4.48285 5.80769C4.4729 5.82676 4.46433 5.8466 4.45673 5.86699C4.45521 5.87107 4.45369 5.87508 4.45223 5.87922C4.44477 5.90086 4.43841 5.92297 4.43385 5.94585L4.43344 5.94841C4.42943 5.96921 4.42701 5.9905 4.42549 6.01206C4.42507 6.01814 4.4248 6.02416 4.42459 6.03024C4.42452 6.03604 4.42383 6.04171 4.42383 6.04752V30.3758C4.42383 31.2714 5.15243 32 6.04802 32H25.953C26.8486 32 27.5772 31.2714 27.5772 30.3758V1.62419C27.5772 0.728605 26.8486 0 25.953 0ZM9.95299 1.76975V4.94168C9.95299 5.26562 10.5551 4.94168 10.2312 4.94168L10.2276 3L9.95299 1.76975ZM26.5405 30.3758C26.5405 30.6997 26.2769 30.9633 25.953 30.9633H6.04802C5.72408 30.9633 5.46055 30.6997 5.46055 30.3758V6.56587H9.36551C10.2611 6.56587 10.9897 5.83727 10.9897 4.94168V1.03672H25.953C26.2769 1.03672 26.5405 1.30025 26.5405 1.62419V30.3758Z" fill="white"/>
<path d="M9.36601 14.8597H22.636C22.9223 14.8597 23.1544 14.6277 23.1544 14.3414C23.1544 14.055 22.9223 13.823 22.636 13.823H9.36601C9.07974 13.823 8.84766 14.055 8.84766 14.3414C8.84766 14.6277 9.07974 14.8597 9.36601 14.8597Z" fill="white"/>
<path d="M9.36601 17.6241H22.636C22.9223 17.6241 23.1544 17.3921 23.1544 17.1058C23.1544 16.8194 22.9223 16.5874 22.636 16.5874H9.36601C9.07974 16.5874 8.84766 16.8194 8.84766 17.1058C8.84766 17.3921 9.07974 17.6241 9.36601 17.6241Z" fill="white"/>
<path d="M9.36601 20.3888H16.001C16.2873 20.3888 16.5194 20.1568 16.5194 19.8704C16.5194 19.5841 16.2873 19.3521 16.001 19.3521H9.36601C9.07974 19.3521 8.84766 19.5841 8.84766 19.8704C8.84766 20.1568 9.07974 20.3888 9.36601 20.3888Z" fill="white"/>
<path d="M16.5194 22.6351C16.5194 22.3487 16.2873 22.1167 16.001 22.1167H9.36601C9.07974 22.1167 8.84766 22.3487 8.84766 22.6351C8.84766 22.9214 9.07974 23.1534 9.36601 23.1534H16.001C16.2873 23.1534 16.5194 22.9214 16.5194 22.6351Z" fill="white"/>
<path d="M18.7301 8.95021C18.7301 8.66387 18.498 8.43185 18.2117 8.43185C17.9254 8.43185 17.6934 8.66387 17.6934 8.95021C17.6934 9.96073 18.6304 10.7773 19.905 10.9534V11.0236C19.905 11.31 20.1371 11.542 20.4234 11.542C20.7097 11.542 20.9417 11.31 20.9417 11.0236V10.9534C22.2163 10.7772 23.1534 9.96067 23.1534 8.95021C23.1534 7.93976 22.2163 7.12317 20.9417 6.94707V4.96169C21.5661 5.09197 22.1167 5.44535 22.1167 5.90918C22.1167 6.19552 22.3488 6.42753 22.635 6.42753C22.9213 6.42753 23.1534 6.19552 23.1534 5.90918C23.1534 4.89865 22.2163 4.08213 20.9417 3.90603V3.83574C20.9417 3.5494 20.7097 3.31738 20.4234 3.31738C20.1371 3.31738 19.905 3.5494 19.905 3.83574V3.90603C18.6304 4.0822 17.6934 4.89872 17.6934 5.90918C17.6934 6.91963 18.6304 7.73622 19.905 7.91232V9.8977C19.2806 9.76742 18.7301 9.41411 18.7301 8.95021ZM22.1167 8.95021C22.1167 9.41411 21.5661 9.76742 20.9417 9.8977V8.00272C21.5661 8.133 22.1167 8.48632 22.1167 8.95021ZM18.7301 5.90918C18.7301 5.44528 19.2806 5.09197 19.905 4.96169V6.85667C19.2806 6.72638 18.7301 6.37307 18.7301 5.90918Z" fill="white"/>
<path d="M23.6553 22.1504C23.406 22.0096 23.0898 22.0974 22.949 22.3467L21.8831 24.2333L21.7371 24.121C21.614 24.0262 21.4549 23.9915 21.3037 24.0268C21.1524 24.0619 21.0248 24.1629 20.956 24.3021L20.4176 25.3924L20.2445 25.194C19.9906 24.9029 19.6129 24.7726 19.2333 24.8465C18.8541 24.9199 18.552 25.1817 18.4253 25.5466L17.8305 27.2583L16.4155 25.4709C16.3275 25.3598 16.1978 25.2895 16.0566 25.2765C15.9158 25.264 15.7752 25.3088 15.6684 25.402L14.1659 26.7124C13.9502 26.9006 13.9278 27.2281 14.116 27.4438C14.3042 27.6596 14.6316 27.6817 14.8473 27.4937L15.94 26.5407L17.2912 28.2474C17.4435 28.4396 17.6738 28.5488 17.9142 28.5488C17.9583 28.5488 18.0028 28.545 18.0471 28.5376C18.3331 28.4891 18.57 28.2888 18.6652 28.0148L19.4045 25.887C19.4071 25.8794 19.411 25.8682 19.4306 25.8643C19.45 25.8605 19.458 25.8695 19.4632 25.8755L20.1472 26.66C20.2611 26.7906 20.433 26.8557 20.6047 26.8333C20.7766 26.811 20.926 26.7042 21.0027 26.5488L21.6055 25.3283L21.724 25.4196C21.8431 25.5113 21.9961 25.5465 22.1433 25.5169C22.2906 25.4869 22.4177 25.3946 22.4916 25.2638L23.8515 22.8569C23.9924 22.6075 23.9045 22.2912 23.6553 22.1504Z" fill="white"/>
</svg>
