<svg width="32" height="32" viewBox="0 0 32 32" fill="none" xmlns="http://www.w3.org/2000/svg">
<path d="M29.8177 27.5314C31.021 27.5314 32 26.5524 32 25.349V3.125C32 1.40188 30.5981 0 28.875 0H3.125C1.40188 0 0 1.40188 0 3.125V25.349C0 26.5524 0.979 27.5314 2.18231 27.5314H2.875V30.75H0.625C0.279813 30.75 0 31.0299 0 31.375C0 31.7201 0.279813 32 0.625 32H31.375C31.7202 32 32 31.7201 32 31.375C32 31.0299 31.7202 30.75 31.375 30.75H29.125V27.5314H29.8177ZM1.25 3.125C1.25 2.09113 2.09113 1.25 3.125 1.25H28.875C29.9089 1.25 30.75 2.09113 30.75 3.125V4.5H1.31275C1.29156 4.5 1.27062 4.50113 1.25 4.50319V3.125ZM6.875 30.75H4.125V25.125H6.875V30.75ZM13.875 30.75H11.125V18.2145H13.875V30.75ZM20.875 30.75H18.125V23.5H20.875V30.75ZM28.5 16.0312H24.5C24.1548 16.0312 23.875 16.3111 23.875 16.6562V19.8124C23.875 20.1576 24.1548 20.4374 24.5 20.4374C24.8452 20.4374 25.125 20.1576 25.125 19.8124V17.2812H27.875V30.75H25.125V24.0156C25.125 23.6705 24.8452 23.3906 24.5 23.3906C24.1548 23.3906 23.875 23.6705 23.875 24.0156V30.75H22.125V22.875C22.125 22.5299 21.8452 22.25 21.5 22.25H17.5C17.1548 22.25 16.875 22.5299 16.875 22.875V30.75H15.125V17.5895C15.125 17.2444 14.8452 16.9645 14.5 16.9645H10.5C10.1548 16.9645 9.875 17.2444 9.875 17.5895V30.75H8.125V24.5C8.125 24.1549 7.84519 23.875 7.5 23.875H3.5C3.15481 23.875 2.875 24.1549 2.875 24.5V26.2814H2.18231C1.66819 26.2814 1.25 25.8631 1.25 25.349V5.74681C1.27062 5.74887 1.29156 5.75 1.31275 5.75H30.75V25.349C30.75 25.8631 30.3318 26.2814 29.8177 26.2814H29.125V16.6562C29.125 16.3111 28.8452 16.0312 28.5 16.0312Z" fill="white"/>
<path d="M27.9998 2.25H13.8789C13.5337 2.25 13.2539 2.52988 13.2539 2.875C13.2539 3.22012 13.5337 3.5 13.8789 3.5H27.9998C28.345 3.5 28.6248 3.22012 28.6248 2.875C28.6248 2.52988 28.345 2.25 27.9998 2.25Z" fill="white"/>
<path d="M6.94187 2.43313C6.82563 2.31688 6.66438 2.25 6.5 2.25C6.33562 2.25 6.17438 2.31681 6.05813 2.43313C5.94188 2.54938 5.875 2.71062 5.875 2.875C5.875 3.03938 5.94188 3.20063 6.05813 3.31681C6.17438 3.43313 6.33562 3.5 6.5 3.5C6.66438 3.5 6.82563 3.43313 6.94187 3.31681C7.05813 3.20063 7.125 3.03938 7.125 2.875C7.125 2.71062 7.05813 2.54938 6.94187 2.43313Z" fill="white"/>
<path d="M4.44187 2.43313C4.32563 2.31688 4.16438 2.25 4 2.25C3.83562 2.25 3.67438 2.31681 3.55813 2.43313C3.44188 2.54938 3.375 2.71062 3.375 2.875C3.375 3.03938 3.44188 3.20063 3.55813 3.31681C3.67438 3.43313 3.83562 3.5 4 3.5C4.16438 3.5 4.32563 3.43313 4.44187 3.31681C4.55813 3.20063 4.625 3.03938 4.625 2.875C4.625 2.71062 4.55813 2.54938 4.44187 2.43313Z" fill="white"/>
<path d="M9.44188 2.43313C9.32563 2.31688 9.165 2.25 9 2.25C8.83562 2.25 8.67437 2.31681 8.55812 2.43313C8.44187 2.54938 8.375 2.71062 8.375 2.875C8.375 3.03938 8.44187 3.20063 8.55812 3.31681C8.67437 3.43313 8.83562 3.5 9 3.5C9.16438 3.5 9.32563 3.43313 9.44188 3.31681C9.55813 3.20063 9.625 3.03938 9.625 2.875C9.625 2.71062 9.55813 2.54938 9.44188 2.43313Z" fill="white"/>
<path d="M24.9419 21.5979C24.8256 21.481 24.6644 21.4148 24.5 21.4148C24.3356 21.4148 24.1744 21.4811 24.0581 21.5979C23.9419 21.7142 23.875 21.8754 23.875 22.0398C23.875 22.2042 23.9419 22.3654 24.0581 22.4817C24.1744 22.5979 24.3356 22.6648 24.5 22.6648C24.6644 22.6648 24.8256 22.5979 24.9419 22.4817C25.0581 22.3654 25.125 22.2042 25.125 22.0398C25.125 21.8748 25.0581 21.7142 24.9419 21.5979Z" fill="white"/>
<path d="M26.5005 8.49609C25.2598 8.49609 24.2505 9.50541 24.2505 10.7461C24.2505 11.2389 24.4102 11.6949 24.6799 12.066L20.5284 16.2175C20.2062 16.0392 19.836 15.9373 19.4424 15.9373C19.0877 15.9373 18.7521 16.0202 18.4534 16.167L14.1185 11.832C14.2968 11.5098 14.3987 11.1397 14.3987 10.7461C14.3987 9.50541 13.3894 8.49609 12.1487 8.49609C10.908 8.49609 9.89867 9.50541 9.89867 10.7461C9.89867 11.1797 10.0223 11.5848 10.2357 11.9287L6.54486 15.6195C6.22267 15.4412 5.85255 15.3393 5.45898 15.3393C4.2183 15.3393 3.20898 16.3486 3.20898 17.5893C3.20898 18.83 4.2183 19.8393 5.45898 19.8393C6.69967 19.8393 7.70898 18.83 7.70898 17.5893C7.70898 17.1957 7.60711 16.8255 7.4288 16.5033L11.1637 12.7685C11.4614 12.914 11.7956 12.996 12.1487 12.996C12.5422 12.996 12.9124 12.8942 13.2345 12.7158L17.527 17.0083C17.3151 17.3514 17.1924 17.7552 17.1924 18.1872C17.1924 19.4279 18.2017 20.4372 19.4424 20.4372C20.6831 20.4372 21.6924 19.4279 21.6924 18.1872C21.6924 17.7936 21.5905 17.4235 21.4122 17.1013L25.675 12.8385C25.9309 12.9398 26.2092 12.9961 26.5005 12.9961C27.7412 12.9961 28.7505 11.9868 28.7505 10.7461C28.7505 9.50541 27.7412 8.49609 26.5005 8.49609ZM5.45905 18.5894C4.90767 18.5894 4.45905 18.1408 4.45905 17.5894C4.45905 17.038 4.90767 16.5894 5.45905 16.5894C6.01042 16.5894 6.45905 17.038 6.45905 17.5894C6.45905 18.1408 6.01042 18.5894 5.45905 18.5894ZM12.1487 11.7461C11.5974 11.7461 11.1487 11.2975 11.1487 10.7461C11.1487 10.1947 11.5974 9.74609 12.1487 9.74609C12.7001 9.74609 13.1487 10.1947 13.1487 10.7461C13.1487 11.2975 12.7001 11.7461 12.1487 11.7461ZM19.4425 19.1873C18.8911 19.1873 18.4425 18.7387 18.4425 18.1873C18.4425 17.636 18.8911 17.1873 19.4425 17.1873C19.9939 17.1873 20.4425 17.636 20.4425 18.1873C20.4425 18.7387 19.9939 19.1873 19.4425 19.1873ZM26.5005 11.7461C25.9491 11.7461 25.5005 11.2975 25.5005 10.7461C25.5005 10.1947 25.9491 9.74609 26.5005 9.74609C27.0519 9.74609 27.5005 10.1947 27.5005 10.7461C27.5005 11.2975 27.0519 11.7461 26.5005 11.7461Z" fill="white"/>
<path d="M9.27 8.05941C9.15313 7.94316 8.9925 7.87622 8.82812 7.87622C8.66312 7.87622 8.50187 7.9431 8.38562 8.05941C8.26937 8.1756 8.20312 8.33685 8.20312 8.50122C8.20312 8.6656 8.26937 8.82685 8.38562 8.9431C8.5025 9.05935 8.66312 9.12623 8.82812 9.12623C8.9925 9.12623 9.15313 9.05941 9.27 8.9431C9.38625 8.82685 9.45312 8.6656 9.45312 8.50122C9.45312 8.33685 9.38625 8.1756 9.27 8.05941Z" fill="white"/>
<path d="M6.5 7.87622H3.5C3.15481 7.87622 2.875 8.15609 2.875 8.50122C2.875 8.84634 3.15481 9.12621 3.5 9.12621H6.5C6.84519 9.12621 7.125 8.84634 7.125 8.50122C7.125 8.15609 6.84519 7.87622 6.5 7.87622Z" fill="white"/>
<path d="M6.5 10.8762H3.5C3.15481 10.8762 2.875 11.1561 2.875 11.5012C2.875 11.8463 3.15481 12.1262 3.5 12.1262H6.5C6.84519 12.1262 7.125 11.8463 7.125 11.5012C7.125 11.1561 6.84519 10.8762 6.5 10.8762Z" fill="white"/>
<ellipse cx="12" cy="10.5" rx="2" ry="1.5" fill="white"/>
<circle cx="26.5" cy="10.5" r="1.5" fill="white"/>
<circle cx="19.5" cy="18.5" r="1.5" fill="white"/>
<circle cx="5.5" cy="17.5" r="1.5" fill="white"/>
</svg>
