<svg width="32" height="32" viewBox="0 0 32 32" fill="none" xmlns="http://www.w3.org/2000/svg">
<path d="M3 1C1.8 1 1.16667 3 1 4C1 8 2.33333 9 3 9L7 9.5C7.16667 9.66667 7.5 10.1 7.5 10.5C7.5 10.9 8.83333 10.6667 9.5 10.5C9.5 10 9.6 9 10 9C10.4 9 11.5 8 12 7.5C12.1667 6.5 12.5 4.3 12.5 3.5C12.5 2.7 10.8333 1.5 10 1H3Z" fill="white"/>
<path d="M29.0371 16.8528H25.9683V13.6625C26.2402 13.9678 26.6169 14.1323 27.0065 14.1323C27.1723 14.1323 27.3405 14.1025 27.5037 14.0411C28.054 13.8343 28.4095 13.3209 28.4095 12.7332V11.6373C30.317 11.6036 31.8581 10.0415 31.8581 8.12618V4.17559C31.8581 2.23927 30.2828 0.663881 28.3464 0.663881H20.4309C18.4947 0.663881 16.9193 2.2392 16.9193 4.17559V6.91217H12.7082C12.7153 6.83017 12.7195 6.74748 12.7195 6.66367V3.53896C12.7195 1.95358 11.4297 0.663818 9.84437 0.663818H3.5839C1.99857 0.663818 0.708754 1.95358 0.708754 3.53896V6.66373C0.708754 8.24911 1.99857 9.53887 3.5839 9.53887H5.73678C5.40322 10.1989 5.22884 10.9268 5.22884 11.6835V14.4123H4.35003C1.95145 14.4123 0 16.364 0 18.7629V23.8036C0 26.2025 1.95145 28.1542 4.35003 28.1542H4.40003V29.6811C4.40003 30.3766 4.82078 30.9841 5.47203 31.2288C5.66503 31.3013 5.86378 31.3364 6.05985 31.3364C6.52529 31.3364 6.97554 31.1381 7.29767 30.7699L9.58768 28.1542H11.6206C11.8796 28.1542 12.0894 27.9443 12.0894 27.6854C12.0894 27.4265 11.8796 27.2167 11.6206 27.2167H9.37505C9.23993 27.2167 9.11137 27.275 9.02236 27.3767L6.59216 30.1525C6.28947 30.4986 5.91066 30.3921 5.80172 30.3511C5.69285 30.3102 5.33753 30.141 5.33753 29.6811V27.6855C5.33753 27.4266 5.12772 27.2167 4.86878 27.2167H4.35003C2.46839 27.2167 0.937505 25.6856 0.937505 23.8036V18.7629C0.937505 16.8809 2.46833 15.3498 4.35003 15.3498H5.22878V17.2717C5.22878 19.9032 7.36942 22.0442 10.0007 22.0442H15.4136L17.7422 24.7049C17.3415 26.1729 15.9917 27.2167 14.4495 27.2167H13.4695C13.2105 27.2167 13.0007 27.4265 13.0007 27.6854C13.0007 27.9443 13.2105 28.1542 13.4695 28.1542H14.4495C16.2607 28.1542 17.8642 27.0244 18.5047 25.3825C18.7479 25.5067 19.0167 25.5725 19.2953 25.5725C19.3602 25.5725 19.4257 25.569 19.4914 25.5618C19.8533 25.5222 20.1881 25.3772 20.4568 25.1533C20.9749 25.6707 21.668 25.9813 22.4116 26.015V26.8322C22.4116 27.3497 22.7246 27.8016 23.2091 27.9837C23.3528 28.0377 23.5006 28.0639 23.6466 28.0639C23.9928 28.0639 24.3279 27.9163 24.5676 27.6424L25.9885 26.0182H29.0371C30.6709 26.0182 32 24.689 32 23.0552V19.8163C32 18.1822 30.6708 16.8528 29.0371 16.8528ZM1.64626 6.66373V3.53896C1.64626 2.47052 2.51545 1.60132 3.5839 1.60132H9.84437C10.9128 1.60132 11.782 2.47052 11.782 3.53896V6.66373C11.782 7.73217 10.9128 8.60137 9.84437 8.60137H9.52312C9.26418 8.60137 9.05437 8.81124 9.05437 9.07012V10.3071C9.05437 10.4733 8.93386 10.5365 8.88205 10.5559C8.83024 10.5754 8.69799 10.6073 8.58849 10.4822L7.08254 8.76143C6.99354 8.65974 6.86498 8.60137 6.72979 8.60137H3.5839C2.51545 8.60137 1.64626 7.73211 1.64626 6.66373ZM19.3895 24.6298C19.2304 24.6472 18.9255 24.6332 18.6712 24.3424L15.979 21.2667C15.89 21.165 15.7615 21.1066 15.6263 21.1066H10.0006C7.88636 21.1066 6.16622 19.3862 6.16622 17.2716V11.6834C6.16622 10.9902 6.34741 10.3269 6.69366 9.74062L7.88298 11.0996C8.11749 11.3676 8.44524 11.5119 8.78393 11.5119C8.92662 11.5119 9.07137 11.4863 9.2118 11.4336C9.68562 11.2555 9.99181 10.8134 9.99181 10.3071V9.53506C11.0914 9.47925 12.0294 8.80255 12.4628 7.84967H21.1964C21.2406 7.84967 21.2848 7.85011 21.3286 7.8523C21.3363 7.85267 21.3441 7.85286 21.3517 7.85286C21.6002 7.85286 21.8073 7.65773 21.8196 7.40698C21.8322 7.14842 21.6328 6.92854 21.3742 6.91592C21.3217 6.91336 21.2669 6.91223 21.1963 6.91223H17.8567V4.17559C17.8567 2.75621 19.0115 1.60139 20.4309 1.60139H28.3464C29.7658 1.60139 30.9206 2.75614 30.9206 4.17559V8.12618C30.9206 9.54556 29.7658 10.7004 28.3464 10.7004H27.9408C27.6818 10.7004 27.472 10.9103 27.472 11.1691V12.7332C27.472 13.0285 27.2438 13.1373 27.1738 13.1636C27.1038 13.1899 26.8602 13.2586 26.6655 13.0361L25.9683 12.2392V11.6835C25.9683 9.86031 24.9536 8.2228 23.3202 7.41005C23.0884 7.29473 22.8071 7.38917 22.6917 7.62092C22.5764 7.85267 22.6708 8.13411 22.9026 8.24943C24.2153 8.90262 25.0308 10.2185 25.0308 11.6835V17.2717C25.0308 17.2829 25.0309 17.2936 25.0305 17.3047C25.0303 17.3086 25.0302 17.3125 25.0302 17.3164C25.0068 19.4064 23.2869 21.1067 21.1963 21.1067H20.6214C20.3624 21.1067 20.1526 21.3166 20.1526 21.5754V23.7873C20.1526 23.9376 20.1186 24.0755 20.0508 24.1985C19.9218 24.434 19.6684 24.5993 19.3895 24.6298ZM31.0625 23.0552C31.0625 24.172 30.1539 25.0807 29.0371 25.0807H25.7758C25.6406 25.0807 25.512 25.139 25.423 25.2408L23.862 27.025C23.7416 27.1627 23.5958 27.1276 23.5387 27.1062C23.4817 27.0847 23.349 27.0151 23.349 26.8323V25.5495C23.349 25.2906 23.1392 25.0807 22.8803 25.0807H22.5474C21.9446 25.0807 21.3816 24.8151 20.9989 24.3603C21.0592 24.1791 21.0901 23.9875 21.0901 23.7873V22.0442H21.1963C22.4611 22.0442 23.653 21.5542 24.5522 20.6644C25.34 19.885 25.8232 18.8779 25.94 17.7904H29.037C30.1539 17.7904 31.0624 18.6992 31.0624 19.8164L31.0625 23.0552Z" fill="white"/>
</svg>
