<svg width="32" height="32" viewBox="0 0 32 32" fill="none" xmlns="http://www.w3.org/2000/svg">
<path d="M30.3448 0.103516H1.65517C0.741034 0.103516 0 0.84455 0 1.75869C0 2.67283 0.741034 3.41386 1.65517 3.41386V26.0345C1.65517 26.3392 1.90221 26.5863 2.2069 26.5863H8.7829L5.08634 31.207L5.94814 31.8966L10.1964 26.5863H15.4483V27.7912C14.5864 28.0959 14.1348 29.0417 14.4395 29.9034C14.7442 30.7653 15.6899 31.217 16.5517 30.9122C17.4135 30.6074 17.8652 29.6618 17.5605 28.8C17.3939 28.3286 17.023 27.9579 16.5517 27.7912V26.5863H21.8036L26.0519 31.8966L26.9137 31.207L23.2171 26.5863H29.7931C30.0978 26.5863 30.3448 26.3392 30.3448 26.0345V3.41386C31.259 3.41386 32 2.67283 32 1.75869C32 0.84455 31.259 0.103516 30.3448 0.103516ZM16 29.8966C15.6953 29.8966 15.4483 29.6496 15.4483 29.3449C15.4483 29.0402 15.6953 28.7932 16 28.7932C16.3047 28.7932 16.5517 29.0402 16.5517 29.3449C16.5517 29.6496 16.3047 29.8966 16 29.8966ZM29.2414 25.4828H2.75862V3.41386H29.2414V25.4828ZM30.3448 2.31041H1.65517C1.35048 2.31041 1.10345 2.06338 1.10345 1.75869C1.10345 1.454 1.19531 2.5 1.5 2.5H30.1897C30.4943 2.5 30.1897 2.48179 30.1897 2.78648C30.1897 3.09117 30.6495 2.31041 30.3448 2.31041Z" fill="white"/>
<path d="M13.7924 17.7585H4.96484V18.862H13.7924V17.7585Z" fill="white"/>
<path d="M13.7924 19.9656H4.96484V21.069H13.7924V19.9656Z" fill="white"/>
<path d="M11.5855 22.1724H4.96484V23.2758H11.5855V22.1724Z" fill="white"/>
<path d="M13.7927 15.5518H9.37891V16.6552H13.7927V15.5518Z" fill="white"/>
<path d="M27.0346 7.82764H18.207V8.93108H27.0346V7.82764Z" fill="white"/>
<path d="M27.0346 10.0344H18.207V11.1379H27.0346V10.0344Z" fill="white"/>
<path d="M24.8277 12.2415H18.207V13.3449H24.8277V12.2415Z" fill="white"/>
<path d="M27.0349 5.62061H22.6211V6.72405H27.0349V5.62061Z" fill="white"/>
<path d="M9.37864 5.06885C6.94098 5.06885 4.96484 7.04499 4.96484 9.48264C4.9676 11.9192 6.94209 13.8937 9.37864 13.8964C11.8163 13.8964 13.7924 11.9203 13.7924 9.48264C13.7924 7.04499 11.8163 5.06885 9.37864 5.06885ZM9.94691 6.22526C10.7895 6.37271 11.5422 6.84105 12.0468 7.53174L11 6.22188L9.94691 6.22526ZM7.47084 6.78292C7.88091 6.49374 8.35146 6.30195 8.84677 6.22188L8.82691 9.26195L6.67519 11.3844C5.62422 9.89402 5.98043 7.83388 7.47084 6.78292ZM10.3437 12.6489C10.0309 12.7444 9.70574 12.7929 9.37864 12.793C8.68491 12.7931 8.00898 12.5737 7.4476 12.1662L9.71409 9.93174L12.5439 8.51657C13.0774 10.2653 12.0924 12.1153 10.3437 12.6489Z" fill="white"/>
<path d="M18.207 20.5173H17.1035V23.276H18.207V20.5173Z" fill="white"/>
<path d="M27.0351 19.4138H25.9316V23.2759H27.0351V19.4138Z" fill="white"/>
<path d="M20.414 18.8621H19.3105V23.2759H20.414V18.8621Z" fill="white"/>
<path d="M22.621 16.6553H21.5176V23.276H22.621V16.6553Z" fill="white"/>
<path d="M24.8281 18.3103H23.7246V23.2758H24.8281V18.3103Z" fill="white"/>
<path d="M8.27533 15.5518H7.17188V16.6552H8.27533V15.5518Z" fill="white"/>
<path d="M21.5175 5.62061H20.4141V6.72405H21.5175V5.62061Z" fill="white"/>
</svg>
