<svg width="32" height="32" viewBox="0 0 32 32" fill="none" xmlns="http://www.w3.org/2000/svg">
<path d="M7.5 16.5H9V17.5H7.5V16.5Z" fill="white"/>
<path d="M11 19H12.5V20H11V19Z" fill="white"/>
<path d="M7.5 19H10V20H7.5V19Z" fill="white"/>
<path d="M3.5 19H6.5V20H3.5V19Z" fill="white"/>
<path d="M6.5 21.5H12.5V22.5H6.5V21.5Z" fill="white"/>
<path d="M3.5 21.5H5.5V22.5H3.5V21.5Z" fill="white"/>
<path d="M9.5 24H12.5V25H9.5V24Z" fill="white"/>
<path d="M3.5 24H8.5V25H3.5V24Z" fill="white"/>
<path d="M6.5 26.5H9.5V27.5H6.5V26.5Z" fill="white"/>
<path d="M3.5 26.5H5.5V27.5H3.5V26.5Z" fill="white"/>
<path d="M30 15C30 14.8674 29.9473 14.7402 29.8536 14.6465C29.7598 14.5527 29.6326 14.5 29.5 14.5H26.5C26.3674 14.5 26.2402 14.5527 26.1465 14.6465C26.0527 14.7402 26 14.8674 26 15V17.5H23.5C23.3674 17.5 23.2402 17.5527 23.1465 17.6465C23.0527 17.7402 23 17.8674 23 18V20.5H20.5C20.3674 20.5 20.2402 20.5527 20.1465 20.6465C20.0527 20.7402 20 20.8674 20 21V23.5H17.5C17.3674 23.5 17.2402 23.5527 17.1465 23.6465C17.0527 23.7402 17 23.8674 17 24V27H13.414C13.296 26.6664 13.064 26.3852 12.7588 26.2062C12.4535 26.0272 12.0949 25.9618 11.7461 26.0216C11.3974 26.0814 11.081 26.2626 10.8529 26.5332C10.6249 26.8037 10.4998 27.1462 10.4998 27.5C10.4998 27.8538 10.6249 28.1963 10.8529 28.4668C11.081 28.7374 11.3974 28.9186 11.7461 28.9784C12.0949 29.0382 12.4535 28.9729 12.7588 28.7938C13.064 28.6148 13.296 28.3336 13.414 28H14V29.5C13.9999 29.6326 13.9471 29.7597 13.8534 29.8534C13.7597 29.9471 13.6326 29.9999 13.5 30H2.50001C2.36744 29.9999 2.24036 29.9471 2.14662 29.8534C2.05288 29.7597 2.00016 29.6326 2.00001 29.5V18H4.50001C4.89769 17.9996 5.27896 17.8414 5.56016 17.5602C5.84137 17.279 5.99955 16.8977 6.00001 16.5V14H13.5C13.6326 14.0002 13.7597 14.0529 13.8534 14.1466C13.9471 14.2404 13.9999 14.3674 14 14.5V15H15V14.5C14.9996 14.1023 14.8414 13.7211 14.5602 13.4398C14.279 13.1586 13.8977 13.0005 13.5 13H5.91419C5.71713 12.9995 5.52191 13.038 5.33985 13.1134C5.15778 13.1889 4.99249 13.2996 4.85352 13.4394L1.43934 16.8536C1.29961 16.9925 1.18884 17.1578 1.11343 17.3399C1.03802 17.5219 0.999464 17.7172 1.00001 17.9142V29.5C1.00046 29.8977 1.15864 30.279 1.43985 30.5602C1.72105 30.8414 2.10232 30.9996 2.50001 31H13.5C13.8977 30.9996 14.279 30.8414 14.5602 30.5602C14.8414 30.279 14.9996 29.8977 15 29.5V28H31V27H30V15ZM5.00001 14.7071V16.5C4.99985 16.6326 4.94713 16.7597 4.85339 16.8534C4.75966 16.9471 4.63257 16.9999 4.50001 17L5.33985 17.3399L5.00001 14.7071ZM12 28C11.9011 28 11.8044 27.9707 11.7222 27.9157C11.64 27.8608 11.5759 27.7827 11.5381 27.6913C11.5002 27.6 11.4903 27.4995 11.5096 27.4025C11.5289 27.3055 11.5765 27.2164 11.6465 27.1465C11.7164 27.0765 11.8055 27.0289 11.9025 27.0096C11.9995 26.9903 12.1 27.0002 12.1913 27.0381C12.2827 27.0759 12.3608 27.14 12.4157 27.2222C12.4707 27.3044 12.5 27.4011 12.5 27.5C12.4999 27.6326 12.4471 27.7597 12.3534 27.8534C12.2597 27.9471 12.1326 27.9999 12 28ZM18 24.5H20V27H18V24.5ZM21 21.5H23V27H21V21.5ZM24 18.5H26V27H24V18.5ZM27 27V15.5H29V27H27Z" fill="white"/>
<path d="M2.5 13.4999C2.75339 13.5 3.00266 13.4359 3.22455 13.3135C3.44644 13.1911 3.6337 13.0145 3.76885 12.8002C3.90401 12.5859 3.98265 12.3408 3.99744 12.0878C4.01223 11.8349 3.96268 11.5823 3.85342 11.3536L5.3537 9.85336C5.54345 9.94406 5.75017 9.99382 5.96041 9.99941C6.17066 10.005 6.37973 9.9663 6.57404 9.88581C6.76835 9.80532 6.94355 9.68485 7.08826 9.53223C7.23296 9.37961 7.34395 9.19825 7.41399 8.99994H9.58601C9.69679 9.3134 9.90858 9.58117 10.1881 9.76115C10.4676 9.94114 10.799 10.0231 11.1302 9.99428C11.4614 9.96541 11.7737 9.8273 12.0178 9.60167C12.262 9.37604 12.4243 9.07566 12.4792 8.74777L15.3028 6.32747C15.6161 6.49192 15.9774 6.54034 16.323 6.46416C16.6685 6.38799 16.976 6.19214 17.1911 5.9112C17.4062 5.63027 17.515 5.28235 17.4984 4.92892C17.4818 4.57549 17.3408 4.23931 17.1003 3.97978C16.8599 3.72024 16.5354 3.55407 16.1842 3.51062C15.8331 3.46718 15.4779 3.54925 15.1814 3.74234C14.8849 3.93543 14.6662 4.22711 14.564 4.56584C14.4618 4.90456 14.4825 5.26852 14.6227 5.59341L12.2306 7.64375C12.0732 7.41713 11.8562 7.23835 11.6037 7.12712C11.3512 7.01589 11.0729 6.97652 10.7994 7.01335C10.5259 7.05018 10.2679 7.16179 10.0539 7.33587C9.83976 7.50994 9.67786 7.73974 9.58601 7.99994H7.41399C7.34614 7.80791 7.2399 7.63171 7.10174 7.48208C6.96357 7.33245 6.79638 7.21253 6.61036 7.12963C6.42434 7.04672 6.22338 7.00257 6.01973 6.99987C5.81609 6.99717 5.61403 7.03597 5.42587 7.1139C5.23771 7.19184 5.0674 7.30728 4.92531 7.45319C4.78322 7.5991 4.67234 7.77242 4.59942 7.96258C4.52651 8.15274 4.49308 8.35576 4.50119 8.55926C4.5093 8.76276 4.55876 8.96248 4.64657 9.14623L3.1463 10.6465C2.94315 10.5495 2.72076 10.4995 2.49563 10.5001C2.2705 10.5007 2.0484 10.5521 1.84581 10.6502C1.64321 10.7484 1.46532 10.8909 1.32531 11.0673C1.18531 11.2436 1.08679 11.4491 1.03706 11.6687C0.987323 11.8882 0.987654 12.1162 1.03803 12.3356C1.0884 12.555 1.18752 12.7603 1.32804 12.9362C1.46855 13.1121 1.64686 13.2541 1.84974 13.3517C2.05262 13.4493 2.27487 13.5 2.5 13.4999ZM16 4.49994C16.0989 4.49994 16.1956 4.52926 16.2778 4.58421C16.36 4.63915 16.4241 4.71724 16.4619 4.8086C16.4998 4.89996 16.5097 5.00049 16.4904 5.09749C16.4711 5.19448 16.4235 5.28357 16.3536 5.35349C16.2836 5.42342 16.1945 5.47104 16.0975 5.49033C16.0006 5.50963 15.9 5.49972 15.8087 5.46188C15.7173 5.42404 15.6392 5.35995 15.5843 5.27773C15.5293 5.1955 15.5 5.09883 15.5 4.99994C15.5002 4.86738 15.5529 4.74029 15.6466 4.64655C15.7403 4.55282 15.8674 4.50009 16 4.49994ZM11 7.99994C11.0989 7.99994 11.1956 8.02926 11.2778 8.0842C11.36 8.13915 11.4241 8.21724 11.4619 8.3086C11.4998 8.39996 11.5097 8.50049 11.4904 8.59749C11.4711 8.69448 11.4235 8.78357 11.3536 8.85349C11.2836 8.92342 11.1945 8.97104 11.0975 8.99033C11.0006 9.00963 10.9 8.99972 10.8087 8.96188C10.7173 8.92404 10.6392 8.85995 10.5843 8.77773C10.5293 8.6955 10.5 8.59883 10.5 8.49994C10.5002 8.36738 10.5529 8.24029 10.6466 8.14655C10.7403 8.05282 10.8674 8.00009 11 7.99994ZM6 7.99994C6.09889 7.99994 6.19556 8.02926 6.27778 8.0842C6.36001 8.13915 6.4241 8.21724 6.46194 8.3086C6.49978 8.39996 6.50969 8.50049 6.49039 8.59749C6.4711 8.69448 6.42348 8.78357 6.35355 8.85349C6.28363 8.92342 6.19454 8.97104 6.09754 8.99033C6.00055 9.00963 5.90002 8.99972 5.80866 8.96188C5.71729 8.92404 5.63921 8.85995 5.58426 8.77773C5.52932 8.6955 5.5 8.59883 5.5 8.49994C5.50015 8.36738 5.55288 8.24029 5.64661 8.14655C5.74035 8.05282 5.86744 8.00009 6 7.99994ZM2.5 11.4999C2.59889 11.4999 2.69556 11.5293 2.77778 11.5842C2.86001 11.6391 2.9241 11.7172 2.96194 11.8086C2.99978 11.9 3.00968 12.0005 2.99039 12.0975C2.9711 12.1945 2.92348 12.2836 2.85355 12.3535C2.78363 12.4234 2.69454 12.471 2.59754 12.4903C2.50055 12.5096 2.40002 12.4997 2.30866 12.4619C2.21729 12.424 2.13921 12.36 2.08426 12.2777C2.02932 12.1955 2 12.0988 2 11.9999C2.00015 11.8674 2.05288 11.7403 2.14661 11.6466C2.24035 11.5528 2.36744 11.5001 2.5 11.4999Z" fill="white"/>
<path d="M20.5981 12.695L17.2931 16H12.9142C12.7963 15.6664 12.5642 15.3852 12.259 15.2061C11.9538 15.0271 11.5951 14.9617 11.2463 15.0216C10.8976 15.0814 10.5812 15.2626 10.3532 15.5331C10.1251 15.8037 10 16.1461 10 16.5C10 16.8538 10.1251 17.1963 10.3532 17.4668C10.5812 17.7373 10.8976 17.9185 11.2463 17.9784C11.5951 18.0382 11.9538 17.9728 12.259 17.7938C12.5642 17.6147 12.7963 17.3336 12.9142 17H14.0002V26H15.0002V17H17.5002C17.6328 17 17.76 16.9473 17.8538 16.8535L21.4624 13.2449C22.9501 14.0345 24.6857 14.2175 26.3054 13.7556C27.925 13.2938 29.303 12.2228 30.1505 10.7673C30.998 9.31186 31.2491 7.58481 30.8513 5.94823C30.4535 4.31164 29.4376 2.8926 28.0165 1.98854C26.5955 1.08449 24.8797 0.765621 23.2287 1.09878C21.5777 1.43194 20.1198 2.39126 19.1606 3.77565C18.2014 5.16004 17.8153 6.86201 18.0832 8.52479C18.3512 10.1876 19.2525 11.6821 20.5981 12.695ZM11.5002 17C11.4013 17 11.3047 16.9706 11.2224 16.9157C11.1402 16.8608 11.0761 16.7827 11.0383 16.6913C11.0004 16.5999 10.9905 16.4994 11.0098 16.4024C11.0291 16.3054 11.0767 16.2163 11.1467 16.1464C11.2166 16.0765 11.3057 16.0289 11.4027 16.0096C11.4997 15.9903 11.6002 16.0002 11.6916 16.038C11.7829 16.0759 11.861 16.14 11.916 16.2222C11.9709 16.3044 12.0002 16.4011 12.0002 16.5C12.0001 16.6325 11.9473 16.7596 11.8536 16.8533C11.7599 16.9471 11.6328 16.9998 11.5002 17ZM28.5109 11.2593L25.6137 7.99996H29.9772C29.8663 9.21973 29.3501 10.3672 28.5109 11.2593ZM29.9772 6.99996L29 3L25.0002 2.02293C26 2.81597 27.4783 2.70405 28.3872 3.61297C29.2961 4.5219 29 6 29.9772 6.99996ZM24.0002 2.02293V7.49996C24.0002 7.62239 24.0453 7.74054 24.1269 7.83178L27.7638 11.9242C27.0811 12.4278 26.2912 12.7667 25.4557 12.9143C24.6203 13.0619 23.762 13.0141 22.9481 12.7748C22.1341 12.5355 21.3866 12.1111 20.764 11.5349C20.1413 10.9586 19.6605 10.2461 19.359 9.45303C19.0576 8.66001 18.9437 7.80798 19.0264 6.96363C19.109 6.11928 19.3859 5.30549 19.8353 4.58595C20.2848 3.8664 20.8946 3.26061 21.6172 2.81597C22.3397 2.37134 23.1553 2.09991 24.0002 2.02293Z" fill="white"/>
</svg>
