<svg width="32" height="32" viewBox="0 0 32 32" fill="none" xmlns="http://www.w3.org/2000/svg">
<path d="M23.3613 8.72334C22.3978 7.77284 21.1176 7.25556 19.7597 7.26202C18.4019 7.27495 17.1345 7.81163 16.184 8.77506C15.2335 9.7385 14.7163 11.0188 14.7227 12.3766C14.7227 12.59 14.8973 12.7646 15.1107 12.7646C15.3241 12.7646 15.4986 12.59 15.4986 12.3766C15.4922 11.2257 15.9319 10.1459 16.7336 9.32467C17.5354 8.50349 18.6152 8.05087 19.7662 8.04441C20.9171 8.03794 21.9969 8.47763 22.8181 9.27941C23.6393 10.0812 24.0919 11.161 24.0984 12.312C24.1049 13.4629 23.6652 14.5427 22.8634 15.3639C22.0616 16.1851 20.9818 16.6377 19.8308 16.6442C19.6175 16.6442 19.4429 16.8188 19.4429 17.0321C19.4429 17.2455 19.6175 17.4201 19.8308 17.4201C21.1887 17.4072 22.456 16.8705 23.4065 15.907C24.357 14.9436 24.8872 13.6569 24.8743 12.299C24.8614 10.9412 24.3247 9.67384 23.3613 8.72334Z" fill="white"/>
<path d="M31.113 14.504L29.9104 14.0062C30.0979 12.8875 30.0979 11.7625 29.9104 10.6503L31.113 10.1524C31.4557 10.0167 31.7338 9.74508 31.876 9.38945C32.0247 9.03382 32.0247 8.64586 31.876 8.29023L31.2035 6.66081C31.0548 6.30518 30.7833 6.03361 30.4276 5.88489C30.072 5.73617 29.684 5.73617 29.3284 5.88489L28.1257 6.38277C27.4727 5.4646 26.6774 4.66929 25.7527 4.00976L26.2506 2.80708C26.5545 2.07643 26.2053 1.23585 25.4747 0.931949L23.8517 0.259487C23.1211 -0.0444136 22.2805 0.304749 21.9766 1.0354L21.4787 2.23808C20.3601 2.05056 19.235 2.05056 18.1229 2.23808L17.625 1.0354C17.4763 0.679776 17.2047 0.408205 16.8491 0.259487C16.4935 0.11077 16.1055 0.11077 15.7499 0.259487L14.1269 0.931949C13.7713 1.08067 13.4997 1.35224 13.351 1.70787C13.2023 2.0635 13.2023 2.45145 13.351 2.80708L13.8489 4.00976C12.9307 4.66282 12.1354 5.45813 11.4759 6.38277L10.2732 5.88489C9.91757 5.73617 9.52961 5.73617 9.17398 5.88489C8.81835 6.03361 8.54678 6.30518 8.39806 6.66081L7.71914 8.28377C7.41523 9.01442 7.7644 9.855 8.49505 10.1589L9.98869 10.7796C10.1891 10.8637 10.4154 10.7667 10.493 10.5727C10.5771 10.3723 10.4801 10.146 10.2861 10.0684L8.79249 9.44764C8.45626 9.30539 8.29461 8.9239 8.43686 8.58767L9.10932 6.96471C9.2451 6.62848 9.63306 6.46683 9.96929 6.60908L11.4629 7.22981C11.631 7.30094 11.8315 7.24274 11.9349 7.08756C12.6268 6.053 13.5062 5.17363 14.5343 4.48824C14.6895 4.38478 14.7476 4.1908 14.6765 4.01622L14.0558 2.52258C13.9911 2.36093 13.9911 2.17988 14.0558 2.01823C14.1204 1.85658 14.2498 1.72726 14.4114 1.6626L16.0408 0.990143C16.2025 0.925483 16.3835 0.925483 16.5452 0.990143C16.7068 1.0548 16.8362 1.18412 16.9008 1.34577L17.5215 2.83941C17.5927 3.00753 17.7737 3.10452 17.9548 3.07219C19.1768 2.82648 20.4118 2.82648 21.6339 3.07219C21.815 3.11098 21.996 3.01399 22.0671 2.83941L22.6879 1.34577C22.8301 1.00954 23.2116 0.847891 23.5478 0.990143L25.1708 1.6626C25.507 1.80486 25.6687 2.18635 25.5264 2.52258L24.9186 4.00329C24.8475 4.1714 24.9057 4.37185 25.0609 4.47531C26.0954 5.16717 26.9748 6.04654 27.6602 7.07463C27.7636 7.22981 27.9576 7.28801 28.1322 7.21688L29.6258 6.59615C29.7875 6.53149 29.9685 6.53149 30.1302 6.59615C30.2918 6.66081 30.4212 6.79013 30.4858 6.95178L31.1583 8.5812C31.2229 8.74285 31.2229 8.9239 31.1583 9.08555C31.0936 9.2472 30.9643 9.37652 30.8027 9.44118L29.309 10.0619C29.1409 10.133 29.0439 10.3141 29.0762 10.4951C29.3219 11.7172 29.3155 12.9522 29.0762 14.1743C29.0374 14.3553 29.1344 14.5364 29.309 14.6075L30.8027 15.2282C31.1389 15.3705 31.3005 15.752 31.1583 16.0882L30.4858 17.7112C30.3436 18.0474 29.9621 18.209 29.6258 18.0668L28.1322 17.4461C27.9641 17.3749 27.7636 17.4331 27.6602 17.5883C26.9683 18.6229 26.089 19.5022 25.0609 20.1876C24.9057 20.2911 24.8475 20.4851 24.9186 20.6596L25.5394 22.1533C25.604 22.3149 25.604 22.496 25.5394 22.6576C25.4747 22.8193 25.3454 22.9486 25.1837 23.0133L23.5543 23.6857C23.3926 23.7504 23.2116 23.7504 23.05 23.6857C22.8883 23.6211 22.759 23.4917 22.6943 23.3301L22.0736 21.8365C21.9895 21.636 21.7632 21.5455 21.5692 21.6295C21.3688 21.7136 21.2783 21.9399 21.3623 22.1339L21.9831 23.6275C22.1318 23.9832 22.4034 24.2547 22.759 24.4035C22.9336 24.4746 23.1211 24.5134 23.3086 24.5134C23.4961 24.5134 23.6836 24.4746 23.8582 24.4035L25.4876 23.731C25.8433 23.5823 26.1148 23.3107 26.2635 22.9551C26.4123 22.5994 26.4123 22.2115 26.2635 21.8559L25.7657 20.6532C26.6838 20.0001 27.4791 19.2048 28.1387 18.2802L29.3413 18.7781C29.697 18.9268 30.0849 18.9268 30.4406 18.7781C30.7962 18.6293 31.0678 18.3578 31.2165 18.0021L31.8889 16.3792C32.1928 15.6485 31.8437 14.8079 31.113 14.504Z" fill="white"/>
<path d="M9.34873 18.8621C7.34427 18.8621 5.71484 20.498 5.71484 22.5024C5.71484 24.5069 7.34427 26.1298 9.34873 26.1298C11.3532 26.1298 12.9826 24.5004 12.9826 22.4959C12.9826 20.4915 11.3532 18.8621 9.34873 18.8621ZM9.34873 25.3604C10.5 25.9431 12.5 24.0777 12.5 22.5C12.5 20.9223 7.77103 19.6444 9.34873 19.6444C6.5 19.5 12.2067 20.9247 12.2067 22.5024C12.2067 24.0801 10.9264 25.3604 9.34873 25.3604Z" fill="white"/>
<path d="M17.5487 20.6983H16.6887C16.5076 19.9417 16.2102 19.2305 15.8029 18.5645L16.4107 17.9567C16.6305 17.7368 16.7469 17.4523 16.7469 17.142C16.7469 16.8381 16.6305 16.5471 16.4107 16.3273L15.5054 15.422C15.2856 15.2022 15.0011 15.0858 14.6907 15.0858C14.3803 15.0858 14.0958 15.2022 13.876 15.422L13.2682 16.0298C12.6022 15.6225 11.8909 15.3315 11.1344 15.144V14.284C11.1344 13.6503 10.6171 13.1331 9.98347 13.1331H8.70321C8.06954 13.1331 7.55226 13.6503 7.55226 14.284V15.144C6.79574 15.325 6.08449 15.6225 5.41849 16.0298L4.81069 15.422C4.59085 15.2022 4.30634 15.0858 3.99598 15.0858C3.69207 15.0858 3.4011 15.2022 3.18126 15.422L2.27602 16.3273C2.05618 16.5471 1.93979 16.8316 1.93979 17.142C1.93979 17.4459 2.05618 17.7368 2.27602 17.9567L2.88383 18.5645C2.47647 19.2305 2.1855 19.9417 1.99799 20.6983H1.15094C0.517278 20.6983 0 21.2155 0 21.8492V23.1295C0.00646598 23.7761 0.517278 24.2869 1.15094 24.2869H2.01092C2.19197 25.0434 2.4894 25.7546 2.89676 26.4206L2.28896 27.0284C2.06911 27.2483 1.95273 27.5328 1.95273 27.8432C1.95273 28.1471 2.06911 28.438 2.28896 28.6579L3.19419 29.5631C3.41404 29.783 3.69854 29.8993 4.00891 29.8993C4.31281 29.8993 4.60378 29.783 4.82362 29.5631L5.43142 28.9553C6.09742 29.3627 6.80868 29.6536 7.5652 29.8411V30.7011C7.5652 31.3348 8.08247 31.8521 8.71614 31.8521H9.9964C10.6301 31.8521 11.1473 31.3348 11.1473 30.7011V29.8347C11.9039 29.6536 12.6151 29.3562 13.2811 28.9488L13.8889 29.5566C14.1088 29.7765 14.3933 29.8929 14.7036 29.8929C15.014 29.8929 15.2985 29.7765 15.5183 29.5566L16.4236 28.6514C16.6434 28.4316 16.7598 28.1471 16.7598 27.8367C16.7598 27.5328 16.6434 27.2418 16.4236 27.022L15.8158 26.4142C16.2231 25.7482 16.5141 25.0369 16.7016 24.2804H17.5487C18.1823 24.2804 18.6996 23.7631 18.6996 23.1295V21.8492C18.6996 21.2155 18.1823 20.6983 17.5487 20.6983ZM17.9237 23.1424C17.9237 23.3493 17.7556 23.5174 17.5487 23.5174H16.3719C16.1843 23.5174 16.0292 23.6467 15.9904 23.8278C15.8158 24.7007 15.4796 25.5219 14.9817 26.259C14.8782 26.4142 14.8976 26.6211 15.0269 26.7504L15.861 27.5845C15.9322 27.6556 15.971 27.7462 15.971 27.8496C15.971 27.9466 15.9322 28.0436 15.861 28.1147L14.9558 29.02C14.8847 29.0911 14.7942 29.1299 14.6907 29.1299C14.5872 29.1299 14.4967 29.0911 14.4256 29.02L13.5915 28.1859C13.4622 28.0565 13.2553 28.0371 13.1001 28.1406C12.3565 28.6385 11.5418 28.9747 10.6689 29.1493C10.4878 29.1881 10.3585 29.3433 10.3585 29.5308V30.7076C10.3585 30.9145 10.1904 31.0826 9.98347 31.0826H8.70321C8.4963 31.0826 8.32818 30.9145 8.32818 30.7076V29.5308C8.32818 29.3433 8.19886 29.1881 8.01781 29.1493C7.14491 28.9747 6.32373 28.6385 5.58661 28.1406C5.52195 28.0953 5.44435 28.0759 5.37323 28.0759C5.27624 28.0759 5.17278 28.1147 5.10166 28.1923L4.26755 29.0264C4.19642 29.0976 4.1059 29.1364 4.00244 29.1364C3.90545 29.1364 3.80846 29.0976 3.73734 29.0264L2.8321 28.1212C2.76097 28.0501 2.72218 27.9595 2.72218 27.8561C2.72218 27.7591 2.76097 27.6621 2.8321 27.591L3.66621 26.7569C3.79553 26.6276 3.81493 26.4206 3.71147 26.2655C3.21359 25.5219 2.87736 24.7072 2.70278 23.8343C2.66398 23.6532 2.5088 23.5239 2.32129 23.5239H1.15094C0.944033 23.5239 0.775917 23.3558 0.775917 23.1489V21.8621H0.782384C0.782384 21.6552 0.950499 21.4871 1.15741 21.4871H2.33422C2.52173 21.4871 2.67692 21.3578 2.71571 21.1767C2.89029 20.3038 3.22652 19.4826 3.7244 18.7455C3.82786 18.5903 3.80846 18.3834 3.67914 18.2541L2.83856 17.42C2.76744 17.3489 2.72864 17.2584 2.72864 17.1549C2.72864 17.0579 2.76744 16.9609 2.83856 16.8898L3.7438 15.9846C3.81493 15.9134 3.90545 15.8746 4.00891 15.8746C4.1059 15.8746 4.20289 15.9134 4.27401 15.9846L5.10812 16.8187C5.23744 16.948 5.44435 16.9674 5.59954 16.8639C6.34313 16.366 7.15784 16.0298 8.03075 15.8552C8.21179 15.8164 8.34111 15.6613 8.34111 15.4737V14.2969C8.34111 14.09 8.50923 13.9219 8.71614 13.9219H9.9964C10.2033 13.9219 10.3714 14.09 10.3714 14.2969V15.4802C10.3714 15.6677 10.5007 15.8229 10.6818 15.8617C11.5547 16.0363 12.3759 16.3725 13.113 16.8704C13.2682 16.9738 13.4751 16.9545 13.6044 16.8251L14.4385 15.991C14.5097 15.9199 14.6002 15.8811 14.7036 15.8811C14.8071 15.8811 14.8976 15.9199 14.9687 15.991L15.874 16.8963C15.9451 16.9674 15.9839 17.0579 15.9839 17.1614C15.9839 17.2584 15.9451 17.3553 15.874 17.4265L15.0269 18.2541C14.8976 18.3834 14.8782 18.5903 14.9817 18.7455C15.4796 19.4891 15.8158 20.3038 15.9904 21.1767C16.0292 21.3578 16.1843 21.4871 16.3719 21.4871H17.5487C17.7556 21.4871 17.9237 21.6552 17.9237 21.8621V23.1424Z" fill="white"/>
</svg>
