<svg width="32" height="32" viewBox="0 0 32 32" fill="none" xmlns="http://www.w3.org/2000/svg">
<path d="M18.134 11.7488H13.8673C13.5728 11.7488 13.334 11.9876 13.334 12.2821V27.2154C13.334 27.51 13.5728 27.7488 13.8673 27.7488H18.134C18.4285 27.7488 18.6673 27.51 18.6673 27.2154V12.2821C18.6673 11.9875 18.4285 11.7488 18.134 11.7488ZM17.6007 26.6821H14.4007V12.8154H17.6007V26.6821Z" fill="white"/>
<path d="M30.9328 9.61548H26.6661C26.3716 9.61548 26.1328 9.85428 26.1328 10.1488V27.2155C26.1328 27.51 26.3716 27.7488 26.6661 27.7488H30.9328C31.2273 27.7488 31.4661 27.51 31.4661 27.2155V10.1488C31.4661 9.85421 31.2273 9.61548 30.9328 9.61548ZM30.3995 26.6821H27.1995V10.6821H30.3995V26.6821Z" fill="white"/>
<path d="M24.5324 21.3489H20.2658C19.9712 21.3489 19.7324 21.5877 19.7324 21.8822V27.2155C19.7324 27.5101 19.9712 27.7489 20.2658 27.7489H24.5324C24.827 27.7489 25.0658 27.5101 25.0658 27.2155V21.8822C25.0658 21.5876 24.827 21.3489 24.5324 21.3489ZM23.9991 26.6822H20.7991V22.4155H23.9991V26.6822Z" fill="white"/>
<path d="M5.3332 13.8821H1.06654C0.772003 13.8821 0.533203 14.1209 0.533203 14.4154V27.2154C0.533203 27.5099 0.772003 27.7487 1.06654 27.7487H5.3332C5.62774 27.7487 5.86654 27.5099 5.86654 27.2154V14.4154C5.86654 14.1208 5.62774 13.8821 5.3332 13.8821ZM4.79987 26.6821H1.59987V14.9487H4.79987V26.6821Z" fill="white"/>
<path d="M11.7336 17.0823H7.46693C7.17239 17.0823 6.93359 17.3211 6.93359 17.6156V27.2156C6.93359 27.5101 7.17239 27.7489 7.46693 27.7489H11.7336C12.0281 27.7489 12.2669 27.5101 12.2669 27.2156V17.6156C12.2669 17.321 12.0281 17.0823 11.7336 17.0823ZM11.2003 26.6823H8.00026V18.1489H11.2003V26.6823Z" fill="white"/>
<path d="M28.8306 0.518123C27.6439 0.50959 26.6749 1.46466 26.6664 2.65139C26.6621 3.25059 26.9081 3.82439 27.3453 4.23426L22.9186 12.3532C22.5176 12.2422 22.0917 12.2619 21.7026 12.4092L17.5847 6.22952C18.3737 5.35452 18.3039 4.00552 17.4289 3.21659C16.5538 2.42766 15.2049 2.49732 14.4159 3.37239C13.8363 4.01532 13.7025 4.94479 14.0775 5.72506L10.8396 8.41992C9.95135 7.77199 8.71401 7.91699 7.99961 8.75272L5.28441 7.39486C5.53068 6.24266 4.79621 5.10899 3.64408 4.86279C2.49188 4.61652 1.35821 5.35092 1.11201 6.50312C0.865748 7.65532 1.60015 8.78899 2.75235 9.03519C2.89935 9.06659 3.04928 9.08239 3.19961 9.08232C3.81461 9.08032 4.39841 8.81139 4.79961 8.34526L7.51481 9.70312C7.25861 10.8531 7.98321 11.9931 9.13321 12.2493C10.2832 12.5055 11.4232 11.7809 11.6794 10.6309C11.7836 10.1633 11.7273 9.67412 11.5196 9.24232L14.7575 6.54739C15.3155 6.96039 16.0441 7.06466 16.6956 6.82472L20.8124 13.0045C20.0255 13.8814 20.0986 15.2302 20.9756 16.0171C21.8525 16.8039 23.2013 16.7309 23.9882 15.8539C24.7654 14.9877 24.705 13.6585 23.8525 12.8663L28.2791 4.74739C28.4491 4.79179 28.624 4.81472 28.7997 4.81566C29.9864 4.82419 30.9553 3.86912 30.9639 2.68239C30.9724 1.49566 30.0173 0.526723 28.8306 0.518123ZM3.19961 8.01566C2.61048 8.01566 2.13295 7.53812 2.13295 6.94899C2.13295 6.35986 2.61048 5.88232 3.19961 5.88232C3.78875 5.88232 4.26628 6.35986 4.26628 6.94899C4.26628 7.53812 3.78875 8.01566 3.19961 8.01566ZM9.59962 11.2157C9.01048 11.2157 8.53295 10.7381 8.53295 10.149C8.53295 9.55986 9.01048 9.08232 9.59962 9.08232C10.1887 9.08232 10.6663 9.55986 10.6663 10.149C10.6663 10.7381 10.1887 11.2157 9.59962 11.2157ZM15.9996 5.88232C15.4105 5.88232 14.9329 5.40479 14.9329 4.81566C14.4159 5.17645 15.4105 6.22952 15.9996 6.22952C16.5887 6.22952 17.5 5.5 17.0663 4.81566C17.0663 5.40479 16.5887 5.88232 15.9996 5.88232ZM22.3996 15.4823C21.8105 15.4823 21.3329 15.0048 21.3329 14.4157C21.3329 13.8265 21.8105 13.349 22.3996 13.349C22.9887 13.349 23.4663 13.8265 23.4663 14.4157C23.4663 15.0048 22.9887 15.4823 22.3996 15.4823ZM28.7996 3.74899C28.2105 3.74899 27.7329 3.27146 27.7329 2.68232C27.7329 2.09319 28.2105 1.61566 28.7996 1.61566C29.3887 1.61566 29.8663 2.09319 29.8663 2.68232C29.8663 3.27146 29.3887 3.74899 28.7996 3.74899Z" fill="white"/>
<path d="M31.4667 28.2822H0.533333C0.2388 28.2822 0 28.521 0 28.8156V30.9489C0 31.2434 0.2388 31.4822 0.533333 31.4822H31.4667C31.7612 31.4822 32 31.2434 32 30.9489V28.8156C32 28.521 31.7612 28.2822 31.4667 28.2822ZM30.9333 30.4156H1.06667V29.3489H30.9333V30.4156Z" fill="white"/>
<ellipse cx="3.5" cy="7" rx="1.5" ry="2" fill="white"/>
<circle cx="9.5" cy="10.5" r="1.5" fill="white"/>
<circle cx="28.5" cy="2.5" r="1.5" fill="white"/>
<circle cx="22.5" cy="14.5" r="1.5" fill="white"/>
</svg>
