<svg width="140" height="140" viewBox="0 0 140 140" fill="none" xmlns="http://www.w3.org/2000/svg">
<path d="M67.8125 56.875C70.2287 56.875 72.1875 54.9162 72.1875 52.5C72.1875 50.0838 70.2287 48.125 67.8125 48.125C65.3963 48.125 63.4375 50.0838 63.4375 52.5C63.4375 54.9162 65.3963 56.875 67.8125 56.875Z" fill="white"/>
<path d="M94.0625 56.875C96.4787 56.875 98.4375 54.9162 98.4375 52.5C98.4375 50.0838 96.4787 48.125 94.0625 48.125C91.6463 48.125 89.6875 50.0838 89.6875 52.5C89.6875 54.9162 91.6463 56.875 94.0625 56.875Z" fill="white"/>
<path d="M119.9 98.6016L98.4375 92.4164V84.8613C103.986 80.5766 108.705 74.6156 110.633 67.8125H117.031C119.061 67.8103 121.007 67.0029 122.443 65.5676C123.878 64.1322 124.685 62.1861 124.688 60.1562V47.0312C124.685 45.0014 123.878 43.0553 122.443 41.6199C121.007 40.1846 119.061 39.3772 117.031 39.375H111.562V35C111.562 26.8777 108.336 19.0882 102.593 13.3449C96.8493 7.60155 89.0598 4.375 80.9375 4.375C72.8152 4.375 65.0257 7.60155 59.2824 13.3449C53.5391 19.0882 50.3125 26.8777 50.3125 35V39.375H44.8438C42.8139 39.3772 40.8678 40.1846 39.4324 41.6199C37.9971 43.0553 37.1897 45.0014 37.1875 47.0312V60.1562C37.1897 62.1861 37.9971 64.1322 39.4324 65.5676C40.8678 67.0029 42.8139 67.8103 44.8438 67.8125H45.9375V76.5625C45.9375 77.1427 46.168 77.6991 46.5782 78.1093C46.9884 78.5195 47.5448 78.75 48.125 78.75H57.1238C58.9914 81.0185 61.1094 83.0686 63.4375 84.8613V92.4164L59.0625 93.6769V88.5938C59.0611 87.1438 58.4844 85.7536 57.4591 84.7284C56.4339 83.7031 55.0437 83.1264 53.5938 83.125H7.65625C6.20629 83.1264 4.81613 83.7031 3.79086 84.7284C2.76558 85.7536 2.18895 87.1438 2.1875 88.5938V121.406C2.18895 122.856 2.76558 124.246 3.79086 125.272C4.81613 126.297 6.20629 126.874 7.65625 126.875H18.9055L17.932 131.25H13.125C12.5448 131.25 11.9884 131.48 11.5782 131.891C11.168 132.301 10.9375 132.857 10.9375 133.438C10.9375 134.018 11.168 134.574 11.5782 134.984C11.9884 135.395 12.5448 135.625 13.125 135.625H135.625C136.205 135.625 136.762 135.395 137.172 134.984C137.582 134.574 137.812 134.018 137.812 133.438V121.863C137.811 116.553 136.053 111.392 132.813 107.185C129.573 102.978 125.033 99.96 119.9 98.6016ZM121.508 45.1395C122.146 45.366 119.317 44.5864 119.709 45.1395C120.1 45.6927 120.311 46.3535 120.312 47.0312V60.1562C120.311 60.834 120.1 61.4948 119.709 62.048C119.317 62.6011 124.89 62.8603 121.508 63.2461V45.1395ZM111.562 43.75H113.75V63.4375H111.562V43.75ZM40.6091 62.048C39.9702 61.8215 42.558 62.6011 42.1664 62.048C41.7748 61.4948 41.5638 60.834 41.5625 60.1562V47.0312C41.5638 46.3535 41.7748 45.6927 42.1664 45.1395C42.558 44.5864 38.7362 43.9764 39.375 43.75L40.6091 62.048ZM102.287 98.0793L93.2668 115.227L84.4266 110.895L96.9801 96.5508L102.287 98.0793ZM80.9375 108.24L67.8125 93.2394V87.8008C72.2914 90.393 76.9617 91.875 80.9375 91.875C84.9133 91.875 89.5836 90.393 94.0625 87.8008V93.2394L80.9375 108.24ZM54.6875 35C54.6875 28.0381 57.4531 21.3613 62.3759 16.4384C67.2988 11.5156 73.9756 8.75 80.9375 8.75C87.8994 8.75 94.5762 11.5156 99.4991 16.4384C104.422 21.3613 107.188 28.0381 107.188 35V42.4676C102.561 40.9452 98.5825 37.9079 95.8945 33.8461C95.5801 33.3814 95.0993 33.0551 94.5514 32.9345C94.0034 32.8139 93.4301 32.9083 92.9496 33.198C92.7855 33.2992 76.7512 42.8395 54.6875 43.4465V35ZM48.125 43.75H50.3125V63.4375H48.125V43.75ZM50.3125 74.375V67.8125H51.2422C51.9037 70.1106 52.8537 72.3157 54.0695 74.375H50.3125ZM63.0301 78.75H72.5648C73.0182 80.0285 73.856 81.1353 74.9634 81.9186C76.0709 82.7019 77.3935 83.1233 78.75 83.125H83.125C84.8655 83.125 86.5347 82.4336 87.7654 81.2029C88.9961 79.9722 89.6875 78.303 89.6875 76.5625C89.6875 74.822 88.9961 73.1528 87.7654 71.9221C86.5347 70.6914 84.8655 70 83.125 70H78.75C77.3935 70.0017 76.0709 70.4231 74.9634 71.2064C73.856 71.9897 73.0182 73.0965 72.5648 74.375H59.232C55.3848 68.9938 54.6875 64.0855 54.6875 61.25V47.8215C73.8992 47.3293 88.5473 40.518 93.4555 37.923C96.9113 42.3782 101.737 45.573 107.188 47.0148V61.25C107.188 65.0098 105.968 72.4062 97.7977 79.7289C92.5312 84.4484 85.9113 87.5 80.9375 87.5C75.9637 87.5 69.3438 84.4484 64.0773 79.7289C63.7137 79.4035 63.3664 79.0754 63.0301 78.75ZM76.5625 76.5625C76.5633 75.9826 76.794 75.4267 77.2041 75.0166C77.6142 74.6065 78.1701 74.3758 78.75 74.375H83.125C83.7052 74.375 84.2616 74.6055 84.6718 75.0157C85.082 75.4259 85.3125 75.9823 85.3125 76.5625C85.3125 77.1427 85.082 77.6991 84.6718 78.1093C84.2616 78.5195 83.7052 78.75 83.125 78.75H78.75C78.1701 78.7492 77.6142 78.5185 77.2041 78.1084C76.794 77.6983 76.5633 77.1424 76.5625 76.5625ZM64.8949 96.5508L77.4266 110.873L68.7504 115.21L59.7188 98.041L64.8949 96.5508ZM22.4137 131.25V131.891L40.6091 132.508L35.432 115.938L37.4746 125.128L38.8363 131.25H22.4137ZM41.3738 122.5L39.323 113.274C39.2151 112.788 38.9446 112.354 38.5563 112.043C38.168 111.732 37.6851 111.562 37.1875 111.562H24.0625C23.5649 111.562 23.082 111.732 22.6937 112.043C22.3054 112.354 22.0349 112.788 21.927 113.274L19.8762 122.5H7.65625C7.36617 122.5 7.08797 122.385 6.88285 122.18C6.67773 121.975 6.5625 121.696 6.5625 121.406V88.5938C6.5625 88.3037 6.67773 88.0255 6.88285 87.8204C7.08797 87.6152 7.36617 87.5 7.65625 87.5H53.5938C53.8838 87.5 54.162 87.6152 54.3671 87.8204C54.5723 88.0255 54.6875 88.3037 54.6875 88.5938V121.406C54.6875 121.696 54.5723 121.975 54.3671 122.18C54.162 122.385 53.8838 122.5 53.5938 122.5H41.3738ZM72.7973 131.25H43.318L42.3445 126.875H53.5938C55.0437 126.874 56.4339 126.297 57.4591 125.272C58.4844 124.246 59.0611 122.856 59.0625 121.406V106.192L65.8766 119.142C66.1432 119.649 66.5975 120.031 67.1423 120.207C67.687 120.382 68.279 120.338 68.7914 120.083L70.3336 119.309L74.2 127.042L72.7973 131.25ZM77.4102 131.25L85.8685 131.891L83.7977 129.062L84.618 131.25H77.4102ZM83.9617 124.688H77.9133L74.2465 117.354L80.8855 114.034L87.634 117.338L83.9617 124.688ZM133.438 131.25H122.5V124.688C122.5 124.107 122.27 123.551 121.859 123.141C121.449 122.73 120.893 122.5 120.312 122.5C119.732 122.5 119.176 122.73 118.766 123.141C118.355 123.551 118.125 124.107 118.125 124.688V131.25H89.2883L87.6969 127.001L91.5633 119.263L93.2504 120.088C93.5487 120.236 93.8772 120.313 94.2102 120.312C94.6093 120.313 95.001 120.204 95.3427 119.998C95.6844 119.791 95.9632 119.496 96.1488 119.142L106.58 99.3152L118.713 102.812C118.73 102.816 118.746 102.82 118.762 102.826C122.966 103.934 126.686 106.403 129.34 109.846C131.995 113.29 133.436 117.515 133.438 121.863V131.25Z" fill="white"/>
<path d="M6.5625 131.25H4.375C3.79484 131.25 3.23844 131.48 2.8282 131.891C2.41797 132.301 2.1875 132.857 2.1875 133.438C2.1875 134.018 2.41797 134.574 2.8282 134.984C3.23844 135.395 3.79484 135.625 4.375 135.625H6.5625C7.14266 135.625 7.69906 135.395 8.1093 134.984C8.51953 134.574 8.75 134.018 8.75 133.438C8.75 132.857 8.51953 132.301 8.1093 131.891C7.69906 131.48 7.14266 131.25 6.5625 131.25Z" fill="white"/>
</svg>
