<svg width="140" height="140" viewBox="0 0 140 140" fill="none" xmlns="http://www.w3.org/2000/svg">
<path d="M63.4375 126.875L72.1875 120.312L80.9375 126.875L76.5625 135.625H67.8125L63.4375 126.875Z" fill="white"/>
<path d="M63.4375 126.875L72.1875 120.312L80.9375 126.875L76.5625 135.625H67.8125L63.4375 126.875Z" fill="white"/>
<path d="M63.4375 126.875L72.1875 120.312L80.9375 126.875L76.5625 135.625H67.8125L63.4375 126.875Z" fill="white"/>
<path d="M87.5 129.062L98.4375 122.5L107.188 126.875L100.625 137.812H91.875V131.25L87.5 129.062Z" fill="white"/>
<path d="M87.5 129.062L98.4375 122.5L107.188 126.875L100.625 137.812H91.875V131.25L87.5 129.062Z" fill="white"/>
<path d="M87.5 129.062L98.4375 122.5L107.188 126.875L100.625 137.812H91.875V131.25L87.5 129.062Z" fill="white"/>
<path d="M113.75 129.062L122.5 122.5L133.438 126.875L126.875 137.812L122.5 135.625L118.125 137.812V131.25L113.75 129.062Z" fill="white"/>
<path d="M113.75 129.062L122.5 122.5L133.438 126.875L126.875 137.812L122.5 135.625L118.125 137.812V131.25L113.75 129.062Z" fill="white"/>
<path d="M113.75 129.062L122.5 122.5L133.438 126.875L126.875 137.812L122.5 135.625L118.125 137.812V131.25L113.75 129.062Z" fill="white"/>
<path d="M132.838 0H54.124C52.5408 0 51.2529 1.28789 51.2529 2.87109V9.2966H44.8274C43.2442 9.2966 41.9563 10.5845 41.9563 12.1677V37.3406L11.8388 52.3925C10.2066 53.2082 9.19271 54.8483 9.19271 56.6729V72.4541C9.19271 77.8083 9.826 82.5858 11.0319 86.9179C6.90842 90.4731 4.29053 95.7288 4.29053 101.588C4.29053 112.27 12.9812 120.961 23.6633 120.961C26.1986 120.961 28.6194 120.466 30.8408 119.576V130.577C30.8408 131.798 31.5621 132.907 32.6785 133.403C33.7944 133.898 35.1017 133.689 36.0074 132.87L43.528 126.066L51.0489 132.87C51.6283 133.394 52.3718 133.668 53.1245 133.668C53.5484 133.668 53.9755 133.581 54.3777 133.402C55.4942 132.907 56.2155 131.797 56.2155 130.576V114.416H71.6406C72.7735 114.416 73.6914 113.498 73.6914 112.365C73.6914 111.232 72.7735 110.314 71.6406 110.314H60.3258C64.6721 106.594 68.3014 102.604 71.111 98.1003H107.055C108.187 98.1003 109.105 97.1822 109.105 96.0496C109.105 94.917 108.187 93.9988 107.055 93.9988H73.3671C74.1751 92.3163 74.8806 90.563 75.477 88.7275H82.3047C83.4376 88.7275 84.3555 87.8093 84.3555 86.6767C84.3555 85.5441 83.4376 84.6259 82.3047 84.6259H76.6005C76.9779 82.938 77.271 81.182 77.4802 79.3546H107.054C108.187 79.3546 109.105 78.4364 109.105 77.3038C109.105 76.1712 108.187 75.253 107.054 75.253H77.7965C77.8362 74.3359 77.8624 73.4068 77.8624 72.4538V69.9817H107.054C108.187 69.9817 109.105 69.0635 109.105 67.9309C109.105 66.7983 108.187 65.8801 107.054 65.8801H77.8627V60.6088H88.3203C89.4532 60.6088 90.3711 59.6906 90.3711 58.558C90.3711 57.4254 89.4532 56.5072 88.3203 56.5072H77.857C77.7976 54.7496 76.799 53.183 75.2167 52.3923L72.9031 51.2359H107.054C108.187 51.2359 109.105 50.3177 109.105 49.1851C109.105 48.0525 108.187 47.1343 107.054 47.1343H64.6962L46.0576 37.8191V13.3982H122.311V28.7109C122.311 29.8435 123.229 30.7617 124.362 30.7617C125.495 30.7617 126.413 29.8435 126.413 28.7109V12.1677C126.413 10.5845 125.125 9.2966 123.542 9.2966H55.3544V4.10156H131.608V101.018H126.413V38.2812C126.413 37.1487 125.495 36.2305 124.362 36.2305C123.229 36.2305 122.311 37.1487 122.311 38.2812V110.315H81.211C80.0781 110.315 79.1602 111.233 79.1602 112.365C79.1602 113.498 80.0781 114.416 81.211 114.416H123.542C125.125 114.416 126.413 113.128 126.413 111.545V105.119H132.838C134.422 105.119 135.71 103.832 135.71 102.248V2.87109C135.71 1.28789 134.422 0 132.838 0V0ZM8.39209 101.588C8.39209 93.1673 15.2428 86.3166 23.6633 86.3166C32.0838 86.3166 38.9345 93.1673 38.9345 101.588C38.9345 110.008 32.0838 116.859 23.6633 116.859C15.2428 116.859 8.39209 110.008 8.39209 101.588ZM45.602 122.412C44.4194 121.342 42.6355 121.342 41.4534 122.412L34.9421 128.302V117.324C39.8382 113.804 43.0358 108.064 43.0358 101.588C43.0358 99.8203 42.7933 98.1091 42.3476 96.4808C42.7386 96.5032 43.1312 96.5188 43.5277 96.5188C46.5856 96.5188 49.49 95.8568 52.1134 94.6769V128.302L45.602 122.412ZM73.7612 56.6729V72.4541C73.7612 83.2535 71.0686 91.7883 65.2881 99.3136C62.8751 102.455 59.9468 105.415 56.2149 108.433V92.2409C61.267 88.4004 64.5365 82.3309 64.5365 75.5098C64.5365 72.1364 63.7126 68.7766 62.1537 65.794C61.6293 64.7902 60.3901 64.4019 59.3863 64.9264C58.3825 65.4508 57.9939 66.69 58.5187 67.6938C59.7901 70.1269 60.4349 72.7568 60.4349 75.51C60.4349 84.8326 52.8506 92.4172 43.5277 92.4172C42.5209 92.4172 41.5349 92.3267 40.5762 92.1566C37.984 87.5265 33.5481 84.0654 28.2677 82.7728C27.2142 80.5711 26.6205 78.1093 26.6205 75.51C26.6205 66.1875 34.2049 58.6029 43.5277 58.6029C46.8254 58.6029 50.0235 59.5563 52.777 61.3599C53.7237 61.9806 54.9954 61.7159 55.6161 60.7682C56.2368 59.8207 55.9719 58.5495 55.0244 57.9291C51.6015 55.6866 47.626 54.5013 43.5277 54.5013C31.9435 54.5013 22.519 63.9256 22.519 75.51C22.519 77.8548 22.9081 80.1095 23.6215 82.2164C20.3771 82.2232 17.3193 83.0342 14.6322 84.4566C13.7362 80.7661 13.2943 76.7955 13.2943 72.4544V56.6732C13.2943 56.4126 13.4389 56.1783 13.6722 56.0618L43.5274 41.1406L73.383 56.0618C73.6162 56.178 73.7612 56.4123 73.7612 56.6729Z" fill="white"/>
<path d="M59.2642 39.8129C59.2642 40.9455 60.1824 41.8637 61.3149 41.8637H107.055C108.188 41.8637 109.106 40.9455 109.106 39.8129C109.106 38.6803 108.188 37.7621 107.055 37.7621H61.3149C60.1821 37.7621 59.2642 38.6801 59.2642 39.8129Z" fill="white"/>
<path d="M107.054 56.5078H95.9766C94.8437 56.5078 93.9258 57.426 93.9258 58.5586C93.9258 59.6912 94.8437 60.6094 95.9766 60.6094H107.055C108.187 60.6094 109.105 59.6912 109.105 58.5586C109.105 57.426 108.187 56.5078 107.054 56.5078Z" fill="white"/>
<path d="M107.054 84.6262H89.6875C88.5546 84.6262 87.6367 85.5444 87.6367 86.677C87.6367 87.8096 88.5546 88.7278 89.6875 88.7278H107.055C108.187 88.7278 109.105 87.8096 109.105 86.677C109.105 85.5444 108.187 84.6262 107.054 84.6262Z" fill="white"/>
<path d="M98.2437 28.3245C99.3766 28.3245 100.295 27.4063 100.295 26.2737C100.295 25.1412 99.3766 24.223 98.2437 24.223H70.125C68.9924 24.223 68.0742 25.1412 68.0742 26.2737C68.0742 27.4063 68.9924 28.3245 70.125 28.3245H98.2437Z" fill="white"/>
<path d="M49.8582 70.7417L42.5486 78.0512L37.7659 73.2685C36.965 72.4676 35.6664 72.4676 34.8658 73.2685C34.0649 74.0694 34.0649 75.368 34.8658 76.1686L41.0986 82.4013C41.4989 82.8019 42.0239 83.0021 42.5486 83.0021C43.0733 83.0021 43.5983 82.8019 43.9986 82.4013L52.7585 73.6418C53.5594 72.8409 53.5594 71.5423 52.7585 70.7417C51.9573 69.9408 50.6588 69.9408 49.8582 70.7417Z" fill="white"/>
<path d="M81.1672 123.959L76.9653 123.348L75.0865 119.541C75.0865 119.541 75.0865 119.54 75.0862 119.54C74.5615 118.477 73.4989 117.817 72.3133 117.817C71.128 117.817 70.0654 118.477 69.5404 119.541L67.6613 123.348L63.4595 123.959C62.2861 124.129 61.3297 124.936 60.9633 126.063C60.5968 127.191 60.8965 128.405 61.7458 129.233L64.7862 132.197L64.0684 136.381C63.868 137.55 64.3394 138.709 65.2986 139.406C65.8405 139.8 66.4746 140 67.1134 140C67.6047 140 68.0988 139.881 68.5552 139.641L72.3133 137.666L76.0714 139.641C77.1209 140.193 78.368 140.103 79.3278 139.406C80.287 138.709 80.7584 137.55 80.558 136.381L79.8402 132.197L82.8808 129.233C83.7296 128.406 84.0295 127.191 83.6631 126.063C83.297 124.936 82.3408 124.129 81.1672 123.959ZM76.5975 129.63C75.8685 130.341 75.536 131.364 75.7083 132.367L76.1699 135.059L73.7524 133.789C73.3018 133.552 72.8074 133.433 72.313 133.433C71.8187 133.433 71.3249 133.552 70.8742 133.788L68.4568 135.059L68.9183 132.367C69.0903 131.364 68.7578 130.341 68.0288 129.63L66.073 127.724L68.7759 127.331C69.7829 127.185 70.6533 126.552 71.1042 125.639L72.3128 123.19L73.5216 125.639C73.972 126.552 74.8426 127.185 75.8502 127.331L78.5531 127.724L76.5975 129.63Z" fill="white"/>
<path d="M106.544 123.959L102.342 123.348L100.464 119.541C100.464 119.541 100.464 119.54 100.463 119.54C99.9387 118.477 98.8761 117.817 97.6905 117.817C96.5051 117.817 95.4425 118.477 94.9175 119.541L93.0388 123.348L88.8366 123.959C87.6633 124.129 86.7071 124.936 86.3407 126.063C85.9742 127.191 86.2742 128.405 87.123 129.233L90.1636 132.197L89.4458 136.381C89.2451 137.55 89.7162 138.708 90.6752 139.406C91.6341 140.103 92.8821 140.193 93.9324 139.641L97.6902 137.666L101.448 139.641C101.905 139.881 102.399 140 102.89 140C103.528 140 104.162 139.8 104.705 139.406C105.664 138.709 106.135 137.55 105.935 136.381L105.217 132.197L108.258 129.233C109.106 128.406 109.406 127.191 109.04 126.063C108.674 124.936 107.718 124.129 106.544 123.959ZM101.975 129.63C101.246 130.341 100.913 131.364 101.085 132.367L101.547 135.059L99.1296 133.789C98.679 133.552 98.1846 133.433 97.6902 133.433C97.1958 133.433 96.702 133.552 96.2514 133.788L93.8336 135.059L94.2955 132.367C94.4675 131.364 94.135 130.341 93.406 129.63L91.4501 127.724L94.153 127.331C95.1606 127.185 96.031 126.552 96.4816 125.639L97.6902 123.19L98.8991 125.639C99.3494 126.552 100.22 127.185 101.228 127.331L103.931 127.724L101.975 129.63Z" fill="white"/>
<path d="M131.921 123.959L127.719 123.348L125.84 119.541C125.84 119.541 125.84 119.54 125.84 119.54C125.315 118.477 124.253 117.817 123.067 117.817C121.882 117.817 120.819 118.477 120.294 119.541L118.415 123.348L114.213 123.959C113.04 124.129 112.084 124.936 111.717 126.063C111.351 127.191 111.651 128.406 112.499 129.233L115.54 132.197L114.822 136.381C114.622 137.55 115.093 138.709 116.052 139.406C116.594 139.8 117.228 140 117.867 140C118.358 140 118.852 139.881 119.309 139.641L123.067 137.666L126.825 139.641C127.874 140.193 129.121 140.103 130.081 139.406C131.04 138.709 131.512 137.55 131.311 136.381L130.594 132.197L133.635 129.233C134.483 128.405 134.783 127.19 134.416 126.063C134.05 124.936 133.094 124.129 131.921 123.959ZM127.352 129.629C126.622 130.34 126.29 131.363 126.462 132.367L126.924 135.059L124.506 133.789C124.056 133.552 123.561 133.433 123.067 133.433C122.573 133.433 122.079 133.552 121.628 133.788L119.21 135.059L119.672 132.367C119.844 131.364 119.511 130.341 118.782 129.63L116.827 127.724L119.53 127.331C120.536 127.185 121.406 126.553 121.858 125.639L123.067 123.19L124.276 125.639C124.726 126.552 125.597 127.185 126.604 127.331L129.307 127.724L127.352 129.629Z" fill="white"/>
<path d="M31.6541 96.9344L27.9843 96.4009L26.3431 93.0753C25.8362 92.0483 24.8099 91.4101 23.6645 91.4101C22.5191 91.4101 21.4926 92.0483 20.9859 93.0753L19.3448 96.4009L15.6752 96.9341C14.5418 97.0987 13.6179 97.8777 13.2638 98.9668C12.9097 100.056 13.1992 101.23 14.0196 102.029L16.6752 104.618L16.0485 108.272C15.8549 109.402 16.3101 110.521 17.2368 111.194C17.7605 111.575 18.373 111.768 18.9898 111.768C19.4645 111.768 19.9417 111.654 20.3827 111.422L23.6651 109.696L26.9474 111.422C27.9613 111.955 29.1666 111.868 30.0933 111.194C31.02 110.521 31.4753 109.402 31.2817 108.273L30.655 104.618L33.3106 102.029C34.1309 101.23 34.4205 100.056 34.0664 98.9668C33.7112 97.8777 32.7872 97.099 31.6541 96.9344ZM27.3715 102.09C26.6674 102.776 26.3461 103.765 26.5124 104.734L26.8566 106.741H27.3715C26.5012 106.283 28.4373 109.375 30.8558 107L29.0535 107.948L29.3978 105.941C29.564 104.972 29.2427 103.983 28.5386 103.297L27.0804 101.876L29.0945 101.583C30.0683 101.442 30.9093 100.831 31.3444 99.949L32.2456 98.123L24.5652 98.7412C25.0003 99.6236 25.8414 100.234 26.8145 100.376L28.8295 100.668L27.3715 102.09Z" fill="white"/>
</svg>
