<svg width="140" height="140" viewBox="0 0 140 140" fill="none" xmlns="http://www.w3.org/2000/svg">
<path d="M118.125 87.5L109.375 80.9375L100.835 87.3425L105 91.875V98.4375L109.375 96.25H115.938L113.75 91.875L118.125 87.5Z" fill="white"/>
<path d="M50.3125 113.75H54.6875V118.125H50.3125V113.75Z" fill="white"/>
<path d="M50.3125 105H54.6875V109.375H50.3125V105Z" fill="white"/>
<path d="M118.026 83.1123L114.089 83.1408L112.774 79.2295L111.545 78.9758C110.092 78.6761 108.657 78.6761 107.205 78.9758L105.967 79.2317L104.678 83.1364L100.491 83.1189L99.8678 84.2652C99.1613 85.5602 98.621 87.3102 98.4525 88.8305L98.3169 90.0686L101.745 92.6499L100.43 96.8455L101.253 97.7708C102.25 98.893 103.427 99.7811 104.748 100.413L105.947 100.986L109.375 98.3986L112.805 100.984L114.003 100.411C115.325 99.7811 116.502 98.893 117.499 97.7686L118.322 96.8433L117.007 92.6477L120.435 90.0664L120.299 88.8283C120.159 87.5442 119.603 86.0086 118.652 84.263L118.026 83.1123ZM111.91 91.0092L113.371 95.6774C113.319 95.7211 113.262 95.7649 113.205 95.8064L109.375 92.9211L105.544 95.8064C105.488 95.7649 105.431 95.7211 105.378 95.6774L106.839 91.0092L103.027 88.1392C103.083 87.9249 103.149 87.7127 103.219 87.5048L107.839 87.5245L109.287 83.1255C109.348 83.1255 109.41 83.1233 109.471 83.1255L110.954 87.5399L115.382 87.507C115.487 87.7455 115.581 87.973 115.657 88.1895L111.91 91.0092Z" fill="white"/>
<path d="M109.375 70C98.5184 70 89.6875 78.8331 89.6875 89.6875C89.6875 100.542 98.5184 109.375 109.375 109.375C120.232 109.375 129.062 100.542 129.062 89.6875C129.062 78.8331 120.232 70 109.375 70ZM109.375 105C100.933 105 94.0625 98.1313 94.0625 89.6875C94.0625 81.2438 100.933 74.375 109.375 74.375C117.817 74.375 124.688 81.2438 124.688 89.6875C124.688 98.1313 117.817 105 109.375 105Z" fill="white"/>
<path d="M109.375 61.25C97.6522 61.25 87.5678 68.3812 83.2212 78.5334C82.1734 77.84 81.0863 77.2166 79.9444 76.6981C80.0866 76.5362 80.2047 76.3831 80.3622 76.2081C81.5303 74.9416 83.125 73.2047 83.125 69.9803C83.125 66.7559 81.5259 65.0234 80.3556 63.7591C79.3538 62.6762 78.75 62.0222 78.75 60.5084C78.75 58.9947 79.3538 58.3406 80.3556 57.2578C81.5259 55.9934 83.125 54.2609 83.125 51.0366C83.125 47.8122 81.5259 46.0797 80.3556 44.8153C79.3538 43.7303 78.75 43.0741 78.75 41.5625V30.9684C78.75 15.0981 65.8394 2.1875 49.9691 2.1875C41.1775 2.1875 32.9875 6.125 27.4947 12.9894L27.1688 13.3962C21.4397 15.1703 17.5 20.4619 17.5 26.5191V41.5625C17.5 43.0741 16.8962 43.7303 15.8944 44.8153C14.7241 46.0797 13.125 47.8122 13.125 51.0366C13.125 54.2609 14.7241 55.9934 15.8944 57.2578C16.8962 58.3406 17.5 58.9969 17.5 60.5084C17.5 62.02 16.8962 62.6762 15.8944 63.7591C14.7241 65.0256 13.125 66.7581 13.125 69.9803C13.125 73.2025 14.7197 74.9416 15.8856 76.2081C16.0453 76.3831 16.1634 76.5362 16.3056 76.6981C7.78313 80.57 2.1875 89.1209 2.1875 98.6016V126.875H89.6875V136.24L109.375 131.318L129.062 136.24V110.16C134.444 104.982 137.812 97.7266 137.812 89.6875C137.812 74.0075 125.055 61.25 109.375 61.25ZM19.1056 66.7297C20.2759 65.4653 21.875 63.7328 21.875 60.5084C21.875 57.2841 20.2759 55.5516 19.1056 54.2872C18.1038 53.2044 17.5 52.5481 17.5 51.0366C17.5 49.525 18.1038 48.8687 19.1056 47.7837C20.2759 46.5194 21.875 44.7869 21.875 41.5625V26.5191C21.875 22.2141 24.7909 18.48 28.9669 17.4344L29.6844 17.255L30.9116 15.7216C35.5687 9.90062 42.5163 6.5625 49.9691 6.5625C63.4266 6.5625 74.375 17.5109 74.375 30.9684V41.5625C74.375 44.7869 75.9741 46.5194 77.1444 47.7837C78.1462 48.8687 78.75 49.525 78.75 51.0366C78.75 52.5481 78.1462 53.2044 77.1444 54.2872C75.9741 55.5537 74.375 57.2862 74.375 60.5084C74.375 63.7306 75.9741 65.4653 77.1444 66.7297C78.1462 67.8125 78.75 68.4687 78.75 69.9803C78.75 71.4984 78.1462 72.1591 77.1444 73.2484C76.6719 73.7647 76.1403 74.3619 75.6678 75.0837L59.7953 69.4816C58.1787 68.9106 57.0959 67.4384 56.9384 65.7541C64.9841 60.0556 70 50.7369 70 40.4972V30.625H63.9669C58.5659 30.625 53.4909 28.5228 49.6716 24.7034L48.125 23.1569L46.5784 24.7034C42.7591 28.5228 37.6841 30.625 32.2831 30.625H26.25V40.4972C26.25 50.7369 31.2659 60.0556 39.3116 65.7562C39.1519 67.4384 38.0713 68.9128 36.4547 69.4837L20.5822 75.0859C20.1097 74.3641 19.5803 73.7669 19.1056 73.2506C18.1038 72.1591 17.5 71.5006 17.5 69.9803C17.5 68.4687 18.1038 67.8125 19.1056 66.7297ZM48.125 95.9306C46.8191 94.7012 45.5875 93.4019 44.4566 92.0216L48.125 98.4375L51.7934 92.0216C50.6625 93.4019 49.4309 94.7012 48.125 95.9306ZM48.125 65.4959C37.6272 61.6766 30.625 51.7234 30.625 40.4972V35H32.2831C38.1478 35 43.6975 32.9612 48.125 29.2184C52.5525 32.9612 58.1044 35 63.9669 35H65.625V40.4972C65.625 51.7234 58.6228 61.6766 48.125 65.4959ZM47.4338 69.8884L48.125 70.1181L48.8162 69.8884C50.2578 69.4072 51.6381 68.8166 52.9659 68.1494C53.2262 68.9172 53.5894 69.6412 54.0444 70.3041L48.125 79.1809L42.2056 70.2997C42.6606 69.6369 43.0238 68.915 43.2819 68.1472C44.6097 68.8166 45.99 69.4072 47.4338 69.8884ZM37.9116 73.6072C38.2441 73.4891 38.5569 73.3359 38.8697 73.1828L45.4694 83.0812L41.7397 88.3028C38.9747 84.0459 37.0125 79.2947 35.9472 74.3006L37.9116 73.6072ZM54.5125 88.305L50.7828 83.0834L57.3825 73.185C57.6931 73.3381 58.0059 73.4912 58.3384 73.6094L60.305 74.3028C59.2397 79.2969 57.2775 84.0481 54.5125 88.305ZM6.5625 98.6016C6.5625 90.2694 11.8409 82.8078 19.6984 80.0362L31.7887 75.7684C33.7794 84.5687 38.3491 92.6384 44.8853 98.8772L41.5625 101.83V122.5H24.0625V91.875H19.6875V122.5H6.5625V98.6016ZM76.5625 122.5V94.0625H72.1875V122.5H45.9375V103.795L50.2053 99.9994C57.3759 93.6272 62.3525 85.0937 64.4613 75.7684L76.5516 80.0362C78.4394 80.7034 80.1938 81.6637 81.7972 82.8734C81.2569 85.0609 80.9375 87.3337 80.9375 89.6875C80.9375 97.7266 84.3063 104.982 89.6875 110.16V122.5H76.5625ZM124.688 130.635L109.375 126.807L94.0625 130.635V113.612C98.4878 116.454 103.736 118.125 109.375 118.125C115.014 118.125 120.262 116.454 124.688 113.612V130.635ZM109.375 113.75C96.1078 113.75 85.3125 102.955 85.3125 89.6875C85.3125 76.4203 96.1078 65.625 109.375 65.625C122.642 65.625 133.438 76.4203 133.438 89.6875C133.438 102.955 122.642 113.75 109.375 113.75Z" fill="white"/>
<path d="M131.25 2.1875H89.6875C86.0694 2.1875 83.125 5.13187 83.125 8.75V37.1875C83.125 40.8056 86.0694 43.75 89.6875 43.75H102.812V50.4131C102.812 53.9766 105.711 56.875 109.274 56.875C111.44 56.875 113.45 55.7987 114.651 53.9984L121.483 43.75H131.25C134.868 43.75 137.812 40.8056 137.812 37.1875V8.75C137.812 5.13187 134.868 2.1875 131.25 2.1875ZM133.438 37.1875C133.438 38.3928 132.458 39.375 131.25 39.375H119.142L111.011 51.5703C110.622 52.1522 109.972 52.5 109.274 52.5C108.124 52.5 107.188 51.5637 107.188 50.4131V39.375H89.6875C88.48 39.375 87.5 38.3928 87.5 37.1875V8.75C87.5 7.54469 88.48 6.5625 89.6875 6.5625H131.25C132.458 6.5625 133.438 7.54469 133.438 8.75V37.1875Z" fill="white"/>
<path d="M107.189 27.5318L102.173 22.5159L99.0796 25.609L107.189 33.7181L126.235 14.6715L123.142 11.5784L107.189 27.5318Z" fill="white"/>
</svg>
