<svg width="140" height="140" viewBox="0 0 140 140" fill="none" xmlns="http://www.w3.org/2000/svg">
<path d="M112.203 5.0156L106.281 10.9375H98.4375C97.8573 10.9375 97.301 11.168 96.8907 11.5782C96.4805 11.9885 96.25 12.5448 96.25 13.125V20.9687L88.7812 28.4375H80.9375C80.3573 28.4375 79.801 28.668 79.3907 29.0782C78.9805 29.4885 78.75 30.0448 78.75 30.625V38.4687L71.2812 45.9375H63.4375C62.8573 45.9375 62.301 46.168 61.8907 46.5782C61.4805 46.9885 61.25 47.5448 61.25 48.125V55.9687L51.594 65.625H44.1148C44.7197 62.0078 46.0786 58.5583 48.1033 55.5003C50.1279 52.4424 52.7731 49.8445 55.867 47.8753L53.508 44.1909C47.9269 47.7581 43.6527 53.0385 41.3263 59.2402C38.9998 65.4419 38.7466 72.2307 40.6046 78.5885C42.4626 84.9463 46.3316 90.5304 51.6314 94.5035C56.9312 98.4766 63.3763 100.624 70 100.625H98.0965C90.4284 107.656 80.4038 111.559 70 111.562C47.0823 111.562 28.2709 80.6299 28.2709 57.7121L24.0625 59.0625C24.0613 62.7481 24.5043 77.3579 25.3817 80.9375L26.25 59.0625C26.6097 58.8221 28.1053 58.1118 28.2709 57.7121L31.8042 49.1819C31.9698 48.7822 32.0132 48.3424 31.9288 47.918C31.8444 47.4936 31.6361 47.1038 31.3302 46.7979L18.9556 34.4238L34.4238 18.9556L46.7979 31.3302C47.1038 31.6362 47.4936 31.8446 47.918 31.929C48.3423 32.0133 48.7822 31.9699 49.1819 31.8042L57.7121 28.2709C58.1118 28.1053 58.4534 27.8249 58.6938 27.4652C58.9342 27.1055 59.0625 26.6826 59.0625 26.25V8.75H80.9375V21.875H85.3125V6.5625C85.3125 5.98235 85.082 5.42596 84.6718 5.01574C84.2615 4.60551 83.7052 4.37503 83.125 4.375H56.875C56.2948 4.37503 55.7385 4.60551 55.3282 5.01574C54.918 5.42596 54.6875 5.98235 54.6875 6.5625V24.7883L48.858 27.203L35.9706 14.3151C35.5603 13.905 35.0039 13.6745 34.4238 13.6745C33.8436 13.6745 33.2872 13.905 32.8769 14.3151L14.3151 32.8769C13.905 33.2872 13.6745 33.8436 13.6745 34.4238C13.6745 35.0039 13.905 35.5603 14.3151 35.9706L27.203 48.858L24.7883 54.6875H6.5625C5.98235 54.6875 5.42596 54.918 5.01574 55.3282C4.60551 55.7385 4.37503 56.2948 4.375 56.875V83.125C4.37503 83.7052 4.60551 84.2615 5.01574 84.6718C5.42596 85.082 5.98235 85.3125 6.5625 85.3125H24.7883L27.203 91.142L14.3151 104.029C13.905 104.44 13.6745 104.996 13.6745 105.576C13.6745 106.156 13.905 106.713 14.3151 107.123L32.8769 125.685C33.2872 126.095 33.8436 126.325 34.4238 126.325C35.0039 126.325 35.5603 126.095 35.9706 125.685L48.858 112.797L54.6875 115.212V133.438C54.6875 134.018 54.918 134.574 55.3282 134.984C55.7385 135.395 56.2948 135.625 56.875 135.625H83.125C83.7052 135.625 84.2615 135.395 84.6718 134.984C85.082 134.574 85.3125 134.018 85.3125 133.438V115.212L91.142 112.797L104.029 125.685C104.44 126.095 104.996 126.325 105.576 126.325C106.156 126.325 106.713 126.095 107.123 125.685L125.685 107.123C126.095 106.713 126.326 106.156 126.325 105.576C126.325 104.996 126.095 104.44 125.685 104.029L122.28 100.625H133.438C134.018 100.625 134.574 100.394 134.984 99.9843C135.395 99.574 135.625 99.0177 135.625 98.4375V24.0625C135.625 23.4823 135.395 22.926 134.984 22.5157C134.574 22.1055 134.018 21.875 133.438 21.875H115.938C115.357 21.875 114.801 22.1055 114.391 22.5157C113.981 22.926 113.75 23.4823 113.75 24.0625V39.375H98.4375C97.8573 39.375 97.301 39.6055 96.8907 40.0157C96.4805 40.426 96.25 40.9823 96.25 41.5625V52.5H80.9375C80.3573 52.5 79.801 52.7305 79.3907 53.1407C78.9805 53.551 78.75 54.1073 78.75 54.6875V67.8125H63.4375C62.8573 67.8125 62.301 68.043 61.8907 68.4532C61.4805 68.8635 61.25 69.4198 61.25 70V78.75H45.2514C44.2555 75.9403 43.7477 72.981 43.75 70H52.5C53.0802 70 53.6366 69.7696 54.0469 69.3594L64.3438 59.0625H72.1875C72.7677 59.0625 73.324 58.832 73.7343 58.4218C74.1445 58.0115 74.375 57.4552 74.375 56.875V49.0313L81.8438 41.5625H89.6875C90.2677 41.5625 90.824 41.332 91.2343 40.9218C91.6445 40.5115 91.875 39.9552 91.875 39.375V31.5313L99.3438 24.0625H107.188C107.768 24.0625 108.324 23.832 108.734 23.4218C109.144 23.0115 109.375 22.4552 109.375 21.875V14.0313L114.656 8.75H135.625V4.375H113.75C113.17 4.37502 112.613 4.60544 112.203 5.0156ZM30.1093 91.142L18.9556 105.576L30.7254 93.807C34.5716 100.124 39.8756 105.428 46.193 109.275L30.1093 91.142ZM83.125 113.75L59.0625 114.618C66.2481 116.379 73.7526 116.377 80.9375 114.614V131.25L83.125 113.75ZM121.044 105.576L105.576 121.044L122.5 105C126.384 102.647 101.207 104.008 104.236 100.625L102.812 104.029L121.044 105.576ZM118.125 26.25H131.25V96.25H118.125V26.25ZM100.625 43.75H113.75V96.25H100.625V43.75ZM83.125 56.875H96.25V96.25H83.125V56.875ZM65.625 72.1875H78.75V96.25H70C68.534 96.2499 67.0706 96.1273 65.625 95.8834V72.1875ZM61.25 83.125V94.7486C55.3618 92.6513 50.4091 88.5323 47.2738 83.125H61.25ZM70 54.6875H65.625L71.2812 55.3282L70 50.3125V54.6875ZM87.5 37.1875H83.125L89.6875 38.4687L87.5 32.8125V37.1875ZM105 19.6875H100.625L106.281 20.9687L105 15.3125V19.6875Z" fill="white"/>
</svg>
