<svg width="140" height="140" viewBox="0 0 140 140" fill="none" xmlns="http://www.w3.org/2000/svg">
<path d="M133.438 10.9375H118.788L116.274 9.25969C109.331 4.63312 101.253 2.1875 92.9097 2.1875H76.5625C74.1497 2.1875 72.1875 4.14969 72.1875 6.5625C72.1875 8.16375 72.6513 9.64687 73.4037 10.9397L61.25 10.9375C57.6319 10.9375 54.6875 13.8819 54.6875 17.5C54.6875 18.3641 54.8647 19.1844 55.1687 19.9412C53.9481 20.2716 52.8719 20.9366 52.0428 21.8466L49.8313 19.635L46.6441 22.82C45.4388 24.0275 43.6341 24.3775 41.9606 23.6775C40.39 23.0278 39.375 21.5097 39.375 19.8078V15.3125H26.25V19.8078C26.25 21.5097 25.235 23.03 23.5747 23.7125C21.9888 24.3819 20.1841 24.0275 18.9766 22.82L15.7937 19.635L6.51 28.9188L9.69281 32.1037C10.8981 33.3112 11.2503 35.1159 10.5525 36.7872C9.90281 38.3578 8.38469 39.375 6.68281 39.375H2.1875V52.5H6.68281C8.38469 52.5 9.905 53.5172 10.5897 55.1731C11.2525 56.7612 10.9003 58.5659 9.695 59.7734L6.51 62.9563L15.7937 72.24L18.9809 69.055C20.1863 67.8475 21.9888 67.4975 23.6622 68.1931C25.2328 68.8472 26.25 70.3653 26.25 72.0672V76.5625H28.4375V80.9944C28.4375 85.1813 28.9034 89.3528 29.7697 93.4303C27.6828 94.3731 25.6572 95.4734 23.7278 96.7597L21.2122 98.4375H6.5625C4.14969 98.4375 2.1875 100.4 2.1875 102.812V129.062C2.1875 131.475 4.14969 133.438 6.5625 133.438H19.6875C21.4572 133.438 22.9775 132.377 23.6666 130.861C30.5112 135.358 38.5941 137.812 46.8191 137.812H65.625C66.5263 137.812 67.3859 137.629 68.1691 137.298C68.5475 137.432 68.9238 137.572 69.3066 137.699L70 137.931L70.6934 137.701C81.0272 134.258 89.9019 128.177 96.7334 120.382C97.16 120.426 97.5931 120.514 98.0372 120.697C99.6078 121.347 100.625 122.865 100.625 124.567V129.062H113.75V124.567C113.75 122.865 114.767 121.345 116.423 120.66C118.011 120 119.814 120.348 121.021 121.555L124.206 124.74L133.49 115.456L130.307 112.271C129.102 111.064 128.75 109.259 129.447 107.588C130.097 106.017 131.615 105 133.317 105H137.812V91.875H133.317C131.615 91.875 130.095 90.8578 129.41 89.2019C128.747 87.6137 129.1 85.8091 130.305 84.6016L133.488 81.4166L124.204 72.1328L121.017 75.3178C119.812 76.5253 118.009 76.8753 116.333 76.1753C114.765 75.5278 113.75 74.0097 113.75 72.3078V67.8125H111.562V46.0666C113.21 45.2659 114.802 44.3603 116.331 43.3541C117.018 44.8722 118.541 45.9375 120.312 45.9375H133.438C135.85 45.9375 137.812 43.9753 137.812 41.5625V15.3125C137.812 12.8997 135.85 10.9375 133.438 10.9375ZM61.25 15.3125L80.9375 15.3147L87.8719 15.3125C89.1909 15.3125 90.3831 15.9228 91.1991 16.9378C90.2453 17.7603 89.4097 18.69 88.6703 19.6875H61.25C60.0447 19.6875 59.0625 18.7075 59.0625 17.5C59.0625 16.2925 60.0447 15.3125 61.25 15.3125ZM74.7381 35.5294L70.6628 32.8125H85.3125V37.1875H77.5163C76.5691 36.6756 75.6372 36.1309 74.7381 35.5294ZM62.4837 37.1875H61.25C60.0447 37.1875 59.0625 36.2075 59.0625 35C59.0625 33.7925 60.0447 32.8125 61.25 32.8125H69.3372L65.2641 35.5294C64.3628 36.1309 63.4309 36.6756 62.4837 37.1875ZM56.875 24.0625H86.3297C85.8288 25.4603 85.5181 26.9281 85.3978 28.4375H56.875C55.6697 28.4375 54.6875 27.4575 54.6875 26.25C54.6875 25.0425 55.6697 24.0625 56.875 24.0625ZM28.4375 61.25C30.625 59.0625 26.5256 54.4097 24.0625 56.875L24.1544 56.7831C34.4803 54.8253 23.8359 57.225 22.46 53.9263C21.1322 50.7106 21.1006 45.9375 17.6203 45.9375H17.5L18.9809 43.6195H19.1013C22.5816 43.6195 24.0625 35.5294 22.4884 38.8938C23.8359 35.6628 23.0278 42.35 20.5647 39.8847L20.4728 39.7928L23.5703 36.6953L23.6622 36.7872C26.1297 39.2569 25.1409 36.3781 28.4375 35C31.6531 33.6722 32.3313 35.5841 32.3313 32.1037L35 32.8125L37.1875 35L39.6506 35.5294C39.6506 39.0097 36.0916 35.8334 39.375 37.1875C42.6037 38.5394 47.2741 28.3806 49.7394 25.9131L49.8313 25.8212L41.5625 35C41.5887 37.9991 42.5644 37.6338 45.3359 38.3862C45.0319 39.1409 54.6875 34.1359 54.6875 35C52.0428 32.1037 41.2901 34.6884 42.5063 35.8806C39.5226 36.8693 42.5063 35.638 45.3359 40.1417C43.3956 33.7695 39.6419 30.625 32.8125 30.625C24.3687 30.625 17.5 37.4959 17.5 45.9375C17.5 52.8084 22.0041 58.6972 28.4375 60.6025V66.36C28.4375 65.625 29.6887 61.7684 28.4375 61.25ZM28.4375 38.8938V55.9256C24.5284 54.2216 21.875 50.3781 21.875 45.9353C21.875 39.9044 26.7816 34.9978 32.8125 34.9978C37.205 34.9978 41.0091 37.5944 42.7394 41.4291C41.2497 41.3241 39.7644 41.1578 38.29 40.8647L28.4375 38.8938ZM19.6875 129.062H6.5625V102.812H19.6875V129.062ZM65.625 133.438H46.8191C38.6225 133.438 30.5922 130.705 24.0625 125.768V101.795L26.1538 100.4C32.3728 96.2544 39.6134 94.0625 47.0903 94.0625H59.0625C59.0625 96.4753 57.1025 98.4375 54.6963 98.4375H54.6875H48.1119V102.812H54.6875H54.6963H74.375C75.5803 102.812 76.5625 103.793 76.5625 105C76.5625 106.207 75.5803 107.188 74.375 107.188H48.125V111.562H78.75C79.9553 111.562 80.9375 112.543 80.9375 113.75C80.9375 114.957 79.9553 115.938 78.75 115.938H48.125V120.312H74.375C75.5803 120.312 76.5625 121.293 76.5625 122.5C76.5625 123.707 75.5803 124.688 74.375 124.688H48.125V129.062H65.625C66.8303 129.062 67.8125 130.043 67.8125 131.25C67.8125 132.458 66.8303 133.438 65.625 133.438ZM41.5625 80.9944V54.5431C42.8225 54.6394 44.0847 54.6875 45.3359 54.6875C53.655 54.6875 61.1909 52.9834 67.8125 49.6475V98.4375H62.2213C62.9738 97.1447 63.4375 95.6637 63.4375 94.0625C63.4375 91.6497 61.4753 89.6875 59.0625 89.6875H47.0903C45.5284 89.6875 43.9819 89.8013 42.4441 89.9719C41.8688 87.0231 41.5625 84.0131 41.5625 80.9944ZM85.2841 113.463C85.155 110.567 83.1534 108.174 80.4562 107.441C80.7603 106.684 80.9375 105.864 80.9375 105C80.9375 101.382 77.9931 98.4375 74.375 98.4375H72.1875V49.6475C78.8091 52.9856 86.345 54.6875 94.6641 54.6875C95.9153 54.6875 97.1775 54.6394 98.4375 54.5431V80.9966C98.4375 93.2991 93.6359 104.864 85.2841 113.463ZM72.0606 132.506C72.1394 132.099 72.1875 131.679 72.1875 131.25C72.1875 130.48 72.03 129.749 71.785 129.062H74.375C77.8619 129.062 80.6969 126.319 80.8981 122.883C94.6334 113.356 102.812 97.8031 102.812 80.9944V49.6344L100.349 49.9494C98.4616 50.19 96.5475 50.3125 94.6641 50.3125C85.7413 50.3125 77.8313 48.2147 71.1506 44.0759L70 43.3628L68.8494 44.0759C62.1688 48.2147 54.2588 50.3125 45.3359 50.3125C43.4525 50.3125 41.5406 50.19 39.6506 49.9494L37.1875 49.6344V80.9944C37.1875 84.2428 37.5112 87.4803 38.1194 90.6566C36.6909 90.9672 35.2866 91.3675 33.8975 91.8269C33.1909 88.2678 32.8125 84.6388 32.8125 80.9944V44.2312L37.4347 45.1566C40.0313 45.675 42.6912 45.9375 45.3359 45.9375C53.3159 45.9375 61.0466 43.5991 67.69 39.1694L70 37.6294L72.31 39.1694C78.9534 43.5991 86.6819 45.9375 94.6641 45.9375C97.3088 45.9375 99.9688 45.675 102.568 45.1566L107.188 44.2312V80.9966C107.188 103.891 93.1788 124.206 72.0606 132.506ZM111.079 88.2438C115.211 89.8384 118.125 93.8722 118.125 98.4375C118.125 104.468 113.218 109.375 107.188 109.375C106.286 109.375 105.409 109.261 104.554 109.049C107.947 102.664 110.18 95.6331 111.079 88.2438ZM114.737 80.2506C117.965 81.6025 121.649 80.8806 124.114 78.4131L124.206 78.3213L127.304 81.4188L127.212 81.5106C124.749 83.9759 124.027 87.6575 125.403 90.9563C126.731 94.1719 129.837 96.25 133.317 96.25H133.438V100.625H133.317C129.837 100.625 126.731 102.703 125.374 105.989C124.027 109.22 124.749 112.899 127.212 115.364L127.304 115.456L124.206 118.554L124.114 118.462C121.647 115.994 117.965 115.27 114.667 116.653C111.453 117.983 109.375 121.087 109.375 124.567V124.688H105V124.567C105 121.124 102.963 118.055 99.7347 116.673C100.636 115.461 106.378 128.152 107.188 126.875C108.754 127.407 113.05 119.43 114.737 119.43C117.269 119.43 125.026 121.754 126.875 118.125C125.403 102.812 134.603 103.6 135.625 98.4375C128.558 91.2428 127.615 85.5273 127.212 80.2506C127.212 73.43 117.976 79.8919 111.562 78.0128C111.604 77.0962 111.562 81.9197 111.562 80.9944V78.0128C112.416 78.9622 113.488 79.7344 114.737 80.2506ZM101.71 40.8669C97.7287 41.6609 93.6622 41.72 89.6875 41.16V29.8047C89.6875 26.2522 91.1838 22.925 93.7431 20.5559C95.8584 22.7631 98.7897 24.0625 101.966 24.0625H102.812V19.6875H101.966C99.2753 19.6875 96.8603 18.1912 95.6397 15.7456C94.1609 12.7816 91.1859 10.9375 87.8719 10.9375H80.9287C78.5225 10.9375 76.5625 8.97531 76.5625 6.5625H92.9097C100.387 6.5625 107.627 8.75437 113.846 12.8997L115.938 14.2953V38.2812C114.546 39.3334 113.085 40.2872 111.562 41.1381V38.8938L101.71 40.8669ZM133.438 41.5625H120.312V15.3125H133.438V41.5625Z" fill="white"/>
<path d="M104.616 29.0144C99.6858 30.246 95.7812 33.8619 94.1733 38.6832L98.323 40.0679C99.4562 36.6707 102.204 34.1266 105.677 33.2582L107.716 32.7485L106.655 28.5069L104.616 29.0144Z" fill="white"/>
<path d="M2.1875 85.3125H6.5625V89.6875H2.1875V85.3125Z" fill="white"/>
<path d="M10.9375 85.3125H15.3125V89.6875H10.9375V85.3125Z" fill="white"/>
<path d="M19.6875 85.3125H24.0625V89.6875H19.6875V85.3125Z" fill="white"/>
<path d="M115.938 54.6875H120.312V59.0625H115.938V54.6875Z" fill="white"/>
<path d="M124.688 54.6875H129.062V59.0625H124.688V54.6875Z" fill="white"/>
<path d="M133.438 54.6875H137.812V59.0625H133.438V54.6875Z" fill="white"/>
</svg>
