<svg width="140" height="140" viewBox="0 0 140 140" fill="none" xmlns="http://www.w3.org/2000/svg">
<g clip-path="url(#clip0)">
<path d="M46.666 0C27.3361 0 11.666 15.6701 11.666 35V60.6667C11.6762 69.683 18.9831 76.9898 27.9993 77H30.3327V72.3333H27.9993C21.5593 72.3257 16.3403 67.1067 16.3327 60.6667V35C16.3327 18.2472 29.9133 4.66667 46.666 4.66667C63.4188 4.66667 76.9993 18.2472 76.9993 35V60.6667C76.9918 67.1067 71.7727 72.3257 65.3327 72.3333H62.9993V77H65.3327C74.349 76.9898 81.6558 69.683 81.666 60.6667V35C81.666 15.6701 65.9959 0 46.666 0Z" fill="white"/>
<path d="M19.2295 109.967L20.9352 107.282L16.9942 104.78L15.2885 107.468C10.1298 115.598 10.5128 126.065 16.2522 133.795V140H20.9188V133C20.9191 132.47 20.7389 131.955 20.4078 131.541C15.4472 125.34 14.9738 116.672 19.2295 109.967Z" fill="white"/>
<path d="M128.333 0H98.0002C91.5602 0.00758333 86.3411 5.22667 86.3335 11.6667V35C86.3411 41.44 91.5602 46.6591 98.0002 46.6667H102.667V56C102.667 56.9435 103.235 57.7946 104.106 58.156C104.39 58.2741 104.693 58.3342 105 58.3333C105.619 58.3333 106.212 58.0872 106.65 57.6497L117.633 46.6667H128.333C134.773 46.6591 139.993 41.44 140 35V11.6667C139.993 5.22667 134.773 0.00758333 128.333 0ZM135.333 35C135.333 38.866 132.2 42 128.333 42H116.667C116.048 42 115.455 42.2462 115.017 42.6837L107.333 50.3673V44.3333C107.333 43.0448 106.289 42 105 42H98.0002C94.1341 42 91.0002 38.866 91.0002 35V11.6667C91.0002 7.80062 94.1341 4.66667 98.0002 4.66667H128.333C132.2 4.66667 135.333 7.80062 135.333 11.6667V35Z" fill="white"/>
<path d="M114.333 11.6667H97.9995V16.3334H114.333V11.6667Z" fill="white"/>
<path d="M128.334 11.6667H119V16.3334H128.334V11.6667Z" fill="white"/>
<path d="M128.333 20.9999H97.9995V25.6666H128.333V20.9999Z" fill="white"/>
<path d="M114.333 30.3334H97.9995V35H114.333V30.3334Z" fill="white"/>
<path d="M78.0456 107.468L76.3399 104.78L72.3989 107.282L74.1046 109.97C78.3606 116.674 77.8872 125.341 72.9263 131.541C72.5952 131.955 72.415 132.47 72.4153 133V140H77.0819V133.795C82.8214 126.065 83.2043 115.598 78.0456 107.468Z" fill="white"/>
<path d="M137.667 79.3331H116.667C107.912 79.3433 100.722 86.254 100.366 95.0014L93.3333 107.662V97.9997C93.3231 88.9834 86.0163 81.6766 77 81.6664H68.4717L68.4087 81.6174L68.3667 81.6664H63C60.4225 81.6664 58.3333 79.5772 58.3333 76.9998V71.5094C65.543 67.3468 69.9889 59.6581 70 51.3331V32.6665C69.9965 28.8004 69.0346 24.9957 67.2 21.5925C66.6123 20.5098 65.284 20.0703 64.1667 20.5892L24.6727 39.1718C23.8548 39.5568 23.333 40.3796 23.3333 41.2835V51.3331C23.3444 59.6581 27.7903 67.3468 35 71.5094V76.9998C35 79.5772 32.9108 81.6664 30.3333 81.6664H16.3333C7.31704 81.6766 0.0102083 88.9834 0 97.9997V140H4.66667V97.9997C4.67425 91.5597 9.89333 86.3407 16.3333 86.3331H23.758L44.7697 115.691C45.2013 116.294 45.8943 116.656 46.6363 116.666H46.6667C47.4011 116.666 48.0926 116.32 48.5333 115.733L70.7 86.3331H77C83.44 86.3407 88.6591 91.5597 88.6667 97.9997V116.666C88.6678 117.955 89.7135 118.999 91.002 118.998C91.8485 118.997 92.6281 118.538 93.0393 117.798L104.039 97.9997H117.416L94.6657 140H99.974L122.733 97.9997H123.667C132.683 97.9895 139.99 90.6827 140 81.6664C140 80.3778 138.955 79.3331 137.667 79.3331ZM28 51.3331V42.7651L64.029 25.8112C64.8909 27.994 65.3333 30.3197 65.3333 32.6665V51.3331C65.3333 61.6424 56.9759 69.9998 46.6667 69.9998C36.3574 69.9998 28 61.6424 28 51.3331ZM46.7157 110.394L50.7814 105L54.299 100.333L46.7157 110.394ZM57.8293 95.6664H36.1667L29.4863 86.3331H30.3333C35.488 86.3331 39.6667 82.1544 39.6667 76.9998V73.5908C44.2231 75.0249 49.1103 75.0249 53.6667 73.5908V76.9998C53.6667 82.1544 57.8454 86.3331 63 86.3331H64.8667L57.8293 95.6664ZM135.048 83.9997C136.164 78.571 111.124 84.0059 116.667 83.9997H135.048C133.932 89.4285 131.25 80.9376 135.048 83.9997Z" fill="white"/>
</g>
<defs>
<clipPath id="clip0">
<rect width="140" height="140" fill="white"/>
</clipPath>
</defs>
</svg>
