<svg width="32" height="32" viewBox="0 0 32 32" fill="none" xmlns="http://www.w3.org/2000/svg">
<g clip-path="url(#clip0)">
<path d="M12.4748 27.8146C12.9515 27.9449 13.4733 27.8746 13.8819 27.5896C14.0431 27.4771 14.1814 27.3404 14.2986 27.1889C14.4133 27.4047 14.56 27.6009 14.7481 27.7464C14.9529 27.9048 15.2471 27.8672 15.4055 27.6625C15.5639 27.4577 15.5263 27.1634 15.3216 27.0051C15.0927 26.8281 14.8992 26.2859 14.8401 25.656C14.8174 25.4145 14.6168 25.2313 14.3716 25.2311C14.1291 25.2321 13.9273 25.418 13.9066 25.6598C13.8646 26.1496 13.6391 26.6162 13.3456 26.821C13.1653 26.9467 12.9613 26.9761 12.7221 26.9106C12.5416 26.8612 12.1187 26.7456 12.2036 25.6983C12.2068 25.6593 12.2113 25.6203 12.2157 25.5812C12.3044 25.5788 12.3927 25.5752 12.4801 25.5696C12.7384 25.5529 12.9343 25.3299 12.9176 25.0716C12.9011 24.8172 12.6845 24.6233 12.4311 24.634C12.5853 24.1623 12.7912 23.7163 12.9786 23.3388C13.0936 23.107 12.9989 22.8258 12.7671 22.7107C12.5353 22.5956 12.254 22.6903 12.139 22.9222C11.8974 23.4089 11.6279 24.0012 11.4508 24.6394C11.4028 24.6381 11.3554 24.6369 11.3068 24.6355C11.3374 23.9406 11.2959 23.3146 11.2587 22.9308C11.2337 22.6731 11.0044 22.4844 10.747 22.5096C10.4894 22.5346 10.3008 22.7637 10.3258 23.0213C10.3854 23.6355 10.3952 24.1658 10.3734 24.6203C9.6882 24.6293 9.00451 24.7064 8.36407 25.0104C7.46726 25.4361 7.15707 26.1712 7.53445 26.977C8.03982 28.0562 9.87745 28.5208 10.5968 27.4094C10.9323 26.8911 11.1201 26.2336 11.2193 25.5706C11.2234 25.5708 11.2276 25.5709 11.2318 25.571C11.246 25.5714 11.2603 25.5718 11.2745 25.5723C11.2729 25.5891 11.2707 25.6059 11.2693 25.6228C11.1474 27.1284 11.8576 27.6458 12.4748 27.8146ZM9.80995 26.8999C9.68476 27.0933 9.42701 27.1059 9.28445 27.0961C8.90264 27.0701 8.50676 26.8431 8.38326 26.5793C8.30076 26.4032 8.17614 26.1369 8.76601 25.857C9.21476 25.644 9.7337 25.5756 10.2715 25.5604C10.1353 26.3283 9.91145 26.7431 9.80995 26.8999Z" fill="#1D4989"/>
<path d="M26.4227 0H5.57831C4.9665 0 4.46875 0.49775 4.46875 1.10956V3.18475C4.46875 3.44356 4.67856 3.65337 4.93738 3.65337C5.19619 3.65337 5.406 3.44356 5.406 3.18475V1.10956C5.406 1.01456 5.48331 0.937312 5.57825 0.937312H26.4226C26.5176 0.937312 26.5948 1.01463 26.5948 1.10956V7.41381H5.40606V5.2845C5.40606 5.02569 5.19625 4.81588 4.93744 4.81588C4.67863 4.81588 4.46881 5.02569 4.46881 5.2845V30.8905C4.46881 31.5023 4.96656 32.0001 5.57838 32.0001H20.3667C20.6256 32.0001 20.8354 31.7902 20.8354 31.5314C20.8354 31.2726 20.6256 31.0628 20.3667 31.0628H5.57831C5.48331 31.0628 5.40606 30.9855 5.40606 30.8906V8.35119H26.5949V30.8906C26.5949 30.9856 26.5176 31.0628 26.4227 31.0628H22.5364C22.2776 31.0628 22.0677 31.2726 22.0677 31.5314C22.0677 31.7902 22.2776 32.0001 22.5364 32.0001H26.4227C27.0345 32.0001 27.5322 31.5023 27.5322 30.8905V1.10956C27.5322 0.49775 27.0344 0 26.4227 0V0Z" fill="#1D4989"/>
<path d="M8.60925 3.95776H10.1652C10.424 3.95776 10.6338 3.74795 10.6338 3.48913C10.6338 3.23032 10.424 3.02051 10.1652 3.02051H8.60925C8.35044 3.02051 8.14062 3.23032 8.14062 3.48913C8.14062 3.74795 8.35044 3.95776 8.60925 3.95776Z" fill="#1D4989"/>
<path d="M8.60925 5.75317H13.9352C14.1941 5.75317 14.4039 5.54336 14.4039 5.28454C14.4039 5.02573 14.1941 4.81592 13.9352 4.81592H8.60925C8.35044 4.81592 8.14062 5.02573 8.14062 5.28454C8.14062 5.54336 8.35044 5.75317 8.60925 5.75317Z" fill="#1D4989"/>
<path d="M8.60925 10.6602H13.6361C13.8949 10.6602 14.1047 10.4503 14.1047 10.1915C14.1047 9.93271 13.8949 9.7229 13.6361 9.7229H8.60925C8.35044 9.7229 8.14062 9.93271 8.14062 10.1915C8.14062 10.4503 8.35044 10.6602 8.60925 10.6602Z" fill="#1D4989"/>
<path d="M8.60925 12.4556H23.3904C23.6492 12.4556 23.859 12.2457 23.859 11.9869C23.859 11.7281 23.6492 11.5183 23.3904 11.5183H8.60925C8.35044 11.5183 8.14062 11.7281 8.14062 11.9869C8.14062 12.2457 8.35044 12.4556 8.60925 12.4556Z" fill="#1D4989"/>
<path d="M8.60925 14.2507H10.1652C10.424 14.2507 10.6338 14.0409 10.6338 13.7821C10.6338 13.5233 10.424 13.3135 10.1652 13.3135H8.60925C8.35044 13.3135 8.14062 13.5233 8.14062 13.7821C8.14062 14.0409 8.35044 14.2507 8.60925 14.2507Z" fill="#1D4989"/>
<path d="M23.859 13.7821C23.859 13.5233 23.6492 13.3135 23.3904 13.3135H12.2596C12.0008 13.3135 11.791 13.5233 11.791 13.7821C11.791 14.0409 12.0008 14.2507 12.2596 14.2507H23.3904C23.6492 14.2507 23.859 14.0409 23.859 13.7821Z" fill="#1D4989"/>
<path d="M17.396 15.5775C17.396 15.3187 17.1862 15.1089 16.9274 15.1089H8.60925C8.35044 15.1089 8.14062 15.3187 8.14062 15.5775C8.14062 15.8363 8.35044 16.0462 8.60925 16.0462H16.9274C17.1862 16.0462 17.396 15.8364 17.396 15.5775Z" fill="#1D4989"/>
<path d="M8.60925 17.8413H10.1652C10.424 17.8413 10.6338 17.6315 10.6338 17.3727C10.6338 17.1139 10.424 16.9041 10.1652 16.9041H8.60925C8.35044 16.9041 8.14062 17.1139 8.14062 17.3727C8.14062 17.6315 8.35044 17.8413 8.60925 17.8413Z" fill="#1D4989"/>
<path d="M19.2616 15.1089C19.0028 15.1089 18.793 15.3187 18.793 15.5775C18.793 15.8363 19.0028 16.0462 19.2616 16.0462H20.8175C21.0763 16.0462 21.2861 15.8363 21.2861 15.5775C21.2861 15.3187 21.0763 15.1089 20.8175 15.1089H19.2616Z" fill="#1D4989"/>
<path d="M8.60925 19.6367H13.9352C14.1941 19.6367 14.4039 19.4269 14.4039 19.1681C14.4039 18.9093 14.1941 18.6995 13.9352 18.6995H8.60925C8.35044 18.6995 8.14062 18.9093 8.14062 19.1681C8.14062 19.4269 8.35044 19.6367 8.60925 19.6367Z" fill="#1D4989"/>
<path d="M23.2467 25.8761C23.2535 25.7063 23.3126 25.5548 23.4131 25.4494C23.7008 25.1479 23.8592 24.7524 23.8592 24.3357C23.8592 23.9189 23.7008 23.5234 23.4131 23.222C23.3125 23.1166 23.2535 22.9651 23.2467 22.7953C23.2304 22.389 23.063 22.0069 22.7754 21.7192C22.4878 21.4316 22.1057 21.2643 21.6994 21.2481C21.5296 21.2413 21.3781 21.1822 21.2727 21.0816C20.9712 20.7939 20.5757 20.6355 20.159 20.6355C19.7424 20.6355 19.3468 20.7939 19.0454 21.0816C18.94 21.1822 18.7885 21.2412 18.6187 21.248C18.2124 21.2642 17.8303 21.4316 17.5427 21.7192C17.2551 22.0068 17.0877 22.3889 17.0715 22.7952C17.0647 22.9651 17.0056 23.1166 16.9051 23.2219C16.6174 23.5233 16.459 23.9189 16.459 24.3356C16.459 24.7524 16.6174 25.1479 16.9051 25.4494C17.0056 25.5547 17.0647 25.7062 17.0715 25.876C17.0877 26.2823 17.2551 26.6644 17.5427 26.9521C17.8304 27.2397 18.2125 27.4071 18.6187 27.4232C18.7885 27.4301 18.94 27.4891 19.0454 27.5896C19.3468 27.8773 19.7424 28.0357 20.1591 28.0357C20.5758 28.0357 20.9714 27.8773 21.2728 27.5896C21.3782 27.4891 21.5297 27.43 21.6994 27.4232C22.1057 27.4069 22.4878 27.2396 22.7755 26.9519C23.0631 26.6645 23.2305 26.2824 23.2467 25.8761ZM22.3102 25.8386C22.3034 26.0087 22.2332 26.1689 22.1128 26.2894C21.9922 26.4099 21.8322 26.4801 21.662 26.4868C21.2642 26.5027 20.8962 26.6537 20.6257 26.9117C20.4994 27.0322 20.3337 27.0986 20.1591 27.0986C19.9845 27.0986 19.8188 27.0322 19.6924 26.9117C19.422 26.6536 19.054 26.5028 18.6562 26.4868C18.486 26.4801 18.326 26.4099 18.2054 26.2894C18.0849 26.1689 18.0148 26.0088 18.008 25.8386C17.992 25.4407 17.8411 25.0727 17.5831 24.8024C17.4626 24.6761 17.3962 24.5104 17.3962 24.3357C17.3962 24.1611 17.4625 23.9954 17.5831 23.8691C17.8412 23.5987 17.992 23.2307 18.008 22.8329C18.0148 22.6627 18.0849 22.5026 18.2054 22.3821C18.3259 22.2616 18.486 22.1915 18.6562 22.1847C19.054 22.1688 19.422 22.0179 19.6924 21.7598C19.8187 21.6393 19.9845 21.5729 20.159 21.5729C20.3336 21.5729 20.4994 21.6393 20.6257 21.7598C20.8961 22.0179 21.2641 22.1688 21.6619 22.1847C21.832 22.1916 21.9922 22.2617 22.1127 22.3822C22.2332 22.5027 22.3033 22.6627 22.31 22.833C22.326 23.2307 22.4769 23.5987 22.7349 23.8692C22.8555 23.9956 22.9218 24.1612 22.9218 24.3359C22.9218 24.5105 22.8554 24.6762 22.7349 24.8026C22.477 25.0727 22.3261 25.4408 22.3102 25.8386Z" fill="#1D4989"/>
</g>
<defs>
<clipPath id="clip0">
<rect width="32" height="32" fill="white"/>
</clipPath>
</defs>
</svg>
