<svg width="40" height="40" viewBox="0 0 40 40" fill="none" xmlns="http://www.w3.org/2000/svg">
<g clip-path="url(#clip0)">
<path d="M16.877 27.0312C17.3084 27.0312 17.6582 26.6815 17.6582 26.25C17.6582 25.8185 17.3084 25.4688 16.877 25.4688C16.4455 25.4688 16.0957 25.8185 16.0957 26.25C16.0957 26.6815 16.4455 27.0312 16.877 27.0312Z" fill="#F28505"/>
<path d="M3.12695 10.625V13.75C3.12695 14.1815 3.47672 14.5312 3.9082 14.5312H26.4863C26.9177 14.5312 27.2676 14.1815 27.2676 13.75V10.625C27.2676 10.1935 26.9177 9.84375 26.4863 9.84375H3.9082C3.47672 9.84375 3.12695 10.1935 3.12695 10.625ZM11.4082 11.4062H25.7051V12.9688H11.4082V11.4062ZM4.68945 11.4062H9.8457V12.9688H4.68945V11.4062Z" fill="#F28505"/>
<path d="M3.9082 17.6562H26.4863C26.9177 17.6562 27.2676 17.3065 27.2676 16.875C27.2676 16.4435 26.9177 16.0938 26.4863 16.0938H3.9082C3.47672 16.0938 3.12695 16.4435 3.12695 16.875C3.12695 17.3065 3.47672 17.6562 3.9082 17.6562Z" fill="#F28505"/>
<path d="M3.9082 20.7812H26.4863C26.9177 20.7812 27.2676 20.4315 27.2676 20C27.2676 19.5685 26.9177 19.2188 26.4863 19.2188H3.9082C3.47672 19.2188 3.12695 19.5685 3.12695 20C3.12695 20.4315 3.47672 20.7812 3.9082 20.7812Z" fill="#F28505"/>
<path d="M3.9082 23.9062H16.877C17.3084 23.9062 17.6582 23.5565 17.6582 23.125C17.6582 22.6935 17.3084 22.3438 16.877 22.3438H3.9082C3.47672 22.3438 3.12695 22.6935 3.12695 23.125C3.12695 23.5565 3.47672 23.9062 3.9082 23.9062Z" fill="#F28505"/>
<path d="M3.9082 27.0312H13.752C14.1834 27.0312 14.5332 26.6815 14.5332 26.25C14.5332 25.8185 14.1834 25.4688 13.752 25.4688H3.9082C3.47672 25.4688 3.12695 25.8185 3.12695 26.25C3.12695 26.6815 3.47672 27.0312 3.9082 27.0312Z" fill="#F28505"/>
<path d="M10.627 33.2812H14.6118C14.9748 35.0621 16.553 36.4062 18.4395 36.4062C20.5934 36.4062 22.3457 34.6539 22.3457 32.5C22.3457 30.3461 20.5934 28.5938 18.4395 28.5938C16.553 28.5938 14.9748 29.9379 14.6118 31.7188H10.627C10.1955 31.7188 9.8457 32.0685 9.8457 32.5C9.8457 32.9315 10.1955 33.2812 10.627 33.2812ZM18.4395 31.7188H16.2301C16.5526 30.8095 17.4209 30.1562 18.4395 30.1562C19.7318 30.1562 20.7832 31.2077 20.7832 32.5C20.7832 33.7923 19.7318 34.8438 18.4395 34.8438C17.421 34.8438 16.5526 34.1905 16.2301 33.2812H18.4395C18.8709 33.2812 19.2207 32.9315 19.2207 32.5C19.2207 32.0685 18.8709 31.7188 18.4395 31.7188Z" fill="#F28505"/>
<path d="M26.4863 6.25C26.9177 6.25 27.2676 5.90023 27.2676 5.46875C27.2676 5.03727 26.9177 4.6875 26.4863 4.6875H24.9238C24.4924 4.6875 24.1426 5.03727 24.1426 5.46875C24.1426 5.90023 24.4924 6.25 24.9238 6.25H26.4863Z" fill="#F28505"/>
<path d="M21.7988 6.25C22.2302 6.25 22.5801 5.90023 22.5801 5.46875C22.5801 5.03727 22.2302 4.6875 21.7988 4.6875H20.2363C19.8049 4.6875 19.4551 5.03727 19.4551 5.46875C19.4551 5.90023 19.8049 6.25 20.2363 6.25H21.7988Z" fill="#F28505"/>
<path d="M17.1113 6.25C17.5428 6.25 17.8926 5.90023 17.8926 5.46875C17.8926 5.03727 17.5428 4.6875 17.1113 4.6875H15.5488C15.1173 4.6875 14.7676 5.03727 14.7676 5.46875C14.7676 5.90023 15.1173 6.25 15.5488 6.25H17.1113Z" fill="#F28505"/>
<path d="M15.3145 40C15.7459 40 16.0957 39.6502 16.0957 39.2188C16.0957 38.7873 15.7459 38.4375 15.3145 38.4375C14.883 38.4375 14.5332 38.7873 14.5332 39.2188C14.5332 39.6502 14.883 40 15.3145 40Z" fill="#F28505"/>
<path d="M0.783203 40H11.7988C12.2303 40 12.5801 39.6502 12.5801 39.2188C12.5801 38.7873 12.2303 38.4375 11.7988 38.4375H1.56445V7.8125H7.0332C7.46469 7.8125 7.81445 7.46273 7.81445 7.03125V1.5625H28.8301V23.6447C28.4757 24.064 28.1448 24.4321 27.8584 24.7259L26.2022 23.0696C24.676 21.5424 22.2043 21.5417 20.6776 23.0695L19.5729 24.1741C19.2678 24.4792 19.2678 24.9739 19.5729 25.279L28.83 34.5361V38.4375H18.83C18.3985 38.4375 18.0487 38.7873 18.0487 39.2188C18.0487 39.6502 18.3985 40 18.83 40H29.6112C30.0427 40 30.3925 39.6502 30.3925 39.2188V36.0986L30.6213 36.3274C30.9264 36.6323 31.4212 36.6325 31.7263 36.3274L32.8309 35.2227C34.3573 33.6963 34.3577 31.225 32.8309 29.6984L31.1749 28.0423C32.6569 26.5983 35.9166 24.1998 37.6294 23.4538C40.0334 22.4073 40.9009 19.1387 38.8498 17.0875C36.8141 15.0508 33.5599 15.8784 32.4938 18.2893C32.094 19.1929 31.2656 20.4634 30.3926 21.6539V0.78125C30.3926 0.349766 30.0427 0 29.6113 0H7.0332C6.82016 0 6.61992 0.0898437 6.48078 0.228828L0.230781 6.47883C0.0894531 6.61984 0.00195312 6.81922 0.00195312 7.03125V39.2188C0.00195312 39.6502 0.351719 40 0.783203 40ZM31.726 30.8032C32.6419 31.719 32.642 33.2019 31.726 34.1179L31.1738 34.6702L21.2302 24.7266L21.7827 24.1741C22.6984 23.2579 24.1809 23.2574 25.0972 24.1743L31.726 30.8032ZM30.2237 24.4143C31.5776 22.7814 33.2465 20.4497 33.9227 18.9214C34.53 17.5482 36.4599 16.9068 37.7448 18.1923C39.0303 19.4777 38.3773 21.4242 37.0056 22.0213C35.0616 22.868 31.6781 25.365 30.07 26.9373L28.9634 25.8307C29.3337 25.4517 29.7665 24.9659 30.2237 24.4143ZM6.25195 2.66734V6.25H2.6693L6.25195 2.66734Z" fill="#F28505"/>
</g>
<defs>
<clipPath id="clip0">
<rect width="40" height="40" fill="white"/>
</clipPath>
</defs>
</svg>
