<svg width="32" height="32" viewBox="0 0 32 32" fill="none" xmlns="http://www.w3.org/2000/svg">
<path d="M6 8.5C6 8.20333 5.91203 7.91332 5.7472 7.66664C5.58238 7.41997 5.34811 7.22771 5.07403 7.11418C4.79994 7.00065 4.49834 6.97094 4.20737 7.02882C3.91639 7.0867 3.64912 7.22956 3.43934 7.43934C3.22956 7.64912 3.0867 7.91639 3.02882 8.20736C2.97094 8.49833 3.00065 8.79993 3.11418 9.07402C3.22771 9.34811 3.41997 9.58238 3.66665 9.7472C3.91332 9.91202 4.20333 10 4.5 10C4.89769 9.99955 5.27896 9.84137 5.56017 9.56016C5.84138 9.27896 5.99955 8.89769 6 8.5ZM4 8.5C4 8.40111 4.02933 8.30444 4.08427 8.22221C4.13921 8.13999 4.2173 8.0759 4.30866 8.03806C4.40002 8.00022 4.50056 7.99031 4.59755 8.00961C4.69454 8.0289 4.78363 8.07652 4.85355 8.14645C4.92348 8.21637 4.9711 8.30546 4.99039 8.40245C5.00969 8.49944 4.99978 8.59998 4.96194 8.69134C4.9241 8.7827 4.86001 8.86079 4.77779 8.91573C4.69556 8.97067 4.59889 9 4.5 9C4.36744 8.99985 4.24035 8.94712 4.14661 8.85339C4.05288 8.75965 4.00015 8.63256 4 8.5Z" fill="#1D4989"/>
<path d="M12 3.5C11.0111 3.5 10.0444 3.79324 9.22215 4.34265C8.39991 4.89206 7.75904 5.67295 7.3806 6.58658C7.00217 7.50021 6.90315 8.50555 7.09608 9.47545C7.289 10.4454 7.76521 11.3363 8.46447 12.0355C9.16373 12.7348 10.0546 13.211 11.0246 13.4039C11.9945 13.5969 12.9998 13.4978 13.9134 13.1194C14.827 12.741 15.6079 12.1001 16.1574 11.2779C16.7068 10.4556 17 9.48891 17 8.5C16.9985 7.17438 16.4712 5.90348 15.5339 4.96613C14.5965 4.02877 13.3256 3.50151 12 3.5ZM12 12.5C11.2089 12.5 10.4355 12.2654 9.77772 11.8259C9.11993 11.3864 8.60723 10.7616 8.30448 10.0307C8.00173 9.29983 7.92252 8.49556 8.07686 7.71964C8.2312 6.94371 8.61216 6.23098 9.17157 5.67157C9.73098 5.11216 10.4437 4.7312 11.2196 4.57686C11.9956 4.42252 12.7998 4.50173 13.5307 4.80448C14.2616 5.10723 14.8864 5.61992 15.3259 6.27772C15.7654 6.93552 16 7.70887 16 8.5C15.9988 9.5605 15.577 10.5772 14.8271 11.3271C14.0772 12.077 13.0605 12.4988 12 12.5Z" fill="#1D4989"/>
<path d="M12 7C12.1326 7.00015 12.2597 7.05288 12.3534 7.14661C12.4471 7.24035 12.4999 7.36744 12.5 7.5C12.5 7.63261 12.5527 7.75979 12.6464 7.85355C12.7402 7.94732 12.8674 8 13 8C13.1326 8 13.2598 7.94732 13.3536 7.85355C13.4473 7.75979 13.5 7.63261 13.5 7.5C13.4996 7.18993 13.4033 6.88758 13.2242 6.63442C13.0452 6.38126 12.7922 6.18969 12.5 6.086V6C12.5 5.86739 12.4473 5.74021 12.3536 5.64645C12.2598 5.55268 12.1326 5.5 12 5.5C11.8674 5.5 11.7402 5.55268 11.6464 5.64645C11.5527 5.74021 11.5 5.86739 11.5 6V6.086C11.1665 6.20405 10.8855 6.43616 10.7066 6.74131C10.5277 7.04646 10.4624 7.40503 10.5222 7.75367C10.582 8.10231 10.7631 8.4186 11.0335 8.64665C11.304 8.87471 11.6463 8.99986 12 9C12.0989 9 12.1956 9.02932 12.2778 9.08426C12.36 9.13921 12.4241 9.2173 12.4619 9.30866C12.4998 9.40002 12.5097 9.50056 12.4904 9.59755C12.4711 9.69454 12.4235 9.78363 12.3536 9.85355C12.2836 9.92348 12.1945 9.9711 12.0975 9.99039C12.0006 10.0097 11.9 9.99978 11.8087 9.96194C11.7173 9.9241 11.6392 9.86001 11.5843 9.77779C11.5293 9.69556 11.5 9.59889 11.5 9.5C11.5 9.36739 11.4473 9.24021 11.3536 9.14645C11.2598 9.05268 11.1326 9 11 9C10.8674 9 10.7402 9.05268 10.6464 9.14645C10.5527 9.24021 10.5 9.36739 10.5 9.5C10.5004 9.81007 10.5967 10.1124 10.7758 10.3656C10.9548 10.6187 11.2078 10.8103 11.5 10.914V11C11.5 11.1326 11.5527 11.2598 11.6464 11.3536C11.7402 11.4473 11.8674 11.5 12 11.5C12.1326 11.5 12.2598 11.4473 12.3536 11.3536C12.4473 11.2598 12.5 11.1326 12.5 11V10.914C12.8335 10.7959 13.1145 10.5638 13.2934 10.2587C13.4723 9.95354 13.5376 9.59497 13.4778 9.24633C13.418 8.89769 13.2369 8.5814 12.9665 8.35335C12.696 8.12529 12.3537 8.00014 12 8C11.8674 8 11.7402 7.94732 11.6464 7.85355C11.5527 7.75979 11.5 7.63261 11.5 7.5C11.5 7.36739 11.5527 7.24021 11.6464 7.14645C11.7402 7.05268 11.8674 7 12 7Z" fill="#1D4989"/>
<path d="M14.5 14.5H4.5C4.36739 14.5 4.24021 14.5527 4.14645 14.6464C4.05268 14.7402 4 14.8674 4 15C4 15.1326 4.05268 15.2598 4.14645 15.3536C4.24021 15.4473 4.36739 15.5 4.5 15.5H14.5C14.6326 15.5 14.7598 15.4473 14.8536 15.3536C14.9473 15.2598 15 15.1326 15 15C15 14.8674 14.9473 14.7402 14.8536 14.6464C14.7598 14.5527 14.6326 14.5 14.5 14.5Z" fill="#1D4989"/>
<path d="M14.5 16.5H4.5C4.36739 16.5 4.24021 16.5527 4.14645 16.6464C4.05268 16.7402 4 16.8674 4 17C4 17.1326 4.05268 17.2598 4.14645 17.3536C4.24021 17.4473 4.36739 17.5 4.5 17.5H14.5C14.6326 17.5 14.7598 17.4473 14.8536 17.3536C14.9473 17.2598 15 17.1326 15 17C15 16.8674 14.9473 16.7402 14.8536 16.6464C14.7598 16.5527 14.6326 16.5 14.5 16.5Z" fill="#1D4989"/>
<path d="M14.5 18.5H4.5C4.36739 18.5 4.24021 18.5527 4.14645 18.6464C4.05268 18.7402 4 18.8674 4 19C4 19.1326 4.05268 19.2598 4.14645 19.3536C4.24021 19.4473 4.36739 19.5 4.5 19.5H14.5C14.6326 19.5 14.7598 19.4473 14.8536 19.3536C14.9473 19.2598 15 19.1326 15 19C15 18.8674 14.9473 18.7402 14.8536 18.6464C14.7598 18.5527 14.6326 18.5 14.5 18.5Z" fill="#1D4989"/>
<path d="M14.5 20.5H4.5C4.36739 20.5 4.24021 20.5527 4.14645 20.6464C4.05268 20.7402 4 20.8674 4 21C4 21.1326 4.05268 21.2598 4.14645 21.3536C4.24021 21.4473 4.36739 21.5 4.5 21.5H14.5C14.6326 21.5 14.7598 21.4473 14.8536 21.3536C14.9473 21.2598 15 21.1326 15 21C15 20.8674 14.9473 20.7402 14.8536 20.6464C14.7598 20.5527 14.6326 20.5 14.5 20.5Z" fill="#1D4989"/>
<path d="M14.5 22.5H4.5C4.36739 22.5 4.24021 22.5527 4.14645 22.6464C4.05268 22.7402 4 22.8674 4 23C4 23.1326 4.05268 23.2598 4.14645 23.3536C4.24021 23.4473 4.36739 23.5 4.5 23.5H14.5C14.6326 23.5 14.7598 23.4473 14.8536 23.3536C14.9473 23.2598 15 23.1326 15 23C15 22.8674 14.9473 22.7402 14.8536 22.6464C14.7598 22.5527 14.6326 22.5 14.5 22.5Z" fill="#1D4989"/>
<path d="M19.5 22.5H17.5C17.3674 22.5 17.2402 22.5527 17.1464 22.6464C17.0527 22.7402 17 22.8674 17 23C17 23.1326 17.0527 23.2598 17.1464 23.3536C17.2402 23.4473 17.3674 23.5 17.5 23.5H19.5C19.6326 23.5 19.7598 23.4473 19.8536 23.3536C19.9473 23.2598 20 23.1326 20 23C20 22.8674 19.9473 22.7402 19.8536 22.6464C19.7598 22.5527 19.6326 22.5 19.5 22.5Z" fill="#1D4989"/>
<path d="M14.5 24.5H4.5C4.36739 24.5 4.24021 24.5527 4.14645 24.6464C4.05268 24.7402 4 24.8674 4 25C4 25.1326 4.05268 25.2598 4.14645 25.3536C4.24021 25.4473 4.36739 25.5 4.5 25.5H14.5C14.6326 25.5 14.7598 25.4473 14.8536 25.3536C14.9473 25.2598 15 25.1326 15 25C15 24.8674 14.9473 24.7402 14.8536 24.6464C14.7598 24.5527 14.6326 24.5 14.5 24.5Z" fill="#1D4989"/>
<path d="M19.5 24.5H17.5C17.3674 24.5 17.2402 24.5527 17.1464 24.6464C17.0527 24.7402 17 24.8674 17 25C17 25.1326 17.0527 25.2598 17.1464 25.3536C17.2402 25.4473 17.3674 25.5 17.5 25.5H19.5C19.6326 25.5 19.7598 25.4473 19.8536 25.3536C19.9473 25.2598 20 25.1326 20 25C20 24.8674 19.9473 24.7402 19.8536 24.6464C19.7598 24.5527 19.6326 24.5 19.5 24.5Z" fill="#1D4989"/>
<path d="M23.0019 10.0015C22.013 10.0015 21.0463 10.2947 20.2241 10.8441C19.4019 11.3935 18.761 12.1744 18.3826 13.088C18.0041 14.0017 17.9051 15.007 18.098 15.9769C18.291 16.9468 18.7672 17.8377 19.4664 18.537C20.1657 19.2363 21.0566 19.7125 22.0265 19.9054C22.9964 20.0983 24.0017 19.9993 24.9154 19.6209C25.829 19.2424 26.6099 18.6016 27.1593 17.7793C27.7087 16.9571 28.0019 15.9904 28.0019 15.0015C28.0005 13.6758 27.4732 12.4049 26.5358 11.4676C25.5985 10.5302 24.3276 10.003 23.0019 10.0015ZM19.002 15.0015C19.0031 14.1151 19.2981 13.2541 19.8407 12.5532C20.3834 11.8524 21.1432 11.3513 22.0011 11.1283V18.8747C21.1432 18.6517 20.3834 18.1506 19.8407 17.4497C19.2981 16.7489 19.0031 15.8879 19.002 15.0015ZM23.0019 19.0015H23.0011V11.0015H23.0019C24.0628 11.0015 25.0802 11.4229 25.8304 12.173C26.5805 12.9232 27.0019 13.9406 27.0019 15.0015C27.0019 16.0623 26.5805 17.0797 25.8304 17.8299C25.0802 18.58 24.0628 19.0015 23.0019 19.0015Z" fill="#1D4989"/>
<path d="M30.8539 28.8096L28.5421 24.0063C28.5258 23.9424 28.4969 23.8824 28.4572 23.8298L27.6322 22.1152C27.6036 22.0559 27.5636 22.0028 27.5145 21.9589C27.4653 21.9151 27.408 21.8814 27.3458 21.8598C27.2835 21.8382 27.2177 21.8291 27.1519 21.833C27.0862 21.8369 27.0218 21.8538 26.9626 21.8826L26.5132 22.1014L26.1087 21.2714C27.5237 20.5706 28.6602 19.412 29.3335 17.9837C30.0068 16.5555 30.1774 14.9415 29.8175 13.404C29.4576 11.8666 28.5885 10.496 27.3512 9.5149C26.114 8.53383 24.5813 7.99995 23.0023 8H23V1.5C23 1.36739 22.9473 1.24021 22.8536 1.14645C22.7598 1.05268 22.6326 1 22.5 1H1.5C1.36739 1 1.24021 1.05268 1.14645 1.14645C1.05268 1.24021 1 1.36739 1 1.5V28.0517C1 28.1188 1.01352 28.1853 1.03975 28.2471C1.06598 28.3089 1.10439 28.3647 1.15269 28.4114L2.65269 29.8597C2.7459 29.9497 2.87042 30 3 30C3.12958 30 3.2541 29.9497 3.34731 29.8597L4.5 28.7467L5.65269 29.8597C5.7459 29.9497 5.87042 30 6 30C6.12958 30 6.2541 29.9497 6.34731 29.8597L7.5 28.7467L8.65269 29.8597C8.7459 29.9497 8.87042 30 9 30C9.12958 30 9.2541 29.9497 9.34731 29.8597L10.5 28.7467L11.6527 29.8597C11.7459 29.9497 11.8704 30 12 30C12.1296 30 12.2541 29.9497 12.3473 29.8597L13.5 28.7467L14.6527 29.8597C14.7459 29.9497 14.8704 30 15 30C15.1296 30 15.2541 29.9497 15.3473 29.8597L16.5 28.7467L17.6527 29.8597C17.7459 29.9497 17.8704 30 18 30C18.1296 30 18.2541 29.9497 18.3473 29.8597L19.5 28.7467L20.6527 29.8597C20.7459 29.9497 20.8704 30 21 30C21.1296 30 21.2541 29.9497 21.3473 29.8597L22.8473 28.4114C22.8956 28.3647 22.934 28.3089 22.9602 28.2471C22.9865 28.1853 23 28.1188 23 28.0517V22H23.0023C23.7426 22.0005 24.4782 21.8831 25.1815 21.6523L25.6141 22.5397L25.1646 22.7585C25.0458 22.8165 24.9548 22.9191 24.9114 23.0439C24.8681 23.1688 24.876 23.3057 24.9333 23.4248L28.1562 30.1215C28.3305 30.4791 28.6397 30.7529 29.0158 30.8825C29.3919 31.0122 29.8041 30.9872 30.1617 30.8129C30.5189 30.6388 30.7925 30.3301 30.9223 29.9545C31.0521 29.5789 31.0276 29.1671 30.8541 28.8096H30.8539ZM22 27.8394L21 28.805L19.8473 27.692C19.7541 27.602 19.6296 27.5517 19.5 27.5517C19.3704 27.5517 19.2459 27.602 19.1527 27.692L18 28.805L16.8473 27.692C16.7541 27.602 16.6296 27.5517 16.5 27.5517C16.3704 27.5517 16.2459 27.602 16.1527 27.692L15 28.805L13.8473 27.692C13.7541 27.602 13.6296 27.5517 13.5 27.5517C13.3704 27.5517 13.2459 27.602 13.1527 27.692L12 28.805L10.8473 27.692C10.7541 27.602 10.6296 27.5517 10.5 27.5517C10.3704 27.5517 10.2459 27.602 10.1527 27.692L9 28.805L7.84731 27.692C7.7541 27.602 7.62958 27.5517 7.5 27.5517C7.37042 27.5517 7.2459 27.602 7.15269 27.692L6 28.805L4.84731 27.692C4.7541 27.602 4.62958 27.5517 4.5 27.5517C4.37042 27.5517 4.2459 27.602 4.15269 27.692L3 28.805L2 27.8394V2H22V8.07206C21.6568 8.12165 21.3178 8.19686 20.9859 8.29706C20.9533 8.05663 20.8629 7.82768 20.7225 7.62985C20.582 7.43202 20.3956 7.27122 20.1794 7.16124C19.9631 7.05126 19.7234 6.99539 19.4808 6.99841C19.2382 7.00143 18.9999 7.06325 18.7864 7.17858C18.573 7.29391 18.3907 7.4593 18.2552 7.66056C18.1197 7.86182 18.035 8.09295 18.0084 8.33412C17.9819 8.57529 18.0142 8.8193 18.1027 9.04522C18.1912 9.27115 18.3331 9.47224 18.5164 9.63125C17.7161 10.2985 17.0752 11.1362 16.6403 12.0831C16.2055 13.03 15.9878 14.0621 16.0032 15.1039C16.0186 16.1458 16.2667 17.171 16.7293 18.1046C17.1919 19.0382 17.8573 19.8566 18.6769 20.5H17.5C17.3674 20.5 17.2402 20.5527 17.1464 20.6464C17.0527 20.7402 17 20.8674 17 21C17 21.1326 17.0527 21.2598 17.1464 21.3536C17.2402 21.4473 17.3674 21.5 17.5 21.5H19.5C19.5817 21.5 19.6621 21.4801 19.7342 21.4418C19.8064 21.4036 19.868 21.3482 19.9138 21.2806C20.5707 21.6051 21.2748 21.8236 22 21.9279V27.8394ZM19.4145 8.99212C19.3127 8.97415 19.2189 8.92497 19.1463 8.85138C19.0736 8.7778 19.0256 8.68345 19.0089 8.58139C18.9922 8.47933 19.0077 8.37461 19.0531 8.28172C19.0986 8.18882 19.1718 8.11235 19.2626 8.06288C19.3534 8.0134 19.4573 7.99338 19.56 8.00557C19.6627 8.01777 19.7591 8.06158 19.8358 8.13094C19.9125 8.2003 19.9657 8.29179 19.9881 8.39275C20.0106 8.4937 20.0011 8.59912 19.9609 8.69444L19.9635 8.69556C19.7757 8.78644 19.5927 8.88529 19.4145 8.99212ZM23.0023 21C21.8156 21 20.6556 20.6481 19.6689 19.9888C18.6822 19.3295 17.9132 18.3925 17.459 17.2961C17.0049 16.1997 16.8861 14.9933 17.1176 13.8295C17.3491 12.6656 17.9206 11.5965 18.7597 10.7574C19.5988 9.91824 20.6679 9.3468 21.8318 9.11529C22.9957 8.88378 24.2021 9.0026 25.2984 9.45672C26.3948 9.91085 27.3318 10.6799 27.9911 11.6666C28.6504 12.6533 29.0023 13.8133 29.0023 15C29.0005 16.5907 28.3678 18.1158 27.243 19.2406C26.1181 20.3655 24.5931 20.9982 23.0023 21ZM26.05 23.4399L26.5012 23.22H26.5016H26.5022L26.9489 23.0023L27.3826 23.9034L26.4837 24.3414L26.05 23.4399ZM29.9772 29.6274C29.945 29.7207 29.886 29.8024 29.8075 29.8622C29.729 29.922 29.6345 29.9572 29.536 29.9634C29.4375 29.9697 29.3394 29.9466 29.254 29.8972C29.1686 29.8477 29.0997 29.7741 29.0561 29.6856L26.9173 25.2419L27.8163 24.8038L29.9538 29.2454C29.9828 29.3044 29.9997 29.3685 30.0037 29.4341C30.0077 29.4997 29.9987 29.5654 29.9771 29.6274L29.9772 29.6274Z" fill="#1D4989"/>
</svg>
