<svg width="32" height="32" viewBox="0 0 32 32" fill="none" xmlns="http://www.w3.org/2000/svg">
<g clip-path="url(#clip0)">
<path d="M10.8245 31.8438C11.0329 32.0519 11.3704 32.0519 11.5787 31.8438L14.2453 29.1772L13.4912 28.423L11.2016 30.7126L1.28924 20.8002L7.31208 14.7774L6.55792 14.0232L0.158006 20.4231C-0.0500644 20.6314 -0.0500644 20.9689 0.158006 21.1773L10.8245 31.8438Z" fill="#1E4A8A"/>
<path d="M31.9965 11.1418L30.9299 1.54195C30.9023 1.29378 30.7064 1.09769 30.4583 1.07035L20.8584 0.00369365C20.6977 -0.0132332 20.5376 0.0430161 20.4227 0.156817L16.6895 3.8901L17.4436 4.64426L20.9956 1.09222L29.9197 2.08309L30.9106 11.0046L28.8179 13.0975L27.8044 6.28095C28.532 5.9919 28.9455 5.22107 28.7838 4.4552C28.6224 3.68932 27.9325 3.15131 27.1502 3.18073C26.3682 3.21042 25.7211 3.79896 25.6177 4.57499C25.5143 5.35076 25.9849 6.08825 26.732 6.32158L27.557 11.8681L20.1102 4.42343C19.9019 4.2151 19.5644 4.2151 19.3561 4.42343L16.6895 7.09006L17.4436 7.84421L19.7332 5.55466L26.4456 12.2671L25.2227 13.49L25.9768 14.2441L27.5768 12.6442C27.607 12.6098 27.6325 12.5715 27.6526 12.5306L27.8765 14.0361L26.8226 15.09L27.5768 15.8441L28.0716 15.3491L28.4104 17.6222C28.4908 18.2785 28.9244 18.8378 29.5398 19.0795C30.1554 19.3211 30.8536 19.2063 31.3593 18.7803C31.8648 18.3542 32.0965 17.6858 31.9629 17.0381L30.9814 12.4392L31.8434 11.5775C31.958 11.4629 32.0142 11.3028 31.9965 11.1418ZM27.1997 4.26718C27.4942 4.26718 27.733 4.50598 27.733 4.80051C27.733 5.09503 27.4942 5.33383 27.1997 5.33383C26.9052 5.33383 26.6664 5.09503 26.6664 4.80051C26.6664 4.50598 26.9052 4.26718 27.1997 4.26718ZM30.9187 17.2548C30.9697 17.5191 30.8723 17.7904 30.6643 17.9618C30.4564 18.1331 30.1713 18.1769 29.9216 18.0759C29.6718 17.9748 29.4973 17.7454 29.4669 17.4777L29.013 14.4105L30.0856 13.3379L30.9187 17.2548Z" fill="#1E4A8A"/>
<path d="M3.89062 20.7433L7.35704 17.2769L8.11121 18.031L4.64479 21.4974L3.89062 20.7433Z" fill="#1E4A8A"/>
<path d="M5.54297 22.3963L9.00937 18.9299L9.7638 19.6841L6.29714 23.1505L5.54297 22.3963Z" fill="#1E4A8A"/>
<path d="M7.19727 24.0495L9.22383 22.0229L9.97826 22.7771L7.95143 24.8037L7.19727 24.0495Z" fill="#1E4A8A"/>
<path d="M8.84961 25.703L10.29 24.2629L11.0441 25.0171L9.60404 26.4575L8.84961 25.703Z" fill="#1E4A8A"/>
<path d="M10.502 27.3564L11.5686 26.29L12.3228 27.0442L11.2564 28.1106L10.502 27.3564Z" fill="#1E4A8A"/>
<path d="M19.2004 29.3334C21.0173 29.3326 22.786 28.7483 24.2457 27.6663L28.092 31.5126C28.7422 32.1625 29.7961 32.1625 30.4461 31.5126C31.0961 30.8626 31.0961 29.8084 30.4461 29.1584L26.5107 25.2231L26.4425 25.2913C28.4844 21.9885 28.036 17.7232 25.3524 14.9169C22.6686 12.1105 18.4275 11.4725 15.0369 13.3649C11.6461 15.2573 9.96277 19.202 10.9427 22.9595C11.9224 26.7168 15.3174 29.3373 19.2004 29.3334ZM29.6919 29.9126C29.9255 30.1462 29.9255 30.5248 29.6919 30.7584C29.4583 30.992 29.0797 30.992 28.8461 30.7584L25.067 26.9798C25.3574 26.7051 25.6279 26.4105 25.8771 26.0983L29.6919 29.9126ZM19.2004 13.3336C23.3241 13.3336 26.667 16.6766 26.667 20.8002C26.667 24.9238 23.3241 28.2668 19.2004 28.2668C15.0768 28.2668 11.7338 24.9238 11.7338 20.8002C11.7383 16.6784 15.0786 13.3381 19.2004 13.3336Z" fill="#1E4A8A"/>
<path d="M19.1988 27.2C22.7333 27.2 25.5987 24.3346 25.5987 20.8001C25.5987 17.2655 22.7333 14.4001 19.1988 14.4001C15.6642 14.4001 12.7988 17.2655 12.7988 20.8001C12.8027 24.3331 15.6657 27.1961 19.1988 27.2ZM19.1988 15.4668C22.1443 15.4668 24.532 17.8545 24.532 20.8001C24.532 23.7456 22.1443 26.1333 19.1988 26.1333C16.2532 26.1333 13.8655 23.7456 13.8655 20.8001C13.8686 17.8558 16.2545 15.4699 19.1988 15.4668Z" fill="#1E4A8A"/>
<path d="M19.733 22.9336H18.6664C18.3719 22.9336 18.1331 22.6948 18.1331 22.4003H17.0664C17.0664 23.2839 17.7828 24.0003 18.6664 24.0003V25.0669H19.733V24.0003C20.6166 24.0003 21.333 23.2839 21.333 22.4003V21.867C21.333 20.9834 20.6166 20.267 19.733 20.267H18.6664C18.3719 20.267 18.1331 20.0282 18.1331 19.7337V19.2003C18.1331 18.9058 18.3719 18.667 18.6664 18.667H19.733C20.0276 18.667 20.2664 18.9058 20.2664 19.2003H21.333C21.333 18.3167 20.6166 17.6003 19.733 17.6003V16.5337H18.6664V17.6003C17.7828 17.6003 17.0664 18.3167 17.0664 19.2003V19.7337C17.0664 20.6172 17.7828 21.3336 18.6664 21.3336H19.733C20.0276 21.3336 20.2664 21.5724 20.2664 21.867V22.4003C20.2664 22.6948 20.0276 22.9336 19.733 22.9336Z" fill="#1E4A8A"/>
<path d="M2.66663 12.8003H6.22934L9.82331 15.3672C9.91367 15.4321 10.022 15.467 10.1332 15.467C10.2358 15.4667 10.3363 15.437 10.4228 15.3815C10.6074 15.2623 10.6999 15.0422 10.6558 14.8269L10.2506 12.8003H13.3332C14.8053 12.7985 15.998 11.6055 15.9998 10.1337V2.66712C15.998 1.195 14.8053 0.00231117 13.3332 0.000488281H2.66663C1.19452 0.00231117 0.0018229 1.195 0 2.66712V10.1337C0.0018229 11.6055 1.19452 12.7985 2.66663 12.8003ZM1.06665 2.66712C1.06665 1.78354 1.78305 1.06714 2.66663 1.06714H13.3332C14.2167 1.06714 14.9331 1.78354 14.9331 2.66712V10.1337C14.9331 11.0173 14.2167 11.7337 13.3332 11.7337H9.59987C9.43972 11.7337 9.2879 11.8055 9.1866 11.9295C9.0853 12.0537 9.04519 12.2167 9.07722 12.3735L9.34389 13.718L6.70824 11.8355C6.61866 11.7701 6.51085 11.7344 6.39992 11.7337H2.66663C1.78305 11.7337 1.06665 11.0173 1.06665 10.1337V2.66712Z" fill="#1E4A8A"/>
<path d="M2.66614 10.6669H13.866V9.60023H3.19947V8.17785L4.26612 6.756L5.43954 8.3203C5.54657 8.45441 5.70881 8.53279 5.88042 8.53358C6.05359 8.52889 6.21375 8.44035 6.30984 8.29608L8.0468 5.69039L10.2559 8.34217C10.3577 8.46326 10.5077 8.53331 10.666 8.53358C10.6827 8.53462 10.6994 8.53462 10.7163 8.53358C10.8913 8.51691 11.0468 8.41535 11.1322 8.26144L13.7988 3.46151L12.8665 2.94433L10.5775 7.0638L8.40955 4.46098C8.30304 4.32921 8.13976 4.25681 7.9705 4.26697C7.80279 4.27608 7.64889 4.36384 7.55566 4.50368L5.84058 7.07761L4.69267 5.5469C4.58773 5.4193 4.43122 5.34534 4.26612 5.34534C4.10102 5.34534 3.94451 5.4193 3.83956 5.5469L3.19947 6.40027V2.66699H2.13281V10.1336C2.13281 10.4281 2.37161 10.6669 2.66614 10.6669Z" fill="#1E4A8A"/>
</g>
<defs>
<clipPath id="clip0">
<rect width="32" height="32" fill="white"/>
</clipPath>
</defs>
</svg>
