<svg width="32" height="32" viewBox="0 0 32 32" fill="none" xmlns="http://www.w3.org/2000/svg">
<path d="M26.3087 9.43526C26.1926 9.31901 26.0313 9.2522 25.867 9.2522C25.7027 9.2522 25.5415 9.31901 25.4252 9.43526C25.3091 9.55151 25.2422 9.7127 25.2422 9.87701C25.2422 10.0413 25.309 10.2025 25.4252 10.3187C25.5414 10.4349 25.7027 10.5018 25.867 10.5018C26.0313 10.5018 26.1925 10.4349 26.3087 10.3187C26.4249 10.2026 26.4918 10.0413 26.4918 9.87701C26.4918 9.7127 26.4249 9.55145 26.3087 9.43526Z" fill="#1D4989"/>
<path d="M25.8668 8.0338C26.2118 8.0338 26.4916 7.75399 26.4916 7.40899V1.8795C26.4916 0.845938 25.6507 0.00512696 24.6171 0.00512696H1.87443C0.840873 0.00506446 0 0.845938 0 1.8795V30.1205C0 31.1541 0.840873 31.9949 1.87443 31.9949H24.6172C25.6508 31.9949 26.4916 31.1541 26.4916 30.1205V27.3143C26.4916 26.9693 26.2118 26.6895 25.8668 26.6895C25.5218 26.6895 25.242 26.9693 25.242 27.3143V30.1205C25.242 30.465 24.9617 30.7453 24.6172 30.7453H1.87443C1.52993 30.7453 1.24962 30.465 1.24962 30.1205V1.8795C1.24962 1.535 1.52993 1.25469 1.87443 1.25469H24.6172C24.9617 1.25469 25.242 1.535 25.242 1.8795V7.40899C25.242 7.75399 25.5218 8.0338 25.8668 8.0338Z" fill="#1D4989"/>
<path d="M31.4504 25.1348L28.2273 21.9117C28.7823 20.921 29.0994 19.7798 29.0994 18.5657C29.0994 14.7783 26.0181 11.6969 22.2305 11.6969C22.1927 11.6969 22.1551 11.6977 22.1175 11.6983V8.26045C22.1175 7.91545 21.8377 7.63564 21.4927 7.63564H17.841V4.26177C17.841 3.91677 17.5612 3.63696 17.2162 3.63696H12.9399C12.5949 3.63696 12.315 3.91677 12.315 4.26177V8.01058H8.66342C8.31842 8.01058 8.03861 8.29039 8.03861 8.63539V12.0093H4.99786C4.65286 12.0093 4.37305 12.2891 4.37305 12.6341V16.0081C4.37305 16.3531 4.65286 16.6329 4.99786 16.6329H15.6389C15.4587 17.2463 15.3616 17.8949 15.3616 18.5658C15.3616 22.3533 18.4429 25.4347 22.2305 25.4347C23.4445 25.4347 24.5858 25.1177 25.5765 24.5626L28.7784 27.7645C29.1556 28.1417 29.6459 28.3319 30.1341 28.3318C30.5898 28.3318 31.0436 28.1662 31.4016 27.8327C31.7778 27.4824 31.99 27.0068 31.9991 26.4937C32.0082 25.9803 31.8133 25.4978 31.4504 25.1348ZM8.03854 15.3833H5.62267V13.2589H8.03861V15.3833H8.03854ZM12.315 15.3833H9.28817V12.6341V9.2602H12.315V15.3833ZM13.5645 15.3833V8.63539V4.88659H16.5913V8.26052V10.5227V11.3766C16.5913 11.7216 16.8712 12.0014 17.2162 12.0014C17.5612 12.0014 17.841 11.7216 17.841 11.3766V10.5227V8.88533H20.8678V11.8329C18.815 12.2477 17.0914 13.5808 16.145 15.3833H13.5645ZM22.2305 24.185C19.132 24.185 16.6112 21.6642 16.6112 18.5657C16.6112 15.4673 19.132 12.9464 22.2305 12.9464C25.329 12.9464 27.8498 15.4673 27.8498 18.5657C27.8498 21.6642 25.329 24.185 22.2305 24.185ZM30.55 26.9182C30.307 27.1445 29.9088 27.1277 29.662 26.8808L26.6232 23.842C26.9437 23.5747 27.2395 23.2789 27.5068 22.9584L30.5668 26.0183C30.6878 26.1393 30.7528 26.3002 30.7498 26.4713C30.7466 26.6425 30.6758 26.8011 30.55 26.9182Z" fill="#1D4989"/>
<path d="M23.856 15.3709C23.5556 15.2013 23.1744 15.3072 23.0048 15.6078L19.6453 21.5587C19.4757 21.8592 19.5817 22.2403 19.8822 22.4099C19.9793 22.4647 20.0847 22.4908 20.1888 22.4908C20.4068 22.4908 20.6186 22.3765 20.7334 22.173L24.0929 16.2222C24.2626 15.9215 24.1565 15.5405 23.856 15.3709Z" fill="#1D4989"/>
<path d="M24.4135 19.0991C23.3799 19.0991 22.5391 19.94 22.5391 20.9736C22.5391 22.0071 23.3799 22.8479 24.4135 22.8479C25.4471 22.8479 26.2879 22.0071 26.2879 20.9736C26.2879 19.9399 25.4471 19.0991 24.4135 19.0991ZM24.4135 21.5983C24.069 21.5983 23.7887 21.318 23.7887 20.9735C23.7887 20.629 24.069 20.3487 24.4135 20.3487C24.758 20.3487 25.0383 20.629 25.0383 20.9735C25.0383 21.318 24.7581 21.5983 24.4135 21.5983Z" fill="#1D4989"/>
<path d="M20.0483 14.2834C19.0147 14.2834 18.1738 15.1243 18.1738 16.1579C18.1738 17.1914 19.0147 18.0323 20.0483 18.0323C21.0818 18.0323 21.9226 17.1914 21.9226 16.1579C21.9226 15.1243 21.0818 14.2834 20.0483 14.2834ZM20.0483 16.7826C19.7038 16.7826 19.4234 16.5023 19.4234 16.1578C19.4234 15.8133 19.7038 15.533 20.0483 15.533C20.3928 15.533 20.6731 15.8133 20.6731 16.1578C20.6731 16.5023 20.3928 16.7826 20.0483 16.7826Z" fill="#1D4989"/>
<path d="M21.2985 27.3713H3.99981C3.65481 27.3713 3.375 27.6512 3.375 27.9961C3.375 28.3411 3.65481 28.621 3.99981 28.621H21.2985C21.6435 28.621 21.9233 28.3411 21.9233 27.9961C21.9233 27.6512 21.6435 27.3713 21.2985 27.3713Z" fill="#1D4989"/>
<path d="M13.245 23.8726H9.3709C9.02591 23.8726 8.74609 24.1524 8.74609 24.4974C8.74609 24.8424 9.02591 25.1222 9.3709 25.1222H13.245C13.59 25.1222 13.8698 24.8424 13.8698 24.4974C13.8698 24.1524 13.59 23.8726 13.245 23.8726Z" fill="#1D4989"/>
<path d="M15.9787 24.0556C15.8625 23.9394 15.7012 23.8726 15.5369 23.8726C15.3726 23.8726 15.2114 23.9394 15.0952 24.0556C14.9784 24.1718 14.9121 24.3331 14.9121 24.4974C14.9121 24.6617 14.9784 24.8229 15.0952 24.9391C15.2114 25.0552 15.372 25.1222 15.5369 25.1222C15.7012 25.1222 15.8624 25.0553 15.9787 24.9391C16.0948 24.8229 16.1617 24.6617 16.1617 24.4974C16.1617 24.333 16.0949 24.1718 15.9787 24.0556Z" fill="#1D4989"/>
<path d="M13.245 20.3735H9.3709C9.02591 20.3735 8.74609 20.6533 8.74609 20.9983C8.74609 21.3433 9.02591 21.6232 9.3709 21.6232H13.245C13.59 21.6232 13.8698 21.3433 13.8698 20.9983C13.8698 20.6533 13.59 20.3735 13.245 20.3735Z" fill="#1D4989"/>
<path d="M5.37437 21.9661C4.96093 21.9661 4.62462 21.6867 4.62462 21.3433C4.62462 21 4.96093 20.7206 5.37437 20.7206C5.78781 20.7206 6.12412 21 6.12412 21.3433C6.12412 21.6883 6.40393 21.9681 6.74893 21.9681C7.09393 21.9681 7.37374 21.6883 7.37374 21.3433C7.37374 20.515 6.79618 19.8111 5.99856 19.565C5.99212 19.2256 5.71537 18.9521 5.37437 18.9521C5.03337 18.9521 4.75656 19.2256 4.75018 19.565C3.95256 19.8111 3.375 20.515 3.375 21.3433C3.375 22.3757 4.27187 23.2157 5.37437 23.2157C5.78781 23.2157 6.12412 23.4951 6.12412 23.8384C6.12412 24.1817 5.78781 24.4611 5.37437 24.4611C4.96093 24.4611 4.62462 24.1817 4.62462 23.8384C4.62462 23.4934 4.34481 23.2136 3.99981 23.2136C3.65481 23.2136 3.375 23.4934 3.375 23.8384C3.375 24.6665 3.95225 25.3702 4.74956 25.6165V25.6526C4.74956 25.9976 5.02937 26.2774 5.37437 26.2774C5.71937 26.2774 5.99918 25.9976 5.99918 25.6526V25.6165C6.79649 25.3702 7.37374 24.6665 7.37374 23.8384C7.37374 22.806 6.47681 21.9661 5.37437 21.9661Z" fill="#1D4989"/>
</svg>
