<svg width="32" height="32" viewBox="0 0 32 32" fill="none" xmlns="http://www.w3.org/2000/svg">
<g clip-path="url(#clip0)">
<path d="M5.62817 24.7468C5.18018 24.7468 4.74951 24.8586 4.36743 25.0686C2.35474 22.4885 1.25 19.2834 1.25 16C1.25 7.8667 7.8667 1.25 16 1.25C16.9888 1.25 17.9771 1.34839 18.9375 1.54248C19.2754 1.61084 19.6055 1.39209 19.6738 1.05371C19.7422 0.715332 19.5234 0.385742 19.1851 0.317139C18.1433 0.106689 17.0718 0 16 0C11.7263 0 7.70825 1.66431 4.68628 4.68628C1.66431 7.70825 0 11.7263 0 16C0 19.595 1.2207 23.1033 3.44312 25.9158C3.15698 26.3433 3.00317 26.8457 3.00317 27.3718C3.00317 28.073 3.27637 28.7322 3.77222 29.2278C4.26782 29.7236 4.927 29.9968 5.62817 29.9968C6.32935 29.9968 6.98853 29.7236 7.48438 29.2278C7.98022 28.7322 8.25317 28.0728 8.25317 27.3716C8.25317 26.6707 7.98022 26.0112 7.48438 25.5156C6.98853 25.0198 6.32935 24.7468 5.62817 24.7468ZM6.60034 28.344C6.34082 28.6038 5.99536 28.7468 5.62817 28.7468C5.26099 28.7468 4.91577 28.6038 4.65601 28.344C4.39624 28.0842 4.25317 27.739 4.25317 27.3718C4.25317 27.0044 4.39624 26.6592 4.65601 26.3994C4.91553 26.1396 5.26099 25.9968 5.62817 25.9968C5.99536 25.9968 6.34058 26.1399 6.60034 26.3994C6.86011 26.6592 7.00317 27.0044 7.00317 27.3718C7.00317 27.739 6.86011 28.0842 6.60034 28.344Z" fill="#1D4989"/>
<path d="M28.5555 6.0835C29.2349 5.06421 29.1258 3.67065 28.2271 2.77197C27.7312 2.27637 27.0721 2.00317 26.3709 2.00317C25.6697 2.00317 25.0105 2.27637 24.5147 2.77197C24.0188 3.26782 23.7459 3.927 23.7459 4.62817C23.7459 5.32935 24.0188 5.98853 24.5147 6.48438C25.0105 6.98022 25.6697 7.25317 26.3709 7.25317C26.8189 7.25317 27.2495 7.14136 27.6316 6.9314C29.6443 9.51172 30.7491 12.7166 30.7491 16C30.7491 24.1333 24.1324 30.75 15.9991 30.75C15.02 30.75 14.041 30.6536 13.0896 30.4631C12.7513 30.3955 12.4219 30.615 12.354 30.9534C12.2864 31.292 12.5059 31.6211 12.8443 31.689C13.8763 31.8953 14.9378 32 15.9991 32C20.2727 32 24.2908 30.3357 27.3128 27.3137C30.3347 24.2917 31.9991 20.2737 31.9991 16C31.9991 12.4048 30.7781 8.89624 28.5555 6.0835ZM25.3987 5.60059C25.1389 5.34082 24.9959 4.99561 24.9959 4.62817C24.9959 4.26099 25.1389 3.91577 25.3987 3.65601C25.6582 3.39624 26.0037 3.25317 26.3709 3.25317C26.7381 3.25317 27.0835 3.39624 27.3433 3.65601C27.8792 4.19214 27.8792 5.06445 27.3433 5.60059C27.0835 5.86011 26.7381 6.00317 26.3709 6.00317C26.0034 6.00317 25.6582 5.86011 25.3987 5.60059Z" fill="#1D4989"/>
<path d="M13.4199 26.75C13.4199 27.0952 13.7 27.375 14.0449 27.375H17.9529C18.2981 27.375 18.5779 27.0952 18.5779 26.75V25.5383C19.3997 25.3171 20.1853 24.9915 20.9236 24.5662L21.7791 25.4216C21.8962 25.5388 22.0552 25.6047 22.2212 25.6047C22.3867 25.6047 22.5459 25.5388 22.6631 25.4214L25.4253 22.6572C25.6692 22.4131 25.6692 22.0173 25.4253 21.7734L24.5708 20.9189C24.9961 20.1807 25.3218 19.395 25.543 18.5732H26.75C27.0952 18.5732 27.375 18.2935 27.375 17.9482V14.0403C27.375 13.6951 27.0952 13.4153 26.75 13.4153H25.5427C25.3215 12.5938 24.9961 11.8081 24.5708 11.0698L25.4207 10.22C25.5378 10.1028 25.6038 9.9436 25.6038 9.77783C25.6035 9.61206 25.5376 9.45288 25.4204 9.33569L22.656 6.57349C22.4121 6.32959 22.0164 6.32959 21.7722 6.57373L20.9236 7.42261C20.1853 6.99731 19.3997 6.67163 18.5779 6.45044V5.25C18.5779 4.90479 18.2981 4.625 17.9529 4.625H14.0449C13.7 4.625 13.4199 4.90479 13.4199 5.25V6.45068C12.5984 6.67163 11.8127 6.99731 11.0745 7.42261L10.2256 6.57373C9.98169 6.32983 9.58594 6.32959 9.3418 6.57349L6.57764 9.33594C6.46021 9.45312 6.39429 9.61206 6.39429 9.77783C6.39429 9.9436 6.46021 10.1028 6.57739 10.22L7.42725 11.0698C7.00195 11.8081 6.67627 12.5935 6.45508 13.4153H5.25024C4.90503 13.4153 4.62524 13.6951 4.62524 14.04L4.62305 17.948C4.6228 18.1138 4.68872 18.2729 4.80591 18.3901C4.9231 18.5073 5.08203 18.5732 5.24805 18.5732H6.45508C6.67627 19.395 7.00195 20.1807 7.42725 20.9189L6.57275 21.7734C6.32886 22.0173 6.32861 22.4131 6.57275 22.6572L9.33496 25.4214C9.45215 25.5386 9.61108 25.6047 9.77686 25.6047H9.7771C9.94287 25.6047 10.1018 25.5388 10.219 25.4216L11.0742 24.5662C11.8127 24.9915 12.5984 25.3171 13.4199 25.5383V26.75ZM11.3193 23.2517C11.072 23.0918 10.7466 23.1265 10.5381 23.3347L9.7771 24.0957L7.89844 22.2156L8.65869 21.4551C8.86694 21.2468 8.90161 20.9214 8.7417 20.6741C8.17505 19.7971 7.77661 18.8359 7.55786 17.8169C7.49585 17.5291 7.24146 17.3232 6.94678 17.3232H5.87329L5.87476 14.6653H6.94678C7.24146 14.6653 7.49585 14.4597 7.55786 14.1716C7.77661 13.1528 8.17505 12.1917 8.7417 11.3147C8.90161 11.0674 8.86694 10.7419 8.65869 10.5337L7.90332 9.77808L9.78345 7.89941L10.5381 8.6543C10.7466 8.86255 11.0718 8.89697 11.3193 8.7373C12.196 8.17065 13.1572 7.77222 14.1763 7.55347C14.4641 7.49146 14.6699 7.23682 14.6699 6.94238V5.875H17.3279V6.94214C17.3279 7.23682 17.5334 7.49146 17.8215 7.55322C18.8403 7.77222 19.8018 8.17041 20.6785 8.73706C20.9258 8.89697 21.2512 8.86255 21.4595 8.65405L22.2144 7.89941L24.0945 9.77808L23.3391 10.5334C23.1306 10.7419 23.0962 11.0674 23.2561 11.3147C23.8228 12.1917 24.2209 13.1528 24.4399 14.1716C24.5017 14.4597 24.7563 14.6653 25.051 14.6653H26.125V17.3232H25.051C24.7563 17.3232 24.502 17.5291 24.4399 17.8169C24.2212 18.8357 23.8228 19.7971 23.2561 20.6738C23.0962 20.9214 23.1309 21.2468 23.3391 21.4551L24.0994 22.2153L22.2207 24.0955L21.4597 23.3347C21.2512 23.1262 20.9258 23.0918 20.6785 23.2517C19.8015 23.8184 18.8403 24.2166 17.8215 24.4355C17.5334 24.4976 17.3279 24.752 17.3279 25.0466V26.125H14.6699V25.0466C14.6699 24.7522 14.4641 24.4976 14.1763 24.4355C13.1575 24.2168 12.1963 23.8184 11.3193 23.2517Z" fill="#1D4989"/>
<path d="M21.1646 16C21.1646 13.1523 18.8479 10.8357 16.0002 10.8357C13.1526 10.8357 10.8359 13.1523 10.8359 16C10.8359 18.8477 13.1526 21.1643 16.0002 21.1643C18.8479 21.1643 21.1646 18.8477 21.1646 16ZM12.0859 16C12.0859 13.8416 13.8418 12.0857 16.0002 12.0857C18.1587 12.0857 19.9146 13.8418 19.9146 16C19.9146 18.1582 18.1587 19.9143 16.0002 19.9143C13.8418 19.9143 12.0859 18.1584 12.0859 16Z" fill="#1D4989"/>
<path d="M21.7539 2.36377C21.9185 2.36377 22.0796 2.29688 22.1958 2.18066C22.312 2.06372 22.3789 1.90259 22.3789 1.73804C22.3789 1.57446 22.3123 1.41309 22.1958 1.29614C22.0796 1.17993 21.9185 1.11304 21.7539 1.11304C21.5889 1.11304 21.4285 1.17993 21.3123 1.29614C21.1958 1.41309 21.1289 1.57373 21.1289 1.73804C21.1289 1.90308 21.1958 2.06372 21.3123 2.18066C21.4285 2.29688 21.5889 2.36377 21.7539 2.36377Z" fill="#1D4989"/>
<path d="M10.2734 29.6475C10.1091 29.6475 9.94775 29.7144 9.83154 29.8306C9.71533 29.9468 9.64844 30.1082 9.64844 30.2725C9.64844 30.4375 9.71533 30.5981 9.83154 30.7144C9.94775 30.8306 10.1091 30.8975 10.2734 30.8975C10.4377 30.8975 10.5991 30.8306 10.7153 30.7144C10.8315 30.5981 10.8984 30.4368 10.8984 30.2725C10.8984 30.1082 10.8315 29.9468 10.7153 29.8306C10.5991 29.7144 10.4377 29.6475 10.2734 29.6475Z" fill="#1D4989"/>
</g>
<defs>
<clipPath id="clip0">
<rect width="32" height="32" fill="white"/>
</clipPath>
</defs>
</svg>
