<svg width="32" height="32" viewBox="0 0 32 32" fill="none" xmlns="http://www.w3.org/2000/svg">
<path d="M29.5264 0H5.48677C5.22733 0 5.0171 0.210223 5.0171 0.469667V16C5.0171 16.2594 5.22733 16.4697 5.48677 16.4697C5.74622 16.4697 5.95644 16.2594 5.95644 16V0.939335H29.0567V28.5245C29.0567 29.9229 27.919 31.0607 26.5205 31.0607C25.1221 31.0607 23.9843 29.9229 23.9843 28.5245C23.9843 28.265 23.7741 28.0548 23.5147 28.0548H5.95644V18.2139C5.95644 17.9544 5.74622 17.7442 5.48677 17.7442C5.22733 17.7442 5.0171 17.9544 5.0171 18.2139V28.0548H2.47357C2.21413 28.0548 2.00391 28.265 2.00391 28.5245C2.00391 30.4409 3.56301 32 5.47944 32H5.48677H26.5205C28.437 32 29.9961 30.4409 29.9961 28.5245V0.469667C29.9961 0.210223 29.7859 0 29.5264 0ZM5.48677 31.0607H5.47944C4.2414 31.0607 3.20776 30.1689 2.98683 28.9941H23.0766C23.1865 29.8046 23.5769 30.5271 24.1465 31.0607H5.48677Z" fill="#1E4A8A"/>
<path d="M26.9902 3.47553C26.9902 3.21608 26.78 3.00586 26.5205 3.00586H8.48529C8.22585 3.00586 8.01562 3.21608 8.01562 3.47553V7.48335C8.01562 7.7428 8.22585 7.95302 8.48529 7.95302H26.5205C26.78 7.95302 26.9902 7.7428 26.9902 7.48335V3.47553ZM26.0508 7.01369H8.95496V3.94519H26.0508V7.01369Z" fill="#1E4A8A"/>
<path d="M8.48529 10.9589H11.4912C11.7506 10.9589 11.9608 10.7486 11.9608 10.4892C11.9608 10.2298 11.7506 10.0195 11.4912 10.0195H8.48529C8.22585 10.0195 8.01562 10.2298 8.01562 10.4892C8.01562 10.7486 8.22585 10.9589 8.48529 10.9589Z" fill="#1E4A8A"/>
<path d="M26.5195 10.0195H13.9951C13.7356 10.0195 13.5254 10.2298 13.5254 10.4892C13.5254 10.7486 13.7356 10.9589 13.9951 10.9589H26.5195C26.779 10.9589 26.9892 10.7486 26.9892 10.4892C26.9892 10.2298 26.779 10.0195 26.5195 10.0195Z" fill="#1E4A8A"/>
<path d="M8.48529 12.9628H13.9961C14.2555 12.9628 14.4657 12.7525 14.4657 12.4931C14.4657 12.2337 14.2555 12.0234 13.9961 12.0234H8.48529C8.22585 12.0234 8.01562 12.2337 8.01562 12.4931C8.01562 12.7525 8.22585 12.9628 8.48529 12.9628Z" fill="#1E4A8A"/>
<path d="M26.5195 12.0234H15.999C15.7395 12.0234 15.5293 12.2337 15.5293 12.4931C15.5293 12.7525 15.7395 12.9628 15.999 12.9628H26.5195C26.779 12.9628 26.9892 12.7525 26.9892 12.4931C26.9892 12.2337 26.779 12.0234 26.5195 12.0234Z" fill="#1E4A8A"/>
<path d="M8.48529 25.9884H11.9921C12.2516 25.9884 12.4618 25.7782 12.4618 25.5187C12.4618 25.2593 12.2516 25.0491 11.9921 25.0491H8.48529C8.22585 25.0491 8.01562 25.2593 8.01562 25.5187C8.01562 25.7782 8.22585 25.9884 8.48529 25.9884Z" fill="#1E4A8A"/>
<path d="M13.9951 25.9884H26.5195C26.779 25.9884 26.9892 25.7782 26.9892 25.5187C26.9892 25.2593 26.779 25.0491 26.5195 25.0491H13.9951C13.7356 25.0491 13.5254 25.2593 13.5254 25.5187C13.5254 25.7782 13.7356 25.9884 13.9951 25.9884Z" fill="#1E4A8A"/>
<path d="M11.4912 23.4833C11.7506 23.4833 11.9608 23.2731 11.9608 23.0136V22.4814H11.9921C13.0798 22.4814 13.9647 21.5964 13.9647 20.5088C13.9647 19.4211 13.0798 18.5361 11.9921 18.5361H10.9902C10.4204 18.5361 9.95691 18.0726 9.95691 17.5029C9.95691 16.9331 10.4204 16.4696 10.9902 16.4696H13.4951C13.7545 16.4696 13.9647 16.2594 13.9647 15.9999C13.9647 15.7405 13.7545 15.5303 13.4951 15.5303H11.9608V14.998C11.9608 14.7385 11.7506 14.5283 11.4912 14.5283C11.2317 14.5283 11.0215 14.7385 11.0215 14.998V15.5303H10.9902C9.90249 15.5303 9.01758 16.4152 9.01758 17.5029C9.01758 18.5906 9.90249 19.4755 10.9902 19.4755H11.9921C12.5619 19.4755 13.0254 19.939 13.0254 20.5088C13.0254 21.0785 12.5619 21.542 11.9921 21.542H9.48725C9.2278 21.542 9.01758 21.7522 9.01758 22.0117C9.01758 22.2711 9.2278 22.4814 9.48725 22.4814H11.0215V23.0136C11.0215 23.2731 11.2317 23.4833 11.4912 23.4833Z" fill="#1E4A8A"/>
<path d="M18.0039 21.542H15.499C15.2395 21.542 15.0293 21.7522 15.0293 22.0117C15.0293 22.2711 15.2395 22.4814 15.499 22.4814H17.0332V23.0136C17.0332 23.2731 17.2434 23.4833 17.5029 23.4833C17.7623 23.4833 17.9725 23.2731 17.9725 23.0136V22.4814H18.0039C19.0915 22.4814 19.9765 21.5964 19.9765 20.5088C19.9765 19.4211 19.0915 18.5361 18.0039 18.5361H17.0019C16.4322 18.5361 15.9686 18.0726 15.9686 17.5029C15.9686 16.9331 16.4322 16.4696 17.0019 16.4696H19.5068C19.7662 16.4696 19.9765 16.2594 19.9765 15.9999C19.9765 15.7405 19.7662 15.5303 19.5068 15.5303H17.9725V14.998C17.9725 14.7385 17.7623 14.5283 17.5029 14.5283C17.2434 14.5283 17.0332 14.7385 17.0332 14.998V15.5303H17.0019C15.9142 15.5303 15.0293 16.4152 15.0293 17.5029C15.0293 18.5906 15.9142 19.4755 17.0019 19.4755H18.0039C18.5736 19.4755 19.0371 19.939 19.0371 20.5088C19.0371 21.0785 18.5736 21.542 18.0039 21.542Z" fill="#1E4A8A"/>
<path d="M24.0156 21.542H21.5107C21.2512 21.542 21.041 21.7522 21.041 22.0117C21.041 22.2711 21.2512 22.4814 21.5107 22.4814H23.0449V23.0136C23.0449 23.2731 23.2552 23.4833 23.5146 23.4833C23.774 23.4833 23.9843 23.2731 23.9843 23.0136V22.4814H24.0156C25.1033 22.4814 25.9882 21.5964 25.9882 20.5088C25.9882 19.4211 25.1033 18.5361 24.0156 18.5361H23.0136C22.4439 18.5361 21.9804 18.0726 21.9804 17.5029C21.9804 16.9331 22.4439 16.4696 23.0136 16.4696H25.5185C25.778 16.4696 25.9882 16.2594 25.9882 15.9999C25.9882 15.7405 25.778 15.5303 25.5185 15.5303H23.9843V14.998C23.9843 14.7385 23.774 14.5283 23.5146 14.5283C23.2552 14.5283 23.0449 14.7385 23.0449 14.998V15.5303H23.0136C21.9259 15.5303 21.041 16.4152 21.041 17.5029C21.041 18.5906 21.9259 19.4755 23.0136 19.4755H24.0156C24.5853 19.4755 25.0488 19.939 25.0488 20.5088C25.0488 21.0785 24.5853 21.542 24.0156 21.542Z" fill="#1E4A8A"/>
</svg>
